<svg width="66" height="49" viewBox="0 0 66 49" fill="none" xmlns="http://www.w3.org/2000/svg">
<path fill-rule="evenodd" clip-rule="evenodd" d="M33 14C36.866 14 40 10.866 40 7C40 3.13401 36.866 0 33 0C29.134 0 26 3.13401 26 7C26 10.866 29.134 14 33 14ZM33 12C35.7614 12 38 9.76142 38 7C38 4.23858 35.7614 2 33 2C30.2386 2 28 4.23858 28 7C28 9.76142 30.2386 12 33 12Z" fill="white"/>
<path fill-rule="evenodd" clip-rule="evenodd" d="M57 25C60.866 25 64 21.866 64 18C64 14.134 60.866 11 57 11C53.134 11 50 14.134 50 18C50 21.866 53.134 25 57 25ZM57 23C59.7614 23 62 20.7614 62 18C62 15.2386 59.7614 13 57 13C54.2386 13 52 15.2386 52 18C52 20.7614 54.2386 23 57 23Z" fill="white"/>
<path fill-rule="evenodd" clip-rule="evenodd" d="M9 25C12.866 25 16 21.866 16 18C16 14.134 12.866 11 9 11C5.13401 11 2 14.134 2 18C2 21.866 5.13401 25 9 25ZM9 23C11.7614 23 14 20.7614 14 18C14 15.2386 11.7614 13 9 13C6.23858 13 4 15.2386 4 18C4 20.7614 6.23858 23 9 23Z" fill="white"/>
<path fill-rule="evenodd" clip-rule="evenodd" d="M42 25V38H24V25C24 20.0294 28.0294 16 33 16C37.9706 16 42 20.0294 42 25ZM40 36V25C40 21.134 36.866 18 33 18C29.134 18 26 21.134 26 25V36H40Z" fill="white"/>
<path fill-rule="evenodd" clip-rule="evenodd" d="M18 49H0V36C0 31.0294 4.02944 27 9 27C13.9706 27 18 31.0294 18 36V49ZM16 47V36C16 32.134 12.866 29 9 29C5.13401 29 2 32.134 2 36V47H16Z" fill="white"/>
<path fill-rule="evenodd" clip-rule="evenodd" d="M66 36V49H48V36C48 31.0294 52.0294 27 57 27C61.9706 27 66 31.0294 66 36ZM64 47V36C64 32.134 60.866 29 57 29C53.134 29 50 32.134 50 36V47H64Z" fill="white"/>
</svg>
