<svg width="60" height="49" viewBox="0 0 60 49" fill="none" xmlns="http://www.w3.org/2000/svg">
<path fill-rule="evenodd" clip-rule="evenodd" d="M20.7598 1.75997C21.8971 0.700156 23.4015 0.12313 24.9559 0.150596C26.5103 0.177939 27.9934 0.8077 29.0927 1.90694C30.192 3.00631 30.8217 4.48934 30.8491 6.04378C30.8766 7.59823 30.2996 9.1025 29.2397 10.24L20.7098 18.78C20.6653 18.8248 20.6168 18.8652 20.5649 18.9007C20.5084 18.9394 20.4479 18.9724 20.3843 18.9989C20.2624 19.0496 20.1318 19.0758 19.9997 19.0758C19.8677 19.0758 19.7371 19.0496 19.6152 18.9989C19.5395 18.9674 19.4682 18.9267 19.4028 18.878C19.3628 18.8483 19.325 18.8155 19.2897 18.78L10.7598 10.24C9.69988 9.1025 9.12292 7.59823 9.15032 6.04378C9.17779 4.48934 9.80749 3.00631 10.9068 1.90694C12.0061 0.8077 13.4891 0.177939 15.0436 0.150596C16.598 0.12313 18.1023 0.700156 19.2397 1.75997L19.9997 2.50997L20.7598 1.75997ZM27.8298 8.82992C28.5803 8.07943 29.0019 7.06136 29.0019 5.99996C29.0019 4.93844 28.5803 3.92049 27.8298 3.17C27.4581 2.7983 27.0169 2.5035 26.5313 2.30233C26.0458 2.10128 25.5253 1.99776 24.9997 1.99776C23.9383 1.99776 22.9203 2.41939 22.1697 3.17L20.7098 4.63998C20.6168 4.73373 20.5062 4.80807 20.3843 4.85885C20.3354 4.87923 20.2851 4.89559 20.2338 4.90792C20.1573 4.92635 20.0788 4.93575 19.9997 4.93575C19.9216 4.93575 19.8439 4.9266 19.7681 4.90865C19.716 4.8962 19.6648 4.8796 19.6152 4.85885C19.578 4.84334 19.5419 4.82564 19.5071 4.80587C19.4275 4.76095 19.3544 4.70516 19.2897 4.63998L17.8298 3.17C17.0792 2.41939 16.0612 1.99776 14.9997 1.99776C13.9383 1.99776 12.9203 2.41939 12.1697 3.17C11.4192 3.92049 10.9975 4.93844 10.9975 5.99996C10.9975 7.06136 11.4192 8.07943 12.1697 8.82992L19.9997 16.66L27.8298 8.82992Z" fill="white"/>
<path fill-rule="evenodd" clip-rule="evenodd" d="M47 23C47 21.8953 47.8954 21 49 21H58C59.1045 21 60 21.8953 60 23V45C60 46.1046 59.1045 47 58 47H49C47.8954 47 47 46.1046 47 45V43H44.8112C44.3813 43 43.9542 43.0693 43.5463 43.2053L27.9398 48.4074C26.6435 48.8394 25.2269 48.7223 24.0193 48.083L2.41528 36.6455C0.608147 35.6888 -0.186469 33.5233 0.572869 31.6247L0.8518 30.9275C1.45336 29.4235 3.14019 28.6688 4.66247 29.2222L17.9999 34.0722V32.5C17.9999 30.2909 19.7907 28.5 21.9999 28.5H28.4428C29.0256 28.5 29.6038 28.398 30.1515 28.1989L37.1778 25.6439C39.259 24.887 41.4565 24.5 43.671 24.5H47V23ZM49 23H58V45H49V23ZM47 26.5H43.671C41.6896 26.5 39.7234 26.8464 37.8614 27.5235L30.835 30.0786C30.0682 30.3574 29.2587 30.5 28.4428 30.5H21.9999C20.8953 30.5 19.9999 31.3953 19.9999 32.5V34.5H31.4999C33.709 34.5 35.4999 36.2909 35.4999 38.5V39.5H33.4999V38.5C33.4999 37.3953 32.6044 36.5 31.4999 36.5H18.8237L3.979 31.1019C3.47155 30.9173 2.90929 31.169 2.70873 31.6702L2.42986 32.3675C2.05016 33.3167 2.4475 34.3996 3.35101 34.8779L24.955 46.3154C25.6796 46.6989 26.5296 46.7692 27.3074 46.51L42.9139 41.3078C43.5257 41.104 44.1663 41 44.8112 41H47V26.5Z" fill="white"/>
</svg>
