<svg width="48" height="48" viewBox="0 0 48 48" fill="none" xmlns="http://www.w3.org/2000/svg">
<path fill-rule="evenodd" clip-rule="evenodd" d="M13 18V28H22V18H13ZM20 20H15V26H20V20Z" fill="white"/>
<path fill-rule="evenodd" clip-rule="evenodd" d="M13 5V15H22V5H13ZM20 7H15V13H20V7Z" fill="white"/>
<path fill-rule="evenodd" clip-rule="evenodd" d="M26 18V28H35V18H26ZM33 20H28V26H33V20Z" fill="white"/>
<path fill-rule="evenodd" clip-rule="evenodd" d="M26 5V15H35V5H26ZM33 7H28V13H33V7Z" fill="white"/>
<path fill-rule="evenodd" clip-rule="evenodd" d="M7 0V46H0V48H48V46H41V0H7ZM39 2H9V46H17V32H31V46H39V2ZM29 46H19V34H29V46Z" fill="white"/>
</svg>
