<svg width="48" height="51" viewBox="0 0 48 51" fill="none" xmlns="http://www.w3.org/2000/svg">
<path d="M11.2134 19.5942L23.9994 4.3353L36.7855 19.5942H32.0379C30.9986 19.5942 30.1325 20.3901 30.045 21.4257L27.9784 45.8735C27.9087 46.699 28.5213 47.4247 29.3468 47.4945C30.1723 47.5643 30.898 46.9517 30.9678 46.1262L32.9569 22.5942H38.9281C40.6263 22.5942 41.5518 20.6113 40.4611 19.3096L25.5324 1.49378C24.733 0.539834 23.2658 0.53983 22.4665 1.49378L7.53778 19.3096C6.44707 20.6113 7.37251 22.5942 9.07073 22.5942H15.0419L17.0311 46.1262C17.1009 46.9517 17.8266 47.5643 18.6521 47.4945C19.4776 47.4247 20.0902 46.699 20.0204 45.8735L17.9539 21.4257C17.8663 20.3901 17.0002 19.5942 15.961 19.5942H11.2134Z" fill="#FF8664"/>
<path d="M47.4039 25.5265C47.6948 24.7508 47.3018 23.8862 46.5261 23.5953C45.7504 23.3045 44.8858 23.6975 44.5949 24.4731L35.5949 48.4731C35.3041 49.2488 35.6971 50.1134 36.4727 50.4043C37.2484 50.6952 38.113 50.3022 38.4039 49.5265L47.4039 25.5265Z" fill="#FF8664"/>
<path d="M1.47275 23.5953C0.697069 23.8862 0.304056 24.7508 0.594935 25.5265L9.59493 49.5265C9.88582 50.3022 10.7504 50.6952 11.5261 50.4043C12.3018 50.1134 12.6948 49.2488 12.4039 48.4731L3.40393 24.4731C3.11305 23.6975 2.24843 23.3045 1.47275 23.5953Z" fill="#FF8664"/>
</svg>
