<svg width="48" height="46" viewBox="0 0 48 46" fill="none" xmlns="http://www.w3.org/2000/svg">
<path fill-rule="evenodd" clip-rule="evenodd" d="M42 18.5C45.5 18.5 48 20.2 48 23.3999C48 24.8 47.1 26.2 45.8 27.2C46.4 27.8999 46.8 28.8999 46.8 29.7C46.8 31.3 45.6 32.6001 44.5 33.3999C44.8 34 45 34.8 45 35.7C45 37.5 43.8 39.1001 41.9 39.8C41.9376 39.9128 41.9611 40.0398 41.9758 40.1758C41.9918 40.3247 41.9973 40.4844 41.9991 40.6475C42 40.731 42 40.8154 42 40.8999C42 43 39.8 45.3999 36.8 45.3999H22.5C20.6 45.3999 18.9 44.6001 17.3 43.8C16.537 43.3892 15.7397 43.0129 14.9888 42.772C14.8583 44.3367 13.6082 45.5 12 45.5H3C1.29999 45.5 0 44.2 0 42.5V21.5C0 19.8 1.29999 18.5 3 18.5H12C13.214 18.5 14.224 19.1631 14.7023 20.1611C17.7372 17.7141 21.0898 14.3899 22.5 10.6001L24 2.5C24.1 2.1001 24.3 1.69995 24.7 1.5C26.1 0.600098 27.1 0.5 28.5 0.5C30.6 0.5 33 2.30005 33 11C33 13.2 32.6 15.8 31.9 18.5H42ZM15 23.7V39.6001C16.3 39.8999 17.5 40.5 18.7 41.1001C20 41.8 21.4 42.3999 22.5 42.3999H36.8C38 42.3999 39 41.8 39 40.8999C39 40.2021 38.9049 39.7327 38.8309 39.3669C38.7351 38.894 38.6744 38.5947 38.9 38.2C38.9422 38.1367 39.0055 38.0791 39.0853 38.0247C39.1984 37.9478 39.3447 37.8774 39.5112 37.8074C39.6308 37.7571 39.7608 37.707 39.8964 37.6548C40.7032 37.3442 41.7086 36.957 41.9 36V35.7C41.9 34.8147 41.634 34.2681 41.4111 33.8103C41.1808 33.3372 40.9967 32.959 41.2 32.3999C41.3155 32.0535 41.7275 31.8403 42.1906 31.6008C42.9302 31.2183 43.8 30.7686 43.8 29.6001C43.8 28.6431 43.376 28.0818 43.024 27.6157C42.7139 27.2051 42.4595 26.8682 42.6 26.3999C42.7132 26.0605 43.0683 25.8206 43.4667 25.5515C44.1243 25.1072 44.9 24.5833 44.9 23.3999C44.9 22.2 43.5 21.5 42 21.5H28.5C27.7 21.5 27 20.8 27 20C27 19.2 27.7 18.5 28.5 18.5H28.9C29.7 15.7 30.1 13.2 30.1 11C30.1 5.30005 28.9 3.5 28.6 3.5C27.8 3.5 27.4 3.5 26.9 3.69995L25.5 11.2C25.4475 11.2 25.4225 11.2275 25.4107 11.2681C25.4 11.3049 25.4 11.3525 25.4 11.3999C23.5 16.6001 18.7 20.8999 15 23.7ZM3 42.5V21.5H12V42.5H3Z" fill="#FF8664"/>
</svg>
