<svg width="44" height="44" viewBox="0 0 44 44" fill="none" xmlns="http://www.w3.org/2000/svg">
<path fill-rule="evenodd" clip-rule="evenodd" d="M1.14876 1.58636C0.670138 0.925144 1.14255 0 1.95881 0H42.0421C42.8584 0 43.3308 0.925142 42.8522 1.58636L29.047 20.6583C28.8001 20.9994 28.6671 21.4098 28.6671 21.831V34.5598C28.6671 36.1396 27.9206 37.6264 26.6536 38.57L21.7229 42.2419C19.0843 44.2069 15.3338 42.3237 15.3338 39.0338V21.831C15.3338 21.4098 15.2009 20.9994 14.9539 20.6583L1.14876 1.58636ZM5.87547 3L17.3841 18.8992C18.0014 19.7521 18.3338 20.7781 18.3338 21.831V39.0338C18.3338 39.8563 19.2714 40.3271 19.9311 39.8358L24.8617 36.1639C25.3685 35.7865 25.6671 35.1917 25.6671 34.5598V21.831C25.6671 20.7781 25.9995 19.7521 26.6169 18.8992L38.1255 3H5.87547Z" fill="#FF8664"/>
</svg>
