<svg width="45" height="38" viewBox="0 0 45 38" fill="none" xmlns="http://www.w3.org/2000/svg">
<path d="M2 0.5C1.17157 0.5 0.5 1.17157 0.5 2C0.5 2.82843 1.17157 3.5 2 3.5H33.0001C33.8285 3.5 34.5001 4.17157 34.5001 5V7H12.5001C11.6717 7 11.0001 7.67157 11.0001 8.5C11.0001 9.32843 11.6717 10 12.5001 10H36.0001C37.1047 10 38.0001 10.8954 38.0001 12V12.5C38.0001 13.3284 38.6717 14 39.5001 14C40.3285 14 41.0001 13.3284 41.0001 12.5V12C41.0001 9.76118 39.5286 7.86603 37.5001 7.2289V5C37.5001 2.51472 35.4854 0.5 33.0001 0.5H2Z" fill="#FF8664"/>
<path fill-rule="evenodd" clip-rule="evenodd" d="M6.50009 8.5C6.50009 7.67157 5.82852 7 5.00009 7C4.17166 7 3.50009 7.67157 3.50009 8.5V29.5C3.50009 34.1944 7.30567 38 12.0001 38H35.5001C38.5376 38 41.0001 35.5375 41.0001 32.5L41 27H42C43.3807 27 44.5 25.8807 44.5 24.5L44.5001 19.5C44.5001 18.1193 43.3808 17 42.0001 17H32C29.5147 17 27.5 19.0147 27.5 21.5V22.5C27.5 24.9853 29.5147 27 32 27H38L38.0001 32.5C38.0001 33.8807 36.8808 35 35.5001 35H12.0001C8.96252 35 6.50009 32.5376 6.50009 29.5V8.5ZM30.5 21.5C30.5 20.6716 31.1716 20 32 20H41.5001L41.5 24H32C31.1716 24 30.5 23.3284 30.5 22.5V21.5Z" fill="#FF8664"/>
</svg>
