<svg width="48" height="40" viewBox="0 0 48 40" fill="none" xmlns="http://www.w3.org/2000/svg">
<path fill-rule="evenodd" clip-rule="evenodd" d="M25 37V10.793C26.8317 10.2749 28.2749 8.83167 28.793 7H39.5217L33.8754 18.8059C31.6148 23.5327 35.0604 29 40.2999 29C45.3864 29 48.8329 23.8215 46.8694 19.1294L41.7935 7H45.5C46.3284 7 47 6.32843 47 5.5C47 4.67157 46.3284 4 45.5 4H28.793C28.14 1.6915 26.0176 0 23.5 0C20.9824 0 18.86 1.6915 18.207 4H1.5C0.671574 4 0 4.67157 0 5.5C0 6.32843 0.671574 7 1.5 7H6.52174L0.87542 18.8059C-1.3852 23.5327 2.06042 29 7.29993 29C12.3864 29 15.8329 23.8215 13.8694 19.1294L8.79348 7H18.207C18.7251 8.83167 20.1683 10.2749 22 10.793V37H10.5C9.67157 37 9 37.6716 9 38.5C9 39.3284 9.67157 40 10.5 40H36.5C37.3284 40 38 39.3284 38 38.5C38 37.6716 37.3284 37 36.5 37H25ZM23.5 8C24.8807 8 26 6.88071 26 5.5C26 4.11929 24.8807 3 23.5 3C22.1193 3 21 4.11929 21 5.5C21 6.88071 22.1193 8 23.5 8ZM10.9816 20H3.6298L7.55076 11.8016L10.9816 20ZM3.33142 23H11.2685C10.7881 24.6809 9.2529 26 7.29993 26C5.33825 26 3.81107 24.6758 3.33142 23ZM36.6298 20L40.5508 11.8016L43.9816 20H36.6298ZM36.3314 23C36.8111 24.6758 38.3382 26 40.2999 26C42.2529 26 43.7881 24.6809 44.2685 23H36.3314Z" fill="#FF8664"/>
</svg>
