<svg width="48" height="49" viewBox="0 0 48 49" fill="none" xmlns="http://www.w3.org/2000/svg">
<path d="M18.5 13C17.6716 13 17 13.6716 17 14.5C17 15.3284 17.6716 16 18.5 16H29.5C30.3284 16 31 15.3284 31 14.5C31 13.6716 30.3284 13 29.5 13H18.5Z" fill="#FF8664"/>
<path d="M17 23.5C17 22.6716 17.6716 22 18.5 22H23.5C24.3284 22 25 22.6716 25 23.5C25 24.3284 24.3284 25 23.5 25H18.5C17.6716 25 17 24.3284 17 23.5Z" fill="#FF8664"/>
<path fill-rule="evenodd" clip-rule="evenodd" d="M38 6.5V34H39.9996C44.1417 34 47.4996 37.3579 47.4996 41.5C47.4996 45.6421 44.1417 49 39.9996 49H13.5C10.5856 49 8.20071 45.9089 8.01202 42H8V14.1821C7.24994 14.7051 6.40024 15 5.5 15C2.46243 15 0 11.6421 0 7.5C0 3.35791 2.46243 0 5.5 0H31.5C35.0898 0 38 2.91016 38 6.5ZM8 7.5C8 9.00024 7.54993 10.2383 6.96988 11.0293C6.38852 11.822 5.83347 12 5.5 12C5.16653 12 4.61148 11.822 4.03012 11.0293C3.45007 10.2383 3 9.00024 3 7.5C3 5.99976 3.45007 4.76172 4.03012 3.9707C4.61148 3.17798 5.16653 3 5.5 3C5.83347 3 6.38852 3.17798 6.96988 3.9707C7.54993 4.76172 8 5.99976 8 7.5ZM9.90039 3C10.5222 4.12866 10.9158 5.50464 10.988 7H11V34.8179C11.7501 34.2949 12.5998 34 13.5 34H35V6.5C35 4.56689 33.433 3 31.5 3H9.90039ZM19 41.5C19 39.8115 18.5909 38.2534 17.9004 37H39.9996C42.4849 37 44.4996 39.0146 44.4996 41.5C44.4996 43.9854 42.4849 46 39.9996 46H17.9004C18.5909 44.7466 19 43.1885 19 41.5ZM14.9699 45.0293C14.3885 45.822 13.8335 46 13.5 46C13.1665 46 12.6115 45.822 12.0301 45.0293C11.4501 44.2383 11 43.0002 11 41.5C11 39.9998 11.4501 38.7617 12.0301 37.9707C12.6115 37.178 13.1665 37 13.5 37C13.8335 37 14.3885 37.178 14.9699 37.9707C15.5499 38.7617 16 39.9998 16 41.5C16 43.0002 15.5499 44.2383 14.9699 45.0293Z" fill="#FF8664"/>
</svg>
