<svg width="53" height="32" viewBox="0 0 53 32" fill="none" xmlns="http://www.w3.org/2000/svg">
<path fill-rule="evenodd" clip-rule="evenodd" d="M1.60241 13.8661C1.79119 12.7974 2.22672 11.7437 2.78927 10.7422C6.82694 3.55428 15.9332 0.242841 24.0584 0.539794C31.386 0.8076 38.7361 4.08953 40.9609 11.0001H45.5C49.6421 11.0001 53 14.3579 53 18.5001C53 22.4976 49.8725 25.7647 45.9308 25.9879C45.4509 29.3861 42.5307 32.0001 39 32.0001C35.4735 32.0001 32.5561 29.3924 32.0709 26.0001H19.9291C19.4439 29.3924 16.5265 32.0001 13 32.0001C9.42531 32.0001 6.47645 29.3206 6.05235 25.8605C2.60294 25.1859 0 22.147 0 18.5001C0 16.751 0.598726 15.1418 1.60241 13.8661ZM6.08142 11.134C9.34628 6.45213 15.6384 3.80242 22 3.54231V11.0001H7.5C7.01501 11.0001 6.54078 11.0461 6.08142 11.134ZM6.33694 22.8483C7.24475 20.0351 9.88472 18.0001 13 18.0001C16.171 18.0001 18.8496 20.1086 19.7101 23.0001H32.2899C33.1504 20.1086 35.829 18.0001 39 18.0001C42.1693 18.0001 44.8466 20.1063 45.7087 22.9953C48.0971 22.8863 50 20.9154 50 18.5001C50 16.0148 47.9853 14.0001 45.5 14.0001H7.5C5.01472 14.0001 3 16.0148 3 18.5001C3 20.5831 4.4154 22.3357 6.33694 22.8483ZM37.7443 11.0001C35.8064 6.61967 30.8881 4.06476 25 3.59844V11.0001H37.7443ZM13 29.0001C15.2091 29.0001 17 27.2092 17 25.0001C17 22.7909 15.2091 21.0001 13 21.0001C10.7909 21.0001 9 22.7909 9 25.0001C9 27.2092 10.7909 29.0001 13 29.0001ZM39 29.0001C41.2091 29.0001 43 27.2092 43 25.0001C43 22.7909 41.2091 21.0001 39 21.0001C36.7909 21.0001 35 22.7909 35 25.0001C35 27.2092 36.7909 29.0001 39 29.0001Z" fill="#FF8664"/>
</svg>
