<svg width="48" height="37" viewBox="0 0 48 37" fill="none" xmlns="http://www.w3.org/2000/svg">
<path fill-rule="evenodd" clip-rule="evenodd" d="M7.56142 1.40345L3.9375 13H1.5C0.671573 13 0 13.6716 0 14.5C0 15.3284 0.671573 16 1.5 16H6V35C6 36.1046 6.89543 37 8 37H40C41.1046 37 42 36.1046 42 35V16H46.5C47.3284 16 48 15.3284 48 14.5C48 13.6716 47.3284 13 46.5 13H44.0625L40.4386 1.40345C40.1777 0.5685 39.4044 0 38.5296 0H9.47038C8.59561 0 7.82234 0.568499 7.56142 1.40345ZM10.2056 3L7.08057 13H40.9194L37.7944 3H10.2056ZM34 34H39V16H9V34H14V23C14 21.8954 14.8954 21 16 21H32C33.1046 21 34 21.8954 34 23V34ZM17 34H31V24H17V34Z" fill="#FF8664"/>
</svg>
