<svg width="44" height="44" viewBox="0 0 44 44" fill="none" xmlns="http://www.w3.org/2000/svg">
<g clip-path="url(#clip0)">
<path d="M2.94652 11.9575C3.4758 12.0984 4.04727 12.2388 4.53516 12.4436C5.25618 12.7298 6.16895 13.1612 7.08549 13.888C7.85355 14.5534 8.4312 15.179 8.77546 15.7021C9.74172 17.019 10.3515 18.5093 10.6467 20.1512C10.945 20.3795 11.3275 20.5856 11.6674 20.7712C11.8447 18.1315 13.1023 15.8157 14.9374 14.1254C15.0381 13.7444 15.1795 13.2573 15.2361 12.7291C15.1312 12.7726 15.0895 12.8154 14.9854 12.9222C13.7888 13.4016 12.4844 13.6925 11.1345 13.7309C9.78413 13.727 8.47297 13.4905 7.26432 13.0207C6.01321 12.5302 5.05448 11.804 4.5209 11.3255L4.52036 11.2833C4.24289 11.0337 3.98678 10.8048 3.75096 10.5125C3.46154 10.9803 3.17238 11.4693 2.94652 11.9575ZM13.4853 14.4183C12.4872 15.5703 11.6612 16.9734 11.2164 18.4982C10.7538 16.9639 9.97711 15.6235 8.90726 14.4555C9.58367 14.5524 10.3656 14.6479 11.1886 14.6585C11.948 14.6489 12.7275 14.5545 13.4853 14.4183Z" fill="url(#paint0_radial)"/>
<path d="M21.6376 0.435527L21.5954 0.436064C21.258 0.440368 20.9628 0.444133 20.6259 0.490612C20.867 1.20465 21.0238 1.91977 21.1186 2.74113C21.1659 3.14127 21.1502 3.56331 21.1559 4.00616C21.1577 4.15378 21.1594 4.28031 21.1191 4.42846C20.9229 7.23615 19.562 9.67905 17.5377 11.3711C17.4998 11.7091 17.5041 12.0465 17.5511 12.4255C17.6013 13.0576 17.6932 13.647 17.8251 14.0672C19.7654 15.7087 21.0189 18.076 21.2642 20.7726C19.4337 19.4672 18.0177 17.587 17.399 15.3803C17.2016 14.7922 17.0233 14.0352 16.9692 13.1079C16.9209 12.6234 16.9569 12.1378 17.0148 11.7152L17.0142 11.6731L17.0123 11.5254C17.2539 8.97028 18.4699 6.74015 20.242 5.11458C20.3829 4.58549 20.5229 3.99314 20.5349 3.27587C20.5311 2.98064 20.5276 2.70649 20.4817 2.41179C19.8631 1.8713 19.2865 1.30918 18.7926 0.619453C18.4557 0.665933 18.1191 0.733501 17.7822 0.779981C18.0204 1.26205 18.3199 1.5957 18.5984 1.92961C17.8795 1.79114 17.119 1.69538 16.3384 1.68424C15.516 1.69473 14.7579 1.78877 14.022 1.96689C14.0214 1.92471 14.0847 1.9239 14.0841 1.88173C11.8596 2.75377 9.82906 3.9608 8.05593 5.50201C8.0981 5.50147 8.14028 5.50093 8.20274 5.43686C7.14257 6.65261 6.35951 8.09683 5.93736 9.72627C5.78302 9.20095 5.58704 8.71834 5.39106 8.23573C5.16286 8.53392 4.95493 8.76858 4.7689 9.06624C5.05166 9.73756 5.2506 10.4521 5.3449 11.2313C5.83423 11.5626 6.40873 11.956 7.12895 12.1999C7.27711 12.2402 7.42526 12.2805 7.57369 12.3419C8.72816 11.9053 9.92669 11.6158 11.2344 11.6202C12.6687 11.623 14.0643 11.9005 15.3793 12.4743L15.3763 12.2423C15.3701 11.7573 15.3653 11.3777 15.2753 10.9359C13.3569 9.35745 12.0412 7.07524 11.7129 4.48515C13.5018 5.83329 14.94 7.79757 15.5181 10.1314C15.5192 10.2157 15.5619 10.2574 15.5633 10.3628C15.7617 11.0352 15.9 11.9615 15.8497 12.9745C15.8545 13.3541 15.8167 13.692 15.7577 14.0303C15.3714 16.8193 13.8835 19.2216 11.7097 20.7679C11.7526 20.8307 11.8159 20.8299 11.8586 20.8715C12.2406 21.0565 12.6854 21.1984 13.0241 21.2996C14.074 20.9276 15.2309 20.6809 16.4332 20.6866C17.9726 20.667 19.4744 21.0064 20.7691 21.6437C19.4695 22.2719 18.019 22.649 16.4371 22.6481C15.045 22.6447 13.7343 22.4084 12.5253 21.8754C12.4404 21.8343 12.3344 21.7935 12.186 21.7321C12.186 21.7321 12.1438 21.7326 12.1433 21.6904L12.1011 21.691C11.5706 21.4447 11.0819 21.1556 10.6985 20.8652C8.52814 19.3743 6.93722 17.0112 6.50211 14.317C6.41642 14.2127 6.26772 14.1302 6.11822 13.9845C5.35071 13.3404 4.58723 13.0127 3.90918 12.7682C3.38439 12.9648 2.79634 13.1621 2.20695 13.254C2.06363 13.5933 1.92032 13.9326 1.84027 14.271C2.3664 14.18 2.93444 14.0673 3.41705 13.8713C2.27199 15.0459 1.3405 16.4288 0.812378 18.0174C0.616826 19.2221 0.526716 20.4255 0.522304 21.7332C0.538441 22.9985 0.680839 24.2411 0.864876 25.441C1.38955 26.8896 2.27165 28.2493 3.31869 29.3116C2.85341 29.2121 2.36703 29.1128 1.88119 29.0558C2.03312 29.3913 2.12123 29.6855 2.27316 30.021C2.94932 30.1178 3.60575 30.3204 4.24081 30.5021C4.61879 30.3707 4.97406 30.1131 5.35069 29.8763C5.37151 29.8549 5.41369 29.8544 5.43451 29.833C3.17844 28.2377 1.5851 25.6849 1.25248 22.7574L1.25114 22.6519C3.571 24.2886 5.14379 26.8839 5.45532 29.8117C5.93632 29.4892 6.29052 29.1472 6.6028 28.8268C7.07638 26.2687 8.52512 24.0989 10.5519 22.5966C10.467 22.5555 10.361 22.5147 10.3175 22.4098C10.0203 22.2659 9.78649 22.1212 9.48937 21.9774C8.37707 22.4134 7.13637 22.7034 5.8708 22.6985C4.33109 22.697 2.85035 22.3574 1.53481 21.7414C2.83448 21.1131 4.28472 20.715 5.8877 20.7156C7.27979 20.719 8.63347 21.0181 9.84168 21.4878C10.2661 21.6933 10.7536 21.8769 11.2221 22.2295C11.477 22.3739 11.7114 22.5607 11.9031 22.7059C14.0754 24.3444 15.5627 26.8565 15.8521 29.7002C16.3955 29.3136 16.8117 28.8653 17.1659 28.5234C17.6824 26.028 19.1317 23.9003 21.1171 22.4618C20.8773 25.1646 19.6208 27.5218 17.6808 29.2128C17.3056 29.5551 16.8254 29.9408 16.2389 30.2647C15.1923 30.8897 14.2258 31.1762 13.4479 31.376C12.7333 31.5749 11.9958 31.6265 11.2369 31.6573C10.1192 31.6715 9.06211 31.4741 8.04611 31.1918C7.62542 31.2815 7.07955 31.4783 6.5553 31.717C8.91734 33.3531 10.5112 35.9481 10.8025 38.9394C8.44043 37.3033 6.84655 34.7083 6.51312 31.7175C6.07323 31.9551 5.63333 32.1928 5.29969 32.4923C5.20205 33.1052 5.02032 33.7403 4.8167 34.3123C5.01026 34.6051 5.24546 34.8552 5.43875 35.127C5.64372 34.6603 5.82786 34.2151 5.96875 33.686C6.41096 35.2833 7.23033 36.686 8.30007 37.8746C10.1119 39.3701 12.1945 40.5879 14.4617 41.4027C15.1384 41.5417 15.8562 41.5958 16.5732 41.5866C17.438 41.5967 18.3227 41.5011 19.1422 41.2586C18.788 41.6006 18.5187 41.9837 18.2704 42.3665C18.6084 42.4044 18.9466 42.4633 19.2846 42.5012C19.721 41.9894 20.1993 41.456 20.763 41.0059C20.78 40.6893 20.8185 40.3936 20.7714 40.0145L20.7682 39.7614C19.5102 40.347 18.1224 40.681 16.6249 40.679C15.0852 40.6776 13.6466 40.3374 12.3316 39.7636C13.6313 39.1354 15.0823 38.8005 16.5798 38.8025C18.0774 38.8045 19.473 39.0819 20.7247 39.6565C20.6753 39.0877 20.542 38.5621 20.3887 38.1211C18.5539 36.4783 17.3439 34.2158 17.0583 31.6674C19.3782 33.304 20.9715 35.8569 21.3049 38.8477C21.3068 38.9953 21.3514 39.1845 21.3533 39.3322C21.4559 40.7651 21.2177 41.9282 20.9746 42.7116L21.8814 42.7001C22.1766 42.6963 22.4508 42.6928 22.7033 42.6474L22.7027 42.6052C22.4608 41.8279 22.1719 40.6716 22.259 39.2362C22.2769 38.9829 22.3161 38.7504 22.3131 38.5184C22.5956 35.8573 23.9581 33.5409 25.8783 31.9556C25.9367 31.5752 25.9311 31.1324 25.9257 30.7106C25.876 30.1207 25.7849 29.5946 25.6316 29.1536C23.7125 27.5118 22.4162 25.1028 22.1296 22.47C24.1504 23.8152 25.5905 25.9271 26.2119 28.3447C26.3657 28.8279 26.4573 29.3962 26.5076 30.0283C26.5565 30.5549 26.4999 31.083 26.4639 31.5685C26.2658 34.2286 25.0093 36.5858 23.0904 38.2765C22.9482 38.7002 22.849 39.1865 22.793 39.7567L22.7954 39.9465L22.7872 40.959C23.3841 41.4576 23.8964 41.9362 24.389 42.5205C24.7256 42.4529 25.0625 42.4064 25.3993 42.3599C25.1203 41.9838 24.82 41.5869 24.4783 41.2538C25.3034 41.4542 26.1694 41.5486 27.034 41.5376C27.7724 41.5493 28.4883 41.4558 29.1612 41.2995C31.3858 40.4275 33.4587 39.241 35.2324 37.742C36.2512 36.5901 37.0137 35.1883 37.4586 33.6851C37.5908 34.1263 37.7867 34.6089 37.9814 34.9861C38.2315 34.7509 38.4175 34.4533 38.6038 34.1767C38.3632 33.5048 38.1648 32.8324 38.0289 32.0959C37.8802 32.0135 37.689 31.9105 37.5401 31.8069C37.3489 31.7039 37.1581 31.622 36.9669 31.5189C36.6893 34.5597 35.0781 37.2167 32.6734 38.8503C32.9299 35.8098 34.5201 33.1531 36.8188 31.4786C36.204 31.2334 35.6749 31.0925 35.1885 30.9932C34.2225 31.3219 33.2122 31.4825 32.1575 31.4748C30.6599 31.4728 29.2641 31.1742 27.9491 30.6005C27.9131 31.086 27.9609 31.5283 28.0085 31.9496C30.0331 33.59 31.3715 35.9984 31.659 38.6945C29.4459 37.162 27.9177 34.7559 27.4813 31.9563C27.3678 31.325 27.3381 30.6504 27.3698 29.8275C27.4209 28.8777 27.6213 28.0525 27.8663 27.4167C28.5361 25.3622 29.8426 23.6161 31.5141 22.3714C31.0475 22.1665 30.6027 22.0245 30.2212 21.8817C29.1506 22.275 28.0561 22.4577 26.896 22.4514C25.3563 22.45 23.8548 22.1316 22.56 21.4943C23.8597 20.8661 25.3102 20.489 26.8921 20.4899C27.7567 20.4789 28.5805 20.5739 29.3424 20.7751C29.9769 20.9146 30.8026 21.1572 31.6734 21.6312C32.3955 22.0227 32.9283 22.4588 33.3974 22.8536C35.1452 24.2866 36.3949 26.3588 36.8252 28.6734C37.0604 28.9235 37.3594 29.2149 37.6998 29.4426C38.1261 29.7957 38.5508 30.0223 38.9542 30.2281C39.6252 29.9242 40.3823 29.7459 41.1614 29.6516C41.3048 29.3123 41.4064 29.0157 41.5498 28.6764C41.0231 28.7253 40.5391 28.8158 40.0133 28.928C41.1994 27.6685 42.0866 26.1174 42.5504 24.4453C42.7062 23.4309 42.7979 22.3541 42.7423 21.3002C42.7499 20.2455 42.6521 19.1922 42.5124 18.1605C41.9842 16.4377 41.0575 14.8887 39.8183 13.639C40.3474 13.7799 40.8754 13.8365 41.4031 13.8719C41.2512 13.5364 41.1633 13.2633 41.0112 12.9067C40.3353 12.831 39.7216 12.67 39.0857 12.4251C38.7501 12.577 38.4568 12.7284 38.1218 12.9225C38.038 12.9657 37.9336 13.0514 37.829 13.116C40.191 14.7521 41.7854 17.3893 42.0775 20.4439C39.7152 18.7867 38.1208 16.1495 37.8295 13.1582C37.4113 13.4377 37.0149 13.7802 36.7234 14.0792C36.2931 16.7212 34.7408 19.04 32.6294 20.5222C32.9701 20.771 33.3516 20.9138 33.6908 21.0571C34.8448 20.5783 36.0439 20.331 37.3516 20.3355C38.8913 20.3369 40.3931 20.6763 41.6879 21.3136C40.3879 21.9208 38.9377 22.3189 37.3558 22.318C35.8161 22.3166 34.3564 21.9766 33.0625 21.4026L33.0203 21.4031C32.4477 21.1573 31.8108 20.828 31.1295 20.3304C30.7461 20.04 30.3622 19.7075 30.0838 19.3736C28.545 17.7902 27.4851 15.7157 27.2449 13.4197C26.8899 13.6985 26.5773 13.9977 26.3066 14.2754C25.8769 16.9595 24.3456 19.278 22.2135 20.7816C22.4059 17.6787 23.9955 14.9798 26.4208 13.3037L26.4624 13.261C27.6113 12.3816 28.7665 12.0083 29.5438 11.7664L29.586 11.7658C30.4055 11.5234 31.2901 11.4277 32.1548 11.4167C33.3992 11.4219 34.6045 11.6596 35.7062 12.0463C36.148 11.9563 36.6306 11.7603 37.1548 11.5217C37.4482 11.3703 37.741 11.1767 38.0346 11.0464C38.1296 10.2226 38.3094 9.43994 38.6166 8.71891C38.423 8.4261 38.167 8.19735 37.9734 7.90454C37.789 8.32872 37.5843 8.81644 37.4429 9.30335C36.9153 7.62275 36.0102 6.1157 34.8553 4.86493C33.2581 3.66198 31.5157 2.65071 29.6497 1.87303C28.7826 1.69426 27.8526 1.53739 26.9458 1.54896C25.9755 1.54024 25.0703 1.67834 24.1454 1.92214C24.5412 1.53744 24.9154 1.11084 25.2045 0.622042C24.8665 0.584169 24.5283 0.525207 24.1904 0.487334C23.7542 1.02019 23.2751 1.49032 22.7955 1.91827C22.7589 2.36166 22.7024 2.88967 22.7091 3.41687C24.0088 2.78864 25.3966 2.45457 26.9363 2.45602C28.476 2.45747 29.9357 2.79741 31.2723 3.41312C31.0422 3.56369 30.8548 3.75591 30.6036 3.90675C29.4914 4.34277 28.2506 4.63279 26.9429 4.62837C25.6352 4.62396 24.3456 4.38731 23.1801 3.95925C23.0306 3.81352 22.8394 3.7105 22.6477 3.5653L22.6491 3.67074C22.6966 4.09197 22.7439 4.4921 22.8542 4.87035C24.7304 6.44938 26.0242 8.6686 26.3739 11.2795C26.7927 11.0422 27.1904 10.8051 27.5246 10.5477C27.9592 8.24318 29.199 6.22366 30.9521 4.76707C31.1413 4.72247 31.2879 4.63623 31.4763 4.52837C31.0901 7.3174 29.6024 9.74082 27.4291 11.3293C27.0319 11.6086 26.5507 11.91 26.027 12.1909C25.8807 12.2982 25.7336 12.3423 25.5865 12.3863C24.391 12.9078 23.0448 13.1991 21.6324 13.2593C20.2403 13.256 18.8867 12.9569 17.6995 12.4869C17.7412 12.4442 17.7412 12.4442 17.7825 12.3804C18.9997 11.9008 20.2826 11.6103 21.632 11.572C22.6442 11.5591 23.5743 11.7159 24.4843 11.9574C24.9258 11.8464 25.4514 11.7131 25.9756 11.4744C24.4849 10.3545 23.3687 8.82901 22.6921 7.04485C22.6486 6.93995 22.6473 6.83451 22.604 6.75069C22.5599 6.60361 22.5164 6.49871 22.5148 6.37218C22.4502 6.26755 22.4699 6.16184 22.4056 6.07829L22.4048 6.01503C22.2723 5.5527 22.1805 4.96331 22.131 4.39446C22.0281 2.94045 22.1815 1.73627 22.4043 1.01631C22.4652 0.825713 22.5049 0.635381 22.5655 0.423692L21.6376 0.435527ZM12.334 3.57029C12.3967 3.52731 12.4381 3.4635 12.4803 3.46297C13.6975 2.98343 14.9803 2.69287 16.3297 2.65457C17.6375 2.65898 18.9482 2.89537 20.0926 3.3237C20.1564 3.36507 20.2421 3.46943 20.2848 3.51107C19.0895 4.05361 17.7855 4.34443 16.3301 4.3419C14.9381 4.33856 13.5844 4.03945 12.334 3.57029ZM32.4429 4.24185C34.8471 5.87743 36.5256 8.49248 36.8166 11.4627C34.4132 9.89038 32.7769 7.27479 32.4429 4.24185ZM10.178 4.86329C10.178 4.86329 10.1991 4.86302 10.2199 4.84166C9.83126 7.44089 8.46849 9.73617 6.5061 11.322C6.8526 8.72329 8.19456 6.44937 10.178 4.86329ZM19.1849 4.91715C17.8727 6.22047 16.9239 7.89881 16.3779 9.74075C15.8054 7.8498 14.8355 6.21703 13.4902 4.9265C14.4211 5.14664 15.3722 5.30324 16.3847 5.31142C17.3548 5.29905 18.2599 5.16095 19.1849 4.91715ZM29.0619 5.40283C28.0431 6.55477 27.2806 7.95655 26.8566 9.43837C26.3736 7.94702 25.5966 6.56489 24.5904 5.39659C25.3093 5.53506 26.0698 5.63082 26.8504 5.64195C27.6095 5.63227 28.3466 5.5385 29.0619 5.40283ZM10.9496 5.82366C11.4185 7.86357 12.4752 9.68507 13.9273 11.0797C13.0172 10.8382 12.088 10.7446 11.1391 10.7567C10.0211 10.7499 8.96885 10.932 7.96038 11.2402C9.39717 9.7876 10.4487 7.89703 10.9496 5.82366ZM32.0067 6.41986C32.5348 8.14264 33.5037 9.69106 34.7002 10.8991C33.8329 10.6993 32.967 10.6048 32.0599 10.5953C31.0899 10.6077 30.1214 10.7466 29.2176 10.9901C30.5092 9.72925 31.4801 8.13499 32.0067 6.41986ZM21.5915 6.74252C22.0753 8.29713 22.8944 9.67873 23.9645 10.8884C23.1823 10.7507 22.4218 10.655 21.6413 10.6438C20.861 10.6538 20.1029 10.7478 19.3242 10.8843C20.343 9.73236 21.1056 8.33059 21.5915 6.74252ZM1.24694 20.6694C1.54697 17.7338 3.07522 15.1833 5.3534 13.5513C5.15935 16.5277 3.56918 19.1844 1.24936 20.8592L1.24694 20.6694ZM24.4436 13.7297C23.1315 15.033 22.161 16.6694 21.6356 18.4689C21.1066 16.6829 20.095 15.0928 18.7917 13.7807C19.7228 14.0219 20.631 14.1158 21.6013 14.1245C22.5502 14.1124 23.5187 13.9735 24.4436 13.7297ZM16.4311 15.5614C16.9168 17.2636 17.7799 18.7923 18.9981 20.0422C18.1311 19.8635 17.3073 19.7685 16.4846 19.7579C15.62 19.769 14.7564 19.8643 13.9369 20.1068C15.0809 18.8478 15.947 17.2971 16.4311 15.5614ZM37.3968 15.6103C37.8817 17.2493 38.7438 18.6936 39.8982 19.9022C39.0944 19.7227 38.2282 19.6072 37.4057 19.6176C36.583 19.607 35.7619 19.723 34.9838 19.9016C36.1075 18.7062 36.9108 17.1984 37.3968 15.6103ZM5.97103 15.6737C6.45649 17.3548 7.38319 18.9038 8.53809 20.1546C7.67078 19.9547 6.80482 19.8603 5.91885 19.8505C5.05423 19.8615 4.23286 19.9564 3.47611 20.1558C4.62009 18.8968 5.48616 17.3461 5.97103 15.6737ZM26.8943 15.7021C27.3792 17.3411 28.2416 18.8065 29.3535 19.9945C28.5919 19.8144 27.7687 19.7616 26.946 19.751C26.0813 19.7621 25.26 19.8569 24.4821 20.0567C25.5839 18.7982 26.4086 17.3113 26.8943 15.7021ZM42.1231 22.3627C41.8871 25.3607 40.2967 27.9963 37.9766 29.65C38.2125 26.652 39.8027 23.9952 42.1231 22.3627ZM39.855 23.1298C38.7526 24.3461 37.8857 25.8336 37.4425 27.4633C36.9576 25.8243 36.0955 24.38 34.9836 23.1919C35.7657 23.3296 36.5895 23.4246 37.4119 23.4141C38.2768 23.4241 39.0982 23.3293 39.855 23.1298ZM29.3947 23.221C28.2923 24.4373 27.4676 25.9242 26.9817 27.5123C26.4546 25.8739 25.6347 24.429 24.4806 23.2415C25.3054 23.4208 26.1292 23.5158 26.9941 23.5258C27.8165 23.5153 28.6379 23.4205 29.3947 23.221ZM18.9338 23.2701C17.832 24.5285 16.9659 26.0793 16.4811 27.7517C15.9956 26.0706 15.0903 24.5424 13.9351 23.2706C14.7392 23.4712 15.6262 23.5654 16.4911 23.5754C17.3557 23.5644 18.1771 23.4696 18.9338 23.2701ZM8.49354 23.2767C7.32847 24.536 6.46213 26.0656 5.97807 27.8013C5.49261 26.1202 4.62918 24.5704 3.4321 23.3202C4.23614 23.5208 5.1021 23.6152 5.92481 23.6258C6.78943 23.6148 7.67406 23.5191 8.49354 23.2767ZM21.6944 24.7324C22.222 26.413 23.1268 27.8989 24.345 29.1489C23.5201 28.9696 22.612 28.8757 21.6838 28.8665C20.777 28.878 19.914 29.0156 19.094 29.2159C20.3013 27.9561 21.1673 26.4053 21.6944 24.7324ZM15.9609 31.6181C16.3784 31.2753 16.8599 30.995 17.4466 30.6922C17.7824 30.5614 18.1179 30.4095 18.4543 30.3208C19.4622 29.9705 20.5777 29.7875 21.6949 29.7311C23.2346 29.7325 24.631 30.0733 25.8827 30.6479C24.6247 31.2334 23.1736 31.5683 21.6977 31.6082C20.5379 31.623 19.4808 31.4256 18.464 31.08C18.0225 31.1911 17.6031 31.3862 17.121 31.6244C16.639 31.8626 16.1996 32.1424 15.8652 32.3786C15.4146 35.0841 13.9255 37.4021 11.8144 38.9054C12.0504 35.9074 13.6414 33.3139 15.9609 31.6181ZM34.8018 32.0949C33.6368 33.3542 32.7277 34.8422 32.2426 36.4935C31.6733 34.8557 30.7893 33.3483 29.5928 32.1403C30.4179 32.3407 31.3261 32.4345 32.2542 32.4438C33.1188 32.4328 33.9824 32.3374 34.8018 32.0949ZM24.341 32.144C23.1759 33.4032 22.2674 34.9334 21.7828 36.6269C21.2552 34.9463 20.3496 33.3971 19.1319 32.1893C19.9571 32.3897 20.823 32.4841 21.7301 32.4937C22.658 32.4818 23.521 32.3443 24.341 32.144ZM13.9229 32.2347C12.7789 33.4937 11.8488 34.9819 11.3852 36.6752C10.7944 34.9954 9.88928 33.4883 8.7141 32.3011C9.53896 32.4804 10.4049 32.5748 11.3331 32.5841C12.2399 32.5725 13.1029 32.435 13.9229 32.2347ZM16.535 33.6356C17.0213 35.38 17.9269 36.9292 19.1451 38.1792C18.3199 37.9788 17.454 37.8844 16.5891 37.8743C15.6612 37.8861 14.7982 38.0237 13.9782 38.224C15.1849 36.922 16.051 35.3713 16.535 33.6356ZM27.0399 33.7336C27.5248 35.3726 28.4299 36.8796 29.584 38.0671C28.7802 37.8876 27.9143 37.7931 27.0916 37.7825C26.2269 37.7936 25.3423 37.8892 24.5228 38.1317C25.6879 36.8724 26.5548 35.3849 27.0399 33.7336ZM26.999 38.7961C28.5387 38.7976 29.9773 39.1378 31.2712 39.7119C29.9716 40.3401 28.5416 40.6747 27.0441 40.6727C25.5465 40.6707 24.1082 40.3516 22.793 39.7567C24.0504 39.129 25.5015 38.7941 26.999 38.7961ZM39.4805 10.3109C38.9395 10.8872 38.0854 11.7207 36.7652 12.3914C36.1993 12.6728 35.6112 12.8701 35.1281 13.0239C34.1826 13.3102 33.1514 13.4921 32.1392 13.505C30.7893 13.5011 29.4997 13.2644 28.2912 12.7736C27.9978 12.925 27.6629 13.1191 27.3284 13.3554C27.3073 13.3557 27.3076 13.3768 27.2865 13.377C27.3925 13.4179 27.4984 13.4587 27.5623 13.5001C29.5428 14.9934 30.9421 17.2113 31.3747 19.7157C31.567 19.903 31.8014 20.0899 32.0563 20.2343C32.2053 20.3378 32.3331 20.4416 32.4818 20.5241C32.7851 17.8416 34.2287 15.2711 36.3376 13.5991C36.3376 13.5991 36.3798 13.5985 36.4001 13.535C36.6297 13.3422 36.9219 13.1065 37.2569 12.9124C37.7385 12.6321 38.2205 12.3939 38.661 12.1985L38.7026 12.1558C39.2266 11.896 39.7733 11.7624 40.3408 11.6076C40.1026 11.1255 39.8012 10.6442 39.5208 10.1627C39.5216 10.226 39.48 10.2687 39.4805 10.3109ZM34.3634 14.257C33.3449 15.43 32.5821 16.8107 32.0956 18.3566C31.612 16.8231 30.7932 15.4626 29.7873 14.3153C30.5056 14.4116 31.2872 14.5071 32.1099 14.5177C32.8691 14.508 33.6483 14.4137 34.3634 14.257ZM27.2449 13.4197C27.2657 13.3984 27.2657 13.3984 27.2865 13.377C27.2654 13.3773 27.244 13.3565 27.223 13.3567C27.2443 13.3776 27.2446 13.3987 27.2449 13.4197ZM5.43451 29.833C5.43451 29.833 5.4345 29.833 5.45559 29.8328C5.45559 29.8328 5.45559 29.8328 5.45532 29.8117C5.4345 29.833 5.43451 29.833 5.43451 29.833Z" fill="url(#paint1_radial)"/>
<path d="M28.2485 29.1177C28.1484 29.5413 28.0495 30.0705 27.9937 30.6625C29.2533 30.0763 30.7061 29.741 32.1421 29.7438C33.1978 29.7303 34.2134 29.8863 35.189 30.2118C35.7612 30.3734 36.4398 30.597 37.205 30.9885C38.2682 31.5662 39.0372 32.2533 39.5718 32.7744C39.8612 32.285 40.1501 31.7534 40.4397 31.2851C40.2911 31.2237 40.1856 31.225 40.0583 31.1844L39.805 31.1876C39.0422 30.9862 37.9175 30.5571 36.766 29.6848C36.6164 29.5389 36.4253 29.4569 36.2967 29.3107C34.4185 27.7509 33.06 25.5509 32.669 23.0429C32.4771 22.8975 32.243 22.7527 32.0094 22.6501C31.8611 22.6097 31.7541 22.5055 31.6058 22.4652C31.365 25.1079 30.1281 27.4677 28.2485 29.1177ZM32.1408 24.6757C32.6691 26.3583 33.5956 27.8036 34.7519 29.0559C33.926 28.8764 33.059 28.7818 32.1931 28.7718C31.2852 28.7833 30.4 28.9213 29.5998 29.1005C30.7455 27.8611 31.6556 26.3712 32.1408 24.6757Z" fill="url(#paint2_radial)"/>
<path d="M6.89342 29.6485C6.70565 29.7771 6.56025 29.9263 6.35117 30.0342C5.72531 30.4631 5.16068 30.7438 4.61602 30.9402C4.13449 31.1357 3.61088 31.3318 3.08646 31.4648C3.36697 32.0083 3.66826 32.5306 3.99085 33.0737C4.42654 32.5841 4.96825 32.1563 5.48945 31.7708C5.92756 31.4706 6.36513 31.1283 6.93029 30.8896C7.32766 30.6952 7.70479 30.5641 8.04011 30.4546C8.08219 30.454 8.14478 30.4112 8.18686 30.4106C8.22894 30.4101 8.22894 30.4101 8.29153 30.3672C9.25594 30.0813 10.2635 29.8791 11.3158 29.8867C12.4726 29.8298 13.6746 30.025 14.7533 30.4531C14.9416 30.3666 15.1717 30.2584 15.3805 30.1295C15.5686 30.0218 15.714 29.8727 15.9023 29.7861C13.8846 28.3387 12.3838 26.1692 11.8469 23.6717C11.5688 23.3175 11.1863 23.0278 10.698 22.6973C10.4607 25.5413 9.01896 28.0009 6.89342 29.6485ZM11.2301 24.816C11.7568 26.5139 12.6807 27.9963 13.8325 29.2022C13.0094 29.0233 12.1451 28.908 11.2824 28.9191C10.3984 28.9093 9.53763 29.0676 8.67709 29.2469C9.81879 28.0118 10.7466 26.5058 11.2301 24.816Z" fill="url(#paint3_radial)"/>
<path d="M21.5903 0.86746H21.3011C15.7584 0.963856 10.6012 3.18095 6.74539 7.13317C2.84137 11.0854 0.768871 16.3389 0.865266 21.8817C0.913464 27.4244 3.17876 32.5816 7.13097 36.4374C11.0832 40.2932 16.3367 42.4144 21.8795 42.3175C27.4227 42.2693 32.5794 40.0041 36.4352 36.0518C40.291 32.0996 42.4117 26.8461 42.3153 21.3033C42.1707 9.97684 32.8686 0.86746 21.5903 0.86746ZM21.5421 43.1851C15.903 43.1851 10.553 41.0162 6.5044 37.064C2.40759 33.0154 0.0941026 27.6172 -0.00229289 21.8817C-0.0986884 16.1462 2.11841 10.6516 6.11882 6.5548C10.1674 2.40979 15.5174 0.0962935 21.3011 0.0480957H21.5903C33.3506 0.0480957 42.9901 9.54306 43.1347 21.3515C43.2311 27.1352 41.014 32.5816 37.0136 36.6784C33.0132 40.8234 27.615 43.1369 21.8313 43.1851H21.5421Z" fill="#D15358"/>
</g>
<defs>
<radialGradient id="paint0_radial" cx="0" cy="0" r="1" gradientUnits="userSpaceOnUse" gradientTransform="translate(21.7624 21.5239) rotate(-0.730714) scale(21.0975)">
<stop stop-color="#193F5F"/>
<stop offset="0.03" stop-color="#1C4566"/>
<stop offset="0.07" stop-color="#265578"/>
<stop offset="0.13" stop-color="#366F96"/>
<stop offset="0.18" stop-color="#4C93C0"/>
<stop offset="0.21" stop-color="#59A8D8"/>
<stop offset="0.28" stop-color="#60ADD2"/>
<stop offset="0.37" stop-color="#72B9C2"/>
<stop offset="0.44" stop-color="#87C8AF"/>
<stop offset="0.48" stop-color="#8EC8AB"/>
<stop offset="0.53" stop-color="#A0C8A0"/>
<stop offset="0.58" stop-color="#BEC98D"/>
<stop offset="0.65" stop-color="#E8C973"/>
<stop offset="0.66" stop-color="#F3C96C"/>
<stop offset="0.7" stop-color="#F2C268"/>
<stop offset="0.75" stop-color="#F1B05B"/>
<stop offset="0.8" stop-color="#EE9448"/>
<stop offset="0.85" stop-color="#EB8D4A"/>
<stop offset="0.91" stop-color="#E37B4E"/>
<stop offset="0.98" stop-color="#D55D55"/>
<stop offset="1" stop-color="#D05358"/>
</radialGradient>
<radialGradient id="paint1_radial" cx="0" cy="0" r="1" gradientUnits="userSpaceOnUse" gradientTransform="translate(21.7173 21.5685) rotate(-0.730713) scale(21.0899)">
<stop stop-color="#193F5F"/>
<stop offset="0.03" stop-color="#1C4566"/>
<stop offset="0.07" stop-color="#265578"/>
<stop offset="0.13" stop-color="#366F96"/>
<stop offset="0.18" stop-color="#4C93C0"/>
<stop offset="0.21" stop-color="#59A8D8"/>
<stop offset="0.28" stop-color="#60ADD2"/>
<stop offset="0.37" stop-color="#72B9C2"/>
<stop offset="0.44" stop-color="#87C8AF"/>
<stop offset="0.48" stop-color="#8EC8AB"/>
<stop offset="0.53" stop-color="#A0C8A0"/>
<stop offset="0.58" stop-color="#BEC98D"/>
<stop offset="0.65" stop-color="#E8C973"/>
<stop offset="0.66" stop-color="#F3C96C"/>
<stop offset="0.7" stop-color="#F2C268"/>
<stop offset="0.75" stop-color="#F1B05B"/>
<stop offset="0.8" stop-color="#EE9448"/>
<stop offset="0.85" stop-color="#EB8D4A"/>
<stop offset="0.91" stop-color="#E37B4E"/>
<stop offset="0.98" stop-color="#D55D55"/>
<stop offset="1" stop-color="#D05358"/>
</radialGradient>
<radialGradient id="paint2_radial" cx="0" cy="0" r="1" gradientUnits="userSpaceOnUse" gradientTransform="translate(21.6701 21.635) rotate(-0.730714) scale(21.1156)">
<stop stop-color="#193F5F"/>
<stop offset="0.03" stop-color="#1C4566"/>
<stop offset="0.07" stop-color="#265578"/>
<stop offset="0.13" stop-color="#366F96"/>
<stop offset="0.18" stop-color="#4C93C0"/>
<stop offset="0.21" stop-color="#59A8D8"/>
<stop offset="0.28" stop-color="#60ADD2"/>
<stop offset="0.37" stop-color="#72B9C2"/>
<stop offset="0.44" stop-color="#87C8AF"/>
<stop offset="0.48" stop-color="#8EC8AB"/>
<stop offset="0.53" stop-color="#A0C8A0"/>
<stop offset="0.58" stop-color="#BEC98D"/>
<stop offset="0.65" stop-color="#E8C973"/>
<stop offset="0.66" stop-color="#F3C96C"/>
<stop offset="0.7" stop-color="#F2C268"/>
<stop offset="0.75" stop-color="#F1B05B"/>
<stop offset="0.8" stop-color="#EE9448"/>
<stop offset="0.85" stop-color="#EB8D4A"/>
<stop offset="0.91" stop-color="#E37B4E"/>
<stop offset="0.98" stop-color="#D55D55"/>
<stop offset="1" stop-color="#D05358"/>
</radialGradient>
<radialGradient id="paint3_radial" cx="0" cy="0" r="1" gradientUnits="userSpaceOnUse" gradientTransform="translate(21.6683 21.5195) rotate(-0.730715) scale(21.0429)">
<stop stop-color="#193F5F"/>
<stop offset="0.03" stop-color="#1C4566"/>
<stop offset="0.07" stop-color="#265578"/>
<stop offset="0.13" stop-color="#366F96"/>
<stop offset="0.18" stop-color="#4C93C0"/>
<stop offset="0.21" stop-color="#59A8D8"/>
<stop offset="0.28" stop-color="#60ADD2"/>
<stop offset="0.37" stop-color="#72B9C2"/>
<stop offset="0.44" stop-color="#87C8AF"/>
<stop offset="0.48" stop-color="#8EC8AB"/>
<stop offset="0.53" stop-color="#A0C8A0"/>
<stop offset="0.58" stop-color="#BEC98D"/>
<stop offset="0.65" stop-color="#E8C973"/>
<stop offset="0.66" stop-color="#F3C96C"/>
<stop offset="0.7" stop-color="#F2C268"/>
<stop offset="0.75" stop-color="#F1B05B"/>
<stop offset="0.8" stop-color="#EE9448"/>
<stop offset="0.85" stop-color="#EB8D4A"/>
<stop offset="0.91" stop-color="#E37B4E"/>
<stop offset="0.98" stop-color="#D55D55"/>
<stop offset="1" stop-color="#D05358"/>
</radialGradient>
<clipPath id="clip0">
<rect width="43.3781" height="43.3781" fill="white"/>
</clipPath>
</defs>
</svg>
