<svg width="50" height="40" viewBox="0 0 50 40" fill="none" xmlns="http://www.w3.org/2000/svg">
<path fill-rule="evenodd" clip-rule="evenodd" d="M6.06085 12.3077H7.576V18.4615H3.03055C1.35696 18.4615 0.000244141 19.8391 0.000244141 21.5385V27.6923C0.000244141 29.3916 1.35696 30.7692 3.03055 30.7692H7.576V36.9231C7.576 38.6224 8.93272 40 10.6063 40H46.9699C48.6435 40 50.0002 38.6224 50.0002 36.9231V30.7692C50.0002 29.0699 48.6435 27.6923 46.9699 27.6923H42.4245V21.5385H46.9699C48.6435 21.5385 50.0002 20.1609 50.0002 18.4615V12.3077C50.0002 10.6084 48.6435 9.23077 46.9699 9.23077H45.4548V3.07692C45.4548 1.37759 44.0981 0 42.4245 0H6.06085C4.38726 0 3.03055 1.37759 3.03055 3.07692V9.23077C3.03055 10.9301 4.38726 12.3077 6.06085 12.3077ZM42.4245 3.07692H6.06085V9.23077H42.4245V3.07692ZM39.3942 27.6923H3.03055V21.5385H39.3942V27.6923ZM10.6063 36.9231V30.7692H46.9699V36.9231H10.6063ZM10.6063 18.4615V12.3077H46.9699V18.4615H10.6063Z" fill="white"/>
</svg>
