<svg width="58" height="41" viewBox="0 0 58 41" fill="none" xmlns="http://www.w3.org/2000/svg">
<path fill-rule="evenodd" clip-rule="evenodd" d="M5.94872 14.6436V32.4583L8.92308 35.875L4.46154 41L0 35.875L2.97436 32.4583V12.4464C2.97436 11.9139 3.27346 11.3813 3.87166 11.1282L29.8774 0.123249C30.2658 -0.0410818 30.7086 -0.0410839 31.0969 0.123248L57.1027 11.1282C58.2991 11.6345 58.2991 13.2584 57.1027 13.7647L49.0769 17.161V32.2143H49.0708C49.029 32.7116 48.7734 33.1706 48.3642 33.4727L47.4395 34.1556C37.0238 41.8471 22.6219 41.5477 12.5453 33.4301C12.1696 33.1274 11.9384 32.6872 11.9024 32.2143H11.8974V17.161L5.94872 14.6436ZM8.20625 12.4464L30.4872 21.9643L52.7681 12.4464L30.4872 2.92857L8.20625 12.4464ZM14.8718 31.5124V18.4196L29.8774 24.7696C30.2658 24.9339 30.7086 24.9339 31.0969 24.7696L46.1026 18.4196V31.4821L45.6549 31.8127C36.4857 38.5838 23.8644 38.4346 14.8718 31.5124Z" fill="white"/>
</svg>
