<svg width="112" height="113" viewBox="0 0 112 113" fill="none" xmlns="http://www.w3.org/2000/svg">
<path d="M45.8495 1.74763C50.8634 0.741432 55.7436 0.814441 60.7916 1.05111C65.535 1.3858 70.2308 2.37178 74.7066 3.97738C73.9833 4.44549 73.1897 4.86385 72.6841 5.58977C70.2965 4.79601 67.8568 4.12437 65.3536 3.8123C64.5986 4.52464 63.932 5.32066 63.3266 6.16416C62.4808 5.56941 61.4265 5.62821 60.4424 5.5875C61.2202 4.97692 61.8074 4.1696 62.3584 3.35775C61.1567 3.19493 59.9481 3.08865 58.7351 3.02533C58.3496 3.76707 58.0526 4.55178 57.8554 5.36362C56.6514 5.28221 55.4496 5.41338 54.2457 5.43147C54.0348 4.60153 53.7287 3.80099 53.3954 3.01402C51.942 3.09995 50.4908 3.22433 49.0443 3.36228C49.4955 4.03618 49.9716 4.69425 50.5158 5.29578C49.6678 5.60107 48.7178 5.6169 47.9491 6.11894C47.3936 5.39528 46.8358 4.63319 46.7383 3.6947C45.3529 3.91632 43.997 4.28041 42.6434 4.63545C40.7025 5.15784 38.748 5.68474 36.9228 6.53503C38.3285 6.51468 39.689 6.10763 41.088 6.01265C42.6615 5.91089 44.251 5.9629 45.7996 6.28854C44.0469 6.89912 42.1015 6.80414 40.4486 7.73132C40.4916 7.9552 40.5325 8.18134 40.5755 8.40522C37.9182 8.85524 35.2222 9.35275 32.7734 10.5264C33.3539 10.8837 33.9752 11.1709 34.6236 11.3835C33.3652 11.9873 32.0229 12.4645 30.9504 13.3848C30.8802 13.4346 30.7396 13.5341 30.6693 13.5839C29.2839 14.4138 28.0074 15.4314 26.5177 16.0827C26.6379 15.4563 26.6968 14.8231 26.7558 14.1876C25.6629 14.8842 24.7038 15.7684 23.8535 16.7408C23.6449 16.5146 23.4363 16.2885 23.2277 16.0646C22.1734 17.2179 20.9308 18.2062 20.0533 19.511C19.5885 20.1352 19.0965 20.9266 18.2236 20.938C18.8085 19.8457 19.3867 18.7489 20.0488 17.7019C21.3571 15.7254 23.1234 14.0723 25.121 12.8014C26.2864 11.9963 27.563 11.3496 28.64 10.4179C25.8397 11.7612 23.4544 13.7919 21.1394 15.8272C19.2167 17.4441 17.4663 19.2509 15.7476 21.0782C15.3372 21.544 14.8565 21.9872 14.6547 22.5888C14.725 23.7104 15.2918 24.7213 15.7612 25.7208C15.3508 25.8656 14.8746 25.9153 14.5322 26.2003C14.1649 26.6344 13.9268 27.1591 13.648 27.6498C13.4144 26.7927 13.1627 25.9334 12.8045 25.1193C12.5483 25.1283 12.4258 25.3794 12.2717 25.5444C11.6073 26.4332 11.0269 27.3807 10.3897 28.2875C11.3692 29.3549 12.444 30.3296 13.5663 31.2455C13.0924 31.9261 12.605 32.5933 12.1129 33.2581C10.8591 32.7516 9.55531 32.3875 8.24022 32.0822C7.71645 33.0976 7.24257 34.1401 6.86391 35.221C7.60989 35.0446 8.34906 34.8547 9.07689 34.615C8.97713 35.5308 8.78666 36.4354 8.5894 37.3354C7.65523 37.5458 6.62357 37.5797 5.79824 38.0953C4.95023 39.321 4.68721 40.8429 4.26321 42.2495C3.64875 41.9623 2.98667 41.7859 2.30872 41.7452L2.22482 41.648C2.2407 41.0894 2.49918 40.5647 2.64429 40.031C6.00911 29.1717 12.7841 19.3866 21.8265 12.4599C28.8191 7.04159 37.12 3.2786 45.8495 1.74763Z" fill="#CF5B5A"/>
<path d="M72.6841 5.58977C73.1897 4.86385 73.9833 4.44549 74.7066 3.97738C81.8761 6.48981 88.4971 10.5219 94.0704 15.6688C103.256 24.1423 109.461 35.775 111.303 48.1269C112.033 52.0052 111.738 55.9649 111.806 59.8862C111.083 77.2289 101.383 93.839 86.8283 103.287C83.4159 105.506 79.7948 107.414 75.9924 108.873C74.5866 109.407 73.1695 109.943 71.6821 110.205C68.9386 110.619 66.3447 111.765 63.5444 111.865C59.9461 112.566 56.2661 112.498 52.6224 112.306C49.8153 112.102 47.0174 111.724 44.2693 111.116C42.7003 110.641 41.0745 110.393 39.5078 109.924C33.8121 107.914 28.2615 105.35 23.3889 101.752C19.625 99.0832 16.4076 95.7589 13.1765 92.4912C11.2538 90.4356 9.6938 88.0747 8.26307 85.6595C3.56956 78.1403 0.853221 69.4226 0.306779 60.5895C0.261431 58.2512 0.272768 55.9106 0.297709 53.5723C0.333988 49.5922 1.07543 45.6393 2.15244 41.8198L2.30872 41.7452C2.98667 41.7859 3.64875 41.9623 4.26321 42.2495C3.9095 43.638 3.4834 45.0129 3.27026 46.4331C4.12054 44.5516 5.05244 42.7063 6.24962 41.0147C6.44235 41.2002 6.65322 41.3765 6.80967 41.5959C6.76205 43.2038 5.61475 44.6352 6.00021 46.2838C4.97308 48.9003 3.97542 51.5778 3.75095 54.4045C3.92101 54.3525 4.26112 54.2485 4.4289 54.1987C4.75087 54.2304 5.07058 54.2688 5.39028 54.3095C5.18848 55.1485 5.07057 56.0056 5.11366 56.8695C5.11592 56.969 5.11592 57.168 5.11819 57.2652C5.11366 58.3394 5.14993 59.4113 5.17488 60.4832C4.735 60.1666 4.27472 59.8817 3.81444 59.6012C3.96636 62.7582 5.21569 65.7161 6.43328 68.5881C5.8755 70.6234 7.66448 72.3398 7.38559 74.3456C6.57386 73.3891 5.84829 72.3601 5.20889 71.2814C4.6171 70.2864 4.19763 69.1987 3.54008 68.2421C3.80764 70.1349 4.5264 71.9146 5.05924 73.7396C5.25877 74.3095 5.40615 74.9404 5.83922 75.3904C6.63735 75.9897 7.69169 75.9761 8.64399 76.0033C9.11561 76.8581 9.16549 77.8463 9.14282 78.8006C8.41045 78.5722 7.65541 78.4456 6.90036 78.3235C7.39466 79.4519 7.87081 80.5962 8.4762 81.6703C9.71193 81.5708 10.9023 81.1548 12.0451 80.6934C12.2945 81.7133 12.6414 82.7129 13.2083 83.6039C12.4169 84.2755 11.6823 85.0082 10.925 85.7183C11.4986 86.7608 12.1698 87.749 12.9407 88.6581C13.2015 88.0407 13.4599 87.4189 13.6232 86.7698C14.3238 87.3646 14.9564 88.0317 15.5505 88.7327C15.2172 89.4383 14.9927 90.1914 14.7206 90.924C16.2012 92.6993 17.6478 94.5513 19.5161 95.9466C19.0604 95.076 18.5298 94.2461 18.0514 93.389C18.5344 93.3392 19.1012 93.0701 19.5411 93.4025C20.3165 93.9589 20.9559 94.7277 21.8946 95.0285C22.8515 96.1366 23.5634 97.4527 24.6881 98.4138C25.747 99.3071 26.7605 100.28 27.9962 100.933C27.9395 100.558 27.8806 100.185 27.8216 99.8114C28.6469 99.6712 29.2206 100.365 29.9053 100.68C30.2046 100.944 30.4767 100.562 30.7466 100.447C30.7511 100.542 30.7602 100.736 30.7647 100.831C31.3111 101.824 32.4924 102.127 33.4198 102.649C32.9731 102.853 32.5401 103.086 32.1093 103.323C34.7916 104.682 37.7868 105.336 40.7616 105.641C41.4351 106.254 42.215 106.797 43.1311 106.957C44.2353 107.165 45.3622 107.333 46.378 107.848C44.5346 108.194 42.6572 107.959 40.7979 108.054C41.9838 108.554 43.249 108.803 44.4892 109.128C45.3803 109.339 46.285 109.576 47.2078 109.551C47.6749 109.248 47.9561 108.748 48.2962 108.321C49.2689 108.258 50.253 108.258 51.2143 108.457C50.8039 108.936 50.423 109.44 50.0444 109.947C51.3572 110.184 52.6904 110.275 54.0236 110.227C54.1846 109.52 54.3592 108.814 54.4839 108.097C55.5269 107.995 56.5722 107.914 57.6197 107.853C57.7626 108.644 57.919 109.436 58.0732 110.227C59.4314 110.264 60.7918 110.214 62.1318 109.992C61.8008 109.592 61.4652 109.194 61.1092 108.819C61.3745 108.565 61.6239 108.296 61.9278 108.09C62.6601 108.108 63.3698 108.303 64.0863 108.445C64.397 108.839 64.7144 109.239 65.1316 109.531C65.9048 109.617 66.6598 109.352 67.4013 109.174C68.6597 108.812 69.9657 108.599 71.181 108.095C69.349 107.941 67.4988 108.167 65.6803 107.842C66.2336 107.579 66.8049 107.355 67.4035 107.22C69.1245 106.833 70.8024 106.272 72.4439 105.635C75.0265 105.053 77.7406 104.721 80.0737 103.387C79.7336 103.038 79.3005 102.799 78.8584 102.604C79.618 102.057 80.4025 101.537 81.2596 101.15L81.5498 101.019C82.3842 100.635 83.1211 100.076 83.8512 99.5265C83.917 99.6531 84.0462 99.9018 84.112 100.028C84.0734 100.35 84.0439 100.673 84.0235 100.999C86.5222 99.7096 88.3792 97.5364 90.1296 95.3994C90.5151 95.2479 90.9504 95.1348 91.2225 94.7956C92.2995 93.5179 93.4015 92.2583 94.5805 91.0688C94.7642 91.2452 94.9478 91.4216 95.1338 91.6002C94.517 93.0023 93.6237 94.2596 92.9911 95.6549C94.3288 94.5106 95.5283 93.2126 96.6053 91.8218C96.8887 91.4261 97.2356 90.9761 97.1291 90.4582C97.018 89.8069 96.6643 89.237 96.3695 88.6581C96.8502 87.8485 97.7481 87.4912 98.6029 87.2153C98.7321 87.7287 98.9203 88.2307 99.1425 88.7146C100.099 87.7852 100.721 86.5957 101.342 85.4356C100.868 84.8748 100.353 84.3456 99.7593 83.9137C99.8318 82.8508 100.542 82.048 101.24 81.313C102.004 81.5822 102.813 81.6794 103.616 81.7608C104.147 80.6278 104.723 79.5152 105.178 78.3506C104.448 78.4433 103.711 78.5225 103.006 78.7328C103.244 77.8915 103.396 77.0299 103.5 76.1638C104.432 76.0123 105.36 75.8382 106.283 75.6437C107.251 73.2534 108.028 70.7749 108.55 68.2489C107.355 70.2073 106.491 72.3873 104.918 74.1037C104.716 72.9888 105.364 71.987 105.607 70.9354C105.897 70.0444 105.872 69.106 105.845 68.1833C107.019 65.4334 108.047 62.5727 108.267 59.5673C107.654 59.9246 107.056 60.3045 106.512 60.7591C106.258 59.7324 106.09 58.6876 105.872 57.6564C106.215 57.5275 106.559 57.3986 106.897 57.2494C106.89 57.1476 106.874 56.9418 106.868 56.8378C106.775 55.8043 106.763 54.7641 106.856 53.7329C107.298 54.0631 107.777 54.3412 108.26 54.6148C108.183 51.5122 107.124 48.5317 105.911 45.7049C106.083 45.0084 106.158 44.2892 106.346 43.5973C106.648 43.4638 106.967 43.3802 107.282 43.2829C107.693 44.1151 108.049 44.9812 108.595 45.7411C108.439 43.7216 107.702 41.8153 107.149 39.884C106.872 39.1423 106.657 38.1246 105.747 37.9347C104.988 37.7809 104.113 37.5028 103.383 37.7786L103.435 37.9166C103.373 37.8487 103.253 37.7108 103.192 37.643C103.344 37.3806 103.494 37.1183 103.646 36.8537C103.412 36.2341 103.174 35.6167 102.938 34.9971C103.75 35.2255 104.587 35.3386 105.421 35.4494C104.977 34.3051 104.462 33.1925 103.866 32.1183C102.795 32.3105 101.727 32.5435 100.712 32.9437C99.7819 32.7267 99.6754 31.6434 99.333 30.9153C100.231 30.2074 101.009 29.3617 101.723 28.4752C101.142 27.1681 100.303 25.999 99.3421 24.9474C98.9679 25.7321 98.6097 26.5304 98.4079 27.3784C97.8229 26.6819 97.1926 26.0261 96.5259 25.4042C96.8298 24.4725 97.3037 23.586 97.4465 22.6091C97.2107 21.6525 96.399 20.999 95.78 20.2799C94.1406 18.6403 92.7009 16.7204 90.6466 15.5625C91.3427 16.6955 92.329 17.6136 93.0523 18.7285C93.8708 19.9768 94.6417 21.2681 95.1564 22.6747C93.4309 22.2247 92.6895 20.4721 91.6261 19.2328C91.3291 19.3753 91.0343 19.5155 90.7396 19.658C88.9166 17.1116 86.7739 14.7281 84.0984 13.0524C84.1414 13.6517 84.2027 14.2509 84.2888 14.8457C84.2027 14.9384 84.0281 15.1238 83.9396 15.2166C83.1234 14.7168 82.3638 14.1152 81.4704 13.7534C80.4569 13.3418 79.5114 12.7901 78.6045 12.184C79.2983 11.8878 79.8606 11.3767 80.3708 10.8339C77.7565 9.50875 74.8315 9.09265 72.0313 8.33508C71.1039 7.28126 69.6074 7.29709 68.349 6.9511C68.476 6.60962 68.6052 6.26815 68.7345 5.92668C70.9044 5.88823 73.0471 6.25232 75.192 6.5169C74.3758 6.15734 73.5298 5.86792 72.6841 5.58977Z" fill="#CF5B5A"/>
<path d="M50.5173 5.2959C51.32 6.24119 52.4651 6.85631 53.168 7.88528C53.1635 8.74464 53.3426 9.74873 52.7236 10.4543C48.8689 9.0047 44.7195 7.978 40.5768 8.40542C40.5337 8.18153 40.4929 7.95538 40.4498 7.7315C42.1028 6.8043 44.0483 6.89928 45.801 6.28868C46.5538 6.34974 47.3066 6.39497 48.0594 6.44925L47.9506 6.11907C48.7192 5.61703 49.6693 5.6012 50.5173 5.2959Z" fill="#DB7953"/>
<path d="M54.2454 5.43165C55.4494 5.41356 56.6511 5.28239 57.8551 5.36381C57.5445 6.52168 57.4628 7.72026 57.2542 8.89622C57.0592 9.40053 56.9391 9.92745 56.8756 10.4634C56.1319 10.6195 55.3065 10.6511 54.8326 9.9478C54.6807 8.4394 54.5492 6.9197 54.2454 5.43165Z" fill="#DF7C52"/>
<path d="M59.1286 6.91259C59.4052 6.33367 59.9607 5.97863 60.4437 5.5874C61.4277 5.62811 62.4821 5.56931 63.3278 6.16406C63.2326 6.29975 63.0398 6.57112 62.9446 6.7068C64.8764 6.46709 66.7765 5.95375 68.7355 5.92661C68.6063 6.26809 68.4771 6.60956 68.3501 6.95103C69.6085 7.29703 71.105 7.2812 72.0323 8.33502C67.425 8.02973 62.8675 9.14912 58.598 10.7909C58.5957 9.4906 58.5345 8.11114 59.1286 6.91259ZM90.7406 19.6579C91.0354 19.5154 91.3301 19.3752 91.6272 19.2328C92.6906 20.472 93.432 22.2246 95.1575 22.6746C95.5498 23.6108 95.7878 24.6624 96.527 25.4041C97.1936 26.026 97.824 26.6818 98.409 27.3784C98.2344 28.1925 98.1936 29.036 97.9237 29.8275C97.6925 30.4901 97.0531 30.8722 96.4885 31.2273C95.9738 31.1323 95.4568 31.0577 94.9421 30.9695C94.9353 30.0581 94.8741 29.1355 94.5997 28.2603C93.6769 25.2526 92.5523 22.2563 90.7406 19.6579Z" fill="#DD7A53"/>
<path d="M53.1683 7.88599C53.3066 9.84894 53.454 11.8888 52.9393 13.8133C52.606 15.1679 51.5267 16.1132 50.5335 17.0065C49.291 17.1874 48.325 18.0468 47.214 18.5533C47.2707 18.0061 47.3296 17.4565 47.3909 16.9093C48.0711 16.1426 48.7287 15.3556 49.3182 14.5144C49.8193 14.6071 50.3068 14.7722 50.817 14.8287C51.2614 14.7857 51.6605 14.5438 52.0142 14.2837C52.5493 13.9309 52.3566 13.2095 52.4473 12.669C51.0959 12.4496 49.5109 13.0534 48.3659 12.1059C49.8442 11.6468 51.4745 11.4365 52.7239 10.455C53.3429 9.74944 53.1638 8.74535 53.1683 7.88599Z" fill="#E9A25E"/>
<path d="M56.8763 10.4634C56.9398 9.92747 57.06 9.40055 57.255 8.89624C57.1915 11.1962 57.221 13.5164 57.6994 15.7756C57.4795 16.0538 57.2777 16.3455 57.0192 16.5898C56.1031 16.9222 55.1032 16.6033 54.3527 16.038C54.8062 14.0434 54.9195 11.9877 54.8334 9.94783C55.3073 10.6511 56.1326 10.6195 56.8763 10.4634ZM58.7969 11.3273C59.8308 11.8995 60.8852 12.4581 62.0371 12.7566C64.3703 13.3672 66.7602 13.8149 69.175 13.8964C69.3065 14.0682 69.4403 14.2424 69.5741 14.4165C69.3179 14.6992 69.0616 14.9796 68.8077 15.2623C68.9891 15.4002 69.1727 15.5382 69.3564 15.6739C69.039 15.839 68.7238 16.0063 68.4109 16.1737C67.0255 16.2799 65.6491 16.0696 64.2773 15.9204C64.427 16.1601 64.5789 16.3998 64.7376 16.6373C64.7036 17.0217 64.6718 17.4084 64.6401 17.7929C63.8238 17.5238 62.9917 17.2999 62.1459 17.1461C61.2639 16.1669 60.1573 15.398 59.3887 14.3215C58.781 13.4486 58.8422 12.3382 58.7969 11.3273Z" fill="#E99D52"/>
<path d="M30.9523 13.3852C32.0248 12.4648 33.3671 11.9876 34.6255 11.3838C37.9156 12.5643 41.4574 12.8379 44.9289 12.6864C46.0898 12.5892 47.2258 12.3313 48.3663 12.1052C49.5114 13.0528 51.0963 12.4489 52.4477 12.6683C52.357 13.2088 52.5498 13.9302 52.0147 14.283C51.6609 14.5431 51.2619 14.785 50.8174 14.828C50.3073 14.7715 49.8198 14.6064 49.3187 14.5137C47.7133 14.6968 46.1283 15.0632 44.5071 15.0609C42.5004 15.079 40.4665 15.2396 38.4848 14.8371C37.6639 14.6901 36.8409 14.577 36.011 14.5001C36.9361 15.7891 38.0857 16.9018 38.9405 18.2451C38.75 18.8828 38.4916 19.5025 38.1696 20.0859C37.6798 19.7625 37.1742 19.4686 36.6413 19.2243C35.0405 17.0194 33.0134 15.1582 30.9523 13.3852Z" fill="#E68E4C"/>
<path d="M69.1738 13.896C72.4027 14.0701 75.5794 13.2176 78.6041 12.1841C79.5111 12.7902 80.4567 13.342 81.4702 13.7535C82.3636 14.1154 83.1232 14.7169 83.9395 15.2167C84.0279 15.124 84.2025 14.9386 84.2886 14.8458C85.5879 21.0061 88.9755 26.809 94.0795 30.5834C94.3357 30.7734 94.635 30.8865 94.9412 30.9701C95.4559 31.0583 95.9728 31.133 96.4875 31.2279C95.1747 31.9448 93.8369 32.7544 92.3154 32.9014C91.6125 32.9874 90.9414 32.7273 90.2861 32.517C89.9664 31.9584 89.5718 31.4473 89.277 30.8774C89.1138 30.4387 89.1659 29.9547 89.107 29.4979C88.5492 28.6928 87.8259 28.0212 87.225 27.25C85.2183 24.7104 83.8941 21.7252 82.7196 18.7333C82.0915 20.0269 81.6765 21.4131 81.0144 22.6909C80.5859 22.7972 80.1596 22.9781 79.7129 22.9555C79.1665 22.8628 78.917 22.3064 78.5973 21.9242C79.7016 20.0653 80.3183 17.9757 80.9079 15.911C81.121 15.1851 81.1618 14.4275 81.18 13.6744C78.7289 15.1647 76.6904 17.2973 75.1281 19.6876C74.6633 19.7849 74.2007 19.898 73.7291 19.9228C73.1759 19.803 73.135 19.1268 72.9151 18.713C73.5523 17.7744 74.2778 16.8993 74.8719 15.9336C72.7133 15.9223 70.5683 16.2276 68.4097 16.1733C68.7226 16.006 69.0378 15.8386 69.3552 15.6735C69.1715 15.5378 68.9879 15.3999 68.8065 15.2619C69.0604 14.9793 69.3167 14.6988 69.5729 14.4162C69.4391 14.242 69.3053 14.0679 69.1738 13.896Z" fill="#E49252"/>
<path d="M26.5189 16.0829C28.0086 15.4316 29.2852 14.4139 30.6706 13.584C31.1581 16.3633 31.9676 19.1042 33.2601 21.6213C33.1444 22.2251 33.022 22.8266 32.8882 23.4259C32.4098 23.4644 31.9291 23.5028 31.4506 23.5435C30.3305 21.6507 29.809 19.4932 28.9292 17.4963C28.8861 17.4805 28.7977 17.4466 28.7546 17.4307C28.4667 18.0911 28.2807 18.7876 28.0381 19.4638C27.8408 19.2377 27.6481 19.0047 27.4304 18.7989C26.723 18.9143 26.0677 19.215 25.3988 19.4525C25.816 18.3466 26.2151 17.2272 26.5189 16.0829Z" fill="#E2905B"/>
<path d="M57.0206 16.5893C57.2791 16.345 57.4809 16.0533 57.7008 15.7751C58.0341 17.5752 58.4921 19.3685 59.3106 21.0148C59.1882 21.4038 59.0658 21.795 58.9456 22.1862C58.22 22.0913 57.5217 21.8651 56.8664 21.5463C56.5943 20.9131 56.3041 20.2889 56.0048 19.667C55.6465 20.5354 55.3042 21.4106 54.9187 22.2654C54.268 22.2948 53.6172 22.3129 52.9665 22.3242C52.8214 22.0935 52.6785 21.8629 52.5357 21.6345C53.3678 19.8502 53.9619 17.9642 54.3541 16.0375C55.1046 16.6028 56.1045 16.9217 57.0206 16.5893ZM21.4316 35.3906C23.1797 35.9492 24.971 36.4263 26.8121 36.5145C26.9595 36.8899 27.354 37.2631 27.1862 37.6927C26.9889 38.0342 26.7055 38.3101 26.4538 38.6063C25.5514 38.4752 24.6399 38.4616 23.7307 38.4571C24.0277 38.9998 24.4132 39.486 24.7918 39.9745C24.8916 40.6303 24.9846 41.3042 24.8871 41.9668C24.7329 42.4575 24.1026 42.4326 23.7012 42.5932C22.6129 40.7773 21.0915 39.2825 19.5632 37.8375C19.9487 37.7651 20.3478 37.7334 20.7196 37.5955C21.3998 37.0867 21.3091 36.1369 21.4316 35.3906Z" fill="#EDC46D"/>
<path d="M23.2288 16.0654C23.4374 16.2893 23.646 16.5155 23.8546 16.7416C21.0838 19.8918 19.0385 23.6617 17.8549 27.6803C17.6146 28.4424 17.6101 29.2475 17.5942 30.039L17.4219 30.0051C17.3425 29.8513 17.186 29.5393 17.1089 29.3855C16.5398 29.5347 15.9979 29.7609 15.4854 30.0458C15.5421 30.4665 15.5965 30.8871 15.651 31.3077C15.1272 31.0183 14.5376 30.722 14.2746 30.1521C13.9232 29.3606 13.8619 28.4832 13.6488 27.6509C13.9277 27.1602 14.1658 26.6355 14.5331 26.2013C14.8755 25.9164 15.3517 25.8666 15.7621 25.7219C16.5738 24.123 17.2563 22.4563 18.2245 20.9389C19.0975 20.9276 19.5895 20.1361 20.0544 19.5119C20.9319 18.207 22.1744 17.2188 23.2288 16.0654Z" fill="#DB7858"/>
<path d="M64.7397 16.637C66.4062 18.7718 67.8234 21.1237 68.7394 23.6792C68.6261 24.0093 68.5127 24.3418 68.4016 24.672C67.5536 24.439 66.8189 23.9596 66.0843 23.4983C64.9755 21.2684 63.7148 19.0884 62.1479 17.1458C62.9937 17.2996 63.8259 17.5235 64.6422 17.7926C64.6739 17.4081 64.7056 17.0214 64.7397 16.637Z" fill="#ECC371"/>
<path d="M43.4105 24.0525C44.4377 21.5288 45.5532 18.9688 47.3898 16.9087C47.3286 17.456 47.2696 18.0055 47.2129 18.5527C48.324 18.0462 49.2899 17.1868 50.5324 17.0059C48.6391 19.0322 47.0996 21.3953 46.0566 23.9643C45.1882 24.1543 44.2857 24.3035 43.4105 24.0525ZM74.5985 85.9586C75.0883 85.2508 75.8093 84.794 76.6006 84.4864C77.8069 85.936 79.0812 87.3449 80.0335 88.9821C79.5619 89.1133 79.0925 89.2512 78.6254 89.3959C78.4985 89.9093 78.3669 90.4204 78.2332 90.9314C77.2786 89.102 75.9907 87.4715 74.5985 85.9586Z" fill="#EBC574"/>
<path d="M38.9393 18.2446C40.107 20.0289 41.0865 21.9375 41.8189 23.9411C41.735 24.4725 41.8823 25.2233 41.3268 25.5354C40.5899 26.042 40.0208 24.9904 39.4857 24.606C38.8078 22.6793 37.6763 20.9696 36.6401 19.2238C37.173 19.4681 37.6786 19.762 38.1683 20.0854C38.4903 19.502 38.7488 18.8823 38.9393 18.2446ZM70.0774 24.2668C70.7508 22.2903 71.7439 20.4382 72.9162 18.7127C73.1361 19.1266 73.1769 19.8027 73.7302 19.9226C74.2018 19.8977 74.6643 19.7846 75.1292 19.6874C74.0998 21.3269 73.118 23.0094 72.4242 24.8208C71.9253 25.2754 71.3653 25.8995 70.6102 25.7186C70.3722 25.2595 70.2407 24.7552 70.0774 24.2668ZM12.6919 52.3286C15.5193 51.822 18.3695 52.3535 21.181 52.6949C21.5143 53.4276 21.7955 54.2915 21.3443 55.0423C19.2628 54.5267 17.0997 54.4882 14.9661 54.4701C15.3017 54.3232 15.6282 54.1603 15.9569 54.0043C15.8799 53.4955 15.796 52.9912 15.6962 52.4892C14.694 52.4349 13.6941 52.3376 12.6919 52.3286Z" fill="#EBC16D"/>
<path d="M25.3981 19.4521C26.067 19.2147 26.7222 18.9139 27.4297 18.7986C27.6474 19.0044 27.8401 19.2373 28.0374 19.4635C27.017 22.2021 25.6792 24.8435 23.8947 27.1705C23.3007 27.9553 22.5887 28.6405 22.0014 29.4298C21.8382 29.6378 21.6749 29.8459 21.5116 30.0562C22.2871 30.1172 23.0626 30.1602 23.838 30.2054C23.5365 31.5488 21.9243 31.6686 21.2463 32.7202C20.557 32.9441 19.8042 33.2494 19.0855 32.9418C17.8973 32.4963 16.7999 31.845 15.6503 31.3068C15.5958 30.8861 15.5414 30.4655 15.4847 30.0449C15.9972 29.7599 16.5391 29.5338 17.1082 29.3845C17.1853 29.5383 17.3418 29.8504 17.4211 30.0042L17.5935 30.0381C21.1556 27.3718 23.7564 23.5522 25.3981 19.4521Z" fill="#E88F48"/>
<path d="M59.3098 21.0151C59.6589 21.7637 59.9923 22.519 60.3709 23.254C60.2054 23.4327 60.0399 23.6113 59.8766 23.7922C59.2077 23.7922 58.5411 23.7877 57.8722 23.7741C57.5139 23.0414 57.1897 22.2929 56.8654 21.5466C57.5207 21.8655 58.2191 22.0916 58.9447 22.1866C59.0649 21.7953 59.1873 21.4041 59.3098 21.0151ZM51.5823 23.5503C51.9292 22.9261 52.2398 22.2838 52.5346 21.6348C52.6775 21.8632 52.8203 22.0939 52.9654 22.3245C53.6162 22.3132 54.2669 22.2951 54.9177 22.2657C54.6842 22.7746 54.4393 23.2766 54.1921 23.7787C53.3146 23.9799 52.3804 24.0365 51.5823 23.5503Z" fill="#DFCE85"/>
<path d="M33.2602 21.6216C34.2148 23.3652 35.2239 25.0997 36.5571 26.5878C36.7249 27.1916 36.8496 27.8067 36.9789 28.4196C36.4188 28.5417 35.861 28.6683 35.3009 28.795C33.8838 27.1486 32.4508 25.4864 31.4508 23.5438C31.9292 23.5031 32.4099 23.4647 32.8884 23.4262C33.0222 22.8269 33.1446 22.2254 33.2602 21.6216Z" fill="#ECC26D"/>
<path d="M75.001 27.1305C76.4544 25.5881 77.5745 23.7722 78.5994 21.9246C78.9191 22.3067 79.1686 22.8631 79.715 22.9558C80.1617 22.9784 80.588 22.7975 81.0165 22.6912C79.9418 24.8373 78.5677 26.832 76.9351 28.5914C76.1596 28.2974 75.4205 27.8745 75.001 27.1305Z" fill="#ECC26C"/>
<path d="M59.8767 23.7924C60.04 23.6115 60.2055 23.4328 60.3711 23.2542C60.8359 24.1361 61.3415 25 61.9175 25.8186C61.0173 26.0877 60.074 26.0878 59.1444 26.0403C58.6795 25.3098 58.2601 24.55 57.8723 23.7743C58.5412 23.7879 59.2078 23.7924 59.8767 23.7924Z" fill="#C7CF91"/>
<path d="M49.8478 26.2326C50.4691 25.3688 51.0382 24.4664 51.5824 23.5505C52.3805 24.0368 53.3147 23.9802 54.1922 23.7789C53.7705 24.627 53.3215 25.4637 52.7909 26.2485C51.8227 26.0201 50.825 26.115 49.8478 26.2326Z" fill="#C8D094"/>
<path d="M66.0822 23.4983C66.8168 23.9596 67.5515 24.4391 68.3995 24.672C68.5106 24.3418 68.624 24.0094 68.7373 23.6792C68.9596 24.274 69.2022 24.862 69.4607 25.4432C69.6783 25.0587 69.8938 24.6697 70.0774 24.2672C70.2407 24.7557 70.3722 25.26 70.6103 25.719C71.3653 25.9 71.9254 25.2758 72.4242 24.8213C72.0569 25.9158 71.7463 27.0262 71.4016 28.1275C69.8756 27.9036 68.5287 27.1212 67.166 26.454C66.8327 25.459 66.4495 24.4798 66.0822 23.4983Z" fill="#D6CF87"/>
<path d="M41.8202 23.9424C42.0582 24.5756 42.3462 25.1907 42.65 25.7945C42.9176 25.2201 43.1716 24.6412 43.4119 24.0532C44.2872 24.3042 45.1896 24.155 46.058 23.965C45.8064 24.5779 45.5569 25.1907 45.337 25.8171C43.6545 26.2265 42.1376 27.0858 40.5209 27.6806C40.2057 26.6471 39.8384 25.6294 39.4869 24.6073C40.0221 24.9917 40.5912 26.0433 41.3281 25.5367C41.8836 25.2246 41.7363 24.4738 41.8202 23.9424Z" fill="#DBCE88"/>
<path d="M40.521 27.6801C42.1377 27.0853 43.6546 26.226 45.3371 25.8167C45.0468 26.6918 44.8042 27.5806 44.5888 28.4761C43.4279 29.0189 42.2692 29.6137 40.979 29.7652C40.8611 29.0641 40.716 28.3653 40.521 27.6801Z" fill="#C2CF8D"/>
<path d="M61.9175 25.8191C62.7224 26.8797 63.6135 27.877 64.525 28.8472C63.6113 28.7816 62.7088 28.5713 61.7928 28.5758C61.6499 28.7862 61.5207 29.001 61.3982 29.2226C60.6999 28.1235 59.8428 27.1398 59.1444 26.0407C60.0741 26.0882 61.0173 26.0882 61.9175 25.8191Z" fill="#B1CEA1"/>
<path d="M49.8466 26.2329C50.8238 26.1153 51.8215 26.0203 52.7897 26.2487C52.1934 27.1714 51.4837 28.0149 50.9009 28.9444C49.52 28.474 48.2299 29.3944 46.8853 29.5844C47.8988 28.4921 48.935 27.4133 49.8466 26.2329Z" fill="#ABCEA0"/>
<path d="M67.1659 26.4534C68.5286 27.1205 69.8755 27.903 71.4015 28.1269C70.8664 29.5177 69.4696 30.2685 68.159 30.7931C67.8393 29.3435 67.5899 27.8781 67.1659 26.4534Z" fill="#BBD099"/>
<path d="M36.5572 26.5874C37.3621 27.449 38.1875 28.2903 39.0378 29.1067C37.9517 30.3867 36.4642 31.1805 35.0538 32.0421C34.1763 31.8544 33.2943 31.687 32.4077 31.5536C33.2444 31.28 34.301 31.1217 34.7681 30.2781C34.6366 29.9706 34.4734 29.6811 34.3101 29.3916C34.8339 29.5002 35.3622 29.5839 35.8928 29.6607C35.7001 29.3668 35.5073 29.075 35.301 28.7946C35.8611 28.668 36.4189 28.5413 36.9789 28.4192C36.8497 27.8063 36.725 27.1912 36.5572 26.5874Z" fill="#D7CE89"/>
<path d="M73.5006 28.6745C74.0221 28.1815 74.5142 27.6591 74.9994 27.1299C75.4189 27.8739 76.1581 28.2968 76.9335 28.5908C76.6229 28.9504 76.3417 29.3326 76.0628 29.7193C76.7159 29.6017 77.3644 29.4569 78.0197 29.3552C78.1262 29.3665 78.3348 29.3891 78.4391 29.3981C78.2872 29.6559 78.133 29.9115 77.9811 30.1693C78.7316 31.1349 80.0105 31.187 81.1102 31.4493C80.0899 31.5397 79.074 31.6641 78.0695 31.8609C76.4937 30.8771 74.92 29.8776 73.5006 28.6745Z" fill="#DCCE86"/>
<path d="M40.9795 29.7654C42.2697 29.6138 43.4283 29.0191 44.5893 28.4763C44.3535 29.5121 44.1925 30.5614 44.095 31.6175C43.1925 32.0562 42.3536 32.6103 41.5532 33.2141C41.5078 33.0988 41.4126 32.8726 41.365 32.7596C41.2153 31.7645 41.1291 30.7604 40.9795 29.7654Z" fill="#A8CEA2"/>
<path d="M71.5604 30.3023C72.2316 29.789 72.8778 29.244 73.5014 28.6741C74.9208 29.8772 76.4944 30.8767 78.0703 31.8605C76.9093 32.107 75.7416 32.3377 74.6033 32.6723C73.744 31.6931 72.5762 31.0916 71.5604 30.3023Z" fill="#C1CF90"/>
<path d="M21.8366 29.7628C23.8841 29.6972 25.8296 28.8876 27.8839 28.9351C28.3623 29.1522 28.8136 29.4191 29.2625 29.6905C28.5029 30.2219 27.7479 30.7714 27.147 31.4838C25.1222 31.5517 23.1653 32.1125 21.2471 32.7208C21.925 31.6693 23.5372 31.5494 23.8388 30.2061C23.0633 30.1608 22.2878 30.1179 21.5124 30.0568C21.6756 29.8465 21.8389 29.6384 22.0021 29.4304L21.8366 29.7628Z" fill="#EEB767"/>
<path d="M27.8828 28.9355C30.0323 28.9309 32.2091 28.854 34.3088 29.3923C34.472 29.6817 34.6353 29.9712 34.7668 30.2788C34.2997 31.1223 33.2431 31.2806 32.4064 31.5542C30.6604 31.3326 28.8963 31.3371 27.1459 31.4841C27.7467 30.7718 28.5018 30.2222 29.2614 29.6908C28.8125 29.4194 28.3612 29.1526 27.8828 28.9355Z" fill="#ECC670"/>
<path d="M35.0514 32.0423C36.4617 31.1807 37.9492 30.3869 39.0353 29.1069C40.2756 30.2625 39.906 32.1124 40.0149 33.6276C38.3324 33.1866 36.7474 32.4426 35.0514 32.0423Z" fill="#BCD09A"/>
<path d="M78.0216 29.3548C78.4388 29.287 78.8583 29.235 79.2823 29.2056C81.0985 29.4996 82.942 29.2304 84.7673 29.4023C84.6267 29.7755 84.4861 30.1486 84.3455 30.5217C84.7559 30.8361 85.1686 31.1527 85.5767 31.4715C84.0893 31.458 82.5996 31.5123 81.1121 31.4489C80.0124 31.1866 78.7336 31.1346 77.983 30.1689C78.135 29.9111 78.2891 29.6556 78.4411 29.3978C78.3368 29.3887 78.1282 29.3661 78.0216 29.3548Z" fill="#EDC570"/>
<path d="M79.2814 29.206C81.05 29.0183 82.8322 29.0024 84.6099 29.0725C86.1177 29.1291 87.5939 29.5022 89.1085 29.4977C89.1675 29.9545 89.1153 30.4385 89.2786 30.8772C89.5733 31.4471 89.9679 31.9582 90.2876 32.5168C88.7367 32.0939 87.1562 31.7637 85.5758 31.472C85.1677 31.1531 84.755 30.8365 84.3446 30.5221C84.4852 30.149 84.6258 29.7758 84.7663 29.4027C82.941 29.2308 81.0976 29.4999 79.2814 29.206Z" fill="#EDB15F"/>
<path d="M68.5306 32.2453C69.5578 31.6257 70.594 31.0128 71.5622 30.3027C72.5781 31.092 73.7458 31.6935 74.6052 32.6728C73.6619 33.0188 72.7549 33.453 71.8434 33.8691C71.1087 32.7858 69.7936 32.3154 68.5306 32.2453Z" fill="#A8CEA4"/>
<path d="M92.6627 34.6738C95.0957 33.8394 97.3133 32.4893 99.3336 30.9153C99.676 31.6435 99.7825 32.7267 100.712 32.9438C98.3359 33.9524 95.9664 35.0628 93.9438 36.6911C93.4971 36.4287 93.0527 36.1642 92.6083 35.8996C92.6264 35.4902 92.6423 35.0832 92.6627 34.6738Z" fill="#E48E54"/>
<path d="M13.5678 31.2458C15.9509 33.0166 18.5698 34.5363 21.4314 35.3911C21.3089 36.1374 21.3996 37.0872 20.7194 37.596C20.3475 37.734 19.9484 37.7657 19.563 37.838C17.4429 35.7959 14.8059 34.3961 12.1144 33.2586C12.6064 32.5937 13.0939 31.9266 13.5678 31.2458Z" fill="#E69756"/>
<path d="M41.5524 33.2138C42.3528 32.61 43.1918 32.0559 44.0942 31.6172C43.8607 33.8153 43.9491 36.0384 44.3119 38.2162C43.6725 38.2772 42.922 38.1551 42.4073 38.63C41.7701 39.1795 41.2033 39.8105 40.5366 40.3306C41.0831 37.8498 41.5842 35.3124 41.3642 32.7592C41.4119 32.8723 41.5071 33.0984 41.5524 33.2138Z" fill="#8FC7AF"/>
<path d="M9.0798 34.6158C10.6239 33.9125 12.3699 34.3806 13.7258 35.2694C13.5149 35.8913 13.3199 36.5177 13.1521 37.1509C11.6874 38.4309 10.2589 39.7629 9.03445 41.2781C7.82363 42.8182 6.90304 44.555 6.00286 46.285C5.61739 44.6364 6.76472 43.2049 6.81234 41.597C6.65589 41.3776 6.44501 41.2012 6.25228 41.0158C7.13432 39.6679 8.28619 38.5282 9.24078 37.2323C9.0798 37.2595 8.75555 37.3115 8.59229 37.3364C8.78956 36.4363 8.98003 35.5317 9.0798 34.6158Z" fill="#DA7958"/>
<path d="M45.9127 35.5998C46.8128 35.229 47.7108 34.8535 48.6109 34.4827C53.0597 35.7197 57.8531 36.0159 62.3313 34.7608C63.7712 35.2041 65.3856 35.3375 66.6145 36.2805C66.6259 36.6356 66.576 36.9906 66.542 37.3434C65.6804 38.0287 64.8006 38.7026 64.0659 39.5303C63.3222 38.9649 62.4197 38.6212 61.481 38.8586C61.9481 38.3611 62.3857 37.8364 62.7893 37.2892C59.9618 37.7618 57.0935 38.1349 54.2206 37.9382C52.5813 37.8704 50.9668 37.5718 49.3524 37.2982C49.815 37.9427 50.3319 38.5465 50.8648 39.1368C50.4204 39.078 49.9782 39.0214 49.5361 38.9649C49.171 39.3267 48.8082 39.6886 48.4454 40.0527C47.5861 38.9265 46.1462 38.1756 45.8356 36.6989C45.8537 36.3326 45.8832 35.9662 45.9127 35.5998Z" fill="#80C2C0"/>
<path d="M97.7032 36.0762C98.4447 35.5334 99.202 34.9907 100.061 34.6447C101.011 34.2014 102.002 34.7871 102.937 34.9975C103.172 35.6171 103.41 36.2345 103.644 36.8541C103.492 37.1187 103.342 37.381 103.191 37.6434C103.252 37.7112 103.372 37.8492 103.433 37.917C104.825 39.6222 106.249 41.3273 107.281 43.2835C106.966 43.3807 106.646 43.4644 106.345 43.5978C106.156 44.2898 106.082 45.009 105.909 45.7055C104.819 43.9461 103.751 42.1573 102.447 40.5426C101.068 38.851 99.3358 37.5054 97.7032 36.0762Z" fill="#D97955"/>
<path d="M89.8541 35.6528C90.8155 35.4063 91.7406 35.0399 92.6634 34.6736C92.643 35.0829 92.6272 35.49 92.609 35.8993C93.0534 36.1639 93.4978 36.4285 93.9445 36.6908C92.9287 37.4936 91.9288 38.3213 90.9946 39.2192C90.4391 38.6832 89.7543 38.2286 89.4006 37.5253C89.3076 36.8717 89.6636 36.2589 89.8541 35.6528Z" fill="#EDB45F"/>
<path d="M13.7228 35.269C15.0652 36.1103 16.6116 36.8634 17.387 38.3175C17.8519 39.3239 17.929 40.4523 18.192 41.5175C18.0378 42.5894 17.8904 43.6614 17.7544 44.7333C17.4029 44.5863 17.0515 44.437 16.7 44.29C16.4256 43.5664 16.1535 42.8404 15.8633 42.1213C15.2579 43.2611 14.8543 44.4936 14.3214 45.6673C13.4643 47.6302 12.3578 49.4892 11.0041 51.1559C11.0382 50.7126 11.0744 50.2716 11.1107 49.8306C10.4804 49.6882 9.85228 49.5434 9.22192 49.401C12.0245 45.6379 13.9133 41.124 14.3396 36.4405C13.9178 36.635 13.521 36.8747 13.1492 37.1506C13.3169 36.5174 13.512 35.8909 13.7228 35.269ZM10.7457 52.619C11.3964 52.5286 12.0404 52.411 12.6911 52.3296C13.6933 52.3386 14.6933 52.4359 15.6955 52.4901C15.7953 52.9922 15.8792 53.4965 15.9563 54.0053C15.6275 54.1614 15.301 54.3242 14.9654 54.4712C14.7772 54.4938 14.4031 54.5413 14.2149 54.5639C13.8634 54.5639 13.5142 54.5616 13.1628 54.5616C13.5142 54.686 13.8657 54.8127 14.2217 54.928C13.0698 54.9574 11.9179 55.0298 10.7706 55.1496C11.2264 54.3445 11.0654 53.4377 10.7457 52.619Z" fill="#E89A55"/>
<path d="M32.256 36.4096C33.6482 36.2467 35.0246 35.964 36.3828 35.6226C35.8817 36.6809 35.0767 37.5471 34.4441 38.524C33.4737 38.524 32.5032 38.5059 31.5327 38.5263C31.8071 37.9519 32.086 37.3797 32.3671 36.8076C32.3399 36.7081 32.2855 36.5091 32.256 36.4096Z" fill="#B0CFA1"/>
<path d="M75.714 35.6621C76.9906 35.9584 78.2808 36.1913 79.5687 36.4242C79.9043 37.1321 80.2557 37.8308 80.6049 38.5296C79.605 38.5839 78.6163 38.4188 77.63 38.2718C77.0314 37.374 76.3194 36.5576 75.714 35.6621Z" fill="#AFCEA5"/>
<path d="M84.7694 36.526C86.4949 36.4514 88.1933 36.1054 89.8553 35.6531C89.6648 36.2592 89.3088 36.872 89.4018 37.5256C89.7555 38.2289 90.4403 38.6834 90.9958 39.2194C89.8984 40.3072 89.0435 41.603 88.1502 42.8559C87.7647 42.5641 87.2727 42.3357 87.0731 41.8699C86.9212 41.4176 86.9031 40.9359 86.8396 40.4677C87.2863 39.6491 88.1071 39.1199 88.5243 38.2877C87.6899 38.351 86.86 38.4663 86.0301 38.55C85.2048 38.1837 84.8012 37.3989 84.7694 36.526Z" fill="#EDC76F"/>
<path d="M28.572 36.6876C29.8055 36.6853 31.0322 36.5293 32.2566 36.4094C32.2861 36.5089 32.3405 36.7079 32.3677 36.8074C32.0866 37.3796 31.8077 37.9518 31.5333 38.5262C30.5628 38.6031 29.5992 38.7704 28.6242 38.7749C28.8464 38.2141 29.0641 37.6532 29.2772 37.0901C29.0437 36.9544 28.8101 36.8165 28.572 36.6876Z" fill="#C4CE91"/>
<path d="M79.5701 36.4243C80.7491 36.6233 81.9486 36.7477 83.1458 36.6459C82.7921 37.2656 83.1005 37.935 83.2796 38.5546C82.3885 38.4777 81.4974 38.5162 80.6063 38.5297C80.2571 37.831 79.9057 37.1322 79.5701 36.4243Z" fill="#C2CE8E"/>
<path d="M94.7641 38.6109C95.4488 37.5887 96.4442 36.6728 97.6573 36.3472C98.1584 40.1691 99.2899 43.9367 101.346 47.2249C100.696 47.8061 100.077 48.4234 99.4962 49.0748C98.172 47.0123 97.3127 44.7101 96.3785 42.4577C96.0814 43.0683 95.8275 43.6992 95.6008 44.3415C95.213 44.5676 94.8298 44.796 94.4466 45.0222C94.2244 44.1922 93.9637 43.3713 93.6394 42.5753C94.145 41.2908 94.1927 39.866 94.7641 38.6109Z" fill="#E89C56"/>
<path d="M26.8115 36.5151C27.3988 36.5604 27.9861 36.6192 28.5711 36.687C28.8091 36.8159 29.0427 36.9539 29.2762 37.0896C29.0631 37.6527 28.8454 38.2135 28.6232 38.7743C27.8954 38.7924 27.1698 38.7223 26.4532 38.607C26.7049 38.3107 26.9884 38.0348 27.1856 37.6934C27.3534 37.2637 26.9589 36.8905 26.8115 36.5151Z" fill="#DFCF87"/>
<path d="M83.1446 36.6455C83.6843 36.607 84.2262 36.5618 84.7681 36.5256C84.7999 37.3986 85.2035 38.1833 86.0288 38.5497C85.1151 38.7147 84.1899 38.7215 83.2784 38.5542C83.0993 37.9345 82.7909 37.2651 83.1446 36.6455Z" fill="#DCCE87"/>
<path d="M66.9777 42.0391C67.5309 40.594 67.5037 38.8731 68.6057 37.6836C69.4764 37.9889 70.3312 38.3394 71.1701 38.7238C72.1338 43.9997 74.9476 48.8142 78.6888 52.6179C78.9858 53.6446 79.2148 54.6984 79.1649 55.7749C78.8316 55.8517 78.5006 55.9264 78.1673 55.9965C76.7094 55.5849 75.2401 55.2005 73.7368 54.9969C73.9658 54.5356 74.4578 54.0811 74.2606 53.5225C74.1857 53.1901 74.0837 52.8622 73.9885 52.5365C74.4238 52.5908 74.8637 52.6405 75.3013 52.6903C74.0066 51.0123 72.7482 49.2937 71.7551 47.4167C70.8958 45.8676 70.27 44.21 69.5308 42.6067C69.465 42.7197 69.3335 42.9459 69.2678 43.0612C68.4583 42.8328 67.6851 42.4913 66.9777 42.0391ZM42.4059 38.6289C42.9206 38.154 43.6711 38.2761 44.3106 38.215C44.5146 39.556 44.9046 40.8631 45.3581 42.1408C44.4987 42.3828 43.8208 42.9617 43.2721 43.6424C43.0748 43.1381 42.8798 42.6361 42.6712 42.1386C41.7053 44.2304 40.9775 46.4375 39.7372 48.3959C38.8235 49.9404 37.6127 51.2814 36.6445 52.7921C37.2045 52.7242 37.7646 52.6518 38.3224 52.5637C38.184 52.9617 37.9913 53.3552 37.9618 53.7826C38.0866 54.2484 38.37 54.6509 38.6058 55.067C37.2884 55.1326 36.0391 55.5623 34.7739 55.8902C33.3885 56.2565 31.9555 55.664 30.8127 54.9042C31.1597 54.2891 31.7356 53.8549 32.2571 53.3959C33.4679 52.342 34.724 51.3108 35.6786 50.006C37.8371 47.0933 39.6374 43.8595 40.5353 40.3294C41.202 39.8093 41.7688 39.1784 42.4059 38.6289Z" fill="#7EC1C2"/>
<path d="M24.7902 39.9749C25.3367 40.6804 25.8265 41.4267 26.2958 42.182C25.933 43.0165 25.6519 43.9686 24.8106 44.4503C24.4524 43.8239 24.0828 43.2042 23.6996 42.5936C24.1009 42.4331 24.7313 42.458 24.8855 41.9672C24.983 41.3046 24.89 40.6307 24.7902 39.9749Z" fill="#DFCF88"/>
<path d="M84.427 44.4615C85.1276 43.0707 86.0029 41.7794 86.8373 40.4678C86.9008 40.9359 86.9189 41.4176 87.0708 41.8699C87.2704 42.3357 87.7624 42.5642 88.1479 42.8559C87.3157 43.964 86.8169 45.2643 86.2138 46.4991C85.5857 45.8478 85.0029 45.1558 84.427 44.4615Z" fill="#C7CF92"/>
<path d="M18.1934 41.5168C19.2568 44.1967 20.3928 46.8856 22.1206 49.2172C22.2227 50.0335 22.1456 50.859 22.0231 51.6686C21.6898 51.6392 21.3542 51.6121 21.0209 51.5849C19.1729 49.4275 17.6537 46.9715 16.7014 44.2894C17.0529 44.4364 17.4043 44.5857 17.7558 44.7327C17.8918 43.6607 18.0392 42.5888 18.1934 41.5168Z" fill="#ECC370"/>
<path d="M24.8116 44.4501C25.6529 43.9684 25.934 43.0164 26.2968 42.1819C26.7957 42.9847 27.2696 43.8056 27.6664 44.6627C27.2628 45.6012 26.8614 46.5511 26.2469 47.3765C25.8501 46.3633 25.3377 45.4 24.8116 44.4501Z" fill="#C4CD90"/>
<path d="M43.2736 43.6425C43.8223 42.9618 44.5003 42.3828 45.3596 42.1409C46.2598 44.6217 47.3368 47.0935 49.0556 49.1333C48.4094 49.6851 47.813 50.298 47.3187 50.9945C45.6181 48.7579 44.2894 46.2545 43.2736 43.6425Z" fill="#66B0D0"/>
<path d="M93.6371 42.5757C93.9613 43.3717 94.2221 44.1926 94.4443 45.0226C94.8275 44.7964 95.2107 44.568 95.5984 44.3419C94.6075 47.0918 92.9863 49.5659 91.1655 51.8341C90.8163 51.8635 90.4717 51.8907 90.1248 51.9201C90.127 50.9522 90.1746 49.9865 90.2449 49.0209C91.7029 47.0624 92.7369 44.8304 93.6371 42.5757Z" fill="#ECC374"/>
<path d="M84.4276 44.4612C85.0035 45.1555 85.5862 45.8475 86.2143 46.4988C85.5477 47.9484 85.0398 49.4636 84.6067 50.9946C84.1464 50.246 83.9899 49.3821 83.7632 48.5477C83.677 48.1768 83.2938 48.0162 83.0331 47.7855C83.4866 46.6729 83.8584 45.5241 84.4276 44.4612Z" fill="#B0CFA2"/>
<path d="M26.2466 47.3764C26.8611 46.5509 27.2624 45.6011 27.666 44.6626C28.2034 45.8295 28.7226 47.0055 29.1739 48.2086C28.8632 48.2923 28.5503 48.3669 28.2374 48.4438C28.1581 49.5677 28.1014 50.7279 27.564 51.7455C27.1967 50.2688 26.7636 48.8079 26.2466 47.3764Z" fill="#AFCFA0"/>
<path d="M99.4975 49.0747C100.078 48.4234 100.697 47.8061 101.348 47.2249C102.828 49.6672 104.837 51.732 106.86 53.7334C106.767 54.7646 106.778 55.8049 106.871 56.8384C105.801 56.4313 104.717 56.0582 103.636 55.6805C101.944 55.088 100.153 54.9003 98.3842 54.6877C98.4998 54.6447 98.7311 54.5633 98.8467 54.5204C98.8172 54.1065 98.7515 53.6904 98.8082 53.2765C99.0077 52.9125 99.3478 52.6569 99.6381 52.3674C100.486 52.4873 101.336 52.623 102.191 52.718C101.497 51.3566 100.298 50.3615 99.4975 49.0747Z" fill="#E5874D"/>
<path d="M87.9612 51.7858C88.7593 50.8948 89.4917 49.9472 90.2445 49.02C90.1742 49.9857 90.1266 50.9513 90.1243 51.9192C90.4712 51.8898 90.8159 51.8627 91.1651 51.8333C90.9587 52.1114 90.7637 52.3941 90.5687 52.6791L90.9134 52.6406C90.4826 53.3236 90.2264 54.0925 90.2264 54.9044C90.6413 54.9654 91.054 55.0287 91.4735 55.0762C90.4599 55.2752 89.4713 55.567 88.4918 55.8881C88.2265 54.5335 88.0179 53.1653 87.9612 51.7858Z" fill="#D7CE8A"/>
<path d="M22.1196 49.2173C22.852 50.0812 23.5935 50.9405 24.3508 51.7841C24.3508 53.1749 24.2714 54.5996 23.6411 55.8728C22.8067 55.6286 21.9564 55.4409 21.0947 55.3142L21.3441 55.0428C21.7954 54.292 21.5142 53.4281 21.1809 52.6954C21.3215 52.709 21.5981 52.7384 21.7387 52.7542C21.5097 52.3562 21.2807 51.9605 21.0199 51.585C21.3532 51.6122 21.6888 51.6393 22.0221 51.6687C22.1446 50.8591 22.2216 50.0337 22.1196 49.2173Z" fill="#D6CE86"/>
<path d="M4.43091 54.199C6.35371 52.9597 7.84342 51.1935 9.2243 49.4001C9.85465 49.5426 10.4827 49.6874 11.1131 49.8298C11.0768 50.2708 11.0405 50.7118 11.0065 51.155C10.5961 51.6707 10.2016 52.1998 9.81838 52.7358C10.0519 52.7064 10.5167 52.6476 10.748 52.6182C11.0677 53.4369 11.2287 54.3437 10.773 55.1488C8.79575 55.3727 6.97045 56.2117 5.11568 56.8698C5.0726 56.0059 5.1905 55.1488 5.39231 54.3098C5.0726 54.2691 4.75289 54.2306 4.43091 54.199ZM5.12021 57.2655C6.55778 57.7902 7.92959 58.5252 9.44878 58.8078C9.38076 59.6016 9.27419 60.3909 9.13587 61.1756C9.26965 61.2254 9.53948 61.3249 9.67552 61.3769C9.74128 62.4986 10.1812 63.5388 10.4238 64.6221C10.1676 64.8641 9.8796 65.0653 9.59616 65.2734C8.32186 63.5117 6.90016 61.8269 5.1769 60.4836C5.15196 59.4117 5.11568 58.3397 5.12021 57.2655Z" fill="#E5834F"/>
<path d="M54.1564 51.1255C55.2947 50.9152 56.4556 50.7682 57.612 50.9084C57.6596 51.2137 57.705 51.5168 57.748 51.8243C57.5621 52.8081 57.5077 53.8099 57.4669 54.8095C58.5802 54.2871 59.587 53.5431 60.3942 52.6159C60.952 53.6584 61.4553 54.7326 62.0222 55.7729C60.9089 56.1098 59.825 56.5327 58.7729 57.0234C59.7865 57.6273 60.8975 58.0388 62.0245 58.3803C61.6345 59.5314 60.9996 60.5853 60.1107 61.422C59.2514 60.6373 58.333 59.9159 57.3263 59.3324C57.4102 60.4677 57.6664 61.578 57.9317 62.6816C56.6801 62.8173 55.4216 62.8603 54.1632 62.8626C54.433 61.7567 54.5532 60.6214 54.5872 59.4862C53.7732 60.0923 52.9773 60.73 52.2404 61.4288C51.3697 60.5807 50.6146 59.5925 50.2677 58.412C51.3697 58.1067 52.4172 57.6386 53.4059 57.0709C52.5034 56.5033 51.5125 56.0962 50.4876 55.8113C50.7983 54.6602 51.084 53.3192 52.2359 52.7063C52.975 53.4413 53.7709 54.1197 54.6348 54.7077C54.5736 53.5023 54.433 52.2992 54.1564 51.1255Z" fill="#295678"/>
<path d="M24.3527 51.7837C25.2619 52.7267 26.2959 53.5363 27.3026 54.3708C27.0781 55.3387 27.1258 56.336 27.2346 57.3152C26.0578 56.7838 24.8696 56.2727 23.6429 55.8724C24.2733 54.5992 24.3527 53.1745 24.3527 51.7837Z" fill="#B4CE9B"/>
<path d="M84.189 54.9836C85.4429 53.9117 86.8101 52.9686 87.9643 51.7859C88.021 53.1654 88.2296 54.5336 88.4948 55.8882C87.8554 56.0782 87.1865 56.336 86.5086 56.1935C85.6492 55.9832 84.9168 55.4631 84.189 54.9836Z" fill="#B7CE9A"/>
<path d="M38.3235 52.5643C41.0672 52.0351 43.906 52.0396 46.6587 52.5122C46.2642 53.0912 45.9966 53.738 45.8265 54.4141C46.0578 54.6199 46.2914 54.828 46.5249 55.036C43.8924 54.7601 41.2395 54.8913 38.607 55.0677C38.3712 54.6516 38.0877 54.2491 37.963 53.7832C37.9925 53.3558 38.1852 52.9623 38.3235 52.5643Z" fill="#64AFD1"/>
<path d="M90.9162 52.6406C91.8844 52.5411 92.8412 52.3376 93.814 52.2629C94.2085 52.3308 94.6008 52.4212 94.9953 52.5094C95.1563 53.2693 95.476 53.993 96.1699 54.4091C95.9386 54.5018 95.7073 54.5945 95.4738 54.6804C94.1382 54.7935 92.8027 54.8998 91.4762 55.0762C91.0568 55.0287 90.6441 54.9654 90.2291 54.9043C90.2291 54.0925 90.4853 53.3236 90.9162 52.6406Z" fill="#EDC56D"/>
<path d="M93.813 52.2633C95.7471 52.0281 97.704 52.123 99.6358 52.3673C99.3456 52.6568 99.0055 52.9123 98.8059 53.2764C98.7493 53.6902 98.815 54.1064 98.8445 54.5202C98.7289 54.5632 98.4976 54.6446 98.3819 54.6876C97.4115 54.6582 96.441 54.6197 95.4728 54.6808C95.7063 54.5948 95.9376 54.5021 96.1689 54.4094C95.475 53.9933 95.1553 53.2696 94.9943 52.5098C94.5998 52.4216 94.2075 52.3311 93.813 52.2633Z" fill="#ECAE62"/>
<path d="M13.1635 54.561C13.5149 54.561 13.8641 54.5633 14.2156 54.5633C15.0658 54.6085 15.9116 54.7216 16.7506 54.8708C15.9093 54.9138 15.0658 54.9477 14.2224 54.9274C13.8664 54.8121 13.5149 54.6854 13.1635 54.561Z" fill="#D8BD8B"/>
<path d="M14.215 54.5629C14.4032 54.5403 14.7773 54.4928 14.9655 54.4702C17.0992 54.4883 19.2623 54.5268 21.3438 55.0424L21.0944 55.3137C19.6501 55.1373 18.1989 55.0198 16.75 54.8705C15.911 54.7212 15.0653 54.6082 14.215 54.5629Z" fill="#ADC9A1"/>
<path d="M84.8479 56.8127C86.0316 57.3736 87.231 57.9118 88.4827 58.3008C88.2332 58.5857 87.8002 58.8006 87.8047 59.2303C87.7412 60.2366 87.8296 61.2452 87.7934 62.2538C86.7617 61.2113 85.6348 60.2705 84.4874 59.3592C84.848 58.5586 84.8729 57.6744 84.8479 56.8127Z" fill="#B2CD9B"/>
<path d="M97.6932 59.4973C100.505 59.3368 103.255 58.6809 105.874 57.6565C106.092 58.6877 106.26 59.7325 106.514 60.7592C102.16 64.5743 99.1285 69.8526 97.988 75.5176C97.8247 76.1825 97.8496 76.8768 98.1036 77.5168C98.0174 77.7927 97.9426 78.0686 97.8655 78.349C96.3531 77.4625 94.7115 76.2978 94.453 74.4231C94.5006 74.059 94.5256 73.6836 94.6797 73.3489C95.2285 72.6591 96.106 72.286 96.5504 71.5035C97.2216 69.769 98.0628 68.109 98.8156 66.4129C99.6681 64.5608 101.099 63.0795 102.217 61.3947C101.072 61.51 99.9425 61.7362 98.802 61.8651C98.641 61.8447 98.3213 61.804 98.1603 61.7837C97.8066 61.0216 98.2419 60.3092 98.6455 59.6783C98.3281 59.6149 98.0106 59.5494 97.6932 59.4973Z" fill="#E49250"/>
<path d="M23.3552 58.2763C24.1602 58.0637 25.0626 57.729 25.8653 58.1316C26.8449 58.6087 27.7088 59.2827 28.6135 59.882C28.3799 60.0425 28.1486 60.2053 27.9151 60.3659C27.8675 60.0787 27.8153 59.7915 27.7564 59.5043C26.6884 60.2777 25.6816 61.1326 24.7112 62.0213C24.5887 61.1959 24.557 60.3569 24.4187 59.5337C24.3212 58.9525 23.7498 58.6472 23.3552 58.2763Z" fill="#B7CF9B"/>
<path d="M20.9894 59.0206C21.7762 58.7696 22.5608 58.505 23.3544 58.2766C23.7489 58.6475 24.3203 58.9528 24.4178 59.534C24.5562 60.3572 24.5879 61.1962 24.7103 62.0216C23.9258 62.8041 23.2093 63.6499 22.5245 64.5205C22.4769 64.2062 22.4315 63.8918 22.3885 63.5798C21.6447 63.5526 20.9033 63.5368 20.1595 63.5345C20.6992 62.8403 21.3273 62.2093 21.7808 61.4517C21.9486 60.7552 22.0189 60.0428 22.0846 59.3305C21.7196 59.2242 21.3568 59.1156 20.9894 59.0206Z" fill="#D1CE87"/>
<path d="M33.2606 58.6562C33.6347 58.3871 34.1086 58.317 34.5462 58.2107C36.0495 58.6969 37.5936 59.0497 39.149 59.312C38.5867 59.4703 38.0244 59.6535 37.5142 59.9407C37.7545 60.5354 38.1037 61.0759 38.4234 61.6299C37.8384 61.5463 37.2534 61.4671 36.6685 61.3925C39.2397 64.5607 41.2849 68.1451 42.6181 72.0008C43.0965 71.1709 43.4026 70.2618 43.7586 69.3776C43.804 70.0582 43.9241 70.7321 44.0624 71.4015C44.5431 71.449 45.0238 71.4988 45.5045 71.5485C45.11 72.8307 44.9127 74.2215 44.0783 75.3183C43.4684 75.3477 42.8154 75.5241 42.2281 75.2798C41.5955 74.8864 41.0853 74.3323 40.5026 73.8732C40.0333 71.6842 39.0878 69.6421 38.0629 67.6679C36.8 65.4269 35.0768 63.4866 33.3173 61.6254C33.1449 60.6508 32.8275 59.6105 33.2606 58.6562ZM72.9831 59.3391C74.4546 59.0429 75.9193 58.7127 77.375 58.3373C78.7808 57.9416 80.1435 58.6268 81.3951 59.1876V59.2283C78.9871 61.5598 76.332 63.7376 74.5838 66.6412C73.3821 68.8032 72.3165 71.051 71.5614 73.4096C70.6204 74.2373 69.9357 75.3432 68.8156 75.9628C68.4687 75.5829 68.1195 75.2052 67.7998 74.8027C67.5572 73.9501 67.3214 73.0953 67.0606 72.2495C67.3214 72.0867 67.7839 72.1139 67.886 71.7611C68.1626 70.9764 68.3122 70.1532 68.5548 69.3572C68.8632 70.1057 69.1376 70.8656 69.4799 71.6005C70.3574 69.9225 70.8903 68.084 71.8788 66.4603C72.8538 64.6557 74.1916 63.0931 75.3865 61.4355C74.8333 61.4784 74.28 61.5327 73.7313 61.6051C74.017 60.947 74.2914 60.2844 74.5498 59.615C74.0283 59.511 73.5068 59.4092 72.9831 59.3391Z" fill="#7EC2C1"/>
<path d="M88.4823 58.3018C89.2396 58.5392 90.006 58.7518 90.7792 58.9395C90.532 59.2584 90.2622 59.5682 90.0808 59.9323C89.9969 60.4072 90.3302 60.8188 90.5162 61.2304C90.4459 61.3547 90.3076 61.6058 90.2395 61.7301C89.7929 62.4199 89.5298 63.2024 89.353 64.0007C88.8473 63.4059 88.3349 62.8157 87.793 62.2548C87.8293 61.2462 87.7408 60.2376 87.8043 59.2312C87.7998 58.8015 88.2329 58.5867 88.4823 58.3018Z" fill="#D1CF8A"/>
<path d="M9.44853 58.8081C10.6662 59.0523 11.8906 59.2808 13.1309 59.378C13.9449 59.7692 14.505 60.4906 14.7702 61.3387C14.2669 61.4879 13.7635 61.6508 13.2783 61.8543C12.1014 61.7661 10.936 61.5671 9.76824 61.3998C11.8452 63.9869 13.7658 66.7527 14.9335 69.8803C15.1897 70.5926 15.4119 71.3231 15.7589 72.0015L15.7974 72.0581C16.2532 72.1892 16.7429 72.2254 17.1669 72.447C17.5297 72.784 17.786 73.2137 18.0762 73.6117C17.6749 75.4751 16.2826 77.0944 14.4324 77.6371C13.8678 73.2046 12.1967 68.9146 9.59591 65.2737C9.87934 65.0656 10.1673 64.8643 10.4235 64.6224C10.1809 63.5391 9.74103 62.4988 9.67527 61.3771C9.53923 61.3251 9.2694 61.2256 9.13562 61.1759C9.27393 60.3911 9.3805 59.6019 9.44853 58.8081Z" fill="#E59550"/>
<path d="M14.1808 59.3909C16.4528 59.3231 18.7406 59.3841 20.9922 59.02C21.3596 59.115 21.7223 59.2236 22.0874 59.3298C22.0217 60.0422 21.9514 60.7546 21.7836 61.4511C20.6725 61.3946 19.6091 61.7474 18.5275 61.9305C18.133 61.8536 17.743 61.7564 17.353 61.6637C17.7498 61.3041 18.1443 60.94 18.5298 60.5691C18.1375 60.3068 17.7498 60.0219 17.2963 59.8726C16.2873 59.5243 15.1671 59.8319 14.1808 59.3909Z" fill="#EBC771"/>
<path d="M90.777 58.9392C92.4299 59.3463 94.1396 59.4006 95.8311 59.5408C95.1849 59.8777 94.5319 60.2056 93.8789 60.5336C94.1215 60.9293 94.3664 61.3251 94.609 61.7231C93.2304 61.6756 91.888 61.3115 90.5139 61.2301C90.328 60.8185 89.9947 60.4069 90.0786 59.932C90.26 59.5679 90.5298 59.2581 90.777 58.9392Z" fill="#ECCA79"/>
<path d="M13.1283 59.3772C13.4775 59.3862 13.8289 59.393 14.1781 59.3908C15.1645 59.8318 16.2846 59.5242 17.2936 59.8725C17.7471 60.0217 18.1348 60.3067 18.5271 60.569C18.1416 60.9399 17.7471 61.304 17.3503 61.6635C17.7403 61.7563 18.1303 61.8535 18.5248 61.9304C16.7834 62.2108 15.0148 62.0616 13.2757 61.8535C13.7609 61.65 14.2643 61.4871 14.7677 61.3379C14.5024 60.4898 13.9423 59.7684 13.1283 59.3772Z" fill="#EBB462"/>
<path d="M37.5133 59.9402C38.0235 59.653 38.5858 59.4698 39.1481 59.3115C41.2773 59.5739 43.4291 59.4223 45.5673 59.4721C45.8621 60.2116 46.5718 61.08 45.8508 61.8036C43.3792 61.9642 40.8805 61.98 38.4226 61.6295C38.1028 61.0754 37.7537 60.535 37.5133 59.9402Z" fill="#65AFD1"/>
<path d="M95.8326 59.54C96.4517 59.5604 97.0729 59.5287 97.692 59.4971C98.0094 59.5491 98.3268 59.6147 98.6443 59.678C98.2407 60.3089 97.8053 61.0213 98.1591 61.7834C96.98 61.641 95.7941 61.7631 94.6105 61.7224C94.3679 61.3244 94.123 60.9286 93.8804 60.5328C94.5334 60.2049 95.1864 59.877 95.8326 59.54Z" fill="#EDB464"/>
<path d="M61.7927 28.5755C62.7088 28.571 63.6112 28.7813 64.5249 28.8469C65.3616 29.6791 66.255 30.448 67.0962 31.2711C66.0917 31.7143 65.0736 32.1825 63.9808 32.3543C62.8879 32.5217 61.8472 32.0536 60.7906 31.8613C55.9111 30.8708 50.6938 31.4023 46.1613 33.4782C46.9209 33.9373 47.7508 34.2675 48.6124 34.4823C47.7122 34.8532 46.8143 35.2286 45.9142 35.5994C45.8847 35.9658 45.8552 36.3321 45.8371 36.6985C45.3043 34.9165 45.2975 33.0395 45.2566 31.1965C45.7917 30.6492 46.345 30.1223 46.8869 29.5841C48.2315 29.3941 49.5216 28.4737 50.9024 28.9441C50.8299 29.0775 50.687 29.3444 50.6145 29.4778C54.1244 28.7609 57.7386 28.9057 61.2576 29.4484C61.2939 29.3919 61.3642 29.2788 61.3982 29.2223C61.5206 29.0007 61.6499 28.7858 61.7927 28.5755ZM66.3615 77.0036C66.9125 78.9394 66.9556 80.9791 66.8218 82.9715C66.7946 83.5617 66.2935 83.9461 65.9217 84.3464C64.865 84.4436 63.9059 84.9841 62.8471 85.0452C62.6294 84.8371 62.4389 84.6019 62.2507 84.3713C60.9198 84.4278 59.616 84.7331 58.2851 84.8122C55.4735 85.0519 52.6279 84.8937 49.8685 84.2899C49.9071 84.3939 49.9819 84.5997 50.0204 84.7037C49.898 85.0339 49.7688 85.364 49.6372 85.6919C48.4446 85.3866 47.3948 84.7173 46.2362 84.317C45.5809 83.8489 44.9483 83.3491 44.3111 82.8561C44.3474 82.6571 44.3928 82.4559 44.4358 82.2614C45.7781 81.6237 47.2814 80.9068 48.796 81.3794C53.3648 82.8041 58.3554 82.8742 62.9514 81.5355C64.1236 81.1691 65.3276 80.8322 66.3661 80.1583C65.4772 79.715 64.5589 79.3306 63.6112 79.0343C64.4478 78.7584 65.3049 78.5549 66.1665 78.3831C66.2368 77.924 66.3071 77.4649 66.3615 77.0036Z" fill="#98CAA9"/>
<path d="M62.3322 34.7604C64.4862 34.1747 66.6425 33.4646 68.529 32.2457C69.7919 32.3158 71.107 32.7862 71.8416 33.8694C69.8758 34.7016 68.1503 35.959 66.5427 37.3429C66.5767 36.9902 66.6266 36.6351 66.6153 36.2801C65.3863 35.3371 63.772 35.2036 62.3322 34.7604Z" fill="#98CAA9"/>
<path d="M36.3818 35.622C37.5268 35.276 38.6356 34.8237 39.7307 34.3466C39.6219 35.4886 39.5675 36.6849 39.0165 37.7206C38.5267 38.5663 37.6991 39.134 37.0597 39.8553C33.2958 43.9101 31.1033 49.2741 30.5138 54.7377C29.7134 54.4143 28.8767 54.1045 28.2418 53.5007C27.7793 53.0371 27.7294 52.3451 27.5639 51.7458C28.1013 50.7282 28.1579 49.5681 28.2373 48.4442C28.5502 48.3673 28.8631 48.2927 29.1737 48.209C29.2531 48.1841 29.4141 48.1366 29.4934 48.1118C30.4163 45.1697 31.8493 42.3836 33.7833 39.9752C34.2096 39.498 34.7583 39.1249 35.0531 38.5415C34.9012 38.5369 34.5951 38.5279 34.4432 38.5234C35.0758 37.5465 35.8807 36.6803 36.3818 35.622Z" fill="#98CAA9"/>
<path d="M72.4856 34.9684C73.6125 34.6202 74.66 35.3777 75.7144 35.6627C76.3198 36.5582 77.0317 37.3746 77.6303 38.2724C77.5215 38.2724 77.3061 38.2724 77.1973 38.2724C77.1927 38.4804 77.195 38.6885 77.1995 38.8988C77.6394 39.1814 78.0566 39.5184 78.34 39.9661C79.4352 41.5491 80.4283 43.2045 81.3194 44.9118C81.8885 46.0471 82.2445 47.2705 82.7342 48.4419C82.8091 48.2768 82.9587 47.9512 83.0335 47.7861C83.2943 48.0168 83.6775 48.1773 83.7636 48.5482C83.9904 49.3827 84.1468 50.2465 84.6071 50.995C84.3327 52.2524 84.1491 53.5278 83.9019 54.7919C82.9519 54.1791 81.9202 53.5617 81.3375 52.5577C80.8659 51.5649 80.7639 50.4546 80.417 49.4211C78.8003 44.2379 75.6237 39.3443 70.9211 36.4677C70.971 37.2231 71.039 37.9784 71.1705 38.7246C70.3316 38.3402 69.4768 37.9897 68.6061 37.6844C69.7987 36.6554 71.0413 35.6265 72.4856 34.9684Z" fill="#98CAA9"/>
<path d="M78.6892 52.6188C80.5371 54.2855 82.5959 55.7373 84.8475 56.8137C84.8724 57.6753 84.8475 58.5595 84.4869 59.3601C82.5687 57.9218 80.3603 56.9381 78.1677 55.9974C78.501 55.9273 78.8321 55.8526 79.1654 55.7757C79.2153 54.6993 78.9862 53.6455 78.6892 52.6188ZM39.6878 80.3165C41.8214 79.3781 43.7804 78.0755 45.5784 76.6011C45.6125 76.9018 45.6487 77.2048 45.685 77.5079C46.6623 78.0642 47.7347 78.417 48.7347 78.928C46.4967 79.663 44.2724 80.5291 42.3315 81.8837C41.4518 81.3591 40.563 80.8502 39.6878 80.3165Z" fill="#98CAA9"/>
<path d="M27.3011 54.3714C29.4506 56.0923 31.9901 57.2321 34.5454 58.2113C34.1078 58.3176 33.6339 58.3877 33.2598 58.6568C32.8267 59.6111 33.1442 60.6513 33.3165 61.626C31.4935 59.9277 29.4982 58.3764 27.2331 57.3158C27.1242 56.3366 27.0766 55.3393 27.3011 54.3714Z" fill="#98CAA9"/>
<path d="M81.3945 59.1881C82.2652 59.5974 83.2152 59.9434 83.8909 60.6558C84.3829 61.3297 84.4419 62.2026 84.6731 62.9827C84.0609 64.1361 83.7798 65.4228 83.2515 66.6123C83.095 66.2324 82.925 65.8615 82.7504 65.4929C82.1019 67.0985 81.5623 68.7561 80.6735 70.2509C79.5602 72.3517 78.0002 74.1564 76.676 76.1147C76.9345 76.0808 77.4515 76.013 77.71 75.979C77.0388 76.9582 76.1636 77.804 75.701 78.9143C74.5016 79.2875 73.2999 79.6742 72.1707 80.2305L72.1367 80.2508C72.3136 78.9731 72.1911 77.6027 72.7988 76.4223C73.3724 75.4408 74.3179 74.7647 75.0616 73.9234C78.4967 70.1921 80.6054 65.364 81.4058 60.3889C81.4602 60.0022 81.4036 59.6132 81.3945 59.2288V59.1881Z" fill="#98CAA9"/>
<path d="M27.9156 60.3664C28.1492 60.2058 28.3804 60.043 28.614 59.8824C29.4484 60.4726 30.3485 61.081 30.802 62.0308C31.4188 63.3243 31.6772 64.7467 32.1715 66.0855C33.9129 70.7259 37.1439 74.7399 41.1255 77.6729L41.1754 77.8425C40.0054 78.6612 38.6359 79.724 37.1213 79.1609C36.4478 77.8493 34.6498 77.4445 34.3868 75.8638C34.7201 75.8841 35.0511 75.9022 35.3844 75.9181C34.5818 74.9366 33.7315 73.9913 33.0241 72.9353C31.4528 70.6942 30.3077 68.1908 29.3033 65.6558C29.2353 65.7689 29.0992 65.995 29.0312 66.1081C28.7886 65.995 28.4054 66.0176 28.3124 65.7078C27.9701 64.8417 27.698 63.9507 27.3919 63.071C27.5483 62.1664 27.7751 61.2732 27.9156 60.3664Z" fill="#98CAA9"/>
<path d="M90.5165 61.2292C91.8906 61.3107 93.2329 61.6748 94.6115 61.7222C95.7951 61.7629 96.981 61.6408 98.1601 61.7833C98.3211 61.8036 98.6408 61.8444 98.8018 61.8647C97.4118 62.0795 95.9992 62.1971 94.5956 62.0479C93.2692 61.9823 91.9677 61.6092 90.6344 61.6815C90.5346 61.6928 90.3374 61.7177 90.2399 61.729C90.3079 61.6046 90.4462 61.3536 90.5165 61.2292Z" fill="#A28C5E"/>
<path d="M90.2397 61.7294C90.3372 61.7181 90.5345 61.6932 90.6343 61.6819C91.4959 62.8104 92.4324 63.8868 93.2146 65.0741C92.7566 64.9995 92.2986 64.9271 91.8405 64.8547C91.5934 65.9447 91.8587 67.0438 92.09 68.1112C91.285 66.6752 90.4438 65.2437 89.3531 63.9999C89.53 63.2016 89.793 62.4191 90.2397 61.7294Z" fill="#EBCA7E"/>
<path d="M53.4414 48.6653C54.1874 48.3215 54.9039 47.9212 55.5773 47.4531C55.693 47.7516 55.8086 48.0524 55.9583 48.3396C56.3414 48.3781 56.2825 47.7403 56.4616 47.4961C57.0806 48.0682 57.847 48.4256 58.6361 48.6992C58.2847 49.7236 58.0216 50.7775 57.7473 51.8246C57.7042 51.517 57.6588 51.2139 57.6112 50.9087C56.4548 50.7684 55.2939 50.9154 54.1556 51.1258C53.9561 50.2958 53.718 49.4749 53.4414 48.6653Z" fill="#42799E"/>
<path d="M47.3783 55.1285C48.1583 53.5116 49.0993 51.9715 50.1491 50.5151C50.7704 51.3134 51.4983 52.019 52.2352 52.7065C51.0833 53.3194 50.7976 54.6604 50.487 55.8115C49.4689 55.5107 48.4327 55.2552 47.3783 55.1285Z" fill="#42799E"/>
<path d="M60.3933 52.6161C60.9126 52.0032 61.4182 51.3768 61.9511 50.7752C62.4046 50.9132 63.0122 50.8951 63.2503 51.3904C63.8512 52.4284 64.4135 53.5026 64.7718 54.6514C64.9804 54.7396 65.189 54.8278 65.4021 54.9115C64.2571 55.1241 63.1324 55.4294 62.0214 55.7731C61.4545 54.7328 60.9511 53.6586 60.3933 52.6161Z" fill="#42799E"/>
<path d="M47.5917 59.0703C48.4896 58.8849 49.3875 58.6768 50.2673 58.4122C50.6142 59.5927 51.3692 60.581 52.2399 61.429C51.4917 62.155 50.7616 62.8967 50.0791 63.6814C49.4646 63.1296 48.8478 62.5801 48.1993 62.0667C48.3445 61.8587 48.4828 61.6461 48.6234 61.4358C48.4488 61.4539 48.0973 61.4923 47.9227 61.5104C47.8229 60.6963 47.7073 59.8822 47.5917 59.0703Z" fill="#42799E"/>
<path d="M62.0236 58.3806C63.2685 58.7651 64.5269 59.1314 65.8284 59.2694C64.7877 59.5588 64.0984 60.5154 63.7945 61.506C63.5746 62.4128 62.815 63.0098 62.2186 63.6725C61.5384 62.899 60.8627 62.1234 60.1099 61.4223C60.9987 60.5856 61.6336 59.5317 62.0236 58.3806Z" fill="#42799E"/>
<path d="M54.1626 62.8628C55.421 62.8606 56.6794 62.8176 57.9311 62.6819C58.1737 63.7041 58.4526 64.7195 58.8086 65.7078C57.9719 65.7643 57.1375 65.8729 56.3235 66.0786C56.26 65.9452 56.1285 65.6784 56.065 65.5449C55.9924 65.6829 55.8473 65.9611 55.7747 66.099C54.938 65.9362 54.0923 65.8254 53.2465 65.7462C53.6138 64.8054 53.929 63.8466 54.1626 62.8628Z" fill="#42799E"/>
<path d="M25.6837 67.738C26.3776 66.2318 26.9399 64.6646 27.3911 63.0703C27.6972 63.95 27.9693 64.841 28.3117 65.7072C28.4047 66.017 28.7879 65.9944 29.0305 66.1075C28.543 67.3286 28.0691 68.5589 27.4387 69.7167C27.0306 68.9184 26.6156 68.0252 25.6837 67.738Z" fill="#B4CE9E"/>
<path d="M84.6723 62.9819C85.0646 64.4044 85.5317 65.8065 86.035 67.1951C85.4818 68.1245 85.1689 69.1625 84.8265 70.1825C84.212 69.0314 83.6701 67.8464 83.2506 66.6116C83.7789 65.4221 84.0601 64.1353 84.6723 62.9819Z" fill="#B2CE9F"/>
<path d="M17.197 68.4756C17.9906 66.723 18.9883 65.0609 20.1605 63.5344C20.9042 63.5367 21.6457 63.5525 22.3894 63.5796C22.4324 63.8917 22.4778 64.2061 22.5254 64.5204C21.2148 66.2888 20.1129 68.2088 19.2354 70.2259C18.9724 69.7804 18.7094 69.3372 18.4486 68.894C18.0314 68.7538 17.6142 68.6135 17.197 68.4756ZM39.7032 88.8373C40.4129 88.514 41.1634 88.2856 41.9411 88.1883C42.0681 88.4325 42.1973 88.6768 42.3288 88.921C41.7643 90.6035 41.1112 92.2566 40.2972 93.8351C39.8166 93.5886 39.3585 93.2313 38.8076 93.177C38.3155 93.2132 37.8507 93.3828 37.3836 93.5252C38.2974 92.0372 39.0797 90.4678 39.7032 88.8373ZM69.7371 89.2625C70.4332 88.7378 71.2449 88.4054 72.1156 88.3217C72.7029 90.0155 73.501 91.6347 74.4057 93.1815C73.9431 93.0503 73.4851 92.9169 73.0271 92.7767C72.653 93.2403 72.3219 93.7333 72.0295 94.2534C71.2041 92.6184 70.406 90.9676 69.7371 89.2625Z" fill="#EFC46B"/>
<path d="M91.8402 64.8547C92.2982 64.9271 92.7562 64.9995 93.2143 65.0741C94.6201 67.071 95.4227 69.3799 96.3252 71.6233L96.5497 71.5035C96.1053 72.2859 95.2278 72.6591 94.679 73.3488C94.5248 73.6835 94.4999 74.0589 94.4523 74.423C94.0827 72.1774 93.0306 70.1534 92.0896 68.1113C91.8583 67.0438 91.593 65.9448 91.8402 64.8547Z" fill="#EDBA66"/>
<path d="M52.7704 46.9691C53.2012 46.198 54.1082 45.9492 54.8474 45.5715C55.1172 46.1867 55.3462 46.8199 55.5798 47.4531C54.9063 47.9212 54.1898 48.3215 53.4438 48.6652C53.2443 48.0908 53.0039 47.5322 52.7704 46.9691Z" fill="#5998BE"/>
<path d="M57.0082 46.0984C57.8495 46.2432 58.6884 46.3902 59.5296 46.5349C59.2281 47.254 58.9038 47.9664 58.6385 48.6991C57.8495 48.4255 57.0831 48.0682 56.464 47.496C56.6273 47.0234 56.8042 46.5552 57.0082 46.0984Z" fill="#5998BE"/>
<path d="M47.3191 50.9945C47.8134 50.298 48.4097 49.6851 49.0559 49.1334C49.4255 49.5902 49.7861 50.0538 50.1511 50.5151C49.1013 51.9715 48.1603 53.5116 47.3803 55.1285C47.0946 55.0923 46.8112 55.0629 46.5255 55.0358C46.2919 54.8277 46.0584 54.6197 45.8271 54.4139C45.9971 53.7377 46.2647 53.0909 46.6592 52.512C47.2805 52.6047 47.9222 52.8037 48.5503 52.6273C48.2578 52.0032 47.7476 51.5237 47.3191 50.9945Z" fill="#5998BE"/>
<path d="M61.9536 50.7751C62.4139 50.2391 62.8606 49.6918 63.28 49.1265C63.9467 49.6195 64.5952 50.1351 65.2278 50.6711C64.7856 51.2545 64.2687 51.7882 63.9081 52.4305L63.9875 52.6589C64.7153 52.6499 65.425 52.4621 66.1438 52.3581C66.2572 53.1632 66.3139 53.9773 66.3252 54.7915C66.0169 54.8299 65.7108 54.8706 65.4046 54.9113C65.1915 54.8276 64.9829 54.7394 64.7743 54.6513C64.416 53.5024 63.8537 52.4282 63.2528 51.3902C63.0147 50.8949 62.4071 50.913 61.9536 50.7751Z" fill="#5998BE"/>
<path d="M45.5688 59.4726C46.2514 59.3776 46.9202 59.2125 47.5937 59.0701C47.7093 59.8819 47.825 60.6961 47.9247 61.5102C47.2309 61.5871 46.5416 61.7092 45.8523 61.8042C46.5733 61.0805 45.8636 60.2121 45.5688 59.4726Z" fill="#5998BE"/>
<path d="M65.8306 59.2691C67.7353 59.4116 69.649 59.337 71.5514 59.5202C69.9597 59.787 68.3385 59.4727 66.7512 59.7327C66.3318 60.3026 66.3408 61.058 66.2025 61.7273C65.4157 61.6414 64.6244 61.5917 63.833 61.5532C64.1641 62.1073 64.5382 62.6342 64.9531 63.1317C64.4611 63.8169 63.9192 64.4637 63.3342 65.0675C62.9805 64.5881 62.6086 64.1222 62.2209 63.6722C62.8172 63.0096 63.5768 62.4126 63.7967 61.5057C64.1006 60.5152 64.7899 59.5586 65.8306 59.2691Z" fill="#5998BE"/>
<path d="M48.2014 62.0665C48.8499 62.5799 49.4666 63.1294 50.0811 63.6812C49.6684 64.1607 49.2784 64.6604 48.9088 65.1715C48.351 64.5541 47.7638 63.9639 47.147 63.4053C47.5007 62.9621 47.8658 62.5256 48.2014 62.0665Z" fill="#5998BE"/>
<path d="M53.2487 65.7461C54.0944 65.8252 54.9402 65.9361 55.7769 66.0989C55.464 66.7525 55.2123 67.4332 54.9266 68.1003C54.1964 67.7271 53.4686 67.3495 52.7475 66.9605C52.9199 66.558 53.0877 66.1532 53.2487 65.7461ZM56.3256 66.0785C57.1396 65.8727 57.974 65.7642 58.8107 65.7076C59.0284 66.3092 59.2733 66.904 59.5522 67.4806C58.7223 67.5892 57.9242 67.8447 57.1918 68.2473C56.8811 67.5327 56.6408 66.7909 56.3256 66.0785Z" fill="#5998BE"/>
<path d="M84.8269 70.1822C85.1693 69.1623 85.4822 68.1243 86.0355 67.1948C86.6273 68.5133 87.4027 69.7412 88.2077 70.9398C87.8063 70.9172 87.2191 70.6029 86.9742 71.08C86.5978 71.763 86.7724 72.5748 86.8019 73.3143C86.0423 72.3374 85.3824 71.2858 84.8269 70.1822Z" fill="#D3CF8E"/>
<path d="M61.4822 38.8569C62.4209 38.6195 63.3234 38.9632 64.0671 39.5286C62.3733 41.7335 60.5435 43.9113 59.5276 46.5346C58.6864 46.3899 57.8474 46.2429 57.0062 46.0981C58.2397 43.5427 59.5503 40.9669 61.4822 38.8569ZM49.5372 38.9632C49.9794 39.0197 50.4215 39.0763 50.8659 39.1351C52.5325 41.0483 53.7547 43.2939 54.8453 45.5712C54.1061 45.9489 53.1992 46.1977 52.7683 46.9688C52.0745 45.4288 51.3875 43.8593 50.3648 42.5024C49.739 41.6725 49.1041 40.8538 48.4466 40.051C48.8094 39.6869 49.1722 39.325 49.5372 38.9632ZM63.278 49.1263C64.897 46.9824 66.1622 44.5965 66.9785 42.0388C67.6859 42.4911 68.4591 42.8326 69.2686 43.061C68.1394 45.7001 67.0488 48.4139 65.2258 50.6708C64.5931 50.1349 63.9446 49.6193 63.278 49.1263Z" fill="#69B1D0"/>
<path d="M66.1418 52.3579C68.7516 52.0458 71.3932 52.1566 73.9894 52.5365C74.0847 52.8622 74.1867 53.1901 74.2615 53.5225C74.4588 54.0811 73.9668 54.5357 73.7377 54.997C71.2844 54.6759 68.7879 54.5063 66.3232 54.7912C66.3118 53.9771 66.2551 53.163 66.1418 52.3579Z" fill="#69B1D0"/>
<path d="M71.5497 59.52C72.0282 59.4747 72.5043 59.4069 72.9828 59.3391C73.5066 59.4092 74.0281 59.5109 74.5496 59.615C74.2911 60.2843 74.0167 60.947 73.731 61.605C71.2414 61.9895 68.7018 62.0438 66.2008 61.7272C66.3391 61.0578 66.3301 60.3024 66.7495 59.7326C68.3368 59.4725 69.958 59.7868 71.5497 59.52Z" fill="#69B1D0"/>
<path d="M64.9512 63.1315C66.4659 65.0063 67.6064 67.1502 68.5542 69.3574C68.3116 70.1534 68.1619 70.9766 67.8853 71.7613C67.7833 72.1141 67.3207 72.087 67.0599 72.2498C66.2459 69.6627 64.8968 67.2746 63.3323 65.0674C63.9173 64.4635 64.4592 63.8168 64.9512 63.1315Z" fill="#69B1D0"/>
<path d="M43.7573 69.3777C44.6235 67.2542 45.7187 65.2098 47.1449 63.4052C47.7617 63.9638 48.3489 64.554 48.9067 65.1714C47.5077 67.1411 46.3173 69.2714 45.5033 71.5487C45.0226 71.499 44.5419 71.4492 44.0612 71.4017C43.9228 70.7323 43.8027 70.0584 43.7573 69.3777Z" fill="#69B1D0"/>
<path d="M48.7686 73.4417C50.476 71.5443 51.6913 69.2693 52.7457 66.9604C53.4667 67.3493 54.1946 67.727 54.9247 68.1001C53.9225 70.4792 52.5734 72.718 50.8705 74.6652C50.2084 74.6358 49.544 74.6086 48.8819 74.577C48.8434 74.197 48.8048 73.8194 48.7686 73.4417Z" fill="#69B1D0"/>
<path d="M57.1901 68.247C57.9225 67.8444 58.7206 67.5889 59.5505 67.4803C60.6207 69.588 61.7318 71.7161 63.3394 73.4755C63.3213 73.9097 63.3031 74.3462 63.2872 74.7804C62.6569 74.812 62.0288 74.8482 61.4007 74.8889C59.7001 72.8807 58.2512 70.6554 57.1901 68.247Z" fill="#69B1D0"/>
<path d="M25.6832 67.7383C26.6151 68.0255 27.0301 68.9188 27.4382 69.7171C26.9167 70.7347 26.3453 71.7252 25.7217 72.6841C25.529 71.9356 25.3272 71.1893 25.1095 70.4475C24.8284 70.3955 24.5472 70.3412 24.2683 70.2892C24.7921 69.4706 25.2615 68.6135 25.6832 67.7383Z" fill="#D6D190"/>
<path d="M98.8597 76.8471C101.805 74.5291 104.068 71.4557 105.846 68.1833C105.873 69.106 105.898 70.0445 105.608 70.9356C105.365 71.9872 104.717 72.989 104.918 74.1039C104.41 74.762 103.692 75.3183 103.501 76.1641C103.397 77.0303 103.245 77.8919 103.007 78.7331C102.041 79.0475 101.089 79.6219 100.036 79.4726C99.2315 79.2782 98.5672 78.758 97.8643 78.3487C97.9414 78.0683 98.0162 77.7924 98.1023 77.5165C98.3427 77.2835 98.5989 77.0619 98.8597 76.8471Z" fill="#DB7B54"/>
<path d="M15.7592 72.001C16.3532 70.8725 16.7047 69.6445 17.199 68.4753C17.6162 68.6133 18.0334 68.7535 18.4506 68.8937C18.7114 69.337 18.9744 69.7802 19.2374 70.2257C18.7703 71.3248 18.3871 72.4578 18.0765 73.6112C17.7863 73.2131 17.53 72.7835 17.1672 72.4465C16.7432 72.2249 16.2535 72.1887 15.7977 72.0575L15.7592 72.001Z" fill="#ECAF62"/>
<path d="M6.43378 68.5884C8.48357 72.105 11.0345 75.3638 14.2701 77.8717C13.2951 78.5072 12.3201 79.2626 11.1433 79.457C10.4449 79.3394 9.80776 79.0206 9.1434 78.8012C9.16607 77.8469 9.11619 76.8586 8.64456 76.0038C8.26589 75.4226 7.82373 74.8866 7.38612 74.3461C7.66501 72.3402 5.87599 70.6237 6.43378 68.5884Z" fill="#DD7A55"/>
<path d="M21.0707 74.6082C22.2362 73.2468 23.2883 71.7882 24.2701 70.2888C24.549 70.3408 24.8301 70.3951 25.1113 70.4471C25.329 71.1889 25.5308 71.9352 25.7235 72.6837C24.9752 73.8868 24.007 74.9248 23.1295 76.0307C24.5444 75.9447 25.9434 75.6937 27.3606 75.6191C27.9978 76.1573 28.771 76.725 28.6326 77.6748C28.0068 77.7584 27.3833 77.8557 26.7597 77.9552C25.8573 78.0818 24.9616 78.2447 24.0751 78.4505C24.0456 77.9077 24.0751 77.3514 23.9118 76.8267C23.5445 76.7001 23.159 76.6254 22.7826 76.5395C22.862 75.6734 22.9005 74.805 22.9119 73.9366C22.2974 74.1605 21.6784 74.3685 21.0707 74.6082Z" fill="#EAC777"/>
<path d="M86.9756 71.0803C87.2205 70.6031 87.8078 70.9174 88.2091 70.9401C89.2181 72.4643 90.3677 73.8935 91.6262 75.2188C90.4448 76.0827 90.0321 77.5187 89.7487 78.8801C88.3134 78.473 86.8396 78.2356 85.377 77.9597C84.9213 77.8579 84.4701 77.7403 84.0166 77.6363C83.944 77.3988 83.8624 77.1682 83.8125 76.9284C84.5426 76.0736 85.7852 76.0239 86.801 75.7344C87.5017 75.8429 88.2023 75.9515 88.9075 76.0397C88.3066 75.0559 87.5153 74.2147 86.8033 73.3146C86.7738 72.5751 86.5992 71.7632 86.9756 71.0803Z" fill="#EBC570"/>
<path d="M45.5786 76.6007C46.7282 75.6396 47.7372 74.5269 48.7689 73.4414C48.8052 73.8191 48.8438 74.1967 48.8823 74.5767C49.5444 74.6083 50.2088 74.6355 50.8709 74.6649C50.5103 75.1036 50.1838 75.5695 49.8664 76.0421C51.8527 75.8521 53.8095 75.341 55.8162 75.4021C57.9839 75.3659 60.1039 75.8612 62.2512 76.0692C61.9769 75.669 61.7002 75.2709 61.4009 74.8887C62.029 74.848 62.6571 74.8119 63.2875 74.7802C63.3033 74.346 63.3215 73.9095 63.3396 73.4753C64.3146 74.6716 65.7975 75.5197 66.3621 77.0032C66.3077 77.4646 66.2374 77.9237 66.1671 78.3827C65.3055 78.5546 64.4484 78.7581 63.6117 79.034C58.7888 77.6523 53.5646 77.4849 48.7349 78.9277C47.735 78.4166 46.6625 78.0639 45.6852 77.5075C45.6489 77.2045 45.6126 76.9015 45.5786 76.6007Z" fill="#7FC2C0"/>
<path d="M68.8128 75.9624C69.933 75.3427 70.6177 74.2369 71.5587 73.4092C70.8921 75.847 70.5112 78.3776 70.6948 80.9082C69.9647 81.5279 69.1484 82.0412 68.2346 82.3465C68.5181 79.8272 68.2528 77.2853 67.797 74.8022C68.1167 75.2048 68.4659 75.5825 68.8128 75.9624Z" fill="#92C8AF"/>
<path d="M21.0704 74.6079C21.6781 74.3682 22.2971 74.1602 22.9116 73.9363C22.9003 74.8047 22.8617 75.6731 22.7823 76.5392C23.1587 76.6252 23.5442 76.6998 23.9115 76.8264C24.0748 77.3511 24.0453 77.9074 24.0748 78.4502C22.7347 78.7758 21.3765 79.0675 20.0931 79.5899C20.1045 79.0155 20.2859 78.3665 19.9072 77.8712C19.592 77.3805 19.1884 76.9576 18.8075 76.5211C19.5739 75.897 20.3108 75.2389 21.0704 74.6079Z" fill="#EDB65E"/>
<path d="M40.5022 73.8733C41.0849 74.3324 41.5951 74.8864 42.2277 75.2799C42.815 75.5241 43.468 75.3477 44.078 75.3184C43.2118 76.2682 42.2345 77.1117 41.1756 77.8421L41.1257 77.6725C41.0532 76.3858 40.797 75.1239 40.5022 73.8733Z" fill="#91C7B5"/>
<path d="M80.962 75.4493C82.9098 75.2977 84.8847 75.291 86.7985 75.7342C85.7827 76.0237 84.5401 76.0734 83.81 76.9282C83.8599 77.168 83.9415 77.3986 84.014 77.6361C84.4675 77.7401 84.9188 77.8577 85.3745 77.9595C83.8553 77.9436 82.3316 77.9233 80.8124 77.9821C80.6764 77.9097 80.402 77.7605 80.2637 77.6881C80.6491 76.8559 81.2863 76.191 81.9098 75.5375C81.5947 75.5035 81.2772 75.4741 80.962 75.4493Z" fill="#D0CE8A"/>
<path d="M89.7463 78.8803C90.0298 77.5189 90.4424 76.0829 91.6238 75.219C93.0523 76.741 94.6236 78.1634 96.4285 79.2241C95.6803 79.5655 94.9615 79.9703 94.2835 80.4339C92.8074 79.8143 91.2859 79.3145 89.7463 78.8803Z" fill="#ECA556"/>
<path d="M27.3605 75.6186C29.1427 75.5689 30.9363 75.5214 32.7162 75.6797C32.0247 75.6503 31.3354 75.6865 30.6461 75.7226C31.1018 76.3423 31.5009 77.0004 31.8183 77.6992C31.3966 77.7851 30.9748 77.8778 30.5508 77.9479C29.2856 77.9615 28.0226 77.9321 26.7596 77.9547C27.3832 77.8552 28.0067 77.758 28.6326 77.6743C28.7709 76.7245 27.9977 76.1569 27.3605 75.6186Z" fill="#CECC8B"/>
<path d="M77.7093 75.9789C78.7886 75.7776 79.8611 75.504 80.9631 75.4497C81.2783 75.4746 81.5957 75.504 81.9109 75.5379C81.2873 76.1915 80.6502 76.8563 80.2647 77.6886C80.403 77.7609 80.6774 77.9102 80.8134 77.9826C79.0811 78.1137 77.3782 78.4846 75.7003 78.9143C76.1629 77.8039 77.0381 76.9581 77.7093 75.9789Z" fill="#B2CE9E"/>
<path d="M30.6475 75.7232C31.3368 75.687 32.0261 75.6508 32.7177 75.6802C33.2755 75.73 33.831 75.8159 34.3888 75.8634C34.6518 77.4442 36.4499 77.849 37.1233 79.1606C34.9897 78.4935 32.7902 78.0254 30.5522 77.9485C30.9763 77.8784 31.398 77.7856 31.8198 77.6997C31.5023 77.0009 31.1032 76.3428 30.6475 75.7232Z" fill="#B3CE9D"/>
<path d="M12.0455 80.6934C14.4876 79.635 16.7142 78.1493 18.8071 76.521C19.188 76.9575 19.5916 77.3804 19.9068 77.8711C20.2855 78.3664 20.1041 79.0154 20.0927 79.5898C17.6099 80.5622 15.2676 81.9078 13.2087 83.6039C12.6419 82.7129 12.295 81.7133 12.0455 80.6934Z" fill="#E48D51"/>
<path d="M94.2861 80.4335C94.9641 79.9699 95.6829 79.5651 96.4312 79.2236C98.0161 79.9631 99.6169 80.671 101.243 81.3132C100.544 82.0482 99.8346 82.851 99.7621 83.9139C98.0365 82.6136 96.3155 81.2409 94.2861 80.4335Z" fill="#DF8555"/>
<path d="M36.0033 81.6117C37.2708 81.3019 38.4862 80.8157 39.6879 80.3159C40.5632 80.8496 41.452 81.3584 42.3318 81.8831C41.3091 82.5932 40.282 83.301 39.341 84.1174C38.6562 82.8035 37.3116 82.15 36.0033 81.6117Z" fill="#B2CD9C"/>
<path d="M72.1372 80.2503L72.1712 80.23C73.5407 80.7094 74.8989 81.2296 76.2957 81.6253C75.0735 82.3829 73.7312 83.0795 72.9807 84.3662C71.8379 83.335 71.9308 81.6389 72.1372 80.2503Z" fill="#B7CF9C"/>
<path d="M68.2372 82.3472C69.151 82.0419 69.9673 81.5286 70.6974 80.9089C70.7632 82.103 70.8766 83.2948 71.0648 84.4776C69.9378 84.8824 68.8608 85.4229 67.7112 85.7711C67.9629 84.6427 68.1103 83.4938 68.2372 82.3472Z" fill="#ADCEA1"/>
<path d="M17.3843 82.4801C18.2731 82.0301 19.1869 81.5642 20.1914 81.4466C21.3047 81.3086 22.4158 81.5461 23.486 81.831C23.706 82.6384 24.3817 83.1427 25.0029 83.638C24.4247 83.9433 23.8307 84.2192 23.223 84.4611C23.2479 84.4747 23.2978 84.5018 23.3228 84.5154C25.7897 87.4124 27.7057 90.748 29.0458 94.3031C28.2953 94.6558 27.5561 95.0358 26.8328 95.4406C25.6174 91.8607 23.6039 88.5567 21.0077 85.8067C19.8626 84.6307 18.577 83.6063 17.3843 82.4801ZM30.8598 91.0759C31.5446 90.7231 32.2905 90.5015 33.0592 90.4269C32.8824 91.2885 32.7758 92.1592 32.7644 93.0389C32.3676 94 31.921 94.9408 31.565 95.92C30.76 95.6599 29.9165 95.4112 29.2862 94.8187C29.8213 93.5749 30.336 92.3243 30.8598 91.0759Z" fill="#E7984F"/>
<path d="M89.0317 81.6526C89.8049 81.4649 90.603 81.1732 91.408 81.3586C92.5825 81.5848 93.7072 82.0077 94.8137 82.4554C93.5575 83.5703 92.2447 84.6197 91.0815 85.8341C89.4625 87.4013 88.2607 89.3258 87.0817 91.2277C86.347 91.2955 85.8232 91.8337 85.2428 92.2204C84.8006 92.5438 84.2224 92.4782 83.71 92.5461C84.8777 89.5474 86.8776 86.9942 88.7482 84.4116C88.6009 84.4274 88.3016 84.4636 88.1542 84.4795C87.771 84.1629 86.8254 84.1289 86.9388 83.5002C87.6145 82.8602 88.4376 82.3831 89.0317 81.6526Z" fill="#E89950"/>
<path d="M33.3412 82.1096C34.2232 81.9174 35.1189 81.7907 36.0032 81.6121C37.3115 82.1503 38.6561 82.8039 39.3409 84.1178C38.7695 84.6266 38.2298 85.1694 37.697 85.7189C37.1392 84.9658 36.4068 84.2105 35.3819 84.2897C35.2141 84.3145 34.8785 84.3598 34.713 84.3846C34.8808 84.0635 35.0508 83.7424 35.2209 83.4212C34.6019 82.9712 33.9738 82.5347 33.3412 82.1096Z" fill="#CCCD89"/>
<path d="M76.2967 81.6255C78.1606 82.1366 80.0811 82.3695 82.0016 82.5301C80.6071 82.7856 79.1242 82.8512 77.8953 83.6382C78.2581 83.9864 78.6231 84.3324 78.9904 84.6784C78.215 84.5518 77.444 84.4048 76.6708 84.2623L76.6028 84.4862C75.8115 84.7938 75.0904 85.2506 74.6007 85.9584C74.0905 85.3953 73.5304 84.8888 72.9817 84.3664C73.7322 83.0796 75.0745 82.3831 76.2967 81.6255Z" fill="#D0CF8B"/>
<path d="M85.7554 82.3328C86.8778 82.2717 87.9503 81.9212 89.0342 81.6521C88.4401 82.3826 87.617 82.8597 86.9413 83.4997C86.828 84.1284 87.7735 84.1623 88.1567 84.4789C85.1206 84.8272 82.0277 85.2004 78.9893 84.678C78.622 84.3319 78.257 83.9859 77.8942 83.6377C79.1231 82.8507 80.606 82.7851 82.0005 82.5296C83.2499 82.4097 84.5038 82.4007 85.7554 82.3328Z" fill="#ECC06B"/>
<path d="M23.4836 81.8308C25.937 82.4776 28.5015 82.5138 31.0229 82.4278C31.5693 82.9231 32.1838 83.3392 32.8278 83.6988C32.7711 84.038 32.7121 84.375 32.6577 84.7164C29.549 85.2388 26.429 84.6283 23.3203 84.5152C23.2954 84.5016 23.2455 84.4745 23.2206 84.4609C23.8283 84.2189 24.4223 83.943 25.0005 83.6377C24.3793 83.1425 23.7035 82.6382 23.4836 81.8308Z" fill="#ECBD6A"/>
<path d="M31.0225 82.4278C31.8025 82.387 32.5734 82.2604 33.3398 82.1089C33.9724 82.534 34.6005 82.9705 35.2195 83.4205C35.0495 83.7417 34.8794 84.0628 34.7116 84.3839C34.0268 84.4947 33.3421 84.6191 32.6573 84.7163C32.7117 84.3749 32.7707 84.0379 32.8274 83.6987C32.1834 83.3391 31.5689 82.923 31.0225 82.4278Z" fill="#E8CC82"/>
<path d="M40.9723 84.7529C41.6571 83.4276 43.2171 82.9641 44.4347 82.2607C44.3916 82.4552 44.3463 82.6565 44.31 82.8555C44.1059 83.9161 44.4302 84.9745 44.6388 86.008C43.3849 85.6801 42.2035 85.1418 40.9723 84.7529Z" fill="#B4CEA0"/>
<path d="M14.4592 84.2554C15.2029 83.5136 16.1915 83.0975 17.1484 82.7063C17.8286 87.0822 19.2866 91.413 21.8964 95.0291C20.9577 94.7283 20.3183 93.9594 19.5428 93.4031C19.1029 93.0706 18.5361 93.3397 18.0531 93.3895C17.1393 91.7748 16.5316 90.0199 15.806 88.3193C15.7426 88.4233 15.6156 88.6291 15.5521 88.7331C14.958 88.0321 14.3254 87.3649 13.6248 86.7702C13.8402 85.9176 13.8379 84.9384 14.4592 84.2554Z" fill="#DA7957"/>
<path d="M95.1145 82.6814C96.0532 83.0161 97.1144 83.3146 97.722 84.1649C98.2662 85.0899 98.3297 86.1957 98.6041 87.2156C97.7493 87.4915 96.8513 87.8489 96.3706 88.6585C95.9035 89.6151 95.5793 90.6327 95.1349 91.6006C94.9489 91.422 94.7653 91.2456 94.5816 91.0692C93.4026 92.2587 92.3006 93.5184 91.2235 94.7961C90.9514 95.1353 90.5161 95.2484 90.1306 95.3999C92.8175 91.6594 94.5635 87.2541 95.1145 82.6814Z" fill="#DA7B59"/>
<path d="M35.3815 84.2894C36.4064 84.2103 37.1387 84.9656 37.6965 85.7187C37.2521 86.1823 36.8236 86.6594 36.4086 87.1502C36.3429 86.7725 36.2794 86.3971 36.2159 86.0217C35.4767 86.085 34.7352 86.1235 33.9938 86.1393C34.4813 85.5423 34.9461 84.9249 35.3815 84.2894Z" fill="#EACE89"/>
<path d="M46.2361 84.3162C47.3948 84.7164 48.4446 85.3858 49.6373 85.6911C49.7688 85.3632 49.898 85.033 50.0205 84.7029C50.8957 85.7205 51.7755 86.7427 52.4965 87.8825C51.6417 87.7332 50.7914 87.5614 49.9479 87.3669C49.8255 87.5682 49.7053 87.7717 49.5851 87.9752C48.5149 86.7133 47.422 85.4695 46.2361 84.3162Z" fill="#B3CEA0"/>
<path d="M62.2511 84.3711C62.4393 84.6017 62.6297 84.8369 62.8474 85.045C63.9063 84.9839 64.8654 84.4434 65.9221 84.3462C64.9017 85.4068 63.7997 86.3951 62.8497 87.5235C61.8633 87.2838 60.8407 87.329 59.8499 87.5077C60.5709 86.4018 61.4597 85.4226 62.2511 84.3711Z" fill="#B0CEA0"/>
<path d="M67.7101 85.7706C68.8597 85.4223 69.9367 84.8819 71.0636 84.4771C71.245 85.4156 71.499 86.3428 71.7734 87.2587C70.0478 87.4758 68.4992 88.2967 66.8303 88.7083C67.1364 87.7336 67.4516 86.7611 67.7101 85.7706Z" fill="#C9CD8B"/>
<path d="M40.974 84.7527C42.2052 85.1417 43.3866 85.6799 44.6405 86.0078C44.8945 86.9644 45.187 87.9097 45.5135 88.8459C44.5203 88.7102 43.5294 88.5587 42.534 88.4343C42.4841 88.5542 42.3798 88.7984 42.3299 88.9205C42.1984 88.6763 42.0692 88.4321 41.9422 88.1878C41.1645 88.2851 40.4139 88.5135 39.7042 88.8369C40.2303 87.5094 40.6021 86.1277 40.974 84.7527Z" fill="#CCCD87"/>
<path d="M33.9955 86.1393C34.737 86.1235 35.4784 86.085 36.2176 86.0217C36.2811 86.3971 36.3446 86.7725 36.4104 87.1502C34.8549 88.8825 33.7665 90.9563 32.7643 93.0391C32.7756 92.1594 32.8822 91.2887 33.0591 90.4271C32.2904 90.5017 31.5444 90.7233 30.8596 91.0761C31.6646 89.2941 32.7597 87.6523 33.9955 86.1393Z" fill="#EDBF66"/>
<path d="M49.9467 87.3669C50.7902 87.5614 51.6404 87.7333 52.4953 87.8826C53.2277 88.9703 53.917 90.092 54.4997 91.2657C53.6403 91.2318 52.688 91.2454 52.0441 91.9057C51.4092 90.49 50.5702 89.1693 49.5839 87.9753C49.704 87.7717 49.8242 87.5682 49.9467 87.3669Z" fill="#C9CF8F"/>
<path d="M59.848 87.5071C60.8388 87.3284 61.8615 87.2832 62.8478 87.5229C62.1245 88.466 61.4692 89.4587 60.8457 90.4719C60.6507 90.1779 60.4579 89.8839 60.2652 89.5922C59.5963 89.7392 58.9296 89.8839 58.2607 90.0241C58.7482 89.1602 59.2788 88.3212 59.848 87.5071Z" fill="#C5CD91"/>
<path d="M66.8316 88.7084C68.5005 88.2968 70.0492 87.4759 71.7747 87.2588C71.8835 87.6138 71.9969 87.9689 72.1171 88.3217C71.2464 88.4053 70.4346 88.7378 69.7385 89.2624C69.6909 89.1516 69.6002 88.93 69.5549 88.8192C69.2238 89.4456 68.9245 90.0901 68.6683 90.7527C67.8361 90.6057 66.9972 90.4836 66.1582 90.3819C66.4054 89.8323 66.6321 89.276 66.8316 88.7084Z" fill="#EACB8D"/>
<path d="M42.5331 88.4346C43.5285 88.559 44.5194 88.7105 45.5125 88.8462C45.7846 89.554 46.0771 90.2528 46.3832 90.9493C45.8866 90.6667 45.4241 90.3297 44.9207 90.0628C44.4604 90.2573 44.0795 90.5898 43.6804 90.8815C43.2972 90.0741 43.338 88.9728 42.5331 88.4346Z" fill="#EACE8D"/>
<path d="M78.6269 89.3958C79.094 89.251 79.5634 89.1131 80.035 88.9819C80.8377 90.3592 81.4952 91.811 82.1256 93.2742C81.2481 93.1453 80.4204 93.4755 79.7606 94.0363C79.3298 92.9644 78.7924 91.9399 78.2346 90.9313C78.3684 90.4202 78.4999 89.9091 78.6269 89.3958Z" fill="#EAA55B"/>
<path d="M58.2619 90.024C58.9308 89.8838 59.5975 89.739 60.2664 89.592C60.4591 89.8838 60.6519 90.1778 60.8469 90.4718C60.5294 91.001 60.2437 91.546 59.9807 92.1046C59.5408 90.9964 58.2007 91.2407 57.3799 91.7495C57.6452 91.1615 57.9445 90.5871 58.2619 90.024Z" fill="#DFCD88"/>
<path d="M43.6803 90.8812C44.0794 90.5894 44.4603 90.257 44.9206 90.0625C45.424 90.3294 45.8865 90.6663 46.3831 90.949C47.2629 92.6157 48.1857 94.2756 49.3829 95.7388C50.163 96.7225 51.0903 97.5796 51.8772 98.5588C50.7752 98.1993 49.9974 97.3105 49.1607 96.5642C48.9181 96.9736 48.5825 97.3603 48.4805 97.8306C48.5916 98.301 48.8206 98.733 49.0134 99.1717C48.8342 99.1355 48.6551 99.1016 48.476 99.0677C48.1925 98.4887 47.8638 97.9347 47.4602 97.4326C45.8843 95.4516 44.5895 93.2444 43.6803 90.8812Z" fill="#ECC066"/>
<path d="M60.7823 98.1542C63.0589 95.9403 64.8479 93.2627 66.1585 90.3816C66.9974 90.4834 67.8364 90.6055 68.6686 90.7525C67.757 93.17 66.4873 95.4676 64.7844 97.4215C64.3173 97.2203 63.8457 96.8449 63.306 96.9851C62.4036 97.2203 61.6236 97.7675 60.7823 98.1542Z" fill="#EEC167"/>
<path d="M52.046 91.9054C52.69 91.245 53.6423 91.2314 54.5017 91.2654C55.0708 92.3916 55.386 93.6263 55.9687 94.7435C56.7192 93.9226 56.8802 92.7263 57.3813 91.7493C58.2022 91.2405 59.5422 90.9962 59.9821 92.1044C59.2066 93.7733 58.5015 95.4807 58.0003 97.2537C56.7306 96.8128 55.352 96.8806 54.123 97.4211C53.6242 95.5169 52.8442 93.701 52.046 91.9054Z" fill="#EDC46B"/>
<path d="M73.0273 92.7769C73.4854 92.9171 73.9434 93.0505 74.406 93.1817C76.17 95.9655 78.3785 98.4939 81.0451 100.452C81.2174 100.635 81.3829 100.828 81.5507 101.02L81.2605 101.151C79.4556 99.8507 78.018 98.132 76.3786 96.6462C75.8458 96.065 75.0839 96.6508 74.4717 96.791C74.6871 97.4174 74.8844 98.0529 75.0953 98.6816C73.9411 97.3021 72.8686 95.8457 72.0297 94.2536C72.3222 93.7335 72.6532 93.2405 73.0273 92.7769Z" fill="#EBA355"/>
<path d="M37.3857 93.5248C37.8528 93.3823 38.3176 93.2127 38.8097 93.1765C39.3607 93.2308 39.8187 93.5881 40.2994 93.8346C39.4105 95.7071 38.0138 97.2562 36.9027 98.9885C37.2701 99.0156 37.6351 99.036 38.0047 99.0541L37.6941 99.226C37.1612 99.3119 36.6238 99.287 36.0887 99.2712C36.4515 98.733 36.8325 98.206 37.2202 97.6859C36.4334 97.4869 35.6511 97.2675 34.8824 97.0142C35.6624 95.8111 36.6307 94.7437 37.3857 93.5248Z" fill="#E99E54"/>
<path d="M26.8337 95.4405C27.5571 95.0357 28.2963 94.6558 29.0468 94.303C29.108 94.4319 29.2282 94.6897 29.2871 94.8186C29.9175 95.4111 30.761 95.6599 31.5659 95.9199C31.0648 97.3718 30.761 98.9073 30.7496 100.447C30.4798 100.563 30.2077 100.945 29.9084 100.68C29.2236 100.366 28.65 99.6717 27.8246 99.8119C27.5593 98.3419 27.2736 96.8697 26.8337 95.4405ZM30.7678 100.832C32.3414 99.8074 33.9853 98.7264 34.8832 97.0145C35.6519 97.2678 36.4341 97.4871 37.2209 97.6861C36.8332 98.2063 36.4523 98.7332 36.0895 99.2714C36.6246 99.2872 37.162 99.3121 37.6948 99.2262C38.3071 99.8684 38.9941 100.454 39.8467 100.753C39.8194 100.827 39.7696 100.977 39.7424 101.053C37.611 101.461 35.4659 101.901 33.423 102.65C32.4956 102.128 31.3142 101.825 30.7678 100.832Z" fill="#E28151"/>
<path d="M85.2455 92.2198C85.826 91.8331 86.3498 91.2949 87.0845 91.2271C85.6106 93.9679 84.6492 96.9667 84.1141 100.029C84.0483 99.902 83.9191 99.6533 83.8533 99.5266C83.1232 100.076 82.3863 100.635 81.5519 101.019C81.3841 100.827 81.2185 100.635 81.0462 100.452L81.3863 100.619C81.18 98.3642 80.6608 96.1209 79.7606 94.0358C80.4204 93.475 81.248 93.1448 82.1255 93.2737C82.35 93.7802 82.6017 94.2755 82.8579 94.7708C83.1663 94.0381 83.4293 93.2872 83.7128 92.5455C84.2252 92.4776 84.8034 92.5432 85.2455 92.2198Z" fill="#E5854F"/>
<path d="M74.4728 96.7901C75.085 96.6499 75.8469 96.0642 76.3797 96.6454C78.0191 98.1312 79.4567 99.8499 81.2616 101.15C80.4045 101.537 79.6199 102.057 78.8603 102.604C76.3956 101.813 73.8561 101.198 71.278 100.933C71.1555 100.818 70.9129 100.587 70.7927 100.47C71.8743 99.7323 73.203 99.5581 74.3617 98.9815C74.661 99.0267 74.9626 99.0719 75.2641 99.1126C75.2233 99.0064 75.1394 98.7892 75.0964 98.6807C74.8855 98.052 74.6882 97.4165 74.4728 96.7901Z" fill="#E5854F"/>
<path d="M48.4803 97.8306C48.5824 97.3602 48.918 96.9735 49.1606 96.5642C49.9973 97.3105 50.775 98.1992 51.877 98.5588C53.0402 99.7687 53.1037 101.519 53.2873 103.086C50.4054 102.213 47.5416 101.01 44.4783 101.022C42.8979 101.044 41.3174 100.988 39.7393 101.053C39.7665 100.976 39.8164 100.827 39.8436 100.752C38.991 100.454 38.304 99.8682 37.6918 99.226L38.0024 99.0541C41.3855 97.9143 45.0361 98.5204 48.4758 99.0677C48.6549 99.1016 48.8341 99.1355 49.0132 99.1717C48.8205 98.7329 48.5914 98.301 48.4803 97.8306Z" fill="#E9984D"/>
<path d="M54.1208 97.4214C55.3498 96.8809 56.7284 96.813 57.9982 97.254C57.4404 99.3572 57.2862 101.542 57.2703 103.711C57.1161 103.301 56.971 102.892 56.8259 102.483C56.3021 102.546 55.7806 102.616 55.2591 102.693C55.114 103.109 54.9621 103.523 54.826 103.943C54.8668 101.748 54.6197 99.5607 54.1208 97.4214Z" fill="#EAA055"/>
<path d="M60.7825 98.1539C61.6237 97.7672 62.4037 97.2199 63.3061 96.9847C63.8458 96.8445 64.3174 97.2199 64.7845 97.4212C64.6054 97.6383 64.424 97.8576 64.2539 98.0838C63.6984 98.2738 63.3401 98.7306 63.0635 99.2236C63.3175 99.1784 63.5737 99.149 63.8277 99.1037C65.3038 98.8731 66.7821 98.5836 68.2832 98.5904C70.3126 98.6017 72.376 98.4637 74.3623 98.9816C73.2036 99.5583 71.8749 99.7324 70.7933 100.47C70.9135 100.587 71.1561 100.818 71.2785 100.933C66.993 100.623 62.7778 101.698 58.7939 103.165C58.7281 101.322 59.1522 99.2575 60.7825 98.1539Z" fill="#E9984E"/>
<path d="M63.063 99.2233C63.3396 98.7303 63.6979 98.2735 64.2534 98.0835C64.0992 98.4182 63.9655 98.7597 63.8271 99.1034C63.5732 99.1486 63.3169 99.178 63.063 99.2233Z" fill="#ECC071"/>
<path d="M55.262 102.693C55.7836 102.616 56.3051 102.546 56.8289 102.482C56.974 102.892 57.1191 103.301 57.2733 103.71C57.271 105.097 57.3572 106.487 57.6225 107.853C56.5749 107.914 55.5296 107.996 54.4866 108.098C54.7451 106.727 54.8222 105.334 54.829 103.943C54.965 103.523 55.1169 103.109 55.262 102.693Z" fill="#DF8052"/>
<path d="M58.6451 103.547C60.5385 103.965 62.3162 104.782 64.2276 105.135C66.9168 105.788 69.7013 105.666 72.4449 105.634C70.8032 106.272 69.1253 106.833 67.4043 107.22C66.8057 107.355 66.2343 107.579 65.6811 107.842C64.9283 107.731 64.1755 107.622 63.4204 107.53C63.6381 107.835 63.858 108.145 64.087 108.445C63.3705 108.303 62.6608 108.108 61.9284 108.09C61.6246 108.296 61.3752 108.565 61.1099 108.819C60.3775 107.995 59.4229 107.374 58.8039 106.455C58.4501 105.533 58.6701 104.508 58.6451 103.547Z" fill="#DA7A55"/>
<path d="M45.8371 105.547C48.3653 105.171 50.821 104.45 53.2789 103.771C53.2585 104.647 53.3469 105.54 53.1678 106.404C52.6576 107.207 51.8278 107.736 51.2155 108.457C50.2541 108.258 49.2701 108.258 48.2973 108.322C48.4923 108.055 48.6851 107.786 48.8778 107.519C48.0411 107.596 47.2067 107.709 46.3791 107.849C45.3632 107.333 44.2363 107.166 43.1321 106.958C42.216 106.797 41.436 106.255 40.7626 105.642C42.4541 105.63 44.1524 105.732 45.8371 105.547Z" fill="#DD7954"/>
</svg>
