<svg width="89" height="88" viewBox="0 0 89 88" fill="none" xmlns="http://www.w3.org/2000/svg">
<path fill-rule="evenodd" clip-rule="evenodd" d="M22.3118 40.9688C21.7135 37.5957 20.4171 34.5202 18.4227 31.8416C17.7247 30.7503 16.5281 29.4605 14.9325 28.0716C13.0379 26.5835 11.1432 25.6906 9.64739 25.0953C8.79866 24.7576 7.80547 24.4917 6.85224 24.2365C6.68549 24.1919 6.51995 24.1475 6.35663 24.1032C6.85523 23.1111 7.45355 22.119 8.05187 21.127C8.55047 21.7222 9.04907 22.2183 9.64739 22.7143V22.8135C10.7443 23.8056 12.7387 25.2937 15.3314 26.2858C17.8244 27.2779 20.5169 27.774 23.309 27.774C26.1012 27.6748 28.7936 27.0795 31.2866 26.0874C31.4861 25.889 31.5858 25.7898 31.7852 25.6906C31.7029 26.5911 31.4849 27.424 31.2991 28.1336C31.2597 28.284 31.2218 28.4289 31.1869 28.5677C27.3975 32.04 24.8048 36.802 24.4059 42.2586C24.2606 42.1759 24.1109 42.0933 23.9596 42.0097C23.3843 41.6921 22.7855 41.3616 22.3118 40.9688ZM28.1938 29.1582C26.5982 29.4558 25.0027 29.6542 23.4072 29.6542C21.712 29.6542 20.1164 29.4558 18.7204 29.2574C20.9142 31.6384 22.5097 34.4162 23.5069 37.5909C24.4044 34.4162 26.0996 31.5392 28.1938 29.1582Z" fill="url(#paint0_radial)"/>
<path fill-rule="evenodd" clip-rule="evenodd" d="M76.4095 63.8613C75.8131 69.978 72.5332 75.3179 67.5636 78.619C68.0606 72.5023 71.3405 67.1623 76.1113 63.7642C74.8192 63.2787 73.7259 62.9875 72.732 62.7933C70.7442 63.4729 68.657 63.7642 66.4703 63.7642C63.3892 63.7642 60.5068 63.1817 57.8233 62.0166C57.7239 62.9875 57.8233 63.8613 57.9227 64.7351C62.0971 68.0362 64.8801 72.8907 65.4764 78.3277C60.9044 75.2208 57.7239 70.3663 56.8294 64.7351C56.6306 63.4729 56.5312 62.1137 56.6306 60.4631C56.73 58.5213 57.1275 56.8708 57.6245 55.6086C59.016 51.4338 61.6995 47.9385 65.1782 45.4142C64.5416 45.1655 63.9458 44.9565 63.3907 44.7619L63.3906 44.7619L63.3896 44.7615L63.3896 44.7615L63.3892 44.7614L63.3892 44.7614L63.3891 44.7614C63.0781 44.6523 62.78 44.5478 62.4947 44.4433C60.3081 45.22 58.0221 45.6084 55.6367 45.6084C52.4561 45.6084 49.375 44.9287 46.6914 43.6666C49.375 42.4044 52.3567 41.6277 55.6367 41.6277C57.4257 41.6277 59.1154 41.8219 60.7056 42.2102C61.9977 42.5015 63.6874 42.987 65.4764 43.9579C66.8998 44.6994 67.9608 45.5295 68.919 46.2791L68.919 46.2791L69.0545 46.3851C72.6326 49.2978 75.2168 53.4727 76.1113 58.133C76.6083 58.6184 77.2046 59.201 77.9004 59.6864C78.7949 60.366 79.6894 60.8515 80.4845 61.2399C81.876 60.6573 83.4663 60.269 85.0566 60.0748C85.2056 59.735 85.3299 59.4194 85.4541 59.1039L85.4542 59.1038L85.4542 59.1036C85.5784 58.7881 85.7027 58.4727 85.8517 58.133C84.9055 58.217 84.0337 58.3738 83.1076 58.5403L82.8302 58.5901L82.6712 58.6184C85.156 56.0941 86.945 52.9872 87.9389 49.5891C88.2371 47.5502 88.4359 45.4142 88.3365 43.2782C88.3365 41.1422 88.1377 39.0063 87.8395 36.9674C86.7462 33.4721 84.8578 30.3653 82.2736 27.8409C83.3669 28.1322 84.4602 28.2293 85.5535 28.3264C85.4044 27.9865 85.2802 27.671 85.1559 27.3554C85.0317 27.0399 84.9075 26.7244 84.7584 26.3846C83.3669 26.1904 82.0748 25.8991 80.7827 25.4137C80.087 25.7049 79.4906 25.9962 78.7949 26.3846C78.6955 26.4331 78.5961 26.5059 78.4967 26.5788C78.3973 26.6516 78.2979 26.7244 78.1985 26.7729C83.0687 30.074 86.3486 35.4139 86.945 41.5306C82.0748 38.2295 78.7949 32.8896 78.1985 26.87C77.304 27.4526 76.5089 28.1322 75.9125 28.7147C75.018 34.0547 71.8375 38.715 67.4643 41.7248C68.0572 42.1385 68.7223 42.4112 69.3365 42.663C69.443 42.7067 69.548 42.7497 69.6509 42.7928C72.0363 41.8219 74.5211 41.3364 77.2046 41.3364C80.3852 41.3364 83.4663 42.0161 86.1499 43.2782C83.4663 44.5404 80.4846 45.3171 77.2046 45.3171C74.0241 45.3171 71.0424 44.6375 68.3588 43.4724H68.2594C67.0667 42.9869 65.7746 42.3073 64.3831 41.3364C63.588 40.7539 62.7929 40.0743 62.1965 39.3946C59.0473 36.2222 56.8725 32.0027 56.3476 27.3959C56.3835 27.3684 56.4196 27.3412 56.4559 27.3141C56.5267 27.344 56.6033 27.3739 56.6799 27.4039L56.6799 27.4039L56.6803 27.404C56.8045 27.4526 56.9287 27.5011 57.0281 27.5497C61.1032 30.5594 63.9855 35.0256 64.8801 40.0743C65.2776 40.4626 65.7746 40.851 66.2716 41.1422L67.1661 41.7248C67.7624 36.2877 70.7442 31.142 75.1174 27.7438C75.1174 27.7438 75.2168 27.7438 75.2168 27.6467L75.3659 27.5299C75.8317 27.1641 76.3783 26.7349 77.0058 26.3846C77.9998 25.802 78.9937 25.3166 79.8882 24.9282L79.9876 24.8311C81.0809 24.3457 82.1742 24.0544 83.3669 23.7631C82.8699 22.7922 82.2736 21.8213 81.6772 20.8504C81.6772 20.899 81.6524 20.9475 81.6275 20.9961C81.6027 21.0446 81.5779 21.0932 81.5779 21.1417C80.4846 22.3068 78.6955 23.9573 76.0119 25.3166C74.8192 25.8991 73.6265 26.2875 72.6326 26.5788C70.6448 27.1613 68.5576 27.5497 66.4703 27.5497C63.6874 27.5497 61.0038 27.0642 58.519 26.0933C57.9227 26.3846 57.2269 26.7729 56.5312 27.2584C56.506 27.2768 56.4809 27.2954 56.4559 27.3141C56.412 27.2955 56.3704 27.2769 56.3324 27.2584C56.3373 27.3043 56.3423 27.3501 56.3476 27.3959C55.6285 27.946 54.994 28.5658 54.444 29.1031C53.5494 34.5401 50.3689 39.2004 45.9957 42.2102C46.3932 35.9965 49.6732 30.5594 54.6427 27.1613L54.7421 27.0642C57.1275 25.3166 59.5129 24.5399 61.1032 24.0544H61.2026C62.8922 23.569 64.6813 23.3748 66.4703 23.3748C69.0545 23.3748 71.5393 23.8602 73.8253 24.637C74.7198 24.4428 75.7138 24.0544 76.8071 23.569C77.1052 23.4233 77.4034 23.2534 77.7016 23.0835C77.9998 22.9136 78.2979 22.7437 78.5961 22.5981C78.7949 20.9475 79.1925 19.3941 79.7888 17.9377C79.59 17.6465 79.3664 17.3795 79.1428 17.1125L79.1426 17.1123C78.9191 16.8454 78.6955 16.5784 78.4967 16.2872C78.0992 17.161 77.7016 18.1319 77.4034 19.1028C76.3101 15.7047 74.4217 12.6949 72.0363 10.1706C68.7563 7.74331 65.1782 5.70442 61.302 4.15098C59.5129 3.76262 57.6245 3.47135 55.736 3.47135C53.7482 3.47135 51.8598 3.76262 49.9713 4.24807C50.7665 3.47135 51.5616 2.59754 52.158 1.62664L50.0707 1.33537C49.1762 2.40336 48.1823 3.37426 47.1884 4.24807C47.089 5.12188 46.9896 6.18987 46.9896 7.25786C49.6732 5.99569 52.5555 5.31606 55.736 5.31606C58.9166 5.31606 61.8983 5.99569 64.6813 7.25786C64.4328 7.40349 64.2092 7.5734 63.9855 7.74331C63.7619 7.91322 63.5383 8.08312 63.2898 8.22876C61.0038 9.10257 58.4196 9.68511 55.736 9.68511C53.0525 9.68511 50.3689 9.19966 47.9835 8.32585C47.7976 8.14425 47.5731 8.00039 47.334 7.84721C47.1896 7.7547 47.0399 7.6588 46.8902 7.54913V7.74331C46.9896 8.61712 47.089 9.39384 47.2878 10.1706C51.164 13.3745 53.8476 17.8407 54.5434 23.0835C55.4379 22.5981 56.233 22.1126 56.9287 21.6272C57.8233 16.9668 60.4075 12.8891 63.9855 9.97637C64.2804 9.90437 64.5206 9.77896 64.7872 9.63975C64.8801 9.59126 64.9761 9.54109 65.0789 9.49093C64.2837 15.1221 61.2026 19.9766 56.73 23.1806C55.9348 23.7631 54.9409 24.3457 53.8476 24.9282C53.5494 25.1224 53.2513 25.2195 52.9531 25.3166C50.4683 26.3846 47.6853 26.9671 44.803 27.0642C41.9206 27.0642 39.1377 26.4817 36.6529 25.5108L36.8517 25.3166C39.3364 24.3457 42.02 23.7631 44.803 23.6661C46.8902 23.6661 48.7786 23.9573 50.6671 24.4428C51.5616 24.2486 52.6549 23.9573 53.7482 23.4719C50.6671 21.2388 48.3811 18.1319 46.9896 14.5396C46.9399 14.4425 46.915 14.3454 46.8902 14.2483C46.8653 14.1512 46.8405 14.0542 46.7908 13.9571C46.7701 13.8963 46.7493 13.8397 46.7295 13.7856L46.7295 13.7856C46.6543 13.5805 46.592 13.4108 46.592 13.1803C46.5423 13.0833 46.5175 12.9862 46.4926 12.8891C46.4678 12.792 46.4429 12.6949 46.3932 12.5978V12.5007C46.0951 11.5298 45.8963 10.3647 45.7969 9.19966C45.5981 6.28696 45.8963 3.85971 46.3932 2.40336L46.6914 1.23828H44.803H44.7036C44.0078 1.23828 43.4115 1.23828 42.7158 1.33537C43.2127 2.79172 43.5109 4.24807 43.7097 5.8986C43.8091 6.67529 43.8091 7.54906 43.8091 8.42284V8.42294V8.42297C43.8091 8.71423 43.8091 9.00549 43.7097 9.29675C43.3121 14.928 40.5291 19.8795 36.3547 23.2777C36.2553 23.9573 36.2553 24.637 36.3547 25.4137C36.4541 26.6758 36.6529 27.8409 36.951 28.7147C40.9267 32.0158 43.5109 36.7732 44.0078 42.2102C40.231 39.5888 37.3486 35.8023 36.0565 31.3362C35.659 30.1711 35.2614 28.6176 35.162 26.7729C35.0626 25.802 35.162 24.8311 35.2614 23.9573V23.8602V23.569C35.7583 18.4232 38.2431 13.9571 41.9206 10.656C42.2188 9.58802 42.517 8.42294 42.517 6.96659V6.96652C42.517 6.384 42.517 5.80149 42.4176 5.21897C41.1255 4.15098 39.9328 2.9859 38.9389 1.62664L36.8517 1.91791C37.3486 2.8888 37.9449 3.56842 38.5413 4.24805L38.5413 4.24807C37.0504 3.9568 35.4602 3.76262 33.8699 3.76262C32.1802 3.76262 30.59 3.9568 29.0991 4.34516C29.0991 4.29661 29.124 4.27234 29.1488 4.24807C29.1737 4.2238 29.1985 4.19952 29.1985 4.15098C24.6265 5.8986 20.452 8.32585 16.7746 11.4327C16.8739 11.4327 16.9733 11.4327 17.0727 11.3356C14.8861 13.7629 13.2958 16.6756 12.4013 19.9766C12.1032 18.9088 11.7057 17.9381 11.3082 16.9673L11.3082 16.9673L11.3082 16.9673L11.3082 16.9673L11.3082 16.9673L11.3081 16.9672L11.3081 16.9672L11.3081 16.9672L11.3081 16.9672L11.3081 16.9672L11.3081 16.9672L11.3081 16.9671L11.3081 16.9671L11.3081 16.9671L11.3081 16.9671L11.3081 16.9671L11.3081 16.9671L11.3081 16.967L11.3081 16.967L11.3081 16.967L11.3081 16.967L11.3081 16.967L11.3081 16.967L11.308 16.9669L11.308 16.9669L11.308 16.9669L11.308 16.9669L11.308 16.9669L11.308 16.9669C10.8111 17.5494 10.4135 18.0348 10.0159 18.6174C10.6123 19.9766 11.0098 21.433 11.2086 22.9864C12.2025 23.6661 13.3952 24.4428 14.8861 24.9282L15.7806 25.2195C18.166 24.3457 20.6508 23.7631 23.3344 23.7631C26.3161 23.7631 29.1985 24.3457 31.8821 25.5108V25.0253C31.8821 24.0544 31.8821 23.2777 31.6833 22.4039C27.7076 19.1999 25.0241 14.6367 24.3283 9.39384C28.0058 12.1124 30.9875 16.093 32.1802 20.7534C32.1802 20.8504 32.2051 20.9233 32.2299 20.9961C32.2548 21.0689 32.2796 21.1417 32.2796 21.2388C32.6772 22.5981 32.9754 24.4428 32.876 26.4817C32.876 27.2584 32.7766 27.938 32.6772 28.6176C31.8821 34.2489 28.8009 39.1034 24.3283 42.2102C24.378 42.2588 24.4277 42.2831 24.4774 42.3073C24.5271 42.3316 24.5768 42.3559 24.6265 42.4044C25.4216 42.7928 26.3161 43.084 27.0119 43.2782C29.1985 42.5015 31.5839 42.0161 34.0687 42.0161C37.2492 42.0161 40.3304 42.6957 43.0139 43.9579C40.3304 45.22 37.3486 45.9967 34.0687 45.9967C31.1863 45.9967 28.5028 45.5113 26.018 44.4433L26.0179 44.4433C25.8192 44.3462 25.6204 44.2491 25.3222 44.152C25.3222 44.152 25.2228 44.152 25.2228 44.0549H25.1234C24.0301 43.5695 23.0362 42.987 22.2411 42.4044C17.7685 39.3946 14.4885 34.6372 13.594 29.2002C13.5047 29.1129 13.3952 29.0256 13.2748 28.9295C13.1272 28.8118 12.963 28.6809 12.7989 28.5206C11.2086 27.2584 9.61836 26.5788 8.22688 26.0933C7.13357 26.4817 5.94087 26.87 4.74817 27.0642C4.45 27.7438 4.15183 28.4235 3.95304 29.1031L4.18758 29.0616C5.2149 28.8803 6.3097 28.6871 7.23296 28.3264C4.84757 30.6565 2.95913 33.4721 1.86582 36.6761C1.46825 39.1034 1.26947 41.5306 1.26947 44.152C1.26947 46.6764 1.56764 49.2007 1.96521 51.628C3.05852 54.5407 4.84757 57.2592 7.03418 59.3951C6.04027 59.201 5.04635 59.0068 4.05243 58.9097C4.20152 59.2495 4.32576 59.5651 4.45 59.8806C4.57424 60.1961 4.69848 60.5117 4.84757 60.8515C6.23905 61.0457 7.63053 61.434 8.92262 61.8224C9.56249 61.588 10.138 61.2279 10.7527 60.8432L10.7528 60.8431L10.7528 60.8431L10.7532 60.8428L10.7539 60.8424L10.7553 60.8415L10.7559 60.8411C10.9041 60.7485 11.0545 60.6543 11.2086 60.5602C11.2697 60.5222 11.3299 60.4839 11.3892 60.4454L11.4098 60.4595L11.4072 60.4337C12.3995 59.7853 13.1399 59.062 13.7928 58.4243C14.7867 53.2785 17.7685 48.9094 21.9429 45.8997C21.7441 45.8026 21.5453 45.7055 21.446 45.5113C21.1478 45.3657 20.8744 45.22 20.6011 45.0744C20.3278 44.9287 20.0545 44.7831 19.7563 44.6375C17.4703 45.5113 14.8861 46.0938 12.3019 46.0938C9.1214 46.0938 6.04027 45.4142 3.35669 44.152C6.04027 42.8899 9.02201 42.1131 12.3019 42.1131C15.1843 42.1131 17.9673 42.6957 20.452 43.6666C20.5656 43.7159 20.6808 43.7652 20.7973 43.8151L20.7986 43.8156L20.7987 43.8157C21.5999 44.1587 22.4672 44.5299 23.3344 45.1229C23.7357 45.3581 24.1369 45.6566 24.4859 45.9162L24.4861 45.9163L24.488 45.9178L24.4902 45.9194L24.4905 45.9196L24.4919 45.9206L24.4921 45.9208C24.5731 45.981 24.6512 46.0391 24.7259 46.0938C29.1985 49.3949 32.2796 54.4436 32.876 60.1719C33.9693 59.3951 34.8638 58.5213 35.5596 57.8417C36.6529 52.793 39.6346 48.5211 43.7097 45.6084C43.2127 51.0454 40.6285 55.8028 36.6529 59.201C35.8577 59.8806 34.8638 60.6573 33.6711 61.3369C31.4845 62.5991 29.4967 63.1817 27.9064 63.57C26.4155 63.9584 24.9247 64.0555 23.3344 64.1526C21.0484 64.1526 18.8618 63.7642 16.7746 63.1817C15.88 63.3758 14.7867 63.7642 13.6934 64.2496C18.5636 67.5507 21.8435 72.7936 22.4399 78.8131C17.5697 75.5121 14.2898 70.2692 13.594 64.2496C12.6995 64.7351 11.805 65.2205 11.1092 65.8031C10.9105 67.0653 10.5129 68.3274 10.1153 69.4925C10.3141 69.7837 10.5376 70.0507 10.7612 70.3176L10.7613 70.3176L10.7614 70.3178C10.985 70.5848 11.2086 70.8518 11.4074 71.143C11.4803 70.965 11.5532 70.7903 11.6255 70.617L11.6255 70.617C11.9474 69.8452 12.2572 69.1025 12.5007 68.2303C13.3952 71.4343 15.0849 74.2499 17.2715 76.6772C21.0484 79.6869 25.3222 82.1142 29.9936 83.7647C31.3851 84.056 32.876 84.1531 34.3669 84.1531C36.1559 84.1531 37.945 83.9589 39.6346 83.4734C38.9389 84.1531 38.3425 84.9298 37.8456 85.7065L39.9328 85.9978C40.8273 84.9298 41.8212 83.8618 43.0139 82.988C43.0139 82.7615 43.025 82.5457 43.036 82.33C43.0581 81.8984 43.0802 81.4669 43.0139 80.9491V80.4637C40.4297 81.6287 37.5474 82.3084 34.4663 82.3084C31.2857 82.3084 28.304 81.6287 25.6204 80.4637C28.304 79.2015 31.2857 78.5219 34.3669 78.5219C37.448 78.5219 40.3304 79.1044 42.9145 80.2695C42.8151 79.1044 42.517 78.0364 42.2188 77.1626C38.4419 73.8615 35.9571 69.2983 35.3608 64.1526C40.1316 67.4536 43.4115 72.5994 44.1072 78.619C44.1072 78.7646 44.1321 78.9345 44.1569 79.1044C44.1818 79.2743 44.2066 79.4442 44.2066 79.5899C44.4054 82.5026 43.9085 84.8327 43.4115 86.3862H45.2999C45.8963 86.3862 46.4926 86.3861 46.9896 86.2891V86.192C46.4926 84.6385 45.8963 82.3084 46.0951 79.3957C46.0951 79.153 46.1199 78.9102 46.1448 78.6675C46.1696 78.4248 46.1945 78.1821 46.1945 77.9393C46.7908 72.5994 49.5738 67.9391 53.5494 64.7351C53.6488 63.9584 53.6488 63.0846 53.6488 62.2108C53.5494 61.0457 53.3507 59.9777 53.0525 59.1039C49.0768 55.8028 46.3932 50.9483 45.7969 45.6084C49.9713 48.3269 52.9531 52.5989 54.2452 57.4534C54.5433 58.4243 54.7421 59.5893 54.8415 60.8515C54.9409 61.9195 54.8415 62.9875 54.7421 63.9584C54.3446 69.2983 51.7604 74.0557 47.7847 77.4539C47.4865 78.3277 47.2878 79.2986 47.1884 80.4637V80.852V82.8909C48.3811 83.8618 49.4744 84.8327 50.4683 85.9978L52.5555 85.7065C51.9592 84.9298 51.3628 84.1531 50.6671 83.4734C52.3567 83.8618 54.1458 84.056 55.9348 84.056C57.4257 84.056 58.9166 83.8618 60.3081 83.5705C64.8801 81.8229 69.1539 79.3957 72.8314 76.3859C74.9186 74.0557 76.5089 71.2401 77.4034 68.2303C77.7016 69.1041 78.0992 70.075 78.4967 70.8518C78.9937 70.3663 79.3912 69.7838 79.7888 69.2012C79.2918 67.842 78.8943 66.4827 78.5961 65.0264C78.447 64.9293 78.2731 64.8322 78.0992 64.7351C77.9252 64.638 77.7513 64.5409 77.6022 64.4438L76.4095 63.8613ZM47.1884 80.4637C49.7726 79.2015 52.7543 78.5219 55.8354 78.5219C59.016 78.5219 61.9977 79.2015 64.6813 80.3666C61.9977 81.6287 59.016 82.3084 55.9348 82.3084C52.8537 82.3084 49.8719 81.6287 47.1884 80.4637ZM11.4072 60.4337C10.8039 54.5218 7.5266 49.2894 2.76276 45.9932V46.1873C3.45747 52.1011 6.72878 57.2404 11.3892 60.4454L11.4072 60.4337ZM77.304 39.8827C75.6143 39.8827 73.9246 40.0768 72.3344 40.4652C74.6204 38.0379 76.31 35.0282 77.304 31.8242C78.2979 35.1253 80.0869 38.0379 82.4723 40.4652C80.7827 40.0768 78.9936 39.8827 77.304 39.8827ZM87.0459 45.418C86.549 51.4375 83.2691 56.7775 78.4983 60.0785C78.9952 54.059 82.2751 48.719 87.0459 45.418ZM77.304 47.5523C79.093 47.5523 80.7827 47.3581 82.3729 46.9697C80.0869 49.397 78.2979 52.4068 77.4034 55.7079C76.4094 52.4068 74.6204 49.4941 72.3344 47.0668C73.9246 47.3581 75.6143 47.5523 77.304 47.5523ZM71.0432 29.1055C69.5523 29.3967 67.962 29.5909 66.3717 29.5909C64.6821 29.5909 63.0918 29.3967 61.601 29.2026C63.6882 31.5327 65.3778 34.2511 66.3717 37.3579C67.3657 34.2511 68.9559 31.4356 71.0432 29.1055ZM55.6404 32.0166C56.6343 35.3176 58.4234 38.2302 60.7094 40.6574C59.1191 40.2691 57.4295 40.172 55.7398 40.172C53.9508 40.172 52.2611 40.3662 50.6708 40.7545C52.9568 38.2302 54.6465 35.2205 55.6404 32.0166ZM50.8666 11.2422C52.9538 13.5724 54.5441 16.388 55.538 19.3978C56.4325 16.388 58.0228 13.5724 60.11 11.2422C58.6191 11.5335 57.1283 11.7276 55.538 11.7276C53.9477 11.7276 52.3575 11.5335 50.8666 11.2422ZM76.1133 23.4804C71.1437 20.2764 67.7644 15.0336 67.0686 8.91699C72.0382 12.218 75.5169 17.4609 76.1133 23.4804ZM71.7385 22.3077C69.2537 19.8805 67.2659 16.7736 66.1725 13.2783C65.0792 16.7736 63.0914 19.9776 60.4078 22.5019C62.2963 22.0165 64.2841 21.7252 66.2719 21.7252C68.1604 21.7252 69.9494 21.9194 71.7385 22.3077ZM44.7054 13.96C45.6993 17.0668 47.3889 19.8824 49.5756 22.3097C47.9853 22.0184 46.395 21.8242 44.8048 21.8242C43.2145 21.8242 41.6242 22.0184 40.034 22.3097C42.1212 19.9795 43.7115 17.1639 44.7054 13.96ZM21.1518 10.1762C17.0768 13.3802 14.2938 17.9434 13.5981 23.1862C17.6638 19.9896 20.4434 15.3432 21.2457 10.1149C21.2492 10.1048 21.2512 10.0929 21.2512 10.0791L21.2457 10.1149C21.2249 10.1762 21.1518 10.1762 21.1518 10.1762ZM28.9031 22.6951C27.0147 22.2096 25.1263 22.0155 23.1384 22.0155C20.8524 22.0155 18.6658 22.4038 16.5786 22.9864C19.5603 20.0737 21.7469 16.2872 22.7409 12.1123C23.7348 16.1901 25.9214 19.8795 28.9031 22.6951ZM25.9202 7.36149C25.8208 7.36149 25.7214 7.45859 25.622 7.55568C28.2062 8.52659 30.9892 9.10914 33.8715 9.10914C36.8533 9.10914 39.5368 8.52659 42.0216 7.45859L41.6241 7.07022C39.2387 6.1964 36.5551 5.71094 33.8715 5.71094C31.0886 5.80803 28.405 6.39058 25.9202 7.36149ZM28.0065 10.2656C29.8949 10.7511 31.8827 11.0423 33.97 11.0423C35.9578 11.0423 37.8462 10.7511 39.7347 10.2656C37.0511 12.887 35.0633 16.2852 33.97 19.9746C32.7773 16.1881 30.7894 12.887 28.0065 10.2656ZM28.9019 40.8519C30.5916 40.3665 32.3807 40.1723 34.1697 40.1723C35.8594 40.1723 37.549 40.3665 39.3381 40.7548C36.8533 38.2305 35.0642 35.1237 34.0703 31.7256C33.0764 35.2208 31.2873 38.3276 28.9019 40.8519ZM12.4041 47.9443C14.1932 47.9443 15.9822 47.7501 17.6719 47.2646C15.2865 49.7889 13.4974 52.8958 12.5035 56.391C11.5096 52.9929 9.72054 49.886 7.23575 47.3617C8.92541 47.7501 10.7145 47.9443 12.4041 47.9443ZM2.76276 42.406V42.0177C3.35911 36.0952 6.53964 30.9495 11.211 27.6484C10.8135 33.668 7.53355 39.0079 2.76276 42.406ZM7.33319 40.9513C8.92346 40.5629 10.6131 40.3687 12.4022 40.3687C14.1912 40.3687 15.9803 40.5629 17.7693 40.9513C15.3839 38.4269 13.4955 35.32 12.5016 31.9219C11.5076 35.32 9.71859 38.4269 7.33319 40.9513ZM34.1697 56.294C33.1758 52.8959 31.2873 49.789 28.9019 47.2646C30.5916 47.653 32.3807 47.8472 34.1697 47.8472C35.9587 47.8472 37.6484 47.653 39.2387 47.2646C36.9527 49.789 35.1636 52.8959 34.1697 56.294ZM23.5356 66.0009C21.6472 66.0009 19.8581 65.8067 18.1685 65.4184C20.5539 67.8456 22.4423 70.8555 23.635 74.2536C24.6289 70.8555 26.5174 67.8456 28.9028 65.3213C27.2131 65.7096 25.4241 66.0009 23.5356 66.0009ZM39.636 77.2642C37.9464 76.8758 36.1573 76.6816 34.3683 76.6816C32.4799 76.6816 30.6908 76.9729 29.0012 77.3613C31.4859 74.7398 33.275 71.6329 34.2689 68.1377C35.2628 71.6329 37.1513 74.7398 39.636 77.2642ZM39.6371 65.226C42.1219 67.6532 44.0104 70.7601 45.1037 74.1582C46.0976 70.7601 47.986 67.6532 50.3714 65.1289C48.6818 65.5173 46.8927 65.8085 45.0043 65.8085C43.1158 65.8085 41.3268 65.6143 39.6371 65.226ZM53.5505 62.1162C50.9663 63.2812 47.9846 63.9609 44.9034 64.058C42.518 64.058 40.3314 63.6696 38.2442 62.99C37.3497 63.1842 36.4551 63.5725 35.4612 64.058C34.4673 64.5434 33.5728 65.1259 32.877 65.6114C31.9825 71.0484 28.9014 75.7087 24.5281 78.7184C25.0251 72.6989 28.305 67.4561 33.0758 64.058C33.9703 63.3783 34.9643 62.7958 36.157 62.2133C36.8527 61.922 37.5484 61.6307 38.2442 61.4366C40.3314 60.7569 42.6174 60.3686 44.9034 60.2715C48.0839 60.2715 50.9663 60.9511 53.5505 62.1162ZM44.9051 58.5256C46.7935 58.5256 48.682 58.7198 50.3716 59.1082C47.8868 56.5838 45.9984 53.574 44.9051 50.1758C43.8118 53.574 42.0227 56.6809 39.5379 59.2053C41.2276 58.8169 43.0166 58.5256 44.9051 58.5256ZM44.8042 37.5568C43.7109 33.9645 41.6236 30.7605 38.9401 28.1391C40.8285 28.6245 42.7169 28.8187 44.7048 28.8187C46.6926 28.8187 48.6804 28.5274 50.5689 28.042C47.8853 30.6634 45.8975 33.9645 44.8042 37.5568ZM55.8392 47.7486C54.0502 47.7486 52.3605 47.5544 50.6708 47.166C53.0562 49.5933 54.7459 52.5059 55.8392 55.807C56.8331 52.603 58.5228 49.5933 60.8088 47.166C59.2185 47.5544 57.5289 47.7486 55.8392 47.7486ZM56.0352 76.4866C54.2461 76.4866 52.4571 76.6808 50.7674 77.1662C53.1528 74.6419 54.9419 71.6321 55.9358 68.3311C56.9297 71.6321 58.8181 74.6419 61.2035 77.0691C59.5139 76.6808 57.7248 76.4866 56.0352 76.4866ZM66.6689 65.7099C64.7805 65.7099 62.892 65.5157 61.2024 65.1274C63.6871 67.5546 65.4762 70.5645 66.6689 73.8656C67.6628 70.5645 69.5512 67.5546 71.9366 65.0303C70.247 65.5157 68.4579 65.7099 66.6689 65.7099Z" fill="url(#paint1_radial)"/>
<path fill-rule="evenodd" clip-rule="evenodd" d="M66.6657 46.3803C67.1585 46.5778 67.6513 46.8741 68.0455 47.1703C68.834 52.305 71.5937 56.8473 75.4376 60.0072C75.5854 60.1553 75.7579 60.2787 75.9304 60.4022C76.1028 60.5256 76.2753 60.649 76.4232 60.7971C78.7886 62.5746 81.0555 63.4633 82.6325 63.8582H83.1253C83.2731 63.9076 83.3963 63.9323 83.5195 63.957C83.6427 63.9817 83.7659 64.0064 83.9138 64.0557C83.6181 64.5495 83.3224 65.0679 83.0267 65.5863C82.731 66.1047 82.4354 66.6231 82.1397 67.1168C81.0555 66.0306 79.4785 64.6482 77.3102 63.4633C75.7332 62.6733 74.3534 62.1796 73.1707 61.8833C71.1995 61.1921 69.1297 60.8959 66.9614 60.8959C64.0046 60.8959 61.0477 61.5871 58.4852 62.772C58.5837 61.5871 58.7808 60.5009 58.978 59.6122C62.8218 56.2549 65.3844 51.4163 65.8772 45.9854C66.025 46.0347 66.1482 46.1088 66.2714 46.1828C66.3946 46.2569 66.5178 46.331 66.6657 46.3803ZM61.737 59.6148C63.4125 59.2198 65.1866 58.9236 67.0593 58.9236C68.8333 58.9236 70.6074 59.1211 72.283 59.5161C69.9175 56.9487 68.0449 53.9864 66.9607 50.5303C65.9751 53.9864 64.1024 57.0474 61.737 59.6148Z" fill="url(#paint2_radial)"/>
<path fill-rule="evenodd" clip-rule="evenodd" d="M31.0038 61.6649C30.8999 61.714 30.7991 61.7617 30.704 61.8094C28.5483 60.9248 26.0986 60.5317 23.7469 60.63C21.5913 60.63 19.5335 61.0231 17.5738 61.6128C17.5174 61.6694 17.4935 61.6934 17.4647 61.7036C17.4434 61.7111 17.4195 61.7111 17.3779 61.7111C17.3289 61.7111 17.2799 61.7357 17.2309 61.7603C17.1819 61.7848 17.1329 61.8094 17.0839 61.8094C16.398 62.006 15.6141 62.3008 14.8302 62.694C13.8865 63.0884 13.1321 63.6094 12.4152 64.1047C12.2388 64.2265 12.0647 64.3467 11.8906 64.4631C10.8128 65.2494 9.73494 66.134 8.85307 67.1168C8.16717 66.0357 7.57926 64.9546 6.99135 63.8734L6.99133 63.8734C8.06918 63.5785 9.14703 63.1854 10.1269 62.7923C11.2047 62.3991 12.3806 61.8094 13.6544 60.9248C13.925 60.7891 14.1489 60.6065 14.3906 60.4095C14.4989 60.3211 14.6109 60.2298 14.7322 60.1385C19.0436 56.7968 21.9832 51.7842 22.4731 45.9854C23.453 46.6734 24.2369 47.2631 24.8248 47.9511C25.9026 53.0619 28.9402 57.4848 33.0556 60.4334C32.8596 60.5317 32.6882 60.6545 32.5167 60.7774C32.3452 60.9002 32.1737 61.0231 31.9778 61.1214C31.6809 61.3447 31.3279 61.5116 31.0038 61.6649ZM28.8449 59.2565C26.4932 56.7994 24.6315 53.7525 23.5536 50.3125C22.5738 53.7525 20.712 56.7994 18.3604 59.3548C20.1241 58.9617 21.8879 58.6668 23.6516 58.6668C25.4154 58.6668 27.1791 58.8634 28.8449 59.2565Z" fill="url(#paint3_radial)"/>
<path fill-rule="evenodd" clip-rule="evenodd" d="M13.4289 74.6654C21.7808 82.6375 32.8173 87.0125 44.4503 87.0125H45.0469C56.9781 86.9152 68.114 82.2487 76.3665 73.8877C84.619 65.6239 89.1926 54.638 88.9938 42.9715C88.6955 19.1525 68.81 0 44.5497 0H43.9532C32.0219 0.0972206 20.9854 4.76381 12.6335 13.1248C4.38103 21.3885 -0.192631 32.4717 0.00622414 44.0409C0.205079 55.6102 4.9776 66.4989 13.4289 74.6654ZM43.9548 1.65039H44.5514C67.8174 1.65039 87.0069 20.0251 87.3052 42.872C87.504 54.0524 83.1292 64.6494 75.175 72.6215C67.2208 80.5936 56.5821 85.163 45.1479 85.2602C33.7138 85.4547 22.8762 81.1769 14.7232 73.3993C6.57011 65.6216 1.89702 55.219 1.79759 44.0386C1.59874 32.8582 5.87411 22.2612 13.9277 14.2891C21.8819 6.31699 32.5207 1.84483 43.9548 1.65039Z" fill="#D15358"/>
<defs>
<radialGradient id="paint0_radial" cx="0" cy="0" r="1" gradientUnits="userSpaceOnUse" gradientTransform="translate(45.3074 43.8047) rotate(-0.726973) scale(43.6502 36.2767)">
<stop stop-color="#193F5F"/>
<stop offset="0.0310031" stop-color="#1C4566"/>
<stop offset="0.0746321" stop-color="#265578"/>
<stop offset="0.1258" stop-color="#366F96"/>
<stop offset="0.1821" stop-color="#4C93C0"/>
<stop offset="0.2112" stop-color="#59A8D8"/>
<stop offset="0.2755" stop-color="#60ADD2"/>
<stop offset="0.3657" stop-color="#72B9C2"/>
<stop offset="0.4431" stop-color="#87C8AF"/>
<stop offset="0.478" stop-color="#8EC8AB"/>
<stop offset="0.5273" stop-color="#A0C8A0"/>
<stop offset="0.5849" stop-color="#BEC98D"/>
<stop offset="0.6486" stop-color="#E8C973"/>
<stop offset="0.6642" stop-color="#F3C96C"/>
<stop offset="0.6994" stop-color="#F2C268"/>
<stop offset="0.7488" stop-color="#F1B05B"/>
<stop offset="0.8033" stop-color="#EE9448"/>
<stop offset="0.8468" stop-color="#EB8D4A"/>
<stop offset="0.9079" stop-color="#E37B4E"/>
<stop offset="0.9791" stop-color="#D55D55"/>
<stop offset="1" stop-color="#D05358"/>
</radialGradient>
<radialGradient id="paint1_radial" cx="0" cy="0" r="1" gradientUnits="userSpaceOnUse" gradientTransform="translate(44.9602 43.8366) rotate(-0.713794) scale(43.5215 42.5499)">
<stop stop-color="#193F5F"/>
<stop offset="0.0310031" stop-color="#1C4566"/>
<stop offset="0.0746321" stop-color="#265578"/>
<stop offset="0.1258" stop-color="#366F96"/>
<stop offset="0.1821" stop-color="#4C93C0"/>
<stop offset="0.2112" stop-color="#59A8D8"/>
<stop offset="0.2755" stop-color="#60ADD2"/>
<stop offset="0.3657" stop-color="#72B9C2"/>
<stop offset="0.4431" stop-color="#87C8AF"/>
<stop offset="0.478" stop-color="#8EC8AB"/>
<stop offset="0.5273" stop-color="#A0C8A0"/>
<stop offset="0.5849" stop-color="#BEC98D"/>
<stop offset="0.6486" stop-color="#E8C973"/>
<stop offset="0.6642" stop-color="#F3C96C"/>
<stop offset="0.6994" stop-color="#F2C268"/>
<stop offset="0.7488" stop-color="#F1B05B"/>
<stop offset="0.8033" stop-color="#EE9448"/>
<stop offset="0.8468" stop-color="#EB8D4A"/>
<stop offset="0.9079" stop-color="#E37B4E"/>
<stop offset="0.9791" stop-color="#D55D55"/>
<stop offset="1" stop-color="#D05358"/>
</radialGradient>
<radialGradient id="paint2_radial" cx="0" cy="0" r="1" gradientUnits="userSpaceOnUse" gradientTransform="translate(45.5265 44.2963) rotate(-0.732084) scale(43.1992 35.9017)">
<stop stop-color="#193F5F"/>
<stop offset="0.0310031" stop-color="#1C4566"/>
<stop offset="0.0746321" stop-color="#265578"/>
<stop offset="0.1258" stop-color="#366F96"/>
<stop offset="0.1821" stop-color="#4C93C0"/>
<stop offset="0.2112" stop-color="#59A8D8"/>
<stop offset="0.2755" stop-color="#60ADD2"/>
<stop offset="0.3657" stop-color="#72B9C2"/>
<stop offset="0.4431" stop-color="#87C8AF"/>
<stop offset="0.478" stop-color="#8EC8AB"/>
<stop offset="0.5273" stop-color="#A0C8A0"/>
<stop offset="0.5849" stop-color="#BEC98D"/>
<stop offset="0.6486" stop-color="#E8C973"/>
<stop offset="0.6642" stop-color="#F3C96C"/>
<stop offset="0.6994" stop-color="#F2C268"/>
<stop offset="0.7488" stop-color="#F1B05B"/>
<stop offset="0.8033" stop-color="#EE9448"/>
<stop offset="0.8468" stop-color="#EB8D4A"/>
<stop offset="0.9079" stop-color="#E37B4E"/>
<stop offset="0.9791" stop-color="#D55D55"/>
<stop offset="1" stop-color="#D05358"/>
</radialGradient>
<radialGradient id="paint3_radial" cx="0" cy="0" r="1" gradientUnits="userSpaceOnUse" gradientTransform="translate(44.7801 43.5764) rotate(-0.732951) scale(42.7803 34.6869)">
<stop stop-color="#193F5F"/>
<stop offset="0.0310031" stop-color="#1C4566"/>
<stop offset="0.0746321" stop-color="#265578"/>
<stop offset="0.1258" stop-color="#366F96"/>
<stop offset="0.1821" stop-color="#4C93C0"/>
<stop offset="0.2112" stop-color="#59A8D8"/>
<stop offset="0.2755" stop-color="#60ADD2"/>
<stop offset="0.3657" stop-color="#72B9C2"/>
<stop offset="0.4431" stop-color="#87C8AF"/>
<stop offset="0.478" stop-color="#8EC8AB"/>
<stop offset="0.5273" stop-color="#A0C8A0"/>
<stop offset="0.5849" stop-color="#BEC98D"/>
<stop offset="0.6486" stop-color="#E8C973"/>
<stop offset="0.6642" stop-color="#F3C96C"/>
<stop offset="0.6994" stop-color="#F2C268"/>
<stop offset="0.7488" stop-color="#F1B05B"/>
<stop offset="0.8033" stop-color="#EE9448"/>
<stop offset="0.8468" stop-color="#EB8D4A"/>
<stop offset="0.9079" stop-color="#E37B4E"/>
<stop offset="0.9791" stop-color="#D55D55"/>
<stop offset="1" stop-color="#D05358"/>
</radialGradient>
</defs>
</svg>
