<svg width="18" height="12" viewBox="0 0 18 12" fill="none" xmlns="http://www.w3.org/2000/svg">
<path opacity="0.4" d="M17.2891 5.34079L8.81111 5.34079C8.4189 5.34079 8.10058 5.6591 8.10058 6.05131C8.10058 6.44353 8.4189 6.76184 8.81111 6.76184L17.2891 6.76184C17.6813 6.76184 17.9996 6.44353 17.9996 6.05131C17.9996 5.6591 17.6813 5.34079 17.2891 5.34079Z" fill="#FF9900"/>
<mask id="mask0" mask-type="alpha" maskUnits="userSpaceOnUse" x="0" y="0" width="10" height="12">
<path fill-rule="evenodd" clip-rule="evenodd" d="M9.52145 11.4998V0.603374H0.58199V11.4998H9.52145Z" fill="white"/>
</mask>
<g mask="url(#mask0)">
<path d="M8.81093 0.603089C8.6783 0.603089 8.54756 0.640037 8.43198 0.712036L0.913665 5.44983C0.707138 5.58056 0.581138 5.80698 0.581138 6.0514C0.581138 6.29583 0.707138 6.52225 0.913665 6.65298L8.43198 11.3908C8.65082 11.5281 8.92745 11.5367 9.15387 11.4107C9.38124 11.2856 9.52145 11.0478 9.52145 10.7892V1.31361C9.52145 1.05498 9.38124 0.817194 9.15387 0.692142C9.04682 0.632458 8.9284 0.603089 8.81093 0.603089Z" fill="#FF9900"/>
</g>
</svg>
