<svg width="471" height="277" viewBox="0 0 471 277" fill="none" xmlns="http://www.w3.org/2000/svg">
<g clip-path="url(#clip0)">
<path d="M80.1934 56.2442C80.1934 -18.3878 73.2496 -85.9431 62.0285 -134.83C56.4173 -159.277 49.7409 -179.036 42.3399 -192.674C38.6393 -199.493 34.7667 -204.765 30.7699 -208.328C26.7754 -211.889 22.6755 -213.728 18.5062 -213.728C14.3368 -213.728 10.2369 -211.889 6.24238 -208.328C2.24564 -204.765 -1.627 -199.493 -5.3276 -192.674C-12.7286 -179.036 -19.405 -159.277 -25.0162 -134.83C-36.2373 -85.9431 -43.181 -18.3878 -43.181 56.2442C-43.181 130.876 -36.2373 198.432 -25.0162 247.319C-19.405 271.765 -12.7286 291.524 -5.3276 305.162C-1.627 311.981 2.24564 317.253 6.24238 320.816C10.2369 324.377 14.3368 326.216 18.5062 326.216C22.6755 326.216 26.7754 324.377 30.7699 320.816C34.7667 317.253 38.6393 311.981 42.3399 305.162C49.7409 291.524 56.4173 271.765 62.0285 247.319C73.2496 198.432 80.1934 130.876 80.1934 56.2442Z" stroke="url(#paint0_radial)" stroke-width="0.725732"/>
<path d="M192.934 45.9825C260.589 -21.6723 316.922 -87.826 353.309 -140.087C371.505 -166.219 384.702 -188.863 391.838 -206.475C395.406 -215.283 397.45 -222.812 397.854 -228.877C398.259 -234.946 397.02 -239.493 394.095 -242.417C391.171 -245.342 386.623 -246.581 380.555 -246.176C374.489 -245.772 366.961 -243.728 358.153 -240.16C340.541 -233.025 317.897 -219.827 291.765 -201.632C239.504 -165.244 173.35 -108.911 105.695 -41.2564C38.0408 26.3983 -18.2922 92.552 -54.6796 144.813C-72.875 170.945 -86.0726 193.589 -93.208 211.201C-96.7763 220.009 -98.82 227.538 -99.2242 233.603C-99.6287 239.672 -98.3901 244.219 -95.4654 247.143C-92.5408 250.068 -87.9936 251.307 -81.9253 250.902C-75.8596 250.498 -68.3311 248.454 -59.5235 244.886C-41.9114 237.751 -19.2674 224.553 6.86533 206.358C59.1259 169.97 125.28 113.637 192.934 45.9825Z" stroke="url(#paint1_radial)" stroke-width="0.725732"/>
<path d="M381.156 31.1352C356.393 -61.2829 327.269 -143.146 300.203 -200.788C286.669 -229.612 273.658 -252.364 261.973 -267.349C256.13 -274.843 250.632 -280.377 245.581 -283.76C240.528 -287.145 235.97 -288.346 231.975 -287.275C227.98 -286.205 224.634 -282.886 221.95 -277.428C219.267 -271.973 217.273 -264.432 215.959 -255.02C213.333 -236.2 213.44 -209.991 216.131 -178.261C221.513 -114.809 237.222 -29.3512 261.986 63.0668C286.749 155.485 315.873 237.348 342.939 294.99C356.473 323.814 369.484 346.566 381.169 361.551C387.012 369.045 392.51 374.579 397.561 377.962C402.614 381.347 407.172 382.548 411.167 381.477C415.162 380.407 418.508 377.088 421.192 371.631C423.875 366.175 425.869 358.634 427.183 349.222C429.809 330.402 429.702 304.193 427.011 272.463C421.628 209.011 405.92 123.553 381.156 31.1352Z" stroke="url(#paint2_radial)" stroke-width="0.725732"/>
<circle r="3" transform="matrix(1 0 0 -1 124 111.504)" fill="#FFF2C4"/>
<circle r="2" transform="matrix(1 0 0 -1 80 82.5039)" fill="#FFE58B"/>
<circle r="2" transform="matrix(1 0 0 -1 275 108.504)" fill="#FFE58B"/>
</g>
<defs>
<radialGradient id="paint0_radial" cx="0" cy="0" r="1" gradientUnits="userSpaceOnUse" gradientTransform="translate(81 56.5038) rotate(-101.445) scale(458.619 105.267)">
<stop stop-color="#FFE485"/>
<stop offset="1" stop-color="#FFE485" stop-opacity="0"/>
</radialGradient>
<radialGradient id="paint1_radial" cx="0" cy="0" r="1" gradientUnits="userSpaceOnUse" gradientTransform="translate(183.5 55.5038) rotate(-71.4424) scale(369.197 66.1079)">
<stop stop-color="#FFE485"/>
<stop offset="1" stop-color="#FFE485" stop-opacity="0"/>
</radialGradient>
<radialGradient id="paint2_radial" cx="0" cy="0" r="1" gradientUnits="userSpaceOnUse" gradientTransform="translate(267.5 79.504) rotate(-66.946) scale(416.243 74.5319)">
<stop stop-color="#FFE485"/>
<stop offset="1" stop-color="#FFE485" stop-opacity="0"/>
</radialGradient>
<clipPath id="clip0">
<rect width="471" height="276.504" fill="white" transform="matrix(1 0 0 -1 0 276.504)"/>
</clipPath>
</defs>
</svg>
