<svg width="471" height="277" viewBox="0 0 471 277" fill="none" xmlns="http://www.w3.org/2000/svg">
<g clip-path="url(#clip0)">
<path d="M80.1933 220.26C80.1933 294.892 73.2496 362.447 62.0285 411.334C56.4173 435.781 49.7409 455.539 42.3399 469.177C38.6393 475.997 34.7666 481.269 30.7699 484.832C26.7754 488.393 22.6754 490.232 18.5061 490.232C14.3368 490.232 10.2369 488.393 6.24235 484.832C2.24561 481.269 -1.62703 475.997 -5.32763 469.177C-12.7286 455.539 -19.405 435.781 -25.0162 411.334C-36.2374 362.447 -43.1811 294.892 -43.1811 220.26C-43.1811 145.628 -36.2374 78.0724 -25.0162 29.1851C-19.405 4.73848 -12.7286 -15.02 -5.32763 -28.6581C-1.62703 -35.4773 2.24561 -40.7492 6.24235 -44.3123C10.2369 -47.8735 14.3368 -49.7126 18.5061 -49.7126C22.6754 -49.7126 26.7754 -47.8735 30.7699 -44.3123C34.7666 -40.7492 38.6393 -35.4773 42.3399 -28.6581C49.7409 -15.02 56.4173 4.73848 62.0285 29.1851C73.2496 78.0724 80.1933 145.628 80.1933 220.26Z" stroke="url(#paint0_radial)" stroke-width="0.725732"/>
<path d="M192.934 230.521C260.589 298.176 316.922 364.33 353.309 416.59C371.505 442.723 384.702 465.367 391.838 482.979C395.406 491.787 397.45 499.315 397.854 505.381C398.259 511.449 397.02 515.997 394.095 518.921C391.171 521.846 386.623 523.084 380.555 522.68C374.489 522.276 366.961 520.232 358.153 516.664C340.541 509.528 317.897 496.331 291.765 478.135C239.504 441.748 173.35 385.415 105.696 317.76C38.0408 250.106 -18.2922 183.952 -54.6796 131.691C-72.875 105.559 -86.0726 82.9146 -93.208 65.3024C-96.7763 56.4949 -98.82 48.9664 -99.2242 42.9007C-99.6286 36.8324 -98.39 32.2852 -95.4654 29.3605C-92.5408 26.4359 -87.9936 25.1973 -81.9253 25.6017C-75.8596 26.006 -68.331 28.0496 -59.5235 31.6179C-41.9114 38.7534 -19.2674 51.951 6.86536 70.1464C59.1259 106.534 125.28 162.867 192.934 230.521Z" stroke="url(#paint1_radial)" stroke-width="0.725732"/>
<path d="M381.156 245.369C356.393 337.787 327.269 419.649 300.203 477.292C286.669 506.116 273.658 528.868 261.973 543.853C256.13 551.347 250.632 556.881 245.581 560.264C240.528 563.649 235.97 564.85 231.975 563.779C227.98 562.709 224.634 559.39 221.95 553.932C219.267 548.477 217.273 540.935 215.959 531.524C213.333 512.704 213.44 486.494 216.131 454.765C221.513 391.312 237.222 305.855 261.986 213.437C286.749 121.019 315.873 39.1563 342.939 -18.4864C356.473 -47.3104 369.484 -70.0619 381.169 -85.0474C387.012 -92.5414 392.51 -98.0755 397.561 -101.458C402.614 -104.843 407.172 -106.044 411.167 -104.973C415.162 -103.903 418.508 -100.584 421.192 -95.1266C423.875 -89.6714 425.869 -82.1297 427.183 -72.718C429.809 -53.8977 429.702 -27.6887 427.011 4.04066C421.628 67.4933 405.92 152.951 381.156 245.369Z" stroke="url(#paint2_radial)" stroke-width="0.725732"/>
<circle cx="124" cy="165" r="3" fill="#FFF2C4"/>
<circle cx="80" cy="194" r="2" fill="#FFE58B"/>
<circle cx="275" cy="168" r="2" fill="#FFE58B"/>
</g>
<defs>
<radialGradient id="paint0_radial" cx="0" cy="0" r="1" gradientUnits="userSpaceOnUse" gradientTransform="translate(81 220) rotate(101.445) scale(458.619 105.267)">
<stop stop-color="#FFE485"/>
<stop offset="1" stop-color="#FFE485" stop-opacity="0"/>
</radialGradient>
<radialGradient id="paint1_radial" cx="0" cy="0" r="1" gradientUnits="userSpaceOnUse" gradientTransform="translate(183.5 221) rotate(71.4424) scale(369.197 66.1079)">
<stop stop-color="#FFE485"/>
<stop offset="1" stop-color="#FFE485" stop-opacity="0"/>
</radialGradient>
<radialGradient id="paint2_radial" cx="0" cy="0" r="1" gradientUnits="userSpaceOnUse" gradientTransform="translate(267.5 197) rotate(66.946) scale(416.243 74.5319)">
<stop stop-color="#FFE485"/>
<stop offset="1" stop-color="#FFE485" stop-opacity="0"/>
</radialGradient>
<clipPath id="clip0">
<rect width="471" height="276.504" fill="white"/>
</clipPath>
</defs>
</svg>
