<svg width="88" height="81" viewBox="0 0 88 81" fill="none" xmlns="http://www.w3.org/2000/svg">
<circle cx="28" cy="28" r="28" fill="#EBF8FF"/>
<path d="M40.9998 61.7285L58.0001 63C57.7092 62.3775 54.9994 61.5 49.9737 60.8811C49.5767 60.8322 45.3339 60.3491 44.0001 59.5L40.9998 61.7285Z" fill="#B5A19C"/>
<path d="M67.0619 29.6875L70.5494 27.75V56.35L63.5744 60.225L56.2119 61H49.2369L41.0994 58.675L38.7744 55.9625V26.975L41.8744 29.3L51.5619 31.625H58.5369L67.0619 29.6875Z" fill="#FFEC95"/>
<path d="M71 56C71 58.8571 62.8049 61 55 61C47.1951 61 39 58.8571 39 56" stroke="#4C251E" stroke-width="2"/>
<path d="M71 49C71 52.4286 62.8049 55 55 55C47.1951 55 39 52.4286 39 49" stroke="#4C251E" stroke-width="2"/>
<path d="M71 42C71 45.4286 62.8049 48 55 48C47.1951 48 39 45.4286 39 42" stroke="#4C251E" stroke-width="2"/>
<path d="M71 35C71 38.4286 62.8049 41 55 41C47.1951 41 39 38.4286 39 35" stroke="#4C251E" stroke-width="2"/>
<path d="M71 28C71 28.415 70.7642 28.9495 70.0234 29.5677C69.2881 30.1812 68.1644 30.7786 66.688 31.2997C63.7442 32.3386 59.6119 33 55 33C50.3881 33 46.2558 32.3386 43.312 31.2997C41.8356 30.7786 40.7119 30.1812 39.9766 29.5677C39.2358 28.9495 39 28.415 39 28C39 27.585 39.2358 27.0505 39.9766 26.4323C40.7119 25.8188 41.8356 25.2214 43.312 24.7003C46.2558 23.6614 50.3881 23 55 23C59.6119 23 63.7442 23.6614 66.688 24.7003C68.1644 25.2214 69.2881 25.8188 70.0234 26.4323C70.7642 27.0505 71 27.585 71 28Z" fill="#FFCE56" stroke="#4C251E" stroke-width="2"/>
<rect x="70.5" y="28.5" width="1" height="27" fill="#4C241D" stroke="#4C251E"/>
<rect x="38.5" y="28.5" width="1" height="27" fill="#4C241D" stroke="#4C251E"/>
<path d="M72 49.5L79.5 42.5C78.8333 42.3333 77.4 42 77 42C76.6 42 73.5 43 72 43.5V49.5Z" fill="#B5A19C"/>
<path d="M19.5 79.5L6.5 63.5L12 59.5L15.5 54.5L19.5 49L27.5 46L57 45.5L61.5 50L58 54.5H48.5L43 56L42 59.5L44 62.5L51.5 63L60.5 61L82 40.5L85.5 42.5L86 46.5L66.5 68.5L62 71L29 72L19.5 79.5Z" fill="#E7D1C4"/>
<path d="M18.8524 79.2381C18.4315 79.5957 18.3804 80.2268 18.7381 80.6476C19.0957 81.0685 19.7268 81.1196 20.1476 80.7619L18.8524 79.2381ZM5.07711 62.0938C4.57664 62.3274 4.36026 62.9224 4.59382 63.4229C4.82737 63.9234 5.42241 64.1397 5.92289 63.9062L5.07711 62.0938ZM22.9577 47.4875L22.6118 46.5492L22.9577 47.4875ZM24.9084 46.7682L24.5624 45.8299L24.9084 46.7682ZM61.4289 60.0711L62.136 60.7782L61.4289 60.0711ZM79.5309 41.9691L78.8238 41.262L79.5309 41.9691ZM70.1949 64.7146L70.9609 65.3574L70.1949 64.7146ZM20.1476 80.7619L26.7868 75.1187L25.4915 73.5948L18.8524 79.2381L20.1476 80.7619ZM33.9109 72.5H55.6414V70.5H33.9109V72.5ZM70.9609 65.3574L85.8102 47.6646L84.2783 46.3788L69.429 64.0717L70.9609 65.3574ZM54.3579 62H46V64H54.3579V62ZM46 56H56.318V54H46V56ZM56.3083 44.8235C49.9361 44.8365 38.4069 44.8531 30.2597 44.8247L30.2528 46.8247C38.4061 46.8531 49.9404 46.8365 56.3124 46.8235L56.3083 44.8235ZM24.5624 45.8299L22.6118 46.5492L23.3037 48.4257L25.2543 47.7064L24.5624 45.8299ZM7.91128 60.7712L5.07711 62.0938L5.92289 63.9062L8.75706 62.5836L7.91128 60.7712ZM78.8238 41.262L78.7929 41.2929L80.2071 42.7071L80.238 42.6762L78.8238 41.262ZM78.7929 41.2929L60.7218 59.364L62.136 60.7782L80.2071 42.7071L78.7929 41.2929ZM79.5 41C77.4679 41 75.6374 41.1261 74.1001 41.4603C72.5726 41.7924 71.235 42.3508 70.2929 43.2929L71.7071 44.7071C72.265 44.1492 73.1774 43.7076 74.5249 43.4147C75.8626 43.1239 77.5321 43 79.5 43V41ZM14.201 54.3943C12.9362 57.2049 10.7042 59.4678 7.91128 60.7712L8.75706 62.5836C11.9843 61.0775 14.5634 58.4627 16.0248 55.215L14.201 54.3943ZM22.6118 46.5492C18.8689 47.9294 15.838 50.7564 14.201 54.3943L16.0248 55.215C17.4416 52.0667 20.0645 49.6201 23.3037 48.4257L22.6118 46.5492ZM30.2597 44.8247C28.3145 44.8179 26.3886 45.1565 24.5624 45.8299L25.2543 47.7064C26.8557 47.1159 28.5449 46.8187 30.2528 46.8247L30.2597 44.8247ZM61.904 50.5269C61.968 47.3924 59.4456 44.8171 56.3083 44.8235L56.3124 46.8235C58.3253 46.8194 59.9455 48.4713 59.9044 50.4861L61.904 50.5269ZM56.318 56C59.3593 56 61.8419 53.5675 61.904 50.5269L59.9044 50.4861C59.8646 52.4382 58.2706 54 56.318 54V56ZM43 59C43 57.3431 44.3431 56 46 56V54C43.2386 54 41 56.2386 41 59H43ZM46 62C44.3431 62 43 60.6569 43 59H41C41 61.7614 43.2386 64 46 64V62ZM54.3579 64C57.2752 64 60.0731 62.8411 62.136 60.7782L60.7218 59.364C59.034 61.0518 56.7448 62 54.3579 62V64ZM84.426 40.4398C82.5819 39.4468 80.3048 39.781 78.8238 41.262L80.238 42.6762C81.0945 41.8197 82.4113 41.6265 83.4778 42.2007L84.426 40.4398ZM85.8102 47.6646C87.7429 45.3619 87.0729 41.865 84.426 40.4398L83.4778 42.2007C85.0085 43.0249 85.396 45.0472 84.2783 46.3788L85.8102 47.6646ZM55.6414 72.5C61.5525 72.5 67.1608 69.8852 70.9609 65.3574L69.429 64.0717C66.0089 68.1467 60.9614 70.5 55.6414 70.5V72.5ZM26.7868 75.1187C28.7756 73.4282 31.3007 72.5 33.9109 72.5V70.5C30.8262 70.5 27.8419 71.5969 25.4915 73.5948L26.7868 75.1187Z" fill="#4C251E"/>
<rect x="54" y="9" width="2" height="7" rx="1" fill="#4C251E"/>
<rect x="62.5" y="11" width="2" height="7" rx="1" transform="rotate(30 62.5 11)" fill="#4C251E"/>
<rect width="2" height="7" rx="1" transform="matrix(-0.866025 0.5 0.5 0.866025 46.7324 11)" fill="#4C251E"/>
<rect x="15" y="4" width="2" height="6" rx="1" fill="#4C251E"/>
<rect x="15" y="14" width="2" height="6" rx="1" fill="#4C251E"/>
<rect x="24" y="11" width="2" height="6" rx="1" transform="rotate(90 24 11)" fill="#4C251E"/>
<rect x="14" y="11" width="2" height="6" rx="1" transform="rotate(90 14 11)" fill="#4C251E"/>
<rect x="84.1211" y="24.4645" width="2" height="8" rx="1" transform="rotate(45 84.1211 24.4645)" fill="#4C251E"/>
<rect x="85.5352" y="30.1213" width="2" height="8" rx="1" transform="rotate(135 85.5352 30.1213)" fill="#4C251E"/>
</svg>
