<svg width="44" height="44" viewBox="0 0 44 44" fill="none" xmlns="http://www.w3.org/2000/svg">
<path d="M22 38.5C31.1127 38.5 38.5 31.1127 38.5 22C38.5 12.8873 31.1127 5.5 22 5.5C12.8873 5.5 5.5 12.8873 5.5 22C5.5 31.1127 12.8873 38.5 22 38.5Z" stroke="white" stroke-width="2.75" stroke-linecap="round" stroke-linejoin="round"/>
<path d="M18.3333 30.25L22 24.75M22 24.75L25.6667 30.25M22 24.75V21.0833M22 21.0833L27.5 19.25M22 21.0833L16.5 19.25" stroke="white" stroke-width="2.75" stroke-linecap="round" stroke-linejoin="round"/>
<path d="M22 14.6667C22.5062 14.6667 22.9166 14.2563 22.9166 13.75C22.9166 13.2437 22.5062 12.8333 22 12.8333C21.4937 12.8333 21.0833 13.2437 21.0833 13.75C21.0833 14.2563 21.4937 14.6667 22 14.6667Z" fill="white" stroke="white" stroke-width="2.75" stroke-linecap="round" stroke-linejoin="round"/>
</svg>
