<svg width="540" height="436" viewBox="0 0 540 436" fill="none" xmlns="http://www.w3.org/2000/svg">
<g clip-path="url(#clip0)">
<path d="M434.185 112.036C435.849 112.774 437.471 113.56 439.044 114.394L438.63 114.654C439.4 115.062 440.159 115.481 440.905 115.912C441.651 116.343 442.377 116.781 443.084 117.225L443.535 116.986C444.978 117.895 446.339 118.831 447.619 119.792L447.133 120.007C448.421 120.974 449.624 121.967 450.744 122.981L451.261 122.791C452.404 123.827 453.461 124.886 454.432 125.963L453.888 126.126C454.86 127.206 455.745 128.305 456.541 129.42L457.108 129.286C457.917 130.419 458.637 131.568 459.267 132.731L458.683 132.836C459.311 133.995 459.849 135.167 460.298 136.347L460.896 136.272C461.35 137.467 461.712 138.671 461.983 139.881L461.376 139.926C461.646 141.129 461.824 142.336 461.912 143.546L462.524 143.531C462.612 144.752 462.609 145.974 462.514 147.195L461.902 147.179C461.808 148.388 461.624 149.596 461.348 150.798L461.955 150.844C461.678 152.054 461.309 153.257 460.849 154.452L460.252 154.375C459.798 155.555 459.254 156.726 458.621 157.884L459.205 157.99C458.57 159.151 457.845 160.3 457.031 161.432L456.465 161.297C455.665 162.411 454.776 163.509 453.801 164.588L454.344 164.752C453.37 165.828 452.311 166.886 451.165 167.921L450.649 167.731C449.526 168.744 448.321 169.736 447.032 170.703L447.517 170.918C446.237 171.879 444.875 172.814 443.431 173.722L442.98 173.483C442.273 173.928 441.546 174.366 440.8 174.797C440.054 175.227 439.296 175.647 438.526 176.055L438.94 176.315C437.367 177.149 435.746 177.935 434.083 178.675L433.709 178.394C432.035 179.139 430.317 179.835 428.562 180.483L428.891 180.78C427.099 181.442 425.267 182.054 423.402 182.616L423.119 182.303C421.25 182.866 419.348 183.379 417.418 183.841L417.653 184.167C415.691 184.637 413.702 185.056 411.69 185.422L411.506 185.085C409.5 185.451 407.473 185.765 405.429 186.027L405.562 186.372C403.493 186.637 401.408 186.85 399.314 187.01L399.233 186.66C397.151 186.819 395.06 186.926 392.965 186.98L392.993 187.333C390.879 187.388 388.761 187.39 386.647 187.339L386.673 186.985C384.577 186.935 382.486 186.832 380.403 186.676L380.325 187.027C378.229 186.87 376.143 186.661 374.073 186.399L374.204 186.053C372.159 185.795 370.13 185.484 368.123 185.121L367.94 185.459C365.927 185.095 363.936 184.679 361.973 184.212L362.206 183.885C360.275 183.425 358.371 182.914 356.501 182.353L356.219 182.667C354.352 182.106 352.518 181.496 350.724 180.836L351.053 180.538C349.296 179.891 347.578 179.196 345.902 178.453L345.529 178.733C343.865 177.995 342.243 177.209 340.67 176.376L341.084 176.115C340.314 175.707 339.555 175.288 338.809 174.857C338.063 174.426 337.337 173.988 336.63 173.544L336.179 173.783C334.736 172.874 333.375 171.938 332.095 170.977L332.581 170.762C331.293 169.795 330.09 168.802 328.97 167.788L328.453 167.978C327.31 166.942 326.253 165.883 325.282 164.806L325.826 164.643C324.854 163.563 323.969 162.464 323.173 161.349L322.606 161.483C321.797 160.35 321.077 159.201 320.447 158.038L321.031 157.933C320.403 156.774 319.865 155.602 319.416 154.422L318.818 154.497C318.364 153.302 318.002 152.098 317.731 150.888L318.338 150.843C318.068 149.64 317.89 148.433 317.802 147.223L317.19 147.238C317.102 146.017 317.105 144.795 317.2 143.574L317.812 143.59C317.906 142.381 318.09 141.173 318.366 139.971L317.759 139.925C318.036 138.715 318.405 137.512 318.865 136.317L319.462 136.394C319.916 135.214 320.46 134.043 321.093 132.885L320.509 132.779C321.144 131.618 321.869 130.469 322.683 129.337L323.249 129.472C324.049 128.358 324.938 127.26 325.913 126.181L325.37 126.017C326.344 124.941 327.404 123.883 328.55 122.848L329.065 123.038C330.188 122.025 331.393 121.033 332.682 120.066L332.197 119.851C333.477 118.89 334.84 117.955 336.283 117.047L336.734 117.286C337.441 116.841 338.168 116.403 338.914 115.972C339.66 115.542 340.418 115.122 341.188 114.714L340.774 114.454C342.347 113.62 343.968 112.834 345.631 112.094L346.005 112.375C347.679 111.63 349.397 110.934 351.152 110.286L350.823 109.989C352.615 109.327 354.447 108.715 356.312 108.153L356.595 108.466C358.464 107.903 360.366 107.39 362.296 106.928L362.061 106.602C364.023 106.132 366.012 105.713 368.024 105.347L368.208 105.684C370.214 105.318 372.241 105.004 374.285 104.742L374.152 104.397C376.221 104.132 378.306 103.919 380.4 103.759L380.481 104.109C382.563 103.95 384.654 103.843 386.749 103.789L386.721 103.436C388.835 103.381 390.953 103.379 393.067 103.43L393.041 103.784C395.137 103.834 397.229 103.937 399.311 104.093L399.389 103.742C401.485 103.899 403.571 104.108 405.641 104.37L405.51 104.716C407.555 104.974 409.584 105.285 411.591 105.648L411.774 105.31C413.787 105.674 415.778 106.09 417.741 106.557L417.508 106.884C419.439 107.344 421.343 107.855 423.213 108.416L423.495 108.102C425.362 108.663 427.196 109.273 428.99 109.933L428.661 110.231C430.418 110.878 432.136 111.573 433.812 112.316L434.185 112.036Z" stroke="#FCBD5E" stroke-dasharray="5 5"/>
<circle r="41.0485" transform="matrix(0.866025 -0.5 0.866025 0.5 389.964 144.548)" stroke="#FCBD5E"/>
<path d="M239.805 294.896C197.595 304.386 150.654 304.05 108.863 293.96C67.0723 283.87 33.6923 264.813 15.7498 240.799C-2.19282 216.786 -3.29831 189.689 12.666 165.215C28.6303 140.74 60.4191 120.796 101.34 109.581L129.92 144.342C104.592 151.283 84.9171 163.628 75.0362 178.776C65.1553 193.924 65.8395 210.695 76.9448 225.558C88.0502 240.421 108.71 252.216 134.576 258.461C160.442 264.706 189.495 264.914 215.621 259.04L239.805 294.896Z" fill="url(#paint0_radial)"/>
<path d="M285.876 287.708C308.597 282.6 332.918 280.291 357.276 280.93C381.635 281.569 405.493 285.141 427.318 291.418C449.144 297.694 468.456 306.537 484.013 317.377C499.57 328.217 511.03 340.815 517.655 354.363C524.281 367.912 525.927 382.11 522.487 396.047C519.047 409.984 510.598 423.352 497.681 435.292C484.764 447.233 467.666 457.482 447.483 465.381C427.301 473.281 404.48 478.657 380.486 481.164L368.618 443.301C383.468 441.749 397.593 438.422 410.085 433.532C422.576 428.643 433.159 422.299 441.154 414.909C449.149 407.519 454.378 399.245 456.507 390.619C458.636 381.993 457.618 373.205 453.517 364.819C449.416 356.434 442.323 348.636 432.694 341.927C423.065 335.217 411.113 329.745 397.604 325.86C384.095 321.975 369.329 319.764 354.252 319.368C339.176 318.973 324.123 320.402 310.06 323.564L285.876 287.708Z" fill="url(#paint1_radial)"/>
<rect width="38" height="38" transform="matrix(0.866025 -0.5 0.866025 0.5 232 228)" fill="#C4C4C4"/>
<rect width="38" height="38" transform="matrix(0.866025 -0.5 0.866025 0.5 232 190)" fill="#FDCD86"/>
<rect width="38" height="38" transform="matrix(0.866025 0.5 -2.20305e-08 1 232 190)" fill="#FDCD86"/>
<rect width="38" height="38" transform="matrix(0.866025 0.5 -2.20305e-08 1 232 190)" fill="url(#paint2_radial)"/>
<rect width="38" height="38" transform="matrix(0.866025 -0.5 2.20305e-08 1 265 209)" fill="#FCBD5E"/>
<path d="M265 246.5V209M265 209L297.5 190.5M265 209L232.5 190.5" stroke="url(#paint3_radial)"/>
<rect width="38" height="38" transform="matrix(0.866025 -0.5 0.866025 0.5 232 178)" fill="#C4C4C4"/>
<rect width="38" height="38" transform="matrix(0.866025 -0.5 0.866025 0.5 232 140)" fill="#FDCD86"/>
<rect width="38" height="38" transform="matrix(0.866025 0.5 -2.20305e-08 1 232 140)" fill="#FDCD86"/>
<rect width="38" height="38" transform="matrix(0.866025 0.5 -2.20305e-08 1 232 140)" fill="url(#paint4_radial)"/>
<rect width="38" height="38" transform="matrix(0.866025 -0.5 2.20305e-08 1 265 159)" fill="#FCBD5E"/>
<path d="M265 196.5V159M265 159L297.5 140.5M265 159L232.5 140.5" stroke="url(#paint5_radial)"/>
<rect width="38" height="38" transform="matrix(0.866025 -0.5 0.866025 0.5 274 258)" fill="#C4C4C4"/>
<rect width="38" height="38" transform="matrix(0.866025 -0.5 0.866025 0.5 274 220)" fill="#FDCD86"/>
<rect width="38" height="38" transform="matrix(0.866025 0.5 -2.20305e-08 1 274 220)" fill="#FDCD86"/>
<rect width="38" height="38" transform="matrix(0.866025 0.5 -2.20305e-08 1 274 220)" fill="url(#paint6_radial)"/>
<rect width="38" height="38" transform="matrix(0.866025 -0.5 2.20305e-08 1 307 239)" fill="#FCBD5E"/>
<path d="M307 276.5V239M307 239L339.5 220.5M307 239L274.5 220.5" stroke="url(#paint7_radial)"/>
<rect width="38" height="38" transform="matrix(0.866025 -0.5 0.866025 0.5 274 208)" fill="#C4C4C4"/>
<rect width="38" height="38" transform="matrix(0.866025 -0.5 0.866025 0.5 274 170)" fill="#FDCD86"/>
<rect width="38" height="38" transform="matrix(0.866025 -0.5 0.866025 0.5 274 170)" fill="url(#paint8_radial)"/>
<rect width="38" height="38" transform="matrix(0.866025 0.5 -2.20305e-08 1 274 170)" fill="#FDCD86"/>
<rect width="38" height="38" transform="matrix(0.866025 0.5 -2.20305e-08 1 274 170)" fill="url(#paint9_radial)"/>
<rect width="38" height="38" transform="matrix(0.866025 -0.5 2.20305e-08 1 307 189)" fill="#FCBD5E"/>
<path d="M307 226.5V189M307 189L339.5 170.5M307 189L274.5 170.5" stroke="url(#paint10_radial)"/>
<rect width="38" height="38" transform="matrix(0.866025 -0.5 0.866025 0.5 318 285)" fill="#C4C4C4"/>
<rect width="38" height="38" transform="matrix(0.866025 -0.5 0.866025 0.5 318 247)" fill="url(#paint11_radial)"/>
<rect width="38" height="38" transform="matrix(0.866025 0.5 -2.20305e-08 1 318 247)" fill="url(#paint12_radial)"/>
<rect width="38" height="38" transform="matrix(0.866025 -0.5 2.20305e-08 1 351 266)" fill="#FCBD5E"/>
<path d="M351 303.5V266M351 266L383.5 247.5M351 266L318.5 247.5" stroke="url(#paint13_radial)"/>
<rect width="38" height="38" transform="matrix(0.866025 -0.5 0.866025 0.5 318 235)" fill="#C4C4C4"/>
<rect width="38" height="38" transform="matrix(0.866025 -0.5 0.866025 0.5 318 197)" fill="#FDCD86"/>
<rect width="38" height="38" transform="matrix(0.866025 0.5 -2.20305e-08 1 318 197)" fill="url(#paint14_radial)"/>
<rect width="38" height="38" transform="matrix(0.866025 -0.5 2.20305e-08 1 351 216)" fill="#FCBD5E"/>
<path d="M351 253.5V216M351 216L383.5 197.5M351 216L318.5 197.5" stroke="url(#paint15_radial)"/>
<rect width="38" height="38" transform="matrix(0.866025 -0.5 0.866025 0.5 183 257)" fill="#C4C4C4"/>
<rect width="38" height="38" transform="matrix(0.866025 -0.5 0.866025 0.5 183 219)" fill="#FDCD86"/>
<rect width="38" height="38" transform="matrix(0.866025 0.5 -2.20305e-08 1 183 219)" fill="#FDCD86"/>
<rect width="38" height="38" transform="matrix(0.866025 0.5 -2.20305e-08 1 183 219)" fill="url(#paint16_radial)"/>
<rect width="38" height="38" transform="matrix(0.866025 -0.5 2.20305e-08 1 216 238)" fill="#FCBD5E"/>
<path d="M216 275.5V238M216 238L248.5 219.5M216 238L183.5 219.5" stroke="url(#paint17_radial)"/>
<rect width="38" height="38" transform="matrix(0.866025 -0.5 0.866025 0.5 183 207)" fill="#C4C4C4"/>
<rect width="38" height="38" transform="matrix(0.866025 -0.5 0.866025 0.5 183 169)" fill="#FDCD86"/>
<rect width="38" height="38" transform="matrix(0.866025 0.5 -2.20305e-08 1 183 169)" fill="#FDCD86"/>
<rect width="38" height="38" transform="matrix(0.866025 0.5 -2.20305e-08 1 183 169)" fill="url(#paint18_radial)"/>
<rect width="38" height="38" transform="matrix(0.866025 -0.5 2.20305e-08 1 216 188)" fill="#FCBD5E"/>
<path d="M216 225.5V188M216 188L248.5 169.5M216 188L183.5 169.5" stroke="url(#paint19_radial)"/>
<rect width="38" height="38" transform="matrix(0.866025 -0.5 0.866025 0.5 225 287)" fill="#C4C4C4"/>
<rect width="38" height="38" transform="matrix(0.866025 -0.5 0.866025 0.5 225 249)" fill="#FDCD86"/>
<rect width="38" height="38" transform="matrix(0.866025 0.5 -2.20305e-08 1 225 249)" fill="#FDCD86"/>
<rect width="38" height="38" transform="matrix(0.866025 0.5 -2.20305e-08 1 225 249)" fill="url(#paint20_radial)"/>
<rect width="38" height="38" transform="matrix(0.866025 -0.5 2.20305e-08 1 258 268)" fill="#FCBD5E"/>
<path d="M258 305.5V268M258 268L290.5 249.5M258 268L225.5 249.5" stroke="url(#paint21_radial)"/>
<rect width="38" height="38" transform="matrix(0.866025 -0.5 0.866025 0.5 225 237)" fill="#C4C4C4"/>
<rect width="38" height="38" transform="matrix(0.866025 -0.5 0.866025 0.5 225 199)" fill="#FDCD86"/>
<rect width="38" height="38" transform="matrix(0.866025 -0.5 0.866025 0.5 225 199)" fill="url(#paint22_radial)"/>
<rect width="38" height="38" transform="matrix(0.866025 0.5 -2.20305e-08 1 225 199)" fill="#FDCD86"/>
<rect width="38" height="38" transform="matrix(0.866025 0.5 -2.20305e-08 1 225 199)" fill="url(#paint23_radial)"/>
<rect width="38" height="38" transform="matrix(0.866025 -0.5 2.20305e-08 1 258 218)" fill="#FCBD5E"/>
<path d="M258 255.5V218M258 218L290.5 199.5M258 218L225.5 199.5" stroke="url(#paint24_radial)"/>
<rect width="38" height="38" transform="matrix(0.866025 -0.5 0.866025 0.5 269 314)" fill="#C4C4C4"/>
<rect width="38" height="38" transform="matrix(0.866025 -0.5 0.866025 0.5 269 276)" fill="#FDCD86"/>
<rect width="38" height="38" transform="matrix(0.866025 -0.5 0.866025 0.5 269 276)" fill="url(#paint25_radial)"/>
<rect width="38" height="38" transform="matrix(0.866025 0.5 -2.20305e-08 1 269 276)" fill="#FDCD86"/>
<rect width="38" height="38" transform="matrix(0.866025 0.5 -2.20305e-08 1 269 276)" fill="url(#paint26_radial)"/>
<rect width="38" height="38" transform="matrix(0.866025 -0.5 2.20305e-08 1 302 295)" fill="#FCBD5E"/>
<path d="M302 332.5V295M302 295L334.5 276.5M302 295L269.5 276.5" stroke="url(#paint27_radial)"/>
<rect width="38" height="38" transform="matrix(0.866025 -0.5 0.866025 0.5 269 264)" fill="#C4C4C4"/>
<rect width="38" height="38" transform="matrix(0.866025 -0.5 0.866025 0.5 269 226)" fill="#FDCD86"/>
<rect width="38" height="38" transform="matrix(0.866025 0.5 -2.20305e-08 1 269 226)" fill="#FDCD86"/>
<rect width="38" height="38" transform="matrix(0.866025 0.5 -2.20305e-08 1 269 226)" fill="url(#paint28_radial)"/>
<rect width="38" height="38" transform="matrix(0.866025 -0.5 2.20305e-08 1 302 245)" fill="#FCBD5E"/>
<path d="M302 282.5V245M302 245L334.5 226.5M302 245L269.5 226.5" stroke="url(#paint29_radial)"/>
<rect width="38" height="38" transform="matrix(0.866025 -0.5 0.866025 0.5 137 290)" fill="#C4C4C4"/>
<rect width="38" height="38" transform="matrix(0.866025 -0.5 0.866025 0.5 137 252)" fill="url(#paint30_radial)"/>
<rect width="38" height="38" transform="matrix(0.866025 0.5 -2.20305e-08 1 137 252)" fill="#FDCD86"/>
<rect width="38" height="38" transform="matrix(0.866025 -0.5 2.20305e-08 1 170 271)" fill="#FCBD5E"/>
<path d="M170 308.5V271M170 271L202.5 252.5M170 271L137.5 252.5" stroke="url(#paint31_radial)"/>
<rect width="38" height="38" transform="matrix(0.866025 -0.5 0.866025 0.5 137 240)" fill="#C4C4C4"/>
<rect width="38" height="38" transform="matrix(0.866025 -0.5 0.866025 0.5 137 202)" fill="#FDCD86"/>
<rect width="38" height="38" transform="matrix(0.866025 -0.5 0.866025 0.5 137 202)" fill="url(#paint32_radial)"/>
<rect width="38" height="38" transform="matrix(0.866025 0.5 -2.20305e-08 1 137 202)" fill="#FDCD86"/>
<rect width="38" height="38" transform="matrix(0.866025 -0.5 2.20305e-08 1 170 221)" fill="#FCBD5E"/>
<path d="M170 258.5V221M170 221L202.5 202.5M170 221L137.5 202.5" stroke="url(#paint33_radial)"/>
<rect width="38" height="38" transform="matrix(0.866025 -0.5 0.866025 0.5 138 190)" fill="#C4C4C4"/>
<rect width="38" height="38" transform="matrix(0.866025 -0.5 0.866025 0.5 138 152)" fill="#FDCD86"/>
<rect width="38" height="38" transform="matrix(0.866025 0.5 -2.20305e-08 1 138 152)" fill="#FDCD86"/>
<rect width="38" height="38" transform="matrix(0.866025 -0.5 2.20305e-08 1 171 171)" fill="#FCBD5E"/>
<path d="M171 208.5V171M171 171L203.5 152.5M171 171L138.5 152.5" stroke="url(#paint34_radial)"/>
<rect width="38" height="38" transform="matrix(0.866025 -0.5 0.866025 0.5 274 161)" fill="#C4C4C4"/>
<rect width="38" height="38" transform="matrix(0.866025 -0.5 0.866025 0.5 274 123)" fill="#FDCD86"/>
<rect width="38" height="38" transform="matrix(0.866025 0.5 -2.20305e-08 1 274 123)" fill="#FDCD86"/>
<rect width="38" height="38" transform="matrix(0.866025 -0.5 2.20305e-08 1 307 142)" fill="#FCBD5E"/>
<path d="M307 179.5V142M307 142L339.5 123.5M307 142L274.5 123.5" stroke="url(#paint35_radial)"/>
<rect width="38" height="38" transform="matrix(0.866025 -0.5 0.866025 0.5 180 315)" fill="#C4C4C4"/>
<rect width="38" height="38" transform="matrix(0.866025 -0.5 0.866025 0.5 180 277)" fill="#FDCD86"/>
<rect width="38" height="38" transform="matrix(0.866025 -0.5 0.866025 0.5 180 277)" fill="url(#paint36_radial)"/>
<rect width="38" height="38" transform="matrix(0.866025 0.5 -2.20305e-08 1 180 277)" fill="#FDCD86"/>
<rect width="38" height="38" transform="matrix(0.866025 -0.5 2.20305e-08 1 213 296)" fill="#FCBD5E"/>
<path d="M213 333.5V296M213 296L245.5 277.5M213 296L180.5 277.5" stroke="url(#paint37_radial)"/>
<rect width="38" height="38" transform="matrix(0.866025 -0.5 0.866025 0.5 180 265)" fill="#C4C4C4"/>
<rect width="38" height="38" transform="matrix(0.866025 -0.5 0.866025 0.5 180 227)" fill="#FDCD86"/>
<rect width="38" height="38" transform="matrix(0.866025 0.5 -2.20305e-08 1 180 227)" fill="#FDCD86"/>
<rect width="38" height="38" transform="matrix(0.866025 -0.5 2.20305e-08 1 213 246)" fill="#FCBD5E"/>
<path d="M213 283.5V246M213 246L245.5 227.5M213 246L180.5 227.5" stroke="url(#paint38_radial)"/>
<rect width="38" height="38" transform="matrix(0.866025 -0.5 0.866025 0.5 224 342)" fill="#C4C4C4"/>
<rect width="38" height="38" transform="matrix(0.866025 -0.5 0.866025 0.5 224 304)" fill="url(#paint39_radial)"/>
<rect width="38" height="38" transform="matrix(0.866025 0.5 -2.20305e-08 1 224 304)" fill="#FDCD86"/>
<rect width="38" height="38" transform="matrix(0.866025 -0.5 2.20305e-08 1 257 323)" fill="#FCBD5E"/>
<path d="M257 360.5V323M257 323L289.5 304.5M257 323L224.5 304.5" stroke="url(#paint40_radial)"/>
<rect width="38" height="38" transform="matrix(0.866025 -0.5 0.866025 0.5 224 292)" fill="#C4C4C4"/>
<rect width="38" height="38" transform="matrix(0.866025 -0.5 0.866025 0.5 224 254)" fill="#FDCD86"/>
<rect width="38" height="38" transform="matrix(0.866025 -0.5 0.866025 0.5 224 254)" fill="url(#paint41_radial)"/>
<rect width="38" height="38" transform="matrix(0.866025 0.5 -2.20305e-08 1 224 254)" fill="#FDCD86"/>
<rect width="38" height="38" transform="matrix(0.866025 -0.5 2.20305e-08 1 257 273)" fill="#FCBD5E"/>
<path d="M257 310.5V273M257 273L289.5 254.5M257 273L224.5 254.5" stroke="url(#paint42_radial)"/>
<rect width="38" height="38" transform="matrix(0.866025 -0.5 0.866025 0.5 224 243)" fill="#C4C4C4"/>
<rect width="38" height="38" transform="matrix(0.866025 -0.5 0.866025 0.5 224 205)" fill="#FDCD86"/>
<rect width="38" height="38" transform="matrix(0.866025 0.5 -2.20305e-08 1 224 205)" fill="#FDCD86"/>
<rect width="38" height="38" transform="matrix(0.866025 -0.5 2.20305e-08 1 257 224)" fill="#FCBD5E"/>
<path d="M257 261.5V224M257 224L289.5 205.5M257 224L224.5 205.5" stroke="url(#paint43_radial)"/>
<circle r="40.5485" transform="matrix(0.866025 -0.5 0.866025 0.5 371.717 373.548)" stroke="#FCBD5E" stroke-width="2"/>
<path d="M416.185 343.267C417.849 344.005 419.471 344.791 421.044 345.624L420.63 345.885C421.4 346.293 422.159 346.712 422.905 347.143C423.651 347.574 424.377 348.012 425.084 348.456L425.535 348.217C426.978 349.126 428.339 350.062 429.619 351.023L429.133 351.238C430.421 352.205 431.624 353.198 432.744 354.212L433.261 354.022C434.404 355.058 435.461 356.117 436.432 357.194L435.888 357.357C436.86 358.437 437.745 359.536 438.541 360.651L439.108 360.517C439.917 361.65 440.637 362.799 441.267 363.962L440.683 364.067C441.311 365.226 441.849 366.398 442.298 367.578L442.896 367.503C443.35 368.698 443.712 369.902 443.984 371.112L443.376 371.157C443.646 372.36 443.824 373.567 443.912 374.777L444.524 374.762C444.612 375.983 444.609 377.205 444.514 378.426L443.903 378.41C443.808 379.619 443.624 380.827 443.348 382.029L443.955 382.075C443.678 383.284 443.309 384.488 442.849 385.683L442.252 385.606C441.798 386.786 441.254 387.957 440.621 389.115L441.205 389.221C440.57 390.382 439.845 391.531 439.031 392.663L438.465 392.528C437.665 393.642 436.776 394.74 435.801 395.819L436.344 395.983C435.37 397.059 434.311 398.117 433.165 399.152L432.649 398.962C431.526 399.975 430.321 400.967 429.032 401.934L429.517 402.149C428.237 403.11 426.875 404.045 425.431 404.953L424.98 404.714C424.273 405.159 423.547 405.597 422.8 406.028C422.054 406.458 421.296 406.878 420.526 407.286L420.94 407.546C419.367 408.38 417.746 409.166 416.083 409.906L415.709 409.625C414.035 410.37 412.317 411.066 410.562 411.713L410.892 412.011C409.099 412.673 407.267 413.285 405.402 413.847L405.119 413.534C403.25 414.097 401.348 414.609 399.418 415.072L399.653 415.398C397.691 415.868 395.702 416.287 393.69 416.653L393.506 416.316C391.5 416.682 389.473 416.996 387.429 417.258L387.562 417.603C385.493 417.868 383.408 418.081 381.314 418.241L381.233 417.891C379.151 418.05 377.06 418.157 374.965 418.211L374.993 418.564C372.879 418.619 370.761 418.621 368.647 418.57L368.673 418.216C366.577 418.166 364.486 418.063 362.403 417.907L362.325 418.258C360.229 418.101 358.143 417.892 356.073 417.63L356.204 417.284C354.159 417.026 352.13 416.715 350.123 416.352L349.94 416.689C347.927 416.326 345.936 415.91 343.973 415.443L344.207 415.116C342.275 414.656 340.371 414.145 338.501 413.584L338.219 413.898C336.352 413.337 334.518 412.727 332.724 412.067L333.053 411.769C331.296 411.122 329.578 410.427 327.902 409.684L327.529 409.964C325.865 409.226 324.243 408.44 322.67 407.606L323.084 407.346C322.314 406.938 321.555 406.519 320.809 406.088C320.063 405.657 319.337 405.219 318.63 404.775L318.179 405.014C316.736 404.105 315.375 403.169 314.095 402.208L314.581 401.993C313.293 401.026 312.09 400.033 310.97 399.019L310.453 399.209C309.31 398.173 308.253 397.114 307.282 396.037L307.826 395.874C306.854 394.794 305.969 393.695 305.173 392.58L304.607 392.714C303.797 391.581 303.077 390.431 302.447 389.269L303.031 389.163C302.403 388.005 301.865 386.833 301.416 385.653L300.818 385.728C300.364 384.533 300.002 383.329 299.731 382.119L300.338 382.074C300.068 380.871 299.89 379.664 299.802 378.454L299.19 378.469C299.102 377.248 299.105 376.026 299.2 374.805L299.812 374.821C299.906 373.612 300.091 372.404 300.366 371.202L299.759 371.156C300.036 369.946 300.405 368.743 300.865 367.548L301.462 367.625C301.916 366.445 302.46 365.274 303.093 364.116L302.509 364.01C303.145 362.849 303.869 361.7 304.683 360.568L305.249 360.703C306.049 359.589 306.938 358.491 307.913 357.412L307.37 357.248C308.344 356.172 309.404 355.114 310.55 354.079L311.065 354.269C312.188 353.256 313.393 352.264 314.682 351.297L314.197 351.082C315.477 350.121 316.84 349.186 318.283 348.278L318.734 348.517C319.441 348.072 320.168 347.634 320.914 347.203C321.66 346.773 322.418 346.353 323.188 345.945L322.774 345.685C324.347 344.851 325.968 344.065 327.631 343.325L328.005 343.606C329.679 342.861 331.397 342.165 333.152 341.517L332.823 341.22C334.615 340.558 336.447 339.946 338.312 339.384L338.595 339.697C340.464 339.134 342.366 338.621 344.296 338.159L344.061 337.833C346.023 337.363 348.012 336.944 350.024 336.578L350.208 336.915C352.214 336.549 354.241 336.235 356.285 335.973L356.152 335.628C358.221 335.363 360.306 335.15 362.4 334.99L362.481 335.34C364.563 335.181 366.654 335.074 368.749 335.02L368.721 334.667C370.835 334.612 372.953 334.61 375.067 334.661L375.041 335.014C377.137 335.065 379.229 335.168 381.311 335.324L381.389 334.973C383.485 335.13 385.571 335.339 387.641 335.601L387.51 335.947C389.555 336.205 391.584 336.516 393.591 336.879L393.774 336.541C395.787 336.905 397.778 337.321 399.741 337.788L399.508 338.115C401.439 338.575 403.343 339.086 405.213 339.647L405.495 339.333C407.362 339.893 409.196 340.504 410.99 341.164L410.661 341.462C412.418 342.109 414.137 342.804 415.812 343.547L416.185 343.267Z" stroke="#FCBD5E" stroke-dasharray="5 5"/>
<path d="M107.832 335.636C109.513 336.23 111.131 336.907 112.668 337.667L112.27 337.935C113.011 338.301 113.732 338.686 114.433 339.091C115.134 339.496 115.802 339.913 116.435 340.34L116.901 340.11C118.216 340.998 119.388 341.932 120.418 342.902L119.896 343.087C120.931 344.062 121.82 345.075 122.563 346.114L123.129 345.979C123.894 347.05 124.506 348.149 124.966 349.265L124.37 349.347C124.825 350.453 125.128 351.575 125.278 352.704L125.888 352.677C126.041 353.826 126.038 354.98 125.879 356.13L125.269 356.101C125.113 357.229 124.805 358.351 124.344 359.457L124.94 359.54C124.475 360.654 123.858 361.753 123.089 362.823L122.523 362.687C121.777 363.726 120.885 364.737 119.847 365.712L120.369 365.897C119.336 366.867 118.162 367.8 116.846 368.687L116.381 368.457C115.747 368.885 115.08 369.301 114.379 369.706C113.678 370.111 112.956 370.496 112.215 370.862L112.614 371.131C111.077 371.891 109.46 372.568 107.781 373.164L107.461 372.863C105.772 373.462 104.02 373.978 102.222 374.408L102.456 374.735C100.603 375.179 98.7006 375.535 96.7697 375.804L96.6265 375.46C94.7118 375.726 92.768 375.904 90.8146 375.994L90.8633 376.346C88.873 376.438 86.873 376.439 84.8829 376.351L84.9297 375.999C82.9753 375.912 81.0308 375.737 79.1155 375.475L78.9739 375.819C77.0412 375.553 75.1377 375.2 73.2826 374.758L73.5161 374.431C71.7159 374.003 69.9621 373.489 68.2729 372.892L67.9529 373.193C66.2724 372.598 64.6548 371.921 63.1173 371.162L63.5154 370.893C62.7748 370.528 62.053 370.142 61.352 369.738C60.651 369.333 59.9837 368.916 59.3502 368.489L58.8848 368.718C57.5697 367.831 56.3971 366.897 55.3671 365.927L55.8892 365.742C54.8539 364.767 53.9649 363.754 53.2224 362.715L52.6563 362.85C51.8911 361.779 51.2789 360.68 50.8196 359.564L51.4153 359.482C50.9602 358.376 50.6576 357.253 50.5076 356.125L49.8971 356.152C49.7444 355.003 49.7474 353.848 49.9061 352.699L50.5166 352.727C50.6723 351.6 50.9805 350.477 51.4411 349.372L50.8457 349.289C51.3101 348.174 51.927 347.076 52.6964 346.006L53.262 346.142C54.0083 345.103 54.9005 344.092 55.9384 343.117L55.4168 342.932C56.449 341.962 57.6231 341.029 58.939 340.142L59.4042 340.372C60.0382 339.944 60.7057 339.528 61.4067 339.123C62.1078 338.718 62.8295 338.333 63.5699 337.967L63.1716 337.698C64.7085 336.938 66.325 336.26 68.0039 335.664L68.3247 335.966C70.0129 335.366 71.7653 334.851 73.5636 334.42L73.3289 334.094C75.1828 333.65 77.0847 333.293 79.0156 333.025L79.1588 333.369C81.0736 333.103 83.0173 332.925 84.9707 332.835L84.922 332.483C86.9123 332.391 88.9123 332.39 90.9024 332.478L90.8556 332.83C92.81 332.917 94.7546 333.091 96.6699 333.354L96.8115 333.01C98.7442 333.275 100.648 333.629 102.503 334.071L102.269 334.398C104.069 334.826 105.823 335.339 107.512 335.937L107.832 335.636Z" stroke="#FCBD5E" stroke-dasharray="5 5"/>
<rect width="38" height="38" transform="matrix(0.866025 -0.5 0.866025 0.5 338.753 372)" fill="#C4C4C4"/>
<rect width="38" height="38" transform="matrix(0.866025 -0.5 0.866025 0.5 338.753 334)" fill="#FDCD86"/>
<rect width="38" height="38" transform="matrix(0.866025 0.5 -2.20305e-08 1 338.753 334)" fill="#FDCD86"/>
<rect width="38" height="38" transform="matrix(0.866025 -0.5 2.20305e-08 1 371.753 353)" fill="#FCBD5E"/>
<path d="M371.753 390.5V353M371.753 353L404.253 334.5M371.753 353L339.253 334.5" stroke="url(#paint44_radial)"/>
<rect width="17" height="17" transform="matrix(0.866025 -0.5 0.866025 0.5 73 355.501)" fill="#C4C4C4"/>
<rect width="17" height="17" transform="matrix(0.866025 -0.5 0.866025 0.5 73 338.501)" fill="#FDCD86"/>
<rect width="17" height="17" transform="matrix(0.866025 0.5 -2.20305e-08 1 73 338.501)" fill="#FDCD86"/>
<rect width="17" height="17" transform="matrix(0.866025 -0.5 2.20305e-08 1 87.7632 347.001)" fill="#FCBD5E"/>
<path d="M87.7632 363.777V347.001M87.7632 347.001L102.303 338.725M87.7632 347.001L73.2237 338.725" stroke="url(#paint45_radial)"/>
<rect width="17" height="17" transform="matrix(0.866025 -0.5 0.866025 0.5 73 331.501)" fill="#C4C4C4"/>
<rect width="17" height="17" transform="matrix(0.866025 -0.5 0.866025 0.5 73 314.501)" fill="#FDCD86"/>
<rect width="17" height="17" transform="matrix(0.866025 0.5 -2.20305e-08 1 73 314.501)" fill="#FDCD86"/>
<rect width="17" height="17" transform="matrix(0.866025 -0.5 2.20305e-08 1 87.7632 323.001)" fill="#FCBD5E"/>
<path d="M87.7632 339.777V323.001M87.7632 323.001L102.303 314.724M87.7632 323.001L73.2237 314.724" stroke="url(#paint46_radial)"/>
<rect width="17" height="17" transform="matrix(0.866025 -0.5 0.866025 0.5 73 306.5)" fill="#C4C4C4"/>
<rect width="17" height="17" transform="matrix(0.866025 -0.5 0.866025 0.5 73 289.5)" fill="#FDCD86"/>
<rect width="17" height="17" transform="matrix(0.866025 0.5 -2.20305e-08 1 73 289.5)" fill="#FDCD86"/>
<rect width="17" height="17" transform="matrix(0.866025 -0.5 2.20305e-08 1 87.7632 298)" fill="#FCBD5E"/>
<path d="M87.7632 314.777V298M87.7632 298L102.303 289.724M87.7632 298L73.2237 289.724" stroke="url(#paint47_radial)"/>
<rect width="23" height="23" transform="matrix(0.866025 -0.5 0.866025 0.5 358 130.5)" fill="#C4C4C4"/>
<rect width="23" height="23" transform="matrix(0.866025 -0.5 0.866025 0.5 358 107.5)" fill="#FDCD86"/>
<rect width="23" height="23" transform="matrix(0.866025 -0.5 0.866025 0.5 358 107.5)" fill="url(#paint48_radial)"/>
<rect width="23" height="23" transform="matrix(0.866025 0.5 -2.20305e-08 1 358 107.5)" fill="#FDCD86"/>
<rect width="23" height="23" transform="matrix(0.866025 -0.5 2.20305e-08 1 377.974 119)" fill="#FCBD5E"/>
<path d="M377.974 141.697V119M377.974 119L397.645 107.803M377.974 119L358.303 107.803" stroke="url(#paint49_radial)"/>
<rect width="23" height="23" transform="matrix(0.866025 -0.5 0.866025 0.5 384 147.5)" fill="#C4C4C4"/>
<rect width="23" height="23" transform="matrix(0.866025 -0.5 0.866025 0.5 384 124.5)" fill="#FDCD86"/>
<rect width="23" height="23" transform="matrix(0.866025 0.5 -2.20305e-08 1 384 124.5)" fill="#FDCD86"/>
<rect width="23" height="23" transform="matrix(0.866025 -0.5 2.20305e-08 1 403.974 136)" fill="#FCBD5E"/>
<path d="M403.974 158.697V136M403.974 136L423.645 124.803M403.974 136L384.303 124.803" stroke="url(#paint50_radial)"/>
<rect width="23" height="23" transform="matrix(0.866025 -0.5 0.866025 0.5 358 99.5)" fill="#C4C4C4"/>
<rect width="23" height="23" transform="matrix(0.866025 -0.5 0.866025 0.5 358 76.5)" fill="#FDCD86"/>
<rect width="23" height="23" transform="matrix(0.866025 0.5 -2.20305e-08 1 358 76.5)" fill="#FDCD86"/>
<rect width="23" height="23" transform="matrix(0.866025 -0.5 2.20305e-08 1 377.974 88)" fill="#FCBD5E"/>
<path d="M377.974 110.697V88M377.974 88L397.645 76.8026M377.974 88L358.303 76.8026" stroke="url(#paint51_radial)"/>
<rect opacity="0.5" width="23.094" height="106.065" transform="matrix(0.866025 -0.5 2.20305e-08 1 404 52.5978)" fill="url(#paint52_linear)"/>
<rect width="38.1051" height="280.983" transform="matrix(0.866025 -0.5 2.20305e-08 1 257 80.0526)" fill="url(#paint53_linear)"/>
<rect width="8.0829" height="11.2959" transform="matrix(0.866025 -0.5 2.20305e-08 1 254 98.0175)" fill="#F7DE00"/>
<rect opacity="0.1" width="8.0829" height="11.2959" transform="matrix(0.866025 -0.5 2.20305e-08 1 273 31.0415)" fill="#F7DE00"/>
<rect width="8.0829" height="11.2959" transform="matrix(0.866025 -0.5 2.20305e-08 1 280 113.042)" fill="#F7DE00"/>
<rect width="3.4641" height="5.10242" transform="matrix(0.866025 -0.5 2.20305e-08 1 266 112.265)" fill="#F7DE00"/>
<rect opacity="0.5" width="3.4641" height="5.10242" transform="matrix(0.866025 -0.5 2.20305e-08 1 270 57.7321)" fill="#F7DE00"/>
<rect width="3.4641" height="5.10242" transform="matrix(0.866025 -0.5 2.20305e-08 1 259 51.7321)" fill="#F7DE00"/>
<rect width="2.25525" height="3.32185" transform="matrix(0.866025 -0.5 2.20305e-08 1 273.523 98.4298)" fill="#F7DE00"/>
<rect width="2.25525" height="3.32185" transform="matrix(0.866025 -0.5 2.20305e-08 1 273 123.128)" fill="#F7DE00"/>
<rect opacity="0.2" width="2.25525" height="3.32185" transform="matrix(0.866025 -0.5 2.20305e-08 1 268 83.1276)" fill="#F7DE00"/>
<rect opacity="0.2" width="2.25525" height="3.32185" transform="matrix(0.866025 -0.5 2.20305e-08 1 255 76.1276)" fill="#F7DE00"/>
<rect opacity="0.2" width="2.25525" height="3.32185" transform="matrix(0.866025 -0.5 2.20305e-08 1 276 71.1276)" fill="#F7DE00"/>
<rect opacity="0.5" width="38.1051" height="186.79" transform="matrix(0.866025 -0.5 2.20305e-08 1 301 147.053)" fill="url(#paint54_linear)"/>
<rect opacity="0.5" width="38.1051" height="186.79" transform="matrix(0.866025 -0.5 2.20305e-08 1 351 117.053)" fill="url(#paint55_linear)"/>
<path d="M145.163 266.375L153.536 292.241C153.536 292.241 144.816 275.88 144.66 273.963C144.504 272.046 145.163 266.375 145.163 266.375Z" fill="white"/>
<path d="M158.998 272.791L154.336 292.612C154.336 292.612 160.977 283.375 160.821 281.458C160.666 279.541 158.998 272.791 158.998 272.791Z" fill="white"/>
<path d="M156.224 281.855C155.299 282.021 154.215 281.856 153.033 281.308C151.851 280.76 150.709 279.893 149.684 278.822L153.919 292.224L156.224 281.855Z" fill="white"/>
<path d="M148.013 273.533L148.018 273.535C149.341 275.361 150.995 276.862 152.738 277.669C154.48 278.477 156.01 278.454 157.129 277.761L157.134 277.763L156.224 281.855C155.3 282.022 154.215 281.856 153.033 281.308C151.851 280.76 150.709 279.893 149.684 278.822L148.013 273.533Z" fill="white"/>
<path d="M189.163 242.375L197.536 268.241C197.536 268.241 188.816 251.88 188.66 249.963C188.504 248.046 189.163 242.375 189.163 242.375Z" fill="white"/>
<path d="M202.998 248.791L198.336 268.612C198.336 268.612 204.977 259.375 204.821 257.458C204.666 255.541 202.998 248.791 202.998 248.791Z" fill="white"/>
<path d="M200.224 257.855C199.299 258.021 198.215 257.856 197.033 257.308C195.851 256.76 194.709 255.893 193.684 254.822L197.919 268.224L200.224 257.855Z" fill="white"/>
<path d="M192.013 249.533L192.018 249.535C193.341 251.361 194.995 252.862 196.737 253.669C198.48 254.477 200.01 254.454 201.129 253.761L201.134 253.763L200.224 257.855C199.299 258.022 198.215 257.856 197.033 257.308C195.851 256.76 194.709 255.893 193.684 254.822L192.013 249.533Z" fill="white"/>
<path d="M145.163 165.375L153.536 191.241C153.536 191.241 144.816 174.88 144.66 172.963C144.504 171.046 145.163 165.375 145.163 165.375Z" fill="white"/>
<path d="M158.998 171.791L154.336 191.612C154.336 191.612 160.977 182.375 160.821 180.458C160.666 178.541 158.998 171.791 158.998 171.791Z" fill="white"/>
<path d="M156.224 180.855C155.299 181.021 154.215 180.856 153.033 180.308C151.851 179.76 150.709 178.893 149.684 177.822L153.919 191.224L156.224 180.855Z" fill="white"/>
<path d="M148.013 172.533L148.018 172.535C149.341 174.361 150.995 175.862 152.738 176.669C154.48 177.477 156.01 177.454 157.129 176.761L157.134 176.763L156.224 180.855C155.3 181.022 154.215 180.856 153.033 180.308C151.851 179.76 150.709 178.893 149.684 177.822L148.013 172.533Z" fill="white"/>
<path d="M382.606 364.112C381.728 362.835 380.86 361.544 380 360.242C380.619 359.88 381.237 359.531 381.856 359.166C383.362 361.35 384.841 363.569 386.336 365.767C386.884 366.583 387.443 367.384 387.983 368.211C388.162 367.84 388.281 367.456 388.431 367.079C390.013 362.91 391.602 358.743 393.18 354.573C390.977 355.84 388.774 357.112 386.572 358.388C386.827 358.82 387.128 359.194 387.383 359.625C386.762 359.991 386.14 360.344 385.518 360.706C384.93 359.828 384.317 358.98 383.75 358.077C387.834 355.717 391.917 353.359 396 351.005C395.132 353.301 394.261 355.596 393.383 357.891C394.237 358.006 395.107 358.077 395.966 358.18C395.707 358.896 395.425 359.609 395.157 360.324C394.357 360.236 393.553 360.157 392.756 360.061C392.692 360.057 392.626 360.038 392.549 360.101C392.43 360.383 392.328 360.668 392.243 360.951C393.091 361.056 393.923 361.201 394.77 361.308C394.528 362.027 394.228 362.742 393.968 363.46C393.11 363.35 392.255 363.233 391.397 363.125C390.311 365.999 389.212 368.872 388.126 371.747C388.084 371.854 388.028 371.959 387.982 372.066C386.863 370.385 385.713 368.742 384.597 367.057C383.732 368.144 382.88 369.253 382.026 370.357C381.75 369.956 381.473 369.557 381.207 369.144C382.061 368.055 382.895 366.94 383.749 365.853C383.655 365.666 383.54 365.503 383.428 365.338C382.566 366.369 381.745 367.466 380.892 368.51C380.869 368.521 380.825 368.543 380.803 368.554C380.537 368.17 380.277 367.777 380.015 367.389C380.88 366.299 381.747 365.211 382.606 364.112Z" fill="white"/>
<path d="M311.606 255.112C310.728 253.835 309.86 252.544 309 251.242C309.619 250.88 310.237 250.531 310.856 250.166C312.362 252.35 313.841 254.569 315.336 256.767C315.884 257.583 316.443 258.384 316.983 259.211C317.162 258.84 317.281 258.456 317.431 258.079C319.013 253.91 320.602 249.743 322.18 245.573C319.977 246.84 317.774 248.112 315.572 249.388C315.827 249.82 316.128 250.194 316.383 250.625C315.762 250.991 315.14 251.344 314.518 251.706C313.93 250.828 313.317 249.98 312.75 249.077C316.834 246.717 320.917 244.359 325 242.005C324.132 244.301 323.261 246.596 322.383 248.891C323.237 249.006 324.107 249.077 324.966 249.18C324.707 249.896 324.425 250.609 324.157 251.324C323.357 251.236 322.553 251.157 321.756 251.061C321.692 251.057 321.626 251.038 321.549 251.101C321.43 251.383 321.328 251.668 321.243 251.951C322.091 252.056 322.923 252.201 323.77 252.308C323.528 253.027 323.228 253.742 322.968 254.46C322.11 254.35 321.255 254.233 320.397 254.125C319.311 256.999 318.212 259.872 317.126 262.747C317.084 262.854 317.028 262.959 316.982 263.066C315.863 261.385 314.713 259.742 313.597 258.057C312.732 259.144 311.88 260.253 311.026 261.357C310.75 260.956 310.473 260.557 310.207 260.144C311.061 259.055 311.895 257.94 312.749 256.853C312.655 256.666 312.54 256.503 312.428 256.338C311.566 257.369 310.745 258.466 309.892 259.51C309.869 259.521 309.825 259.543 309.803 259.554C309.537 259.17 309.277 258.777 309.015 258.389C309.88 257.299 310.747 256.211 311.606 255.112Z" fill="white"/>
<path d="M362.606 276.112C361.728 274.835 360.86 273.544 360 272.242C360.619 271.88 361.237 271.531 361.856 271.166C363.362 273.35 364.841 275.569 366.336 277.767C366.884 278.583 367.443 279.384 367.983 280.211C368.162 279.84 368.281 279.456 368.431 279.079C370.013 274.91 371.602 270.743 373.18 266.573C370.977 267.84 368.774 269.112 366.572 270.388C366.827 270.82 367.128 271.194 367.383 271.625C366.762 271.991 366.14 272.344 365.518 272.706C364.93 271.828 364.317 270.98 363.75 270.077C367.834 267.717 371.917 265.359 376 263.005C375.132 265.301 374.261 267.596 373.383 269.891C374.237 270.006 375.107 270.077 375.966 270.18C375.707 270.896 375.425 271.609 375.157 272.324C374.357 272.236 373.553 272.157 372.756 272.061C372.692 272.057 372.626 272.038 372.549 272.101C372.43 272.383 372.328 272.668 372.243 272.951C373.091 273.056 373.923 273.201 374.77 273.308C374.528 274.027 374.228 274.742 373.968 275.46C373.11 275.35 372.255 275.233 371.397 275.125C370.311 277.999 369.212 280.872 368.126 283.747C368.084 283.854 368.028 283.959 367.982 284.066C366.863 282.385 365.713 280.742 364.597 279.057C363.732 280.144 362.88 281.253 362.026 282.357C361.75 281.956 361.473 281.557 361.207 281.144C362.061 280.055 362.895 278.94 363.749 277.853C363.655 277.666 363.54 277.503 363.428 277.338C362.566 278.369 361.745 279.466 360.892 280.51C360.869 280.521 360.825 280.543 360.803 280.554C360.537 280.17 360.277 279.777 360.015 279.389C360.88 278.299 361.747 277.211 362.606 276.112Z" fill="white"/>
</g>
<defs>
<radialGradient id="paint0_radial" cx="0" cy="0" r="1" gradientUnits="userSpaceOnUse" gradientTransform="translate(75.5 280.5) rotate(-88.2484) scale(163.576 141.661)">
<stop stop-color="#FFF3E2"/>
<stop offset="0.974274" stop-color="white"/>
</radialGradient>
<radialGradient id="paint1_radial" cx="0" cy="0" r="1" gradientUnits="userSpaceOnUse" gradientTransform="translate(332 302) rotate(59.0362) scale(192.421 166.642)">
<stop stop-color="#FFF3E2"/>
<stop offset="0.974274" stop-color="white"/>
</radialGradient>
<radialGradient id="paint2_radial" cx="0" cy="0" r="1" gradientUnits="userSpaceOnUse" gradientTransform="translate(4.6188 5.6906) rotate(58.0997) scale(40.4244 58.56)">
<stop stop-color="#FDCD86"/>
<stop offset="1" stop-color="#F7AD3D"/>
</radialGradient>
<radialGradient id="paint3_radial" cx="0" cy="0" r="1" gradientUnits="userSpaceOnUse" gradientTransform="translate(265 209.5) rotate(90) scale(37 42.9464)">
<stop stop-color="#FDE1B6"/>
<stop offset="1" stop-color="#FDE1B6" stop-opacity="0"/>
</radialGradient>
<radialGradient id="paint4_radial" cx="0" cy="0" r="1" gradientUnits="userSpaceOnUse" gradientTransform="translate(4.6188 5.6906) rotate(58.0997) scale(40.4244 58.56)">
<stop stop-color="#FDCD86"/>
<stop offset="1" stop-color="#F7AD3D"/>
</radialGradient>
<radialGradient id="paint5_radial" cx="0" cy="0" r="1" gradientUnits="userSpaceOnUse" gradientTransform="translate(265 159.5) rotate(90) scale(37 42.9464)">
<stop stop-color="#FDE1B6"/>
<stop offset="1" stop-color="#FDE1B6" stop-opacity="0"/>
</radialGradient>
<radialGradient id="paint6_radial" cx="0" cy="0" r="1" gradientUnits="userSpaceOnUse" gradientTransform="translate(4.6188 5.6906) rotate(58.0997) scale(40.4244 58.56)">
<stop stop-color="#FDCD86"/>
<stop offset="1" stop-color="#F7AD3D"/>
</radialGradient>
<radialGradient id="paint7_radial" cx="0" cy="0" r="1" gradientUnits="userSpaceOnUse" gradientTransform="translate(307 239.5) rotate(90) scale(37 42.9464)">
<stop stop-color="#FDE1B6"/>
<stop offset="1" stop-color="#FDE1B6" stop-opacity="0"/>
</radialGradient>
<radialGradient id="paint8_radial" cx="0" cy="0" r="1" gradientUnits="userSpaceOnUse" gradientTransform="translate(26.9752 9.97521) rotate(136.945) scale(48.111 24.1109)">
<stop stop-color="#F8AD3D"/>
<stop offset="1" stop-color="#FDCD86"/>
</radialGradient>
<radialGradient id="paint9_radial" cx="0" cy="0" r="1" gradientUnits="userSpaceOnUse" gradientTransform="translate(4.6188 5.6906) rotate(58.0997) scale(40.4244 58.56)">
<stop stop-color="#FDCD86"/>
<stop offset="1" stop-color="#F7AD3D"/>
</radialGradient>
<radialGradient id="paint10_radial" cx="0" cy="0" r="1" gradientUnits="userSpaceOnUse" gradientTransform="translate(307 189.5) rotate(90) scale(37 42.9464)">
<stop stop-color="#FDE1B6"/>
<stop offset="1" stop-color="#FDE1B6" stop-opacity="0"/>
</radialGradient>
<radialGradient id="paint11_radial" cx="0" cy="0" r="1" gradientUnits="userSpaceOnUse" gradientTransform="translate(26.9752 9.97521) rotate(136.945) scale(48.111 24.1109)">
<stop stop-color="#F8AD3D"/>
<stop offset="1" stop-color="#FDCD86"/>
</radialGradient>
<radialGradient id="paint12_radial" cx="0" cy="0" r="1" gradientUnits="userSpaceOnUse" gradientTransform="translate(4.6188 5.6906) rotate(58.0997) scale(40.4244 58.56)">
<stop stop-color="#FDCD86"/>
<stop offset="1" stop-color="#F7AD3D"/>
</radialGradient>
<radialGradient id="paint13_radial" cx="0" cy="0" r="1" gradientUnits="userSpaceOnUse" gradientTransform="translate(351 266.5) rotate(90) scale(37 42.9464)">
<stop stop-color="#FDE1B6"/>
<stop offset="1" stop-color="#FDE1B6" stop-opacity="0"/>
</radialGradient>
<radialGradient id="paint14_radial" cx="0" cy="0" r="1" gradientUnits="userSpaceOnUse" gradientTransform="translate(4.6188 5.6906) rotate(58.0997) scale(40.4244 58.56)">
<stop stop-color="#FDCD86"/>
<stop offset="1" stop-color="#F7AD3D"/>
</radialGradient>
<radialGradient id="paint15_radial" cx="0" cy="0" r="1" gradientUnits="userSpaceOnUse" gradientTransform="translate(351 216.5) rotate(90) scale(37 42.9464)">
<stop stop-color="#FDE1B6"/>
<stop offset="1" stop-color="#FDE1B6" stop-opacity="0"/>
</radialGradient>
<radialGradient id="paint16_radial" cx="0" cy="0" r="1" gradientUnits="userSpaceOnUse" gradientTransform="translate(4.6188 5.6906) rotate(58.0997) scale(40.4244 58.56)">
<stop stop-color="#FDCD86"/>
<stop offset="1" stop-color="#F7AD3D"/>
</radialGradient>
<radialGradient id="paint17_radial" cx="0" cy="0" r="1" gradientUnits="userSpaceOnUse" gradientTransform="translate(216 238.5) rotate(90) scale(37 42.9464)">
<stop stop-color="#FDE1B6"/>
<stop offset="1" stop-color="#FDE1B6" stop-opacity="0"/>
</radialGradient>
<radialGradient id="paint18_radial" cx="0" cy="0" r="1" gradientUnits="userSpaceOnUse" gradientTransform="translate(4.6188 5.6906) rotate(58.0997) scale(40.4244 58.56)">
<stop stop-color="#FDCD86"/>
<stop offset="1" stop-color="#F7AD3D"/>
</radialGradient>
<radialGradient id="paint19_radial" cx="0" cy="0" r="1" gradientUnits="userSpaceOnUse" gradientTransform="translate(216 188.5) rotate(90) scale(37 42.9464)">
<stop stop-color="#FDE1B6"/>
<stop offset="1" stop-color="#FDE1B6" stop-opacity="0"/>
</radialGradient>
<radialGradient id="paint20_radial" cx="0" cy="0" r="1" gradientUnits="userSpaceOnUse" gradientTransform="translate(4.6188 5.6906) rotate(58.0997) scale(40.4244 58.56)">
<stop stop-color="#FDCD86"/>
<stop offset="1" stop-color="#F7AD3D"/>
</radialGradient>
<radialGradient id="paint21_radial" cx="0" cy="0" r="1" gradientUnits="userSpaceOnUse" gradientTransform="translate(258 268.5) rotate(90) scale(37 42.9464)">
<stop stop-color="#FDE1B6"/>
<stop offset="1" stop-color="#FDE1B6" stop-opacity="0"/>
</radialGradient>
<radialGradient id="paint22_radial" cx="0" cy="0" r="1" gradientUnits="userSpaceOnUse" gradientTransform="translate(26.9752 9.97521) rotate(136.945) scale(48.111 24.1109)">
<stop stop-color="#F8AD3D"/>
<stop offset="1" stop-color="#FDCD86"/>
</radialGradient>
<radialGradient id="paint23_radial" cx="0" cy="0" r="1" gradientUnits="userSpaceOnUse" gradientTransform="translate(4.6188 5.6906) rotate(58.0997) scale(40.4244 58.56)">
<stop stop-color="#FDCD86"/>
<stop offset="1" stop-color="#F7AD3D"/>
</radialGradient>
<radialGradient id="paint24_radial" cx="0" cy="0" r="1" gradientUnits="userSpaceOnUse" gradientTransform="translate(258 218.5) rotate(90) scale(37 42.9464)">
<stop stop-color="#FDE1B6"/>
<stop offset="1" stop-color="#FDE1B6" stop-opacity="0"/>
</radialGradient>
<radialGradient id="paint25_radial" cx="0" cy="0" r="1" gradientUnits="userSpaceOnUse" gradientTransform="translate(26.9752 9.97521) rotate(136.945) scale(48.111 24.1109)">
<stop stop-color="#F8AD3D"/>
<stop offset="1" stop-color="#FDCD86"/>
</radialGradient>
<radialGradient id="paint26_radial" cx="0" cy="0" r="1" gradientUnits="userSpaceOnUse" gradientTransform="translate(4.6188 5.6906) rotate(58.0997) scale(40.4244 58.56)">
<stop stop-color="#FDCD86"/>
<stop offset="1" stop-color="#F7AD3D"/>
</radialGradient>
<radialGradient id="paint27_radial" cx="0" cy="0" r="1" gradientUnits="userSpaceOnUse" gradientTransform="translate(302 295.5) rotate(90) scale(37 42.9464)">
<stop stop-color="#FDE1B6"/>
<stop offset="1" stop-color="#FDE1B6" stop-opacity="0"/>
</radialGradient>
<radialGradient id="paint28_radial" cx="0" cy="0" r="1" gradientUnits="userSpaceOnUse" gradientTransform="translate(4.6188 5.6906) rotate(58.0997) scale(40.4244 58.56)">
<stop stop-color="#FDCD86"/>
<stop offset="1" stop-color="#F7AD3D"/>
</radialGradient>
<radialGradient id="paint29_radial" cx="0" cy="0" r="1" gradientUnits="userSpaceOnUse" gradientTransform="translate(302 245.5) rotate(90) scale(37 42.9464)">
<stop stop-color="#FDE1B6"/>
<stop offset="1" stop-color="#FDE1B6" stop-opacity="0"/>
</radialGradient>
<radialGradient id="paint30_radial" cx="0" cy="0" r="1" gradientUnits="userSpaceOnUse" gradientTransform="translate(26.9752 9.97521) rotate(136.945) scale(48.111 24.1109)">
<stop stop-color="#F8AD3D"/>
<stop offset="1" stop-color="#FDCD86"/>
</radialGradient>
<radialGradient id="paint31_radial" cx="0" cy="0" r="1" gradientUnits="userSpaceOnUse" gradientTransform="translate(170 271.5) rotate(90) scale(37 42.9464)">
<stop stop-color="#FDE1B6"/>
<stop offset="1" stop-color="#FDE1B6" stop-opacity="0"/>
</radialGradient>
<radialGradient id="paint32_radial" cx="0" cy="0" r="1" gradientUnits="userSpaceOnUse" gradientTransform="translate(26.9752 9.97521) rotate(136.945) scale(48.111 24.1109)">
<stop stop-color="#F8AD3D"/>
<stop offset="1" stop-color="#FDCD86"/>
</radialGradient>
<radialGradient id="paint33_radial" cx="0" cy="0" r="1" gradientUnits="userSpaceOnUse" gradientTransform="translate(170 221.5) rotate(90) scale(37 42.9464)">
<stop stop-color="#FDE1B6"/>
<stop offset="1" stop-color="#FDE1B6" stop-opacity="0"/>
</radialGradient>
<radialGradient id="paint34_radial" cx="0" cy="0" r="1" gradientUnits="userSpaceOnUse" gradientTransform="translate(171 171.5) rotate(90) scale(37 42.9464)">
<stop stop-color="#FDE1B6"/>
<stop offset="1" stop-color="#FDE1B6" stop-opacity="0"/>
</radialGradient>
<radialGradient id="paint35_radial" cx="0" cy="0" r="1" gradientUnits="userSpaceOnUse" gradientTransform="translate(307 142.5) rotate(90) scale(37 42.9464)">
<stop stop-color="#FDE1B6"/>
<stop offset="1" stop-color="#FDE1B6" stop-opacity="0"/>
</radialGradient>
<radialGradient id="paint36_radial" cx="0" cy="0" r="1" gradientUnits="userSpaceOnUse" gradientTransform="translate(26.9752 9.97521) rotate(136.945) scale(48.111 24.1109)">
<stop stop-color="#F8AD3D"/>
<stop offset="1" stop-color="#FDCD86"/>
</radialGradient>
<radialGradient id="paint37_radial" cx="0" cy="0" r="1" gradientUnits="userSpaceOnUse" gradientTransform="translate(213 296.5) rotate(90) scale(37 42.9464)">
<stop stop-color="#FDE1B6"/>
<stop offset="1" stop-color="#FDE1B6" stop-opacity="0"/>
</radialGradient>
<radialGradient id="paint38_radial" cx="0" cy="0" r="1" gradientUnits="userSpaceOnUse" gradientTransform="translate(213 246.5) rotate(90) scale(37 42.9464)">
<stop stop-color="#FDE1B6"/>
<stop offset="1" stop-color="#FDE1B6" stop-opacity="0"/>
</radialGradient>
<radialGradient id="paint39_radial" cx="0" cy="0" r="1" gradientUnits="userSpaceOnUse" gradientTransform="translate(26.9752 9.97521) rotate(136.945) scale(48.111 24.1109)">
<stop stop-color="#F8AD3D"/>
<stop offset="1" stop-color="#FDCD86"/>
</radialGradient>
<radialGradient id="paint40_radial" cx="0" cy="0" r="1" gradientUnits="userSpaceOnUse" gradientTransform="translate(257 323.5) rotate(90) scale(37 42.9464)">
<stop stop-color="#FDE1B6"/>
<stop offset="1" stop-color="#FDE1B6" stop-opacity="0"/>
</radialGradient>
<radialGradient id="paint41_radial" cx="0" cy="0" r="1" gradientUnits="userSpaceOnUse" gradientTransform="translate(26.9752 9.97521) rotate(136.945) scale(48.111 24.1109)">
<stop stop-color="#F8AD3D"/>
<stop offset="1" stop-color="#FDCD86"/>
</radialGradient>
<radialGradient id="paint42_radial" cx="0" cy="0" r="1" gradientUnits="userSpaceOnUse" gradientTransform="translate(257 273.5) rotate(90) scale(37 42.9464)">
<stop stop-color="#FDE1B6"/>
<stop offset="1" stop-color="#FDE1B6" stop-opacity="0"/>
</radialGradient>
<radialGradient id="paint43_radial" cx="0" cy="0" r="1" gradientUnits="userSpaceOnUse" gradientTransform="translate(257 224.5) rotate(90) scale(37 42.9464)">
<stop stop-color="#FDE1B6"/>
<stop offset="1" stop-color="#FDE1B6" stop-opacity="0"/>
</radialGradient>
<radialGradient id="paint44_radial" cx="0" cy="0" r="1" gradientUnits="userSpaceOnUse" gradientTransform="translate(371.753 353.5) rotate(90) scale(37 42.9464)">
<stop stop-color="#FDE1B6"/>
<stop offset="1" stop-color="#FDE1B6" stop-opacity="0"/>
</radialGradient>
<radialGradient id="paint45_radial" cx="0" cy="0" r="1" gradientUnits="userSpaceOnUse" gradientTransform="translate(87.7632 347.225) rotate(90) scale(16.5526 19.2129)">
<stop stop-color="#FDE1B6"/>
<stop offset="1" stop-color="#FDE1B6" stop-opacity="0"/>
</radialGradient>
<radialGradient id="paint46_radial" cx="0" cy="0" r="1" gradientUnits="userSpaceOnUse" gradientTransform="translate(87.7632 323.224) rotate(90) scale(16.5526 19.2129)">
<stop stop-color="#FDE1B6"/>
<stop offset="1" stop-color="#FDE1B6" stop-opacity="0"/>
</radialGradient>
<radialGradient id="paint47_radial" cx="0" cy="0" r="1" gradientUnits="userSpaceOnUse" gradientTransform="translate(87.7632 298.224) rotate(90) scale(16.5526 19.2129)">
<stop stop-color="#FDE1B6"/>
<stop offset="1" stop-color="#FDE1B6" stop-opacity="0"/>
</radialGradient>
<radialGradient id="paint48_radial" cx="0" cy="0" r="1" gradientUnits="userSpaceOnUse" gradientTransform="translate(16.3271 6.03763) rotate(136.945) scale(29.1198 14.5934)">
<stop stop-color="#F8AD3D"/>
<stop offset="1" stop-color="#FDCD86"/>
</radialGradient>
<radialGradient id="paint49_radial" cx="0" cy="0" r="1" gradientUnits="userSpaceOnUse" gradientTransform="translate(377.974 119.303) rotate(90) scale(22.3947 25.9939)">
<stop stop-color="#FDE1B6"/>
<stop offset="1" stop-color="#FDE1B6" stop-opacity="0"/>
</radialGradient>
<radialGradient id="paint50_radial" cx="0" cy="0" r="1" gradientUnits="userSpaceOnUse" gradientTransform="translate(403.974 136.303) rotate(90) scale(22.3947 25.9939)">
<stop stop-color="#FDE1B6"/>
<stop offset="1" stop-color="#FDE1B6" stop-opacity="0"/>
</radialGradient>
<radialGradient id="paint51_radial" cx="0" cy="0" r="1" gradientUnits="userSpaceOnUse" gradientTransform="translate(377.974 88.3026) rotate(90) scale(22.3947 25.9939)">
<stop stop-color="#FDE1B6"/>
<stop offset="1" stop-color="#FDE1B6" stop-opacity="0"/>
</radialGradient>
<linearGradient id="paint52_linear" x1="9.1228" y1="106.633" x2="9.92491" y2="3.47027" gradientUnits="userSpaceOnUse">
<stop stop-color="#F7DE00"/>
<stop offset="1" stop-color="#FCBD5E" stop-opacity="0"/>
</linearGradient>
<linearGradient id="paint53_linear" x1="15.0526" y1="282.488" x2="18.4639" y2="9.21936" gradientUnits="userSpaceOnUse">
<stop stop-color="#F7DE00"/>
<stop offset="1" stop-color="#FCBD5E" stop-opacity="0"/>
</linearGradient>
<linearGradient id="paint54_linear" x1="15.0526" y1="187.791" x2="16.5603" y2="6.11301" gradientUnits="userSpaceOnUse">
<stop stop-color="#F7DE00"/>
<stop offset="1" stop-color="#FCBD5E" stop-opacity="0"/>
</linearGradient>
<linearGradient id="paint55_linear" x1="15.0526" y1="187.791" x2="16.5603" y2="6.11301" gradientUnits="userSpaceOnUse">
<stop stop-color="#F7DE00"/>
<stop offset="1" stop-color="#FCBD5E" stop-opacity="0"/>
</linearGradient>
<clipPath id="clip0">
<rect width="540" height="436" fill="white"/>
</clipPath>
</defs>
</svg>
