<svg width="62" height="62" viewBox="0 0 62 62" fill="none" xmlns="http://www.w3.org/2000/svg">
<circle cx="31" cy="31" r="27" fill="#8ED7FC" stroke="#00A6FC" stroke-width="8"/>
<path d="M38 35.2233C38 36.6907 37.5106 37.9287 36.5318 38.9376C35.5705 39.9464 34.2684 40.5792 32.6255 40.836V42.5693C32.6255 42.9912 32.5031 43.3305 32.2584 43.5873C32.0137 43.8624 31.6904 44 31.2884 44C30.8864 44 30.563 43.8624 30.3184 43.5873C30.0737 43.3305 29.9513 42.9912 29.9513 42.5693V40.891C28.9551 40.7993 27.985 40.5792 27.0412 40.2307C26.0974 39.8822 25.2846 39.4236 24.603 38.855C24.3758 38.6899 24.2185 38.5065 24.1311 38.3048C24.0437 38.103 24 37.8554 24 37.5619C24 37.1767 24.1049 36.8374 24.3146 36.5439C24.5418 36.2504 24.7953 36.1037 25.0749 36.1037C25.2497 36.1037 25.407 36.1404 25.5468 36.2138C25.7041 36.2688 25.9051 36.3697 26.1498 36.5164C26.9538 37.0667 27.7403 37.4702 28.5094 37.727C29.2959 37.9838 30.1174 38.1122 30.9738 38.1122C32.1448 38.1122 33.0449 37.8737 33.6742 37.3968C34.3208 36.9199 34.6442 36.2321 34.6442 35.3333C34.6442 34.8014 34.4694 34.3704 34.1199 34.0402C33.7703 33.7101 33.3333 33.4533 32.809 33.2698C32.2846 33.0681 31.5506 32.8388 30.6067 32.582C29.2959 32.2335 28.2297 31.885 27.4082 31.5365C26.5868 31.1697 25.8789 30.6194 25.2846 29.8857C24.6904 29.152 24.3933 28.1616 24.3933 26.9143C24.3933 25.4286 24.9001 24.163 25.9139 23.1175C26.9276 22.072 28.2559 21.4208 29.8989 21.164V19.4307C29.8989 19.0088 30.0212 18.6695 30.2659 18.4127C30.5106 18.1376 30.834 18 31.236 18C31.638 18 31.9613 18.1376 32.206 18.4127C32.4507 18.6695 32.573 19.0088 32.573 19.4307V21.1365C34.3383 21.375 35.8589 22.0444 37.1348 23.145C37.5543 23.4751 37.764 23.9062 37.764 24.4381C37.764 24.8233 37.6504 25.1626 37.4232 25.4561C37.2135 25.7496 36.96 25.8963 36.6629 25.8963C36.5056 25.8963 36.3483 25.8688 36.191 25.8138C36.0512 25.7587 35.8589 25.6487 35.6142 25.4836C34.8976 24.9517 34.216 24.5573 33.5693 24.3005C32.9401 24.0254 32.1885 23.8878 31.3146 23.8878C30.231 23.8878 29.3658 24.1446 28.7191 24.6582C28.0724 25.1534 27.7491 25.8413 27.7491 26.7217C27.7491 27.327 27.9326 27.8222 28.2996 28.2074C28.6667 28.5743 29.1298 28.8586 29.6891 29.0603C30.2484 29.2621 31.0087 29.4914 31.97 29.7481C33.2459 30.0783 34.2859 30.4176 35.0899 30.7661C35.8939 31.1146 36.5755 31.6466 37.1348 32.3619C37.7116 33.0589 38 34.0127 38 35.2233Z" fill="#006B9E"/>
</svg>
