<svg width="57" height="57" viewBox="0 0 57 57" fill="none" xmlns="http://www.w3.org/2000/svg">
<path d="M56.8735 31.1652H0.128296V31.1661H56.8735V31.1652Z" fill="#C42126"/>
<path d="M53.9158 15.6071H3.08385V15.6079H53.9158V15.6071Z" fill="#C42126"/>
<path d="M55.9353 20.7923H1.06245V20.7932H55.9353V20.7923Z" fill="#C42126"/>
<path d="M12.2491 51.9074H44.751L44.7527 51.9056H12.2473L12.2491 51.9074Z" fill="#C42126"/>
<path d="M28.4996 -0.000366211C27.9398 -0.000366211 27.3844 0.0198501 26.8332 0.0513779H30.1664C29.6146 0.0198501 29.0594 -0.000366211 28.4996 -0.000366211Z" fill="#C42126"/>
<path d="M56.8808 25.9788H0.117462V25.9796H56.8808V25.9788Z" fill="#C42126"/>
<path d="M36.9232 10.4217H50.5321C48.9156 8.45391 47.037 6.71194 44.9556 5.23723H34.7365C35.5821 6.72493 36.3093 8.48038 36.9232 10.4217Z" fill="#E7E7E7"/>
<path d="M34.7365 5.23722H44.9556C40.731 2.2434 35.659 0.36858 30.1663 0.0513763H29.2888C31.8741 0.376763 33.0616 2.29009 34.7365 5.23722Z" fill="#DC3027"/>
<path d="M55.9371 20.7928C55.4304 18.9856 54.7508 17.2517 53.9157 15.6083H38.2591C38.5763 17.2729 38.8266 19.0116 39.0119 20.7928H55.9371Z" fill="#E7E7E7"/>
<path d="M37.3785 15.6075H53.9152C52.9729 13.7539 51.8407 12.0146 50.5321 10.4221H36.0866C36.596 12.0345 37.0284 13.7738 37.3785 15.6075Z" fill="#DC3027"/>
<path d="M39.6115 31.164H56.8712C56.9532 30.287 56.9995 29.3982 56.9995 28.5001C56.9995 27.65 56.955 26.8108 56.8821 25.9792H39.6155C39.6717 27.7036 39.6708 29.4406 39.6115 31.164Z" fill="#E7E7E7"/>
<path d="M56.8825 25.9783C56.7264 24.1976 56.4055 22.4651 55.9371 20.7938H38.2849C38.4621 22.4916 38.5792 24.2286 38.6364 25.9783H56.8825Z" fill="#DC3027"/>
<path d="M37.9613 41.5352H53.841C54.6879 39.8936 55.3781 38.1584 55.8957 36.3499H38.729C38.54 38.1337 38.2834 39.8721 37.9613 41.5352Z" fill="#E7E7E7"/>
<path d="M55.8962 36.3495C56.3745 34.6787 56.7066 32.9462 56.8717 31.165H39.0737C39.0129 32.916 38.8923 34.6525 38.7115 36.3495H55.8962Z" fill="#DC3027"/>
<path d="M44.7527 51.9056C46.8641 50.4368 48.7693 48.693 50.4114 46.7211H37.0397C36.4146 48.6705 35.6725 50.4232 34.8116 51.9056H44.7527Z" fill="#E7E7E7"/>
<path d="M36.5365 46.7207H50.4114C51.7353 45.13 52.8847 43.3907 53.8408 41.5354H37.8447C37.4897 43.3704 37.0528 45.1105 36.5365 46.7207Z" fill="#DC3027"/>
<path d="M27.4667 56.9794C27.4091 56.9776 27.3516 56.975 27.2939 56.9732C27.3516 56.9749 27.4092 56.9776 27.4667 56.9794Z" fill="#DC3027"/>
<path d="M28.4996 56.9997C34.5417 56.9997 40.1402 55.1137 44.751 51.9074H34.4364C32.6058 55.0614 31.398 56.9997 28.4996 56.9997Z" fill="#DC3027"/>
<path d="M28.4996 56.9996C28.1535 56.9996 27.8097 56.9916 27.4669 56.9794C27.8133 56.9911 28.1575 56.9996 28.4996 56.9996Z" fill="#C42126"/>
<path d="M35.6802 5.23723H12.0443C9.96266 6.71194 8.08435 8.45379 6.46741 10.4217H37.8663C37.2525 8.48038 36.5258 6.72493 35.6802 5.23723Z" fill="#F3F4F5"/>
<path d="M12.0443 5.23722H35.6802C34.0049 2.29009 31.8741 0.376763 29.2889 0.0513763H26.8332C21.3405 0.36858 16.2685 2.2434 12.0443 5.23722Z" fill="#E73625"/>
<path d="M1.06291 20.7928H39.9107C39.7253 19.0113 39.4751 17.2729 39.1579 15.6083H3.0843C2.24906 17.2518 1.56964 18.9856 1.06291 20.7928Z" fill="#F3F4F5"/>
<path d="M6.46741 10.4217C5.15973 12.0143 4.02666 13.7535 3.08479 15.6071H39.1579C38.8082 13.7738 38.3758 12.0346 37.8663 10.4217C37.8663 10.4217 6.46741 10.4217 6.46741 10.4217Z" fill="#E73625"/>
<path d="M0 28.5C0 29.3982 0.0468104 30.287 0.128277 31.164H40.259C40.3184 29.4405 40.3193 27.7039 40.2631 25.9795H0.117447C0.044524 26.8108 0 27.65 0 28.5Z" fill="#F3F4F5"/>
<path d="M0.117447 25.9783H40.2626C40.2054 24.2283 40.088 22.4917 39.9111 20.7938H1.06244C0.593974 22.4655 0.273161 24.1976 0.117447 25.9783Z" fill="#E73625"/>
<path d="M39.8968 36.3495H1.10384C1.6214 38.1585 2.31212 39.8933 3.15856 41.5349H39.129C39.4513 39.8721 39.7072 38.1337 39.8968 36.3495Z" fill="#F3F4F5"/>
<path d="M1.10384 36.3495H39.8968C40.0773 34.6525 40.1982 32.9155 40.259 31.165H0.128281C0.29338 32.9466 0.625987 34.6787 1.10384 36.3495Z" fill="#E73625"/>
<path d="M12.2472 51.9056H35.5933C36.4542 50.4228 37.1967 48.6705 37.8213 46.7211H6.58847C8.23056 48.693 10.1353 50.4368 12.2472 51.9056Z" fill="#F3F4F5"/>
<path d="M3.15904 41.5352C4.11535 43.3906 5.26455 45.1299 6.58847 46.7206H37.8213C38.3371 45.1105 38.774 43.3704 39.129 41.5352H3.15904Z" fill="#E73625"/>
<path d="M27.294 56.9731C27.3516 56.9749 27.4091 56.9775 27.4668 56.9793C27.8097 56.9915 28.1535 56.9995 28.4995 56.9995C31.398 56.9995 33.7614 55.0614 35.5924 51.9073H12.2491C16.5507 54.8991 21.714 56.7405 27.294 56.9731Z" fill="#E73625"/>
<path d="M27.9104 0.0144348C13.3057 0.311542 1.40214 11.588 0.121048 25.9319H27.9109V0.0144348H27.9104Z" fill="#283991"/>
<path d="M5.70244 16.1471L6.13661 17.484H7.54333L6.40532 18.3107L6.83997 19.6486L5.70244 18.8214L4.56528 19.6486L4.99908 18.3107L3.86143 17.484H5.26815L5.70244 16.1471Z" fill="#EFEFEF"/>
<path d="M5.70244 20.8704L6.13661 22.2081H7.54333L6.40532 23.0348L6.83997 24.3727L5.70244 23.5455L4.56528 24.3727L4.99908 23.0348L3.86143 22.2081H5.26815L5.70244 20.8704Z" fill="#EFEFEF"/>
<path d="M10.4266 9.06042L10.8608 10.3978H12.2671L11.1294 11.225L11.5637 12.5619L10.4266 11.7357L9.28891 12.5619L9.7232 11.225L8.58507 10.3978H9.99179L10.4266 9.06042Z" fill="#EFEFEF"/>
<path d="M10.4266 13.7845L10.8608 15.122H12.2671L11.1294 15.9482L11.5637 17.2861L10.4266 16.4598L9.28891 17.2861L9.7232 15.9482L8.58507 15.122H9.99179L10.4266 13.7845Z" fill="#EFEFEF"/>
<path d="M10.4266 18.5087L10.8608 19.8465H12.2671L11.1294 20.6723L11.5637 22.0102L10.4266 21.1831L9.28891 22.0102L9.7232 20.6723L8.58507 19.8465H9.99179L10.4266 18.5087Z" fill="#EFEFEF"/>
<path d="M2.11586 22.0102L1.68121 20.6723L2.81885 19.8461H1.41298L1.38145 19.7485C1.22706 20.226 1.08759 20.7092 0.958954 21.1979L0.978809 21.1831L2.11586 22.0102Z" fill="#EFEFEF"/>
<path d="M4.56527 14.9245L5.70244 14.0974L6.84009 14.9245L6.40543 13.5866L7.54308 12.7595H6.13637L5.70208 11.4226L5.26779 12.7595H4.74938C4.65311 12.9054 4.55998 13.0521 4.46635 13.2001L4.9992 13.5866L4.56527 14.9245Z" fill="#EFEFEF"/>
<path d="M10.4266 7.01159L11.5637 7.83782L11.1294 6.50089L12.2666 5.67383H11.4543C10.7645 6.18958 10.0989 6.73543 9.45943 7.31135L9.28795 7.83782L10.4266 7.01159Z" fill="#EFEFEF"/>
<path d="M14.013 5.47624L15.1507 4.64918L16.2878 5.47624L15.8536 4.13835L16.9907 3.31213H15.5845L15.5255 3.13211C15.049 3.37555 14.5774 3.62885 14.1165 3.8984L14.4468 4.13823L14.013 5.47624Z" fill="#EFEFEF"/>
<path d="M15.1507 6.69885L15.585 8.03541H16.9912L15.8536 8.86248L16.2878 10.2004L15.1507 9.37318L14.013 10.2004L14.4473 8.86248L13.3093 8.03541H14.7159L15.1507 6.69885Z" fill="#EFEFEF"/>
<path d="M15.1507 11.423L15.585 12.7595H16.9912L15.8536 13.5866L16.2878 14.9245L15.1507 14.0973L14.013 14.9245L14.4473 13.5866L13.3093 12.7595H14.7159L15.1507 11.423Z" fill="#EFEFEF"/>
<path d="M15.1507 16.1471L15.585 17.484H16.9912L15.8536 18.3107L16.2878 19.6486L15.1507 18.8214L14.013 19.6486L14.4473 18.3107L13.3093 17.484H14.7159L15.1507 16.1471Z" fill="#EFEFEF"/>
<path d="M15.1507 20.8704L15.585 22.2081H16.9912L15.8536 23.0348L16.2878 24.3727L15.1507 23.5455L14.013 24.3727L14.4473 23.0348L13.3093 22.2081H14.7159L15.1507 20.8704Z" fill="#EFEFEF"/>
<path d="M19.8748 4.3363L20.3091 5.67371H21.7153L20.5782 6.50089L21.012 7.83782L19.8748 7.0116L18.7368 7.83782L19.1714 6.50089L18.0334 5.67371H19.44L19.8748 4.3363Z" fill="#EFEFEF"/>
<path d="M19.8748 9.06042L20.3091 10.3978H21.7153L20.5782 11.225L21.012 12.5619L19.8748 11.7357L18.7368 12.5619L19.1714 11.225L18.0334 10.3978H19.44L19.8748 9.06042Z" fill="#EFEFEF"/>
<path d="M19.8748 13.7845L20.3091 15.122H21.7153L20.5782 15.9482L21.012 17.2861L19.8748 16.4598L18.7368 17.2861L19.1714 15.9482L18.0334 15.122H19.44L19.8748 13.7845Z" fill="#EFEFEF"/>
<path d="M19.8748 18.5087L20.3091 19.8465H21.7153L20.5782 20.6723L21.012 22.0102L19.8748 21.1831L18.7368 22.0102L19.1714 20.6723L18.0334 19.8465H19.44L19.8748 18.5087Z" fill="#EFEFEF"/>
<path d="M24.5989 1.97473L25.0332 3.31214H26.4394L25.3018 4.13836L25.7361 5.47624L24.5989 4.64906L23.4609 5.47624L23.8955 4.13836L22.7575 3.31214H24.1638L24.5989 1.97473Z" fill="#EFEFEF"/>
<path d="M24.5989 6.69885L25.0332 8.03541H26.4394L25.3018 8.86248L25.7361 10.2004L24.5989 9.37318L23.4609 10.2004L23.8955 8.86248L22.7575 8.03541H24.1638L24.5989 6.69885Z" fill="#EFEFEF"/>
<path d="M24.5989 11.423L25.0332 12.7595H26.4394L25.3018 13.5866L25.7361 14.9245L24.5989 14.0973L23.4609 14.9245L23.8955 13.5866L22.7575 12.7595H24.1638L24.5989 11.423Z" fill="#EFEFEF"/>
<path d="M24.5989 16.1471L25.0332 17.484H26.4394L25.3018 18.3107L25.7361 19.6486L24.5989 18.8214L23.4609 19.6486L23.8955 18.3107L22.7575 17.484H24.1638L24.5989 16.1471Z" fill="#EFEFEF"/>
<path d="M24.5989 20.8704L25.0332 22.2081H26.4394L25.3018 23.0348L25.7361 24.3727L24.5989 23.5455L23.4609 24.3727L23.8955 23.0348L22.7575 22.2081H24.1638L24.5989 20.8704Z" fill="#EFEFEF"/>
</svg>
