<svg width="57" height="57" viewBox="0 0 57 57" fill="none" xmlns="http://www.w3.org/2000/svg">
<path d="M28.4985 56.9996C44.2378 56.9996 56.997 44.2404 56.997 28.5012C56.997 12.7619 44.2378 0.00267029 28.4985 0.00267029C12.7592 0.00267029 0 12.7619 0 28.5012C0 44.2404 12.7592 56.9996 28.4985 56.9996Z" fill="white"/>
<path d="M37.8077 18.9972H55.367C55.3643 18.9882 55.3616 18.9806 55.358 18.9724C51.7108 8.68794 42.3283 1.12127 31.0555 0.116852C35.4183 2.50811 36.6926 10.0843 37.8077 18.9972Z" fill="#DD172C"/>
<path d="M31.0564 56.881C42.3495 55.8747 51.7449 48.282 55.3782 37.9699C55.3877 37.9425 55.3957 37.9154 55.4056 37.8889H37.823C36.7164 46.8501 35.4367 54.4797 31.0564 56.881Z" fill="#DD172C"/>
<path d="M1.63441 18.9726C1.63176 18.9806 1.62899 18.9883 1.62538 18.9973H39.2756C38.1596 10.0843 35.4182 2.50822 31.056 0.116964C30.2122 0.0422369 29.359 1.37154e-09 28.496 1.37154e-09C16.0982 -0.000120332 5.55522 7.91791 1.63441 18.9726Z" fill="#DD172C"/>
<path d="M39.2895 37.8888H1.5876C1.59711 37.9154 1.60601 37.9423 1.61504 37.9698C5.52021 49.0527 16.0784 56.9988 28.496 56.9988C29.3592 56.9988 30.2123 56.9564 31.056 56.8808C35.4367 54.4797 38.1829 46.8501 39.2895 37.8888Z" fill="#DD172C"/>
<mask id="mask0" mask-type="alpha" maskUnits="userSpaceOnUse" x="0" y="0" width="57" height="57">
<path d="M28.4985 56.9996C44.2378 56.9996 56.997 44.2404 56.997 28.5012C56.997 12.7619 44.2378 0.00267029 28.4985 0.00267029C12.7592 0.00267029 0 12.7619 0 28.5012C0 44.2404 12.7592 56.9996 28.4985 56.9996Z" fill="white"/>
</mask>
<g mask="url(#mask0)">
<rect x="-3.00309" y="18" width="64" height="22" fill="#FFD133"/>
</g>
</svg>
