<svg width="78" height="77" viewBox="0 0 78 77" fill="none" xmlns="http://www.w3.org/2000/svg">
<circle cx="48.5" cy="47.5" r="25.5" fill="#EBF8FF"/>
<path d="M1 11C1 8.79086 2.79086 7 5 7H33.5632C35.7461 7 37.526 8.75024 37.5626 10.9329L37.9149 31.9329C37.9524 34.168 36.1508 36 33.9154 36H18.68C17.5754 36 16.68 36.8954 16.68 38V42.5985L10.6169 36.5805C10.2423 36.2087 9.73582 36 9.20797 36H5C2.79086 36 1 34.2091 1 32V11Z" fill="#BD53B5" stroke="#4C251E" stroke-width="2"/>
<path d="M24 41H40V53C40 54.1046 39.1046 55 38 55H26C24.8954 55 24 54.1046 24 53V41Z" fill="#E7D1C4"/>
<path d="M30.8171 18.5968L33 16.7419V27.5484L27.6341 30.2581L20.9146 31H14.5488L7.12195 28.7742L6 27.1774V16L7.82927 18.2258L16.6707 20.4516H23.0366L30.8171 18.5968Z" fill="#FFEC95"/>
<path d="M33 21C33 23.8571 26.0854 26 19.5 26C12.9146 26 6 23.8571 6 21" stroke="#4C251E" stroke-width="2"/>
<path d="M33 27C33 29.2857 26.0854 31 19.5 31C12.9146 31 6 29.2857 6 27" stroke="#4C251E" stroke-width="2"/>
<path d="M33 16C33 16.4775 32.7703 17.0247 32.1612 17.6207C31.5487 18.2198 30.6108 18.8055 29.3707 19.3186C26.8951 20.343 23.4058 21 19.5 21C15.5942 21 12.1049 20.343 9.6293 19.3186C8.3892 18.8055 7.45125 18.2198 6.8388 17.6207C6.22966 17.0247 6 16.4775 6 16C6 15.5225 6.22966 14.9753 6.8388 14.3793C7.45125 13.7802 8.3892 13.1945 9.6293 12.6814C12.1049 11.657 15.5942 11 19.5 11C23.4058 11 26.8951 11.657 29.3707 12.6814C30.6108 13.1945 31.5487 13.7802 32.1612 14.3793C32.7703 14.9753 33 15.5225 33 16Z" fill="#FFCE56" stroke="#4C251E" stroke-width="2"/>
<rect x="32.5" y="16.5" width="1" height="10" fill="#4C241D" stroke="#4C251E"/>
<rect x="5.5" y="16.5" width="1" height="10" fill="#4C241D" stroke="#4C251E"/>
<path d="M46 76H17L18 66L25.5 60.5H34H38.5L45.5 67L46 76Z" fill="#A9BA5A"/>
<path d="M23 36H40V50C40 53.3137 37.3137 56 34 56H29C25.6863 56 23 53.3137 23 50V36Z" stroke="#4C251E" stroke-width="2"/>
<path d="M45 76C45 76.5523 45.4477 77 46 77C46.5523 77 47 76.5523 47 76H45ZM16 76C16 76.5523 16.4477 77 17 77C17.5523 77 18 76.5523 18 76H16ZM27.2432 60.2936L27.1744 59.2959L27.2432 60.2936ZM31.5 60L31.5688 59.0024L31.5 58.9976L31.4312 59.0024L31.5 60ZM35.7568 60.2936L35.8256 59.2959L35.7568 60.2936ZM45 71.2675V76H47V71.2675H45ZM18 76V71.2675H16V76H18ZM27.312 61.2912L31.5688 60.9976L31.4312 59.0024L27.1744 59.2959L27.312 61.2912ZM31.4312 60.9976L35.688 61.2912L35.8256 59.2959L31.5688 59.0024L31.4312 60.9976ZM47 71.2675C47 64.9605 42.1177 59.7299 35.8256 59.2959L35.688 61.2912C40.9314 61.6528 45 66.0117 45 71.2675H47ZM18 71.2675C18 66.0117 22.0686 61.6528 27.312 61.2912L27.1744 59.2959C20.8823 59.7299 16 64.9605 16 71.2675H18Z" fill="#4C251E"/>
<path d="M29 56H34V60.5C34 61.8807 32.8807 63 31.5 63C30.1193 63 29 61.8807 29 60.5V56Z" fill="#E7D1C4" stroke="#4C251E" stroke-width="2"/>
<rect x="65.1211" y="47.4645" width="2" height="8" rx="1" transform="rotate(45 65.1211 47.4645)" fill="#4C251E"/>
<path d="M21 35H40V41H25C22.7909 41 21 39.2091 21 37V35Z" fill="#6B4F5B"/>
<path d="M34 42C34.5523 42 35 41.5523 35 41C35 40.4477 34.5523 40 34 40V42ZM34 40H27.3636V42H34V40ZM21.6364 35H38V33H21.6364V35ZM22 34.6364C22 34.8372 21.8372 35 21.6364 35V33C20.7326 33 20 33.7326 20 34.6364H22ZM27.3636 40C24.4014 40 22 37.5986 22 34.6364H20C20 38.7032 23.2968 42 27.3636 42V40Z" fill="#4C251E"/>
<rect x="66.5352" y="53.1213" width="2" height="8" rx="1" transform="rotate(135 66.5352 53.1213)" fill="#4C251E"/>
<rect x="23" y="69" width="2" height="8" rx="1" fill="#4C251E"/>
<rect x="38" y="69" width="2" height="8" rx="1" fill="#4C251E"/>
<path d="M47.5 44V43H46.5H45C41.134 43 38 39.866 38 36V8C38 4.13401 41.134 1 45 1H70C73.866 1 77 4.13401 77 8V36C77 39.866 73.866 43 70 43H52.4399C51.8793 43 51.3444 43.2353 50.9656 43.6486L47.5 47.4292L47.5 44Z" fill="#FFCE56" stroke="#4C251E" stroke-width="2"/>
<path d="M40.1974 20.3251L56.8263 5.59666C57.2093 5.25745 57.7866 5.26201 58.1642 5.60722L74.8099 20.8262C74.8773 20.8878 74.8337 21 74.7424 21H70C69.7239 21 69.5 21.2239 69.5 21.5V37.5C69.5 37.7761 69.2761 38 69 38H45.5C45.2239 38 45 37.7761 45 37.5V21C45 20.7239 44.7761 20.5 44.5 20.5H40.2637C40.1717 20.5 40.1285 20.3862 40.1974 20.3251Z" fill="#F53E28" stroke="#4C251E" stroke-width="2"/>
<mask id="path-22-inside-1" fill="white">
<rect x="53" y="26" width="9" height="13" rx="1"/>
</mask>
<rect x="53" y="26" width="9" height="13" rx="1" fill="#BF7E68" stroke="#4C251E" stroke-width="4" mask="url(#path-22-inside-1)"/>
<circle cx="57.5" cy="17.5" r="2.5" fill="#03E7E3" stroke="#4C251E" stroke-width="2"/>
</svg>
