<svg width="84" height="80" viewBox="0 0 84 80" fill="none" xmlns="http://www.w3.org/2000/svg">
<circle cx="36.5" cy="29.5" r="25.5" fill="#EBF8FF"/>
<path d="M40.5 24V23C40.5 17.4772 44.9772 13 50.5 13H51" stroke="#4C251E" stroke-width="2" stroke-linecap="round"/>
<path d="M45 24C45 20.134 48.134 17 52 17" stroke="#4C251E" stroke-width="2" stroke-linecap="round"/>
<rect x="2" y="29" width="70" height="31" fill="#A9BA5A"/>
<path d="M22 32H12.4375C11.9197 32 11.5 32.4197 11.5 32.9375V33.8125C11.5 36.9536 8.95362 39.5 5.8125 39.5V39.5C5.36377 39.5 5 39.8613 5 40.3101C5 42.0327 5 46.1361 5 49" stroke="#4C251E" stroke-width="2" stroke-linecap="round"/>
<path d="M80.1871 59.0625L83.4496 57.25V74.65L76.9246 78.275L70.0371 79H63.5121L55.8996 76.825L53.7246 74.2875V56.525L56.6246 58.7L65.6871 60.875H72.2121L80.1871 59.0625Z" fill="#FFEC95"/>
<path d="M83 74C83 76.8571 75.5732 79 68.5 79C61.4268 79 54 76.8571 54 74" stroke="#4C251E" stroke-width="2"/>
<path d="M83 68C83 70.8571 75.5732 73 68.5 73C61.4268 73 54 70.8571 54 68" stroke="#4C251E" stroke-width="2"/>
<path d="M83 62C83 64.8571 75.5732 67 68.5 67C61.4268 67 54 64.8571 54 62" stroke="#4C251E" stroke-width="2"/>
<path d="M83 56C83 56.4523 82.7671 56.9934 82.1068 57.5978C81.4459 58.2027 80.434 58.7934 79.0992 59.3101C76.436 60.341 72.6889 61 68.5 61C64.3111 61 60.564 60.341 57.9008 59.3101C56.566 58.7934 55.5541 58.2027 54.8932 57.5978C54.2329 56.9934 54 56.4523 54 56C54 55.5477 54.2329 55.0066 54.8932 54.4022C55.5541 53.7973 56.566 53.2066 57.9008 52.6899C60.564 51.659 64.3111 51 68.5 51C72.6889 51 76.436 51.659 79.0992 52.6899C80.434 53.2066 81.4459 53.7973 82.1068 54.4022C82.7671 55.0066 83 55.5477 83 56Z" fill="#FFCE56" stroke="#4C251E" stroke-width="2"/>
<rect x="82.5" y="56.5" width="1" height="17" fill="#4C241D" stroke="#4C251E"/>
<rect x="53.5" y="56.5" width="1" height="17" fill="#4C241D" stroke="#4C251E"/>
<path d="M55 39H80V43C80 44.6569 78.6569 46 77 46H58C56.3431 46 55 44.6569 55 43V39Z" fill="#FBFBFB"/>
<rect x="56" y="1" width="23" height="44" rx="2" stroke="#4C251E" stroke-width="2"/>
<rect x="56" y="37" width="24" height="2" fill="#4C251E"/>
<circle cx="67.5" cy="41.5" r="1.5" fill="#4C251E"/>
<rect x="57" y="2" width="21" height="35" fill="#01CAC8"/>
<path d="M55 28H4C2.34315 28 1 29.3431 1 31V57C1 58.6569 2.34315 60 4 60H47.9346" stroke="#4C251E" stroke-width="2" stroke-linecap="round"/>
<rect x="5" y="32" width="3" height="3" rx="1.5" fill="#4C241D"/>
<circle cx="36.5" cy="44.5" r="11.5" fill="#FFEC95"/>
<path d="M42.584 48.224C42.584 49.504 42.136 50.584 41.24 51.464C40.36 52.344 39.168 52.896 37.664 53.12V54.632C37.664 55 37.552 55.296 37.328 55.52C37.104 55.76 36.808 55.88 36.44 55.88C36.072 55.88 35.776 55.76 35.552 55.52C35.328 55.296 35.216 55 35.216 54.632V53.168C34.304 53.088 33.416 52.896 32.552 52.592C31.688 52.288 30.944 51.888 30.32 51.392C30.112 51.248 29.968 51.088 29.888 50.912C29.808 50.736 29.768 50.52 29.768 50.264C29.768 49.928 29.864 49.632 30.056 49.376C30.264 49.12 30.496 48.992 30.752 48.992C30.912 48.992 31.056 49.024 31.184 49.088C31.328 49.136 31.512 49.224 31.736 49.352C32.472 49.832 33.192 50.184 33.896 50.408C34.616 50.632 35.368 50.744 36.152 50.744C37.224 50.744 38.048 50.536 38.624 50.12C39.216 49.704 39.512 49.104 39.512 48.32C39.512 47.856 39.352 47.48 39.032 47.192C38.712 46.904 38.312 46.68 37.832 46.52C37.352 46.344 36.68 46.144 35.816 45.92C34.616 45.616 33.64 45.312 32.888 45.008C32.136 44.688 31.488 44.208 30.944 43.568C30.4 42.928 30.128 42.064 30.128 40.976C30.128 39.68 30.592 38.576 31.52 37.664C32.448 36.752 33.664 36.184 35.168 35.96V34.448C35.168 34.08 35.28 33.784 35.504 33.56C35.728 33.32 36.024 33.2 36.392 33.2C36.76 33.2 37.056 33.32 37.28 33.56C37.504 33.784 37.616 34.08 37.616 34.448V35.936C39.232 36.144 40.624 36.728 41.792 37.688C42.176 37.976 42.368 38.352 42.368 38.816C42.368 39.152 42.264 39.448 42.056 39.704C41.864 39.96 41.632 40.088 41.36 40.088C41.216 40.088 41.072 40.064 40.928 40.016C40.8 39.968 40.624 39.872 40.4 39.728C39.744 39.264 39.12 38.92 38.528 38.696C37.952 38.456 37.264 38.336 36.464 38.336C35.472 38.336 34.68 38.56 34.088 39.008C33.496 39.44 33.2 40.04 33.2 40.808C33.2 41.336 33.368 41.768 33.704 42.104C34.04 42.424 34.464 42.672 34.976 42.848C35.488 43.024 36.184 43.224 37.064 43.448C38.232 43.736 39.184 44.032 39.92 44.336C40.656 44.64 41.28 45.104 41.792 45.728C42.32 46.336 42.584 47.168 42.584 48.224Z" fill="#4C251E"/>
<rect x="72" y="45" width="2" height="6" fill="#4C251E"/>
<circle cx="42" cy="68" r="1" fill="#4C251E"/>
<circle cx="17.5" cy="13.5" r="2.5" fill="#4C251E"/>
<circle cx="30" cy="5" r="1" fill="#4C251E"/>
</svg>
