<svg width="67" height="76" viewBox="0 0 67 76" fill="none" xmlns="http://www.w3.org/2000/svg">
<circle cx="31.6904" cy="31.5" r="24" fill="#EBF8FF"/>
<path d="M18.1904 63L16.6904 59.5L13.1904 59L12.1904 62.5L7.69043 63L3.19043 65.5V72.5L15.6904 74.5L27.1904 72.5V67L24.1904 63H18.1904Z" fill="#02EAE6"/>
<path d="M9.69043 48.5C9.69043 45.7386 11.929 43.5 14.6904 43.5H15.6904C18.4519 43.5 20.6904 45.7386 20.6904 48.5V54C20.6904 57.0376 18.228 59.5 15.1904 59.5C12.1529 59.5 9.69043 57.0376 9.69043 54V48.5Z" fill="#FFE8DC" stroke="#4C251E" stroke-width="2"/>
<path d="M17.6904 59V61C17.6904 62.1046 18.5859 63 19.6904 63H22.6904C25.4519 63 27.6904 65.2386 27.6904 68V71.0991C27.6904 71.9402 27.1657 72.6873 26.3573 72.9194C24.3151 73.5059 20.1255 74.5 15.1904 74.5C10.2553 74.5 6.06577 73.5059 4.02351 72.9194C3.21517 72.6873 2.69043 71.9402 2.69043 71.0991V68C2.69043 65.2386 4.92901 63 7.69043 63H10.6904C11.795 63 12.6904 62.1046 12.6904 61V59" stroke="#4C251E" stroke-width="2"/>
<path d="M50.1904 63L48.6904 59.5L45.1904 59L44.1904 62.5L39.6904 63L35.1904 65.5V72.5L47.6904 74.5L59.1904 72.5V67L56.1904 63H50.1904Z" fill="#6A4F5A"/>
<path fill-rule="evenodd" clip-rule="evenodd" d="M7.48141 15.0191C1.82242 22.9347 -0.240417 33.677 5.09557 45.076C5.32971 45.5762 5.11404 46.1715 4.61384 46.4057C4.11365 46.6398 3.51835 46.4242 3.2842 45.924C-2.38039 33.823 -0.193356 22.3153 5.85443 13.8559C11.8758 5.43349 21.7478 0 31.5167 0C41.2885 0 51.7521 5.68689 57.9236 14.6191C63.5229 22.7231 65.5954 33.506 60.4952 45.1459L65.0896 41.7C65.5314 41.3686 66.1582 41.4582 66.4896 41.9C66.821 42.3418 66.7315 42.9686 66.2896 43.3L58.2899 49.3C57.6489 49.7807 56.7312 49.3502 56.6911 48.55L56.1909 38.55C56.1633 37.9984 56.5881 37.5288 57.1397 37.5012C57.6913 37.4737 58.1608 37.8984 58.1884 38.45L58.5014 44.7074C63.5196 33.5805 61.554 23.3917 56.2782 15.7559C50.4448 7.31311 40.5718 2 31.5167 2C22.4585 2 13.1668 7.06651 7.48141 15.0191Z" fill="#4C251E"/>
<path d="M41.6904 48.5C41.6904 45.7386 43.929 43.5 46.6904 43.5H47.6904C50.4519 43.5 52.6904 45.7386 52.6904 48.5V54C52.6904 57.0376 50.228 59.5 47.1904 59.5C44.1529 59.5 41.6904 57.0376 41.6904 54V48.5Z" fill="#FFE8DC" stroke="#4C251E" stroke-width="2"/>
<path d="M49.6904 59V61C49.6904 62.1046 50.5859 63 51.6904 63H54.6904C57.4519 63 59.6904 65.2386 59.6904 68V71.0991C59.6904 71.9402 59.1657 72.6873 58.3573 72.9194C56.3151 73.5059 52.1255 74.5 47.1904 74.5C42.2553 74.5 38.0658 73.5059 36.0235 72.9194C35.2152 72.6873 34.6904 71.9402 34.6904 71.0991V68C34.6904 65.2386 36.929 63 39.6904 63H42.6904C43.795 63 44.6904 62.1046 44.6904 61V59" stroke="#4C251E" stroke-width="2"/>
<rect x="22.6904" y="7.5" width="2" height="6" rx="1" fill="#4C251E"/>
<rect x="11.6904" y="19.5" width="2" height="6" rx="1" transform="rotate(-90 11.6904 19.5)" fill="#4C251E"/>
<rect x="15.6904" y="12.9142" width="2" height="6" rx="1" transform="rotate(-45 15.6904 12.9142)" fill="#4C251E"/>
<circle cx="32.1904" cy="28" r="13.5" fill="#FFD463" stroke="#4C251E" stroke-width="2"/>
<circle cx="32.1904" cy="28" r="9.5" stroke="#E66353" stroke-width="2"/>
</svg>
