<svg width="65" height="64" viewBox="0 0 65 64" fill="none" xmlns="http://www.w3.org/2000/svg">
<rect x="0.5" width="64" height="64" rx="15" fill="url(#paint0_radial)"/>
<g filter="url(#filter0_d)">
<path d="M29.6437 40.7821V37.7152C29.6437 36.9381 30.2757 36.3067 31.0584 36.3018H33.9326C34.7189 36.3018 35.3563 36.9346 35.3563 37.7152V40.7732C35.3562 41.4473 35.904 41.9951 36.5829 42H38.5438C39.4596 42.0023 40.3388 41.6428 40.9872 41.0007C41.6356 40.3586 42 39.4868 42 38.5775V29.8658C42 29.1314 41.6721 28.4347 41.1046 27.9635L34.443 22.6743C33.2785 21.7491 31.6154 21.779 30.4854 22.7454L23.967 27.9635C23.3727 28.4208 23.0176 29.1196 23 29.8658V38.5686C23 40.4637 24.5474 42 26.4562 42H28.3723C28.6992 42.0023 29.0135 41.8751 29.2455 41.6464C29.4775 41.4178 29.6079 41.1067 29.6079 40.7821H29.6437Z" fill="#4C93C0"/>
</g>
<defs>
<filter id="filter0_d" x="19" y="22" width="27" height="28" filterUnits="userSpaceOnUse" color-interpolation-filters="sRGB">
<feFlood flood-opacity="0" result="BackgroundImageFix"/>
<feColorMatrix in="SourceAlpha" type="matrix" values="0 0 0 0 0 0 0 0 0 0 0 0 0 0 0 0 0 0 127 0"/>
<feOffset dy="4"/>
<feGaussianBlur stdDeviation="2"/>
<feColorMatrix type="matrix" values="0 0 0 0 0.298039 0 0 0 0 0.576471 0 0 0 0 0.752941 0 0 0 0.15 0"/>
<feBlend mode="normal" in2="BackgroundImageFix" result="effect1_dropShadow"/>
<feBlend mode="normal" in="SourceGraphic" in2="effect1_dropShadow" result="shape"/>
</filter>
<radialGradient id="paint0_radial" cx="0" cy="0" r="1" gradientUnits="userSpaceOnUse" gradientTransform="translate(58.5 4) rotate(131.046) scale(76.9042)">
<stop stop-color="white"/>
<stop offset="1" stop-color="#DAF6FE"/>
</radialGradient>
</defs>
</svg>
