<svg width="62" height="56" viewBox="0 0 62 56" fill="none" xmlns="http://www.w3.org/2000/svg">
<path d="M25 35.8498V44L24 45H8L1.17157 38.1716C0.421427 37.4214 0 36.404 0 35.3431V23.5C0 20.4624 2.46243 18 5.5 18C8.53757 18 11 20.4624 11 23.5V25.5L11.1141 25.4429C12.3013 24.8493 13.6987 24.8493 14.8859 25.4429C14.9617 25.4808 15.0326 25.5277 15.0972 25.5826L23.5906 32.802C24.4847 33.562 25 34.6763 25 35.8498Z" fill="#8ED7FC"/>
<rect x="7" y="44" width="20" height="12" rx="2" fill="#006B9E"/>
<path d="M37 35.8498V44L38 45H54L60.8284 38.1716C61.5786 37.4214 62 36.404 62 35.3431V23.5C62 20.4624 59.5376 18 56.5 18C53.4624 18 51 20.4624 51 23.5V25.5L50.8859 25.4429C49.6987 24.8493 48.3013 24.8493 47.1141 25.4429C47.0383 25.4808 46.9674 25.5277 46.9028 25.5826L38.4094 32.802C37.5153 33.562 37 34.6763 37 35.8498Z" fill="#8ED7FC"/>
<rect width="20" height="12" rx="2" transform="matrix(-1 0 0 1 55 44)" fill="#006B9E"/>
<circle cx="31" cy="15" r="15" fill="#00A6FC"/>
<path d="M36 18.2487C36 19.3774 35.6504 20.3298 34.9513 21.1058C34.2647 21.8818 33.3346 22.3686 32.161 22.5661V23.8995C32.161 24.224 32.0737 24.485 31.8989 24.6825C31.7241 24.8942 31.4931 25 31.206 25C30.9189 25 30.6879 24.8942 30.5131 24.6825C30.3383 24.485 30.2509 24.224 30.2509 23.8995V22.6085C29.5393 22.5379 28.8464 22.3686 28.1723 22.1005C27.4981 21.8325 26.9176 21.4797 26.4307 21.0423C26.2684 20.9153 26.1561 20.7743 26.0936 20.619C26.0312 20.4638 26 20.2734 26 20.0476C26 19.7513 26.0749 19.4903 26.2247 19.2646C26.387 19.0388 26.568 18.9259 26.7678 18.9259C26.8926 18.9259 27.005 18.9541 27.1049 19.0106C27.2172 19.0529 27.3608 19.1305 27.5356 19.2434C28.1099 19.6667 28.6717 19.9771 29.221 20.1746C29.7828 20.3721 30.3695 20.4709 30.9813 20.4709C31.8177 20.4709 32.4607 20.2875 32.9101 19.9206C33.372 19.5538 33.603 19.0247 33.603 18.3333C33.603 17.9242 33.4782 17.5926 33.2285 17.3386C32.9788 17.0847 32.6667 16.8871 32.2921 16.746C31.9176 16.5908 31.3933 16.4145 30.7191 16.2169C29.7828 15.9489 29.0212 15.6808 28.4345 15.4127C27.8477 15.1305 27.3421 14.7072 26.9176 14.1429C26.4931 13.5785 26.2809 12.8166 26.2809 11.8571C26.2809 10.7143 26.6429 9.74074 27.367 8.93651C28.0911 8.13228 29.0399 7.63139 30.2135 7.43386V6.10053C30.2135 5.77601 30.3009 5.51499 30.4757 5.31746C30.6504 5.10582 30.8814 5 31.1685 5C31.4557 5 31.6866 5.10582 31.8614 5.31746C32.0362 5.51499 32.1236 5.77601 32.1236 6.10053V7.4127C33.3845 7.59612 34.4707 8.11111 35.382 8.95767C35.6816 9.21164 35.8315 9.54321 35.8315 9.95238C35.8315 10.2487 35.7503 10.5097 35.588 10.7354C35.4382 10.9612 35.2572 11.0741 35.0449 11.0741C34.9326 11.0741 34.8202 11.0529 34.7079 11.0106C34.608 10.9683 34.4707 10.8836 34.2959 10.7566C33.784 10.3474 33.2971 10.0441 32.8352 9.84656C32.3858 9.63492 31.8489 9.5291 31.2247 9.5291C30.4507 9.5291 29.8327 9.72663 29.3708 10.1217C28.9089 10.5026 28.6779 11.0317 28.6779 11.709C28.6779 12.1746 28.809 12.5556 29.0712 12.8519C29.3333 13.134 29.6642 13.3527 30.0637 13.5079C30.4632 13.6631 31.0062 13.8395 31.6929 14.037C32.6042 14.291 33.3471 14.552 33.9213 14.8201C34.4956 15.0882 34.9825 15.4974 35.382 16.0476C35.794 16.5838 36 17.3175 36 18.2487Z" fill="#8ED7FC"/>
<path d="M10 27.5L9.4792 28.2812C8.58347 29.6248 8.58347 31.3752 9.4792 32.7188L10 33.5" stroke="#00A6FC" stroke-width="4" stroke-linecap="round"/>
<path d="M52 27.5L52.5208 28.2812C53.4165 29.6248 53.4165 31.3752 52.5208 32.7188L52 33.5" stroke="#00A6FC" stroke-width="4" stroke-linecap="round"/>
</svg>
