<svg width="44" height="44" viewBox="0 0 44 44" fill="none" xmlns="http://www.w3.org/2000/svg">
<path d="M33.7333 10.2667L32.45 11.55M5.5 22H7.33333H5.5ZM22 5.5V7.33333V5.5ZM36.6667 22H38.5H36.6667ZM10.2667 10.2667L11.55 11.55L10.2667 10.2667Z" stroke="white" stroke-width="2.75" stroke-linecap="round" stroke-linejoin="round"/>
<path d="M16.5 29.3333C14.9609 28.179 13.824 26.5696 13.2503 24.7332C12.6767 22.8968 12.6953 20.9264 13.3037 19.1013C13.9121 17.2761 15.0794 15.6886 16.6402 14.5636C18.2009 13.4387 20.0761 12.8333 22 12.8333C23.9239 12.8333 25.7991 13.4387 27.3599 14.5636C28.9206 15.6886 30.0879 17.2761 30.6963 19.1013C31.3047 20.9264 31.3234 22.8968 30.7497 24.7332C30.1761 26.5696 29.0391 28.179 27.5 29.3333C26.7842 30.0419 26.2453 30.909 25.9268 31.8645C25.6083 32.82 25.5192 33.837 25.6667 34.8333C25.6667 35.8058 25.2804 36.7384 24.5927 37.4261C23.9051 38.1137 22.9725 38.5 22 38.5C21.0275 38.5 20.0949 38.1137 19.4073 37.4261C18.7197 36.7384 18.3333 35.8058 18.3333 34.8333C18.4808 33.837 18.3917 32.82 18.0732 31.8645C17.7547 30.909 17.2158 30.0419 16.5 29.3333" stroke="white" stroke-width="2.75" stroke-linecap="round" stroke-linejoin="round"/>
<path d="M17.7833 31.1667H26.2167" stroke="white" stroke-width="2.75" stroke-linecap="round" stroke-linejoin="round"/>
</svg>
