<svg width="24" height="24" viewBox="0 0 24 24" fill="none" xmlns="http://www.w3.org/2000/svg">
<path d="M16 3H8C6.67392 3 5.40215 3.52678 4.46447 4.46447C3.52678 5.40215 3 6.67392 3 8V16C3 17.3261 3.52678 18.5979 4.46447 19.5355C5.40215 20.4732 6.67392 21 8 21H16C17.3261 21 18.5979 20.4732 19.5355 19.5355C20.4732 18.5979 21 17.3261 21 16V8C21 6.67392 20.4732 5.40215 19.5355 4.46447C18.5979 3.52678 17.3261 3 16 3ZM19.25 16C19.2474 16.8611 18.9041 17.6863 18.2952 18.2952C17.6863 18.9041 16.8611 19.2474 16 19.25H8C7.13886 19.2474 6.31374 18.9041 5.70482 18.2952C5.09589 17.6863 4.75264 16.8611 4.75 16V8C4.75264 7.13886 5.09589 6.31374 5.70482 5.70482C6.31374 5.09589 7.13886 4.75264 8 4.75H16C16.8611 4.75264 17.6863 5.09589 18.2952 5.70482C18.9041 6.31374 19.2474 7.13886 19.25 8V16ZM17.75 7.25C17.75 7.44778 17.6914 7.64112 17.5815 7.80557C17.4716 7.97002 17.3154 8.09819 17.1327 8.17388C16.95 8.24957 16.7489 8.26937 16.5549 8.23079C16.3609 8.1922 16.1827 8.09696 16.0429 7.95711C15.903 7.81725 15.8078 7.63907 15.7692 7.44509C15.7306 7.25111 15.7504 7.05004 15.8261 6.86732C15.9018 6.68459 16.03 6.52841 16.1944 6.41853C16.3589 6.30865 16.5522 6.25 16.75 6.25C17.0152 6.25 17.2696 6.35536 17.4571 6.54289C17.6446 6.73043 17.75 6.98478 17.75 7.25ZM12 7.5C11.11 7.5 10.24 7.76392 9.49993 8.25839C8.75991 8.75285 8.18314 9.45566 7.84254 10.2779C7.50195 11.1002 7.41283 12.005 7.58647 12.8779C7.7601 13.7508 8.18868 14.5526 8.81802 15.182C9.44736 15.8113 10.2492 16.2399 11.1221 16.4135C11.995 16.5872 12.8998 16.4981 13.7221 16.1575C14.5443 15.8169 15.2471 15.2401 15.7416 14.5001C16.2361 13.76 16.5 12.89 16.5 12C16.5013 11.4087 16.3858 10.8229 16.1601 10.2764C15.9345 9.72981 15.603 9.23321 15.1849 8.81508C14.7668 8.39695 14.2702 8.06554 13.7236 7.83986C13.1771 7.61418 12.5913 7.49868 12 7.5ZM12 14.75C11.4561 14.75 10.9244 14.5887 10.4722 14.2865C10.0199 13.9844 9.66747 13.5549 9.45933 13.0524C9.25119 12.5499 9.19673 11.997 9.30284 11.4635C9.40895 10.9301 9.67086 10.4401 10.0555 10.0555C10.4401 9.67086 10.9301 9.40895 11.4635 9.30284C11.997 9.19673 12.5499 9.25119 13.0524 9.45933C13.5549 9.66747 13.9844 10.0199 14.2865 10.4722C14.5887 10.9244 14.75 11.4561 14.75 12C14.75 12.7293 14.4603 13.4288 13.9445 13.9445C13.4288 14.4603 12.7293 14.75 12 14.75Z" fill="#4C93C0"/>
</svg>
