<svg width="471" height="277" viewBox="0 0 471 277" fill="none" xmlns="http://www.w3.org/2000/svg">
<g clip-path="url(#clip0)">
<path d="M80.1934 56.7404C80.1934 -17.8917 73.2496 -85.4469 62.0285 -134.334C56.4173 -158.781 49.7409 -178.539 42.3399 -192.177C38.6393 -198.997 34.7667 -204.269 30.7699 -207.832C26.7754 -211.393 22.6755 -213.232 18.5062 -213.232C14.3368 -213.232 10.2369 -211.393 6.24238 -207.832C2.24564 -204.269 -1.627 -198.997 -5.3276 -192.177C-12.7286 -178.539 -19.405 -158.781 -25.0162 -134.334C-36.2373 -85.4469 -43.181 -17.8917 -43.181 56.7404C-43.181 131.372 -36.2373 198.928 -25.0162 247.815C-19.405 272.262 -12.7286 292.02 -5.3276 305.658C-1.627 312.477 2.24564 317.749 6.24238 321.312C10.2369 324.874 14.3368 326.713 18.5062 326.713C22.6755 326.713 26.7754 324.874 30.7699 321.312C34.7667 317.749 38.6393 312.477 42.3399 305.658C49.7409 292.02 56.4173 272.262 62.0285 247.815C73.2496 198.928 80.1934 131.372 80.1934 56.7404Z" stroke="url(#paint0_radial)" stroke-width="0.725732"/>
<path d="M192.934 46.4787C260.589 -21.1761 316.922 -87.3298 353.309 -139.59C371.505 -165.723 384.702 -188.367 391.838 -205.979C395.406 -214.787 397.45 -222.315 397.854 -228.381C398.259 -234.449 397.02 -238.997 394.095 -241.921C391.171 -244.846 386.623 -246.084 380.555 -245.68C374.489 -245.276 366.961 -243.232 358.153 -239.664C340.541 -232.528 317.897 -219.331 291.765 -201.135C239.504 -164.748 173.35 -108.415 105.695 -40.7602C38.0408 26.8945 -18.2922 93.0482 -54.6796 145.309C-72.875 171.442 -86.0726 194.086 -93.208 211.698C-96.7763 220.505 -98.82 228.034 -99.2242 234.099C-99.6287 240.168 -98.3901 244.715 -95.4654 247.64C-92.5408 250.564 -87.9936 251.803 -81.9253 251.398C-75.8596 250.994 -68.3311 248.95 -59.5235 245.382C-41.9114 238.247 -19.2674 225.049 6.86533 206.854C59.1259 170.466 125.28 114.133 192.934 46.4787Z" stroke="url(#paint1_linear)" stroke-width="0.725732"/>
<path d="M381.156 31.6312C356.393 -60.7869 327.269 -142.65 300.203 -200.292C286.669 -229.116 273.658 -251.868 261.973 -266.853C256.13 -274.347 250.632 -279.881 245.581 -283.264C240.528 -286.649 235.97 -287.85 231.975 -286.779C227.98 -285.709 224.634 -282.39 221.95 -276.932C219.267 -271.477 217.273 -263.936 215.959 -254.524C213.333 -235.704 213.44 -209.495 216.131 -177.765C221.513 -114.313 237.222 -28.8552 261.986 63.5628C286.749 155.981 315.873 237.844 342.939 295.486C356.473 324.31 369.484 347.062 381.169 362.047C387.012 369.541 392.51 375.075 397.561 378.458C402.614 381.843 407.172 383.044 411.167 381.973C415.162 380.903 418.508 377.584 421.192 372.127C423.875 366.671 425.869 359.13 427.183 349.718C429.809 330.898 429.702 304.689 427.011 272.959C421.628 209.507 405.92 124.049 381.156 31.6312Z" stroke="url(#paint2_radial)" stroke-width="0.725732"/>
<circle cx="11" cy="204" r="2" fill="#FFE58B"/>
<circle cx="61" cy="5" r="2" fill="#FFF5D3"/>
<circle cx="190" cy="49" r="3" fill="#FFF5D3"/>
</g>
<defs>
<radialGradient id="paint0_radial" cx="0" cy="0" r="1" gradientUnits="userSpaceOnUse" gradientTransform="translate(18.5062 56.7403) rotate(-16.4865) scale(337.364 77.4352)">
<stop stop-color="#FFE485"/>
<stop offset="1" stop-color="#FFE485" stop-opacity="0"/>
</radialGradient>
<linearGradient id="paint1_linear" x1="47.5" y1="165.5" x2="149" y2="-49.5" gradientUnits="userSpaceOnUse">
<stop stop-color="#FFE485"/>
<stop offset="1" stop-color="#FFE485" stop-opacity="0"/>
</linearGradient>
<radialGradient id="paint2_radial" cx="0" cy="0" r="1" gradientUnits="userSpaceOnUse" gradientTransform="translate(302.5 140.5) rotate(-44.4974) scale(403.066 72.1726)">
<stop stop-color="#FFE485"/>
<stop offset="1" stop-color="#FFE485" stop-opacity="0"/>
</radialGradient>
<clipPath id="clip0">
<rect width="471" height="276.504" fill="white" transform="matrix(1 0 0 -1 0 277)"/>
</clipPath>
</defs>
</svg>
