<svg width="54" height="53" viewBox="0 0 54 53" fill="none" xmlns="http://www.w3.org/2000/svg">
<path d="M10.7861 19.2459C11.971 20.8448 12.7411 22.6805 13.0966 24.6939C13.452 24.99 13.9259 25.2269 14.3407 25.4638C14.5776 22.2068 16.1179 19.3643 18.3691 17.2917C18.4876 16.8179 18.6653 16.2258 18.7246 15.5744C18.6061 15.6336 18.5469 15.6928 18.4283 15.8112C16.9473 16.4034 15.3477 16.7587 13.689 16.8179C12.0302 16.8179 10.4307 16.5218 8.94958 15.9297C7.4093 15.3375 6.22447 14.4492 5.5728 13.8571C5.5728 13.8571 5.5728 13.8571 5.5728 13.7978C5.21735 13.5017 4.92113 13.2056 4.62491 12.8503C4.26946 13.4425 3.91401 14.0347 3.6178 14.6269C4.26946 14.8046 4.98036 14.9822 5.5728 15.2191C6.46141 15.5744 7.58705 16.1073 8.71264 16.9956C9.66049 17.8246 10.3714 18.5945 10.7861 19.2459ZM13.7482 17.9431C14.6961 17.9431 15.644 17.8246 16.5918 17.647C15.3477 19.0682 14.3407 20.7856 13.8075 22.6805C13.215 20.7856 12.2672 19.1274 10.9638 17.7062C11.7932 17.8246 12.7411 17.9431 13.7482 17.9431Z" fill="#4C93C0"/>
<path d="M45.4427 38.6693C45.0873 42.4 43.1321 45.657 40.1701 47.6706C40.4663 43.9395 42.4213 40.6827 45.265 38.6101C44.495 38.314 43.843 38.1363 43.2506 38.0179C42.0659 38.4324 40.8217 38.6101 39.5184 38.6101C37.6819 38.6101 35.9639 38.2548 34.3644 37.5442C34.3051 38.1363 34.3644 38.6693 34.4236 39.2022C36.9118 41.2157 38.5706 44.1767 38.926 47.4926C36.2009 45.5978 34.3051 42.6368 33.7719 39.2022C33.6534 38.4324 33.5942 37.6034 33.6534 36.5967C33.7127 35.4123 33.9497 34.4056 34.2458 33.6358C35.0753 31.0894 36.6748 28.9575 38.7483 27.4179C38.1559 27.181 37.6227 27.0034 37.1487 26.8257C35.8454 27.2995 34.4828 27.5363 33.061 27.5363C31.1653 27.5363 29.3288 27.1218 27.7292 26.352C29.3288 25.5821 31.106 25.1084 33.061 25.1084C34.1274 25.1084 35.1345 25.2268 36.0824 25.4637C36.8525 25.6414 37.8596 25.9375 38.926 26.5296C39.8146 27.0034 40.4663 27.5363 41.0587 28.0101C43.1914 29.7866 44.7319 32.333 45.265 35.1754C45.5612 35.4715 45.9166 35.8268 46.3312 36.1229C46.8644 36.5375 47.3975 36.8335 47.8718 37.0704C48.7011 36.7151 49.6488 36.4782 50.5966 36.3598C50.7743 35.9453 50.8928 35.59 51.0705 35.1754C50.4189 35.2346 49.8265 35.3531 49.175 35.4715C50.6558 33.9318 51.7225 32.0369 52.3148 29.9643C52.4925 28.7207 52.611 27.4179 52.5518 26.1151C52.5518 24.8123 52.4333 23.5095 52.2556 22.2659C51.604 20.1341 50.4781 18.2391 48.938 16.6995C49.5896 16.8771 50.2412 16.9363 50.8928 16.9955C50.7151 16.581 50.5966 16.2257 50.4189 15.8112C49.5896 15.6928 48.8195 15.5151 48.0495 15.219C47.6344 15.3967 47.279 15.5743 46.8644 15.8112C46.7459 15.8704 46.6274 15.9889 46.509 16.0481C49.4119 18.0614 51.3667 21.3185 51.7225 25.0492C48.8195 23.0358 46.8644 19.7788 46.509 16.1073C45.9758 16.4626 45.502 16.8771 45.1465 17.2324C44.6134 20.4894 42.7175 23.3318 40.1108 25.1676C40.5255 25.4637 40.9995 25.6414 41.4142 25.819C42.8359 25.2268 44.3168 24.9307 45.9166 24.9307C47.8121 24.9307 49.6488 25.3453 51.2482 26.1151C49.6488 26.8849 47.8714 27.3587 45.9166 27.3587C44.0207 27.3587 42.2436 26.9442 40.644 26.2335C40.644 26.2335 40.644 26.2335 40.5848 26.2335C39.8739 25.9375 39.1037 25.5229 38.2743 24.9307C37.8004 24.5754 37.3265 24.1609 36.971 23.7464C35.0753 21.7922 33.7719 19.1866 33.4757 16.3442C33.5942 16.4034 33.7719 16.4626 33.8904 16.5218C36.3193 18.3575 38.0374 21.0816 38.5706 24.1609C38.8075 24.3978 39.1037 24.6346 39.3999 24.8123C39.5777 24.9307 39.7554 25.0492 39.9331 25.1676C40.2886 21.8514 42.0659 18.7128 44.6727 16.6402C44.6727 16.6402 44.7319 16.6402 44.7319 16.581C45.0281 16.3442 45.3835 16.0481 45.7981 15.8112C46.3905 15.4559 46.9828 15.1598 47.516 14.9229L47.5752 14.8637C48.2272 14.5676 48.8788 14.39 49.5896 14.2123C49.2934 13.6201 48.938 13.0279 48.5826 12.4358C48.5826 12.495 48.5234 12.5542 48.5234 12.6134C47.8714 13.324 46.8051 14.3307 45.2058 15.1598C44.495 15.5151 43.7837 15.752 43.1914 15.9296C42.0067 16.2849 40.7625 16.5218 39.5184 16.5218C37.8596 16.5218 36.2601 16.2257 34.779 15.6335C34.4236 15.8112 34.0089 16.0481 33.5942 16.3442C33.1202 16.6995 32.7056 17.114 32.3501 17.4693C31.8169 20.7855 29.9212 23.6279 27.3145 25.4637C27.5515 21.6738 29.5065 18.3575 32.4686 16.2849L32.5279 16.2257C33.9497 15.1598 35.3715 14.6861 36.3193 14.39H36.3786C37.3857 14.0939 38.452 13.9754 39.5184 13.9754C41.0587 13.9754 42.5398 14.2715 43.9022 14.7453C44.4357 14.6268 45.0281 14.39 45.6797 14.0939C46.0351 13.9162 46.3905 13.6793 46.7459 13.5017C46.8644 12.495 47.1013 11.5475 47.4567 10.6592C47.2198 10.3039 46.9236 10.0078 46.6867 9.65254C46.4497 10.1855 46.2128 10.7777 46.0351 11.3699C45.3835 9.29723 44.2576 7.46144 42.836 5.92179C40.881 4.44136 38.7483 3.19778 36.4378 2.25029C35.3715 2.01342 34.2458 1.83576 33.1202 1.83576C31.9354 1.83576 30.8098 2.01342 29.6842 2.30951C30.1581 1.83576 30.6321 1.3028 30.9875 0.710623C30.5728 0.651408 30.1582 0.592189 29.7435 0.53297C29.2103 1.18437 28.6179 1.77654 28.0254 2.30951C27.9662 2.84247 27.907 3.49387 27.907 4.14526C29.5065 3.37543 31.2245 2.9609 33.1202 2.9609C35.016 2.9609 36.7933 3.37543 38.452 4.14526C38.1559 4.32293 37.9189 4.55978 37.6227 4.73745C36.2601 5.27039 34.7198 5.6257 33.1202 5.6257C31.5207 5.6257 29.9212 5.3296 28.4994 4.79666C28.3216 4.61899 28.0847 4.50057 27.8477 4.32293C27.8477 4.38214 27.8477 4.38215 27.8477 4.44136C27.907 4.9743 27.9662 5.44807 28.0847 5.92179C30.3951 7.876 31.9947 10.6 32.4093 13.7978C32.9425 13.5017 33.4165 13.2056 33.8312 12.9095C34.3644 10.0671 35.9046 7.57991 38.0374 5.80337C38.2743 5.74416 38.452 5.6257 38.689 5.50728C38.2151 8.94193 36.3786 11.9028 33.7127 13.857C33.2388 14.2123 32.6463 14.5676 31.9946 14.9229C31.8169 15.0414 31.6392 15.1006 31.4615 15.1598C29.9804 15.8112 28.3216 16.1665 26.6036 16.2257C24.8856 16.2257 23.2268 15.8704 21.7457 15.2782C21.805 15.219 21.805 15.219 21.8642 15.1598C23.3453 14.5676 24.9448 14.2123 26.6036 14.1531C27.8477 14.1531 28.9733 14.3307 30.0989 14.6268C30.6321 14.5084 31.2837 14.3307 31.9354 14.0346C30.0989 12.6726 28.7363 10.7777 27.907 8.58662C27.8477 8.46815 27.8477 8.34973 27.7884 8.23131C27.7292 8.05364 27.67 7.93522 27.67 7.75754C27.6107 7.63912 27.6107 7.5207 27.5515 7.40223V7.34302C27.3738 6.75083 27.2553 6.04022 27.1961 5.3296C27.0775 3.55308 27.2553 2.07264 27.5515 1.18437C27.6107 0.947496 27.67 0.710623 27.7292 0.473755C27.3738 0.473755 26.9591 0.473755 26.6036 0.473755C26.6036 0.473755 26.6036 0.473755 26.5444 0.473755V0.53297V0.473755C26.1297 0.473755 25.7742 0.473751 25.3595 0.53297C25.6557 1.42124 25.8335 2.30951 25.9519 3.31621C26.0112 3.78995 26.0112 4.32293 26.0112 4.85587C26.0112 5.03355 26.0112 5.21118 25.9519 5.38885C25.715 8.82346 24.0562 11.8436 21.568 13.9162C21.5088 14.3307 21.5088 14.7453 21.568 15.219C21.6273 15.9889 21.7457 16.6995 21.9235 17.2324C24.2932 19.2458 25.8335 22.1475 26.1297 25.4637C23.8785 23.8648 22.1604 21.5553 21.3903 18.8313C21.1533 18.1207 20.9164 17.1732 20.8571 16.0481C20.7979 15.4559 20.8571 14.8637 20.9164 14.3307C20.9164 14.3307 20.9164 14.3307 20.9164 14.2715C20.9164 14.2123 20.9164 14.1531 20.9164 14.0939C21.2126 10.9553 22.6936 8.23131 24.8856 6.21789C25.0633 5.56649 25.241 4.85587 25.241 3.96761C25.241 3.6123 25.241 3.25699 25.1818 2.90169C24.4117 2.25029 23.7008 1.53968 23.1083 0.710623C22.6936 0.769843 22.2789 0.829062 21.8642 0.888277C22.1604 1.48046 22.5159 1.89498 22.8713 2.30951C21.9827 2.13185 21.0348 2.01342 20.087 2.01342C19.0799 2.01342 18.132 2.13185 17.2433 2.36872C17.2433 2.30951 17.3026 2.30951 17.3026 2.25029C14.5774 3.31621 12.0893 4.79666 9.89732 6.69162C9.95656 6.69162 10.0158 6.69162 10.075 6.63241C8.77168 8.11285 7.82384 9.88938 7.29064 11.9028C7.11293 11.2514 6.87595 10.6593 6.63897 10.0671C6.34279 10.4224 6.10581 10.7185 5.86882 11.0738C6.22428 11.9028 6.46126 12.7911 6.57973 13.7386C7.17217 14.1531 7.88307 14.6268 8.77168 14.9229C8.94943 14.9821 9.12714 15.0414 9.30488 15.1006C10.7267 14.5676 12.2077 14.2123 13.8073 14.2123C15.5846 14.2123 17.3026 14.5676 18.9021 15.2782C18.9021 15.1598 18.9021 15.1006 18.9021 14.9821C18.9021 14.39 18.9021 13.9162 18.7836 13.3832C16.4139 11.4291 14.8144 8.64583 14.3997 5.44807C16.5917 7.10614 18.369 9.53408 19.0799 12.3765C19.0799 12.495 19.1391 12.5542 19.1391 12.6726C19.376 13.5017 19.5538 14.6268 19.4946 15.8704C19.4946 16.3442 19.4353 16.7587 19.376 17.1732C18.9021 20.6078 17.0656 23.5687 14.3997 25.4637C14.459 25.5229 14.5182 25.5229 14.5774 25.5821C15.0514 25.819 15.5846 25.9967 15.9993 26.1151C17.3026 25.6414 18.7244 25.3453 20.2055 25.3453C22.1012 25.3453 23.9377 25.7598 25.5373 26.5296C23.9377 27.2995 22.1604 27.7732 20.2055 27.7732C18.4874 27.7732 16.8879 27.4771 15.4068 26.8257C15.2884 26.7665 15.1699 26.7073 14.9921 26.6481C14.9921 26.6481 14.9329 26.6481 14.9329 26.5889H14.8737C14.222 26.2928 13.6296 25.9375 13.1556 25.5821C10.4897 23.7464 8.53474 20.8447 8.00154 17.5285C7.88307 17.4101 7.70532 17.2916 7.52762 17.114C6.57973 16.3442 5.63188 15.9296 4.80246 15.6335C4.15079 15.8704 3.4399 16.1073 2.729 16.2257C2.55127 16.6402 2.37354 17.0548 2.25506 17.4693C2.90672 17.3508 3.61763 17.2324 4.21007 16.9955C2.78824 18.4168 1.66264 20.1341 1.01097 22.0883C0.774001 23.5687 0.655518 25.0492 0.655518 26.6481C0.655518 28.1877 0.833244 29.7274 1.07021 31.2078C1.72188 32.9844 2.78824 34.6425 4.09157 35.9453C3.49914 35.8268 2.90672 35.7084 2.3143 35.6492C2.49203 36.0637 2.61051 36.419 2.78824 36.8335C3.61763 36.952 4.44701 37.1889 5.21715 37.4257C5.69112 37.2481 6.10581 36.952 6.57973 36.6559C7.2314 36.2414 7.70532 35.7676 8.12005 35.3531C8.71245 32.2146 10.4897 29.5497 12.9779 27.714C12.8594 27.6548 12.7409 27.5955 12.6817 27.4771C12.3262 27.2995 12.03 27.1218 11.6746 26.9442C10.312 27.4771 8.77168 27.8324 7.2314 27.8324C5.33566 27.8324 3.49914 27.4179 1.8996 26.6481C3.49914 25.8782 5.27643 25.4045 7.2314 25.4045C8.94943 25.4045 10.6082 25.7598 12.0893 26.352C12.6224 26.5889 13.2149 26.8257 13.8073 27.2402C14.1035 27.4179 14.3997 27.6548 14.6367 27.8324C17.3026 29.8458 19.1391 32.9252 19.4946 36.419C20.1462 35.9453 20.6794 35.4123 21.0941 34.9978C21.7457 31.9185 23.523 29.3128 25.9519 27.5363C25.6557 30.8525 24.1154 33.7542 21.7457 35.8268C21.2718 36.2414 20.6794 36.7151 19.9685 37.1296C18.6651 37.8995 17.4803 38.2548 16.5324 38.4916C15.6438 38.7285 14.7552 38.7877 13.8073 38.8469C12.4447 38.8469 11.1414 38.6101 9.89732 38.2548C9.36412 38.3732 8.71245 38.6101 8.06078 38.9061C10.9637 40.9196 12.9187 44.1175 13.2741 47.789C10.3712 45.7754 8.41623 42.5776 8.00154 38.9061C7.46838 39.2022 6.93518 39.4983 6.52049 39.8536C6.40202 40.6235 6.16504 41.3933 5.92806 42.1039C6.16504 42.4592 6.46126 42.7553 6.69824 43.1105C6.93518 42.5184 7.17216 41.9855 7.34987 41.3341C7.88307 43.2882 8.8902 45.0057 10.1935 46.486C12.4447 48.3219 14.9921 49.8022 17.7765 50.8088C18.6059 50.9864 19.4946 51.0456 20.3832 51.0456C21.4495 51.0456 22.5159 50.9272 23.523 50.6311C23.1083 51.0456 22.7529 51.5197 22.4567 51.9934C22.8713 52.0526 23.286 52.1118 23.7008 52.171C24.2339 51.5197 24.8264 50.868 25.5373 50.3351C25.5373 49.9206 25.5965 49.5653 25.5373 49.0917C25.5373 48.9732 25.5373 48.8548 25.5373 48.7956C23.9969 49.5061 22.2789 49.9206 20.4424 49.9206C18.5467 49.9206 16.7694 49.5061 15.1699 48.7956C16.7694 48.0259 18.5467 47.6114 20.3832 47.6114C22.2197 47.6114 23.9377 47.9667 25.478 48.6772C25.4188 47.9667 25.241 47.3149 25.0633 46.782C22.8121 44.7689 21.3311 41.9855 20.9756 38.8469C23.8192 40.8603 25.7742 43.9987 26.1889 47.6706C26.1889 47.8482 26.2482 48.0851 26.2482 48.2627C26.3666 50.039 26.0704 51.4605 25.7742 52.4079C26.1297 52.4079 26.5444 52.4079 26.8998 52.4079C27.2553 52.4079 27.6107 52.4079 27.907 52.3487V52.2895C27.6107 51.3421 27.2553 49.9206 27.3738 48.1443C27.3738 47.8482 27.433 47.5518 27.433 47.2557C27.7884 43.9987 29.4472 41.1564 31.8169 39.2022C31.8762 38.7285 31.8762 38.1955 31.8762 37.6626C31.8169 36.952 31.6984 36.3006 31.5207 35.7676C29.151 33.7542 27.5515 30.7933 27.1961 27.5363C29.6842 29.1944 31.4615 31.8 32.2316 34.7609C32.4093 35.3531 32.5279 36.0637 32.5871 36.8335C32.6463 37.4849 32.5871 38.1363 32.5279 38.7285C32.2909 41.9855 30.7506 44.8873 28.3809 46.9597C28.2031 47.4926 28.0847 48.0851 28.0254 48.7956C29.5657 48.0259 31.343 47.6114 33.1795 47.6114C35.0753 47.6114 36.8525 48.0259 38.452 48.7364C36.8525 49.5061 35.0753 49.9206 33.2388 49.9206C31.4022 49.9206 29.6249 49.5061 28.0254 48.7956C28.0254 48.8548 28.0254 48.9732 28.0254 49.0325C28.0254 49.4469 28.0254 49.8614 28.0254 50.2759C28.7363 50.868 29.388 51.4605 29.9804 52.171C30.3951 52.1118 30.8098 52.0526 31.2245 51.9934C30.8691 51.5197 30.5136 51.0456 30.0989 50.6311C31.106 50.868 32.1724 50.9864 33.2388 50.9864C34.1274 50.9864 35.016 50.868 35.8454 50.6904C38.5706 49.6246 41.118 48.1443 43.3098 46.3083C44.5542 44.8873 45.502 43.1697 46.0351 41.3341C46.2128 41.8671 46.4497 42.4592 46.6867 42.9329C46.9828 42.6368 47.2198 42.2816 47.4567 41.9263C47.1605 41.0972 46.9236 40.2682 46.7459 39.3799C46.5682 39.2614 46.3312 39.143 46.1535 39.0246C45.9166 38.9061 45.6797 38.7877 45.4427 38.6693ZM45.9758 24.0425C44.9688 24.0425 43.9614 24.1609 43.0137 24.3978C44.3765 22.9173 45.3835 21.0816 45.9758 19.1274C46.5682 21.1408 47.6344 22.9173 49.0565 24.3978C48.0495 24.1609 46.9828 24.0425 45.9758 24.0425ZM51.7817 27.4179C51.4855 31.0894 49.5304 34.3464 46.6867 36.3598C46.9828 32.6883 48.938 29.4313 51.7817 27.4179ZM45.9758 28.7207C47.0421 28.7207 48.0495 28.6022 48.9972 28.3654C47.6344 29.8458 46.5682 31.6816 46.0351 33.695C45.4427 31.6816 44.3765 29.905 43.0137 28.4246C43.9614 28.6022 44.9688 28.7207 45.9758 28.7207ZM39.4592 17.7654C40.4071 17.7654 41.3549 17.6469 42.2436 17.4693C40.9995 18.8905 40.0516 20.6078 39.4592 22.5028C38.8668 20.6078 37.8596 18.9497 36.6155 17.5285C37.5042 17.6469 38.452 17.7654 39.4592 17.7654ZM33.061 19.2458C33.6534 21.2593 34.7198 23.0358 36.0824 24.5162C35.1345 24.2793 34.1274 24.2201 33.1202 24.2201C32.0539 24.2201 31.0468 24.3386 30.0989 24.5754C31.4615 23.0358 32.4686 21.2 33.061 19.2458ZM33.0018 11.5475C32.4093 9.71175 31.4615 7.99443 30.2174 6.5732C31.106 6.75083 32.0539 6.86929 33.0018 6.86929C33.9497 6.86929 34.8383 6.75083 35.7269 6.5732C34.4828 7.99443 33.5349 9.71175 33.0018 11.5475ZM45.265 14.0346C42.3028 12.0805 40.2886 8.88267 39.8739 5.15197C42.836 7.16539 44.9096 10.3632 45.265 14.0346ZM39.3407 7.81675C39.9924 9.94859 41.1772 11.8436 42.6582 13.324C41.592 13.0871 40.5255 12.9687 39.3999 12.9687C38.2151 12.9687 37.0302 13.1464 35.9046 13.4425C37.5042 11.9028 38.689 9.94859 39.3407 7.81675ZM26.5444 8.23131C27.1368 10.1263 28.1439 11.8436 29.4472 13.324C28.4994 13.1464 27.5515 13.0279 26.6036 13.0279C25.6557 13.0279 24.7078 13.1464 23.76 13.324C25.0041 11.9028 25.9519 10.1855 26.5444 8.23131ZM8.00154 13.857C8.41623 10.6592 10.075 7.876 12.504 5.92179C12.504 5.92179 12.5632 5.92179 12.5632 5.86258C12.0893 9.06035 10.4305 11.9028 8.00154 13.857ZM17.1249 13.5609C15.9993 13.2648 14.8737 13.1464 13.6888 13.1464C12.3262 13.1464 11.0229 13.3832 9.77881 13.7386C11.5561 11.962 12.8594 9.65254 13.4519 7.10614C14.0442 9.59329 15.3476 11.8436 17.1249 13.5609ZM15.1699 4.32293C15.2291 4.26368 15.2884 4.20447 15.3476 4.20447C16.8286 3.6123 18.4282 3.25699 20.087 3.19778C21.6865 3.19778 23.286 3.49387 24.7079 4.02683C24.7671 4.08604 24.8856 4.20447 24.9448 4.26368C23.4638 4.91508 21.8642 5.27039 20.087 5.27039C18.369 5.27039 16.7102 4.91508 15.1699 4.32293ZM16.5917 5.98101C17.7173 6.2771 18.9021 6.45478 20.1462 6.45478C21.3311 6.45478 22.4567 6.2771 23.5822 5.98101C21.9827 7.57991 20.7979 9.65254 20.1462 11.9028C19.4353 9.59329 18.2504 7.57991 16.5917 5.98101ZM20.2647 24.2201C19.1983 24.2201 18.132 24.3386 17.1249 24.6346C18.5467 23.095 19.613 21.2 20.2055 19.0682C20.7979 21.1408 21.8642 23.0358 23.3453 24.5754C22.2789 24.3386 21.2718 24.2201 20.2647 24.2201ZM7.29064 28.9575C8.357 28.9575 9.42336 28.8391 10.4305 28.543C9.00867 30.0827 7.94231 31.9777 7.34987 34.1095C6.75748 32.0369 5.69112 30.1419 4.21007 28.6022C5.21715 28.8391 6.28351 28.9575 7.29064 28.9575ZM6.69824 36.5967C3.91384 34.6425 1.95885 31.5039 1.54415 27.8916C1.54415 27.8324 1.54415 27.8324 1.54415 27.7732C4.38778 29.7866 6.34279 32.9844 6.69824 36.5967ZM1.54415 25.5821C1.54415 25.5229 1.54415 25.4045 1.54415 25.3453C1.8996 21.733 3.79536 18.5944 6.57973 16.581C6.34279 20.2525 4.38778 23.5095 1.54415 25.5821ZM7.29064 24.3386C6.22428 24.3386 5.21715 24.457 4.26931 24.6939C5.69112 23.1542 6.75748 21.2593 7.34987 19.1866C7.94231 21.2593 9.0679 23.1542 10.4897 24.6939C9.42336 24.457 8.357 24.3386 7.29064 24.3386ZM20.2647 34.0503C19.6723 31.9777 18.5467 30.0827 17.1249 28.543C18.132 28.7799 19.1983 28.8983 20.2647 28.8983C21.3311 28.8983 22.3382 28.7799 23.286 28.543C21.9235 30.0827 20.8571 31.9777 20.2647 34.0503ZM10.7267 39.6168C11.7338 39.8536 12.8002 39.9721 13.9258 39.9721C15.0514 39.9721 16.1177 39.7944 17.1249 39.5575C15.703 41.0972 14.5774 42.9329 13.985 45.0057C13.2741 42.9329 12.1485 41.0972 10.7267 39.6168ZM23.523 46.8412C22.5159 46.6044 21.4495 46.486 20.3832 46.486C19.2576 46.486 18.1912 46.6636 17.1841 46.9004C18.6651 45.3017 19.7315 43.4066 20.3239 41.2749C20.9164 43.4066 22.042 45.3018 23.523 46.8412ZM26.7813 44.9465C26.1297 42.8737 25.0041 40.9788 23.523 39.4983C24.5301 39.7352 25.5965 39.8536 26.7221 39.8536C27.8477 39.8536 28.914 39.676 29.9212 39.4391C28.4994 40.9788 27.3738 42.8737 26.7813 44.9465ZM31.8169 37.6034C30.2766 38.314 28.4994 38.7285 26.6629 38.7877C25.241 38.7877 23.9377 38.5508 22.6936 38.1363C22.1604 38.2548 21.6273 38.4916 21.0348 38.7877C20.4424 39.0838 19.9092 39.4391 19.4946 39.7352C18.9614 43.0513 17.1249 45.8939 14.5182 47.7298C14.8144 44.0579 16.7694 40.8604 19.613 38.7877C20.1462 38.3732 20.7386 38.0179 21.4495 37.6626C21.8642 37.4849 22.2789 37.3073 22.6936 37.1889C23.9377 36.7743 25.3003 36.5375 26.6629 36.4782C28.5586 36.4782 30.2766 36.8928 31.8169 37.6034ZM29.9212 35.7676C28.914 35.5307 27.7884 35.4123 26.6629 35.4123C25.5373 35.4123 24.4709 35.59 23.4638 35.8268C24.9448 34.2871 26.0112 32.3922 26.6629 30.3196C27.3145 32.3922 28.4401 34.2279 29.9212 35.7676ZM26.6036 22.6212C25.9519 20.4302 24.7079 18.476 23.1083 16.8771C24.2339 17.1732 25.3595 17.2916 26.5444 17.2916C27.7292 17.2916 28.914 17.114 30.0397 16.8179C28.4401 18.4168 27.2553 20.4302 26.6036 22.6212ZM30.0989 28.4838C31.106 28.7207 32.1131 28.8391 33.1795 28.8391C34.1866 28.8391 35.1937 28.7207 36.1416 28.4838C34.779 29.9643 33.7719 31.8 33.1795 33.7542C32.5279 31.7408 31.5207 29.9643 30.0989 28.4838ZM33.298 46.3675C32.2316 46.3675 31.1653 46.486 30.1582 46.782C31.58 45.2425 32.6463 43.4066 33.2388 41.3933C33.8312 43.4066 34.9567 45.2425 36.3786 46.7228C35.3715 46.486 34.3051 46.3675 33.298 46.3675ZM36.3786 39.4391C37.3857 39.676 38.5113 39.7944 39.6369 39.7944C40.7033 39.7944 41.7697 39.676 42.7767 39.3799C41.3549 40.9196 40.2293 42.7553 39.6369 44.7689C38.926 42.7553 37.8596 40.9196 36.3786 39.4391Z" fill="#4C93C0"/>
<path d="M40.1706 28.247C39.9337 28.0694 39.6375 27.8917 39.3412 27.7733C39.1635 27.7141 39.045 27.5956 38.8673 27.5364C38.5711 30.7934 37.0308 33.695 34.7204 35.7084C34.6019 36.2414 34.4834 36.8928 34.4241 37.6034C35.9644 36.8928 37.7417 36.4783 39.519 36.4783C40.8223 36.4783 42.0664 36.6559 43.2511 37.0705C43.962 37.2481 44.7917 37.5442 45.7394 38.018C47.0426 38.7286 47.9908 39.5576 48.6424 40.209C48.9978 39.6168 49.3532 38.9654 49.7086 38.3733C49.5309 38.3141 49.4124 38.3141 49.2347 38.2548C49.1163 38.2548 48.9978 38.2548 48.9386 38.2548C47.9908 38.018 46.628 37.485 45.2063 36.4191C45.0286 36.2414 44.7917 36.123 44.614 35.9453C42.3034 34.0503 40.6446 31.3263 40.1706 28.247ZM39.5782 35.2939C38.4526 35.2939 37.3863 35.4716 36.3791 35.7084C37.801 34.1688 38.9266 32.333 39.519 30.2604C40.1706 32.333 41.2963 34.1096 42.718 35.6492C41.711 35.4123 40.6446 35.2939 39.5782 35.2939Z" fill="#4C93C0"/>
<path d="M18.1321 37.3665C18.3691 37.2481 18.6653 37.1296 18.9023 36.952C19.1393 36.8335 19.317 36.6559 19.5539 36.5374C17.0658 34.7609 15.2293 32.0961 14.5776 29.0167C14.2222 28.6022 13.7482 28.2469 13.1558 27.8324C12.8596 31.3263 11.0823 34.3463 8.47567 36.3598C8.23868 36.5374 8.06098 36.7151 7.824 36.8335C7.05385 37.3665 6.34295 37.7218 5.69128 37.9587C5.09884 38.1955 4.44721 38.4324 3.79553 38.61C4.15099 39.2614 4.50645 39.9128 4.92114 40.5642C5.45429 39.972 6.10597 39.4391 6.75764 38.9654C7.29084 38.6101 7.824 38.1955 8.5349 37.8994C9.00883 37.6626 9.48279 37.4849 9.89748 37.3665C9.95672 37.3665 10.016 37.3073 10.0752 37.3073C10.1345 37.3073 10.1345 37.3073 10.1937 37.2481C11.3785 36.8927 12.6226 36.6559 13.9259 36.6559C15.3477 36.5966 16.8288 36.8335 18.1321 37.3665ZM13.8075 30.438C14.4591 32.5106 15.5847 34.3463 17.0065 35.8268C15.9994 35.5899 14.9331 35.4715 13.8667 35.4715C12.8003 35.4715 11.734 35.6492 10.6676 35.886C12.0894 34.3463 13.215 32.5106 13.8075 30.438Z" fill="#4C93C0"/>
<path d="M26.485 53C19.5536 53 12.9778 50.3351 8.00142 45.4794C2.96582 40.505 0.122193 33.8726 0.00370856 26.8257C-0.114776 19.7788 2.61036 13.0279 7.52745 7.99443C12.5038 2.90168 19.0797 0.059218 26.1888 0C26.3073 0 26.4257 0 26.5442 0C40.9993 0 52.8476 11.6659 53.0257 26.1743C53.1442 33.2804 50.4189 39.9721 45.5016 45.0057C40.5846 50.0983 33.9495 52.9408 26.8404 53C26.722 53 26.6034 53 26.485 53ZM26.5442 1.0067C26.4257 1.0067 26.3073 1.0067 26.1888 1.0067C19.3759 1.12514 13.037 3.84916 8.29764 8.70504C3.499 13.5609 0.951582 20.0157 1.07007 26.8257C1.12931 33.6357 3.91369 39.9721 8.77156 44.7096C13.6294 49.4469 20.0868 52.0526 26.8997 51.9342C33.7126 51.875 40.0514 49.0917 44.7907 44.236C49.5304 39.3799 52.1368 32.9251 52.0183 26.1151C51.8406 12.1989 40.4069 1.0067 26.5442 1.0067Z" fill="#4C93C0"/>
</svg>
