<svg width="62" height="55" viewBox="0 0 62 55" fill="none" xmlns="http://www.w3.org/2000/svg">
<path d="M25 34.8498V43L24 44H8L1.17157 37.1716C0.421427 36.4214 0 35.404 0 34.3431V22.5C0 19.4624 2.46243 17 5.5 17C8.53757 17 11 19.4624 11 22.5V24.5L11.1141 24.4429C12.3013 23.8493 13.6987 23.8493 14.8859 24.4429C14.9617 24.4808 15.0326 24.5277 15.0972 24.5826L23.5906 31.802C24.4847 32.562 25 33.6763 25 34.8498Z" fill="#8ED7FC"/>
<rect x="7" y="43" width="20" height="12" rx="2" fill="#006B9E"/>
<path d="M37 34.8498V43L38 44H54L60.8284 37.1716C61.5786 36.4214 62 35.404 62 34.3431V22.5C62 19.4624 59.5376 17 56.5 17C53.4624 17 51 19.4624 51 22.5V24.5L50.8859 24.4429C49.6987 23.8493 48.3013 23.8493 47.1141 24.4429C47.0383 24.4808 46.9674 24.5277 46.9028 24.5826L38.4094 31.802C37.5153 32.562 37 33.6763 37 34.8498Z" fill="#8ED7FC"/>
<rect width="20" height="12" rx="2" transform="matrix(-1 0 0 1 55 43)" fill="#006B9E"/>
<rect x="30.5" y="16.136" width="9" height="9" rx="1" transform="rotate(45 30.5 16.136)" fill="#00A6FC"/>
<rect x="30.5" width="9" height="9" rx="1" transform="rotate(45 30.5 0)" fill="#00A6FC"/>
<rect x="21.3643" y="8" width="9" height="9" rx="1" transform="rotate(45 21.3643 8)" fill="#00A6FC"/>
<rect x="11.3643" width="9" height="9" rx="1" transform="rotate(45 11.3643 0)" fill="#00A6FC"/>
<rect width="9" height="9" rx="1" transform="matrix(-0.707107 0.707107 0.707107 0.707107 40.3643 8)" fill="#00A6FC"/>
<rect width="9" height="9" rx="1" transform="matrix(-0.707107 0.707107 0.707107 0.707107 50.3643 0)" fill="#00A6FC"/>
</svg>
