<svg width="24" height="24" viewBox="0 0 24 24" fill="none" xmlns="http://www.w3.org/2000/svg">
<g id="Iconly/Bulk/Paper Plus">
<circle id="Ellipse 81" opacity="0.4" cx="12" cy="12" r="9" fill="#6E247F"/>
<g id="Paper Plus">
<path id="Fill 6" d="M14.688 11.472H12.96V9.745C12.96 9.334 12.627 9 12.216 9C11.805 9 11.471 9.334 11.471 9.745V11.472H9.744C9.333 11.472 9 11.806 9 12.217C9 12.628 9.333 12.962 9.744 12.962H11.471V14.688C11.471 15.099 11.805 15.433 12.216 15.433C12.627 15.433 12.96 15.099 12.96 14.688V12.962H14.688C15.099 12.962 15.433 12.628 15.433 12.217C15.433 11.806 15.099 11.472 14.688 11.472Z" fill="#6E247F"/>
</g>
</g>
</svg>
