<svg width="44" height="44" viewBox="0 0 44 44" fill="none" xmlns="http://www.w3.org/2000/svg">
<path d="M16.5 7.33334H9.16665C8.15412 7.33334 7.33331 8.15415 7.33331 9.16668V16.5C7.33331 17.5125 8.15412 18.3333 9.16665 18.3333H16.5C17.5125 18.3333 18.3333 17.5125 18.3333 16.5V9.16668C18.3333 8.15415 17.5125 7.33334 16.5 7.33334Z" stroke="white" stroke-width="2.75" stroke-linecap="round" stroke-linejoin="round"/>
<path d="M16.5 25.6667H9.16665C8.15412 25.6667 7.33331 26.4875 7.33331 27.5V34.8333C7.33331 35.8458 8.15412 36.6667 9.16665 36.6667H16.5C17.5125 36.6667 18.3333 35.8458 18.3333 34.8333V27.5C18.3333 26.4875 17.5125 25.6667 16.5 25.6667Z" stroke="white" stroke-width="2.75" stroke-linecap="round" stroke-linejoin="round"/>
<path d="M34.8334 25.6667H27.5C26.4875 25.6667 25.6667 26.4875 25.6667 27.5V34.8333C25.6667 35.8458 26.4875 36.6667 27.5 36.6667H34.8334C35.8459 36.6667 36.6667 35.8458 36.6667 34.8333V27.5C36.6667 26.4875 35.8459 25.6667 34.8334 25.6667Z" stroke="white" stroke-width="2.75" stroke-linecap="round" stroke-linejoin="round"/>
<path d="M25.6667 12.8333H36.6667" stroke="white" stroke-width="2.75" stroke-linecap="round" stroke-linejoin="round"/>
<path d="M31.1667 7.33334V18.3333" stroke="white" stroke-width="2.75" stroke-linecap="round" stroke-linejoin="round"/>
</svg>
