<svg width="64" height="64" viewBox="0 0 64 64" fill="none" xmlns="http://www.w3.org/2000/svg">
<rect width="64" height="64" rx="15" fill="url(#paint0_radial)"/>
<g filter="url(#filter0_d)">
<path opacity="0.4" d="M31.776 41.8374C29.4929 40.4273 27.3706 38.7645 25.4479 36.8796C24.0905 35.5338 23.0539 33.8905 22.4172 32.0753C21.2795 28.5352 22.6038 24.4895 26.3011 23.2884C28.2526 22.6755 30.3751 23.0518 32.0071 24.2998C33.6397 23.0532 35.7614 22.677 37.713 23.2884C41.4103 24.4895 42.7435 28.5352 41.6058 32.0753C40.9743 33.8888 39.9438 35.5319 38.5929 36.8796C36.6684 38.7625 34.5463 40.4251 32.2648 41.8374L32.0159 42L31.776 41.8374Z" fill="#D05358"/>
<path d="M32.0109 42L31.776 41.8374C29.4901 40.4274 27.3649 38.7647 25.439 36.8796C24.0752 35.5356 23.0324 33.8922 22.3905 32.0752C21.2618 28.5352 22.586 24.4894 26.2834 23.2884C28.2349 22.6755 30.3853 23.052 32.0109 24.3105V42Z" fill="#D05358"/>
<path d="M38.2304 29.9992C38.0296 29.9863 37.8425 29.8859 37.7131 29.7216C37.5836 29.5572 37.5232 29.3434 37.5459 29.1302C37.5677 28.4278 37.168 27.7885 36.5517 27.5398C36.1609 27.4331 35.9243 27.0099 36.022 26.5925C36.1148 26.1818 36.4993 25.9265 36.8858 26.0189C36.9346 26.027 36.9816 26.0447 37.0244 26.071C38.2601 26.5466 39.0601 27.8264 38.9965 29.2258C38.9944 29.4379 38.9117 29.64 38.7673 29.7858C38.6229 29.9316 38.4291 30.0087 38.2304 29.9992Z" fill="white"/>
</g>
<defs>
<filter id="filter0_d" x="16" y="20" width="32" height="32" filterUnits="userSpaceOnUse" color-interpolation-filters="sRGB">
<feFlood flood-opacity="0" result="BackgroundImageFix"/>
<feColorMatrix in="SourceAlpha" type="matrix" values="0 0 0 0 0 0 0 0 0 0 0 0 0 0 0 0 0 0 127 0"/>
<feOffset dy="4"/>
<feGaussianBlur stdDeviation="2"/>
<feColorMatrix type="matrix" values="0 0 0 0 0.815686 0 0 0 0 0.32549 0 0 0 0 0.345098 0 0 0 0.2 0"/>
<feBlend mode="normal" in2="BackgroundImageFix" result="effect1_dropShadow"/>
<feBlend mode="normal" in="SourceGraphic" in2="effect1_dropShadow" result="shape"/>
</filter>
<radialGradient id="paint0_radial" cx="0" cy="0" r="1" gradientUnits="userSpaceOnUse" gradientTransform="translate(59.5 4) rotate(131.878) scale(77.8974)">
<stop stop-color="white"/>
<stop offset="1" stop-color="#FDE7E8"/>
</radialGradient>
</defs>
</svg>
