<svg width="24" height="24" viewBox="0 0 24 24" fill="none" xmlns="http://www.w3.org/2000/svg">
<g id="Iconly/Bulk/Send">
<g id="Send">
<path id="Fill 1" d="M21.4274 2.5783C20.9274 2.0673 20.1874 1.8783 19.4974 2.0783L3.40742 6.7273C2.67942 6.9293 2.16342 7.5063 2.02442 8.2383C1.88242 8.9843 2.37842 9.9323 3.02642 10.3283L8.05742 13.4003C8.57342 13.7163 9.23942 13.6373 9.66642 13.2093L15.4274 7.4483C15.7174 7.1473 16.1974 7.1473 16.4874 7.4483C16.7774 7.7373 16.7774 8.2083 16.4874 8.5083L10.7164 14.2693C10.2884 14.6973 10.2084 15.3613 10.5234 15.8783L13.5974 20.9283C13.9574 21.5273 14.5774 21.8683 15.2574 21.8683C15.3374 21.8683 15.4274 21.8683 15.5074 21.8573C16.2874 21.7583 16.9074 21.2273 17.1374 20.4773L21.9074 4.5083C22.1174 3.8283 21.9274 3.0883 21.4274 2.5783Z" fill="#1E2329"/>
<path id="Combined Shape" opacity="0.4" fill-rule="evenodd" clip-rule="evenodd" d="M3.01052 16.8079C2.81852 16.8079 2.62652 16.7349 2.48052 16.5879C2.18752 16.2949 2.18752 15.8209 2.48052 15.5279L3.84552 14.1619C4.13852 13.8699 4.61352 13.8699 4.90652 14.1619C5.19852 14.4549 5.19852 14.9299 4.90652 15.2229L3.54052 16.5879C3.39452 16.7349 3.20252 16.8079 3.01052 16.8079ZM6.77172 18.0003C6.57972 18.0003 6.38772 17.9273 6.24172 17.7803C5.94872 17.4873 5.94872 17.0133 6.24172 16.7203L7.60672 15.3543C7.89972 15.0623 8.37472 15.0623 8.66772 15.3543C8.95972 15.6473 8.95972 16.1223 8.66772 16.4153L7.30172 17.7803C7.15572 17.9273 6.96372 18.0003 6.77172 18.0003ZM7.02542 21.5683C7.17142 21.7153 7.36342 21.7883 7.55542 21.7883C7.74742 21.7883 7.93942 21.7153 8.08542 21.5683L9.45142 20.2033C9.74342 19.9103 9.74342 19.4353 9.45142 19.1423C9.15842 18.8503 8.68342 18.8503 8.39042 19.1423L7.02542 20.5083C6.73242 20.8013 6.73242 21.2753 7.02542 21.5683Z" fill="#1E2329"/>
</g>
</g>
</svg>
