<svg width="295" height="334" viewBox="0 0 295 334" fill="none" xmlns="http://www.w3.org/2000/svg">
<path d="M72.0251 131.654C60.6977 121.832 59.3481 104.411 71.2622 95.3098C79.2134 89.2359 87.8475 84.061 97.0107 79.9002C114.444 71.9839 133.381 67.925 152.528 68.001C171.674 68.077 190.579 72.2861 207.949 80.3404C225.319 88.3948 240.745 100.105 253.173 114.67C265.601 129.234 274.738 146.311 279.959 164.732C285.181 183.153 286.363 202.484 283.426 221.404C280.488 240.324 273.5 258.387 262.94 274.358C257.389 282.752 250.92 290.464 243.671 297.361C232.808 307.695 215.817 303.621 207.9 290.889C199.982 278.158 204.41 261.603 213.715 249.847C215.101 248.095 216.415 246.282 217.652 244.411C223.901 234.96 228.036 224.271 229.775 213.075C231.513 201.878 230.813 190.439 227.724 179.537C224.634 168.636 219.227 158.531 211.872 149.912C204.518 141.292 195.389 134.363 185.109 129.596C174.83 124.83 163.643 122.339 152.312 122.294C140.982 122.249 129.775 124.651 119.458 129.336C117.417 130.263 115.419 131.275 113.471 132.369C100.398 139.708 83.3525 141.476 72.0251 131.654Z" fill="url(#paint0_radial)"/>
<path d="M217.384 156.465C219.433 155.084 222.224 155.621 223.489 157.742C228.722 166.513 232.267 176.201 233.925 186.306C235.824 197.884 235.202 209.735 232.099 221.05C228.997 232.365 223.488 242.877 215.949 251.867C208.41 260.858 199.019 268.114 188.418 273.141C177.817 278.168 166.255 280.846 154.523 280.994C142.791 281.141 131.166 278.753 120.442 273.994C109.718 269.235 100.147 262.217 92.3853 253.419C85.6109 245.74 80.3531 236.864 76.8741 227.262C76.0327 224.939 77.384 222.439 79.7492 221.726C82.1144 221.013 84.5964 222.359 85.4536 224.676C88.5509 233.047 93.1712 240.788 99.0934 247.501C106.004 255.333 114.523 261.581 124.07 265.818C133.618 270.054 143.967 272.18 154.411 272.049C164.855 271.917 175.148 269.533 184.585 265.058C194.023 260.583 202.383 254.123 209.095 246.119C215.806 238.116 220.71 228.758 223.472 218.685C226.234 208.612 226.788 198.061 225.097 187.754C223.648 178.92 220.579 170.444 216.057 162.748C214.806 160.618 215.335 157.845 217.384 156.465Z" fill="url(#paint1_radial)"/>
<path d="M179.103 76.7242C179.786 73.5929 182.882 71.5954 185.981 72.4142C205.604 77.5999 223.807 87.216 239.175 100.553C256.005 115.16 268.896 133.762 276.662 154.65C284.429 175.538 286.822 198.043 283.622 220.097C280.7 240.234 273.201 259.407 261.732 276.153C259.921 278.797 256.272 279.307 253.709 277.383C251.146 275.458 250.641 271.828 252.441 269.176C262.749 253.991 269.493 236.643 272.136 218.43C275.056 198.301 272.872 177.76 265.783 158.695C258.695 139.629 246.929 122.651 231.567 109.319C217.668 97.2563 201.229 88.5287 183.505 83.7657C180.41 82.934 178.42 79.8557 179.103 76.7242Z" fill="url(#paint2_radial)"/>
<g opacity="0.5" filter="url(#filter0_f)">
<ellipse cx="147.5" cy="135" rx="97.5" ry="85" transform="rotate(-180 147.5 135)" fill="#FBBDF9"/>
</g>
<circle cx="88.5" cy="115.5" r="27.5" transform="rotate(-180 88.5 115.5)" fill="url(#paint3_radial)"/>
<circle cx="186.5" cy="78.5" r="10.5" transform="rotate(-180 186.5 78.5)" fill="url(#paint4_radial)"/>
<circle cx="189" cy="154" r="8" transform="rotate(-180 189 154)" fill="url(#paint5_radial)"/>
<circle cx="287" cy="148" r="4" transform="rotate(-180 287 148)" fill="url(#paint6_radial)"/>
<circle cx="219.5" cy="159.5" r="4.5" transform="rotate(-180 219.5 159.5)" fill="url(#paint7_radial)"/>
<circle cx="231" cy="292" r="4" transform="rotate(-180 231 292)" fill="url(#paint8_radial)"/>
<circle opacity="0.5" cx="212" cy="318" r="2" transform="rotate(-180 212 318)" fill="url(#paint9_radial)"/>
<circle cx="236.5" cy="202.5" r="1.5" transform="rotate(-180 236.5 202.5)" fill="url(#paint10_radial)"/>
<circle cx="274.5" cy="274.5" r="1.5" transform="rotate(-180 274.5 274.5)" fill="url(#paint11_radial)"/>
<path d="M78.2176 114.636C76.1561 112.547 74.1082 110.442 72.0709 108.325C73.0556 108.053 74.0454 107.801 75.0303 107.525C78.5631 111.1 82.0589 114.713 85.5778 118.303C86.8702 119.634 88.1794 120.947 89.4613 122.289C89.647 121.842 89.721 121.357 89.8533 120.891C91.1717 115.718 92.5026 110.548 93.8135 105.372C90.2974 106.307 86.784 107.249 83.2724 108.196C83.8938 108.887 84.5775 109.516 85.1986 110.206C84.2093 110.481 83.215 110.738 82.2242 111.008C80.8352 109.578 79.4131 108.179 78.0531 106.722C84.5667 104.974 91.0798 103.227 97.5944 101.486C96.8735 104.337 96.1485 107.186 95.4102 110.031C96.9965 110.506 98.5973 110.926 100.188 111.386C99.9847 112.279 99.7394 113.161 99.5197 114.049C98.0391 113.631 96.5558 113.225 95.0782 112.797C94.9608 112.767 94.8344 112.716 94.7183 112.775C94.6079 113.121 94.5285 113.476 94.4796 113.837C96.0522 114.295 97.6115 114.804 99.1839 115.265C99.0111 116.169 98.7342 117.046 98.53 117.942C96.9373 117.472 95.347 116.994 93.7538 116.526C92.8544 120.095 91.9293 123.657 91.0288 127.227C90.9923 127.36 90.9296 127.483 90.8859 127.615C88.2392 124.877 85.5519 122.182 82.9099 119.441C81.746 120.622 80.6155 121.839 79.4795 123.049C78.8324 122.393 78.1838 121.739 77.55 121.069C78.6907 119.882 79.7867 118.65 80.9302 117.464C80.6903 117.17 80.4214 116.903 80.1575 116.634C78.9812 117.739 77.9011 118.95 76.7441 120.077C76.7077 120.085 76.6358 120.098 76.5995 120.105C75.9763 119.476 75.3609 118.837 74.7425 118.203C75.9053 117.018 77.0713 115.837 78.2176 114.636Z" fill="white"/>
<defs>
<filter id="filter0_f" x="0" y="0" width="295" height="270" filterUnits="userSpaceOnUse" color-interpolation-filters="sRGB">
<feFlood flood-opacity="0" result="BackgroundImageFix"/>
<feBlend mode="normal" in="SourceGraphic" in2="BackgroundImageFix" result="shape"/>
<feGaussianBlur stdDeviation="25" result="effect1_foregroundBlur"/>
</filter>
<radialGradient id="paint0_radial" cx="0" cy="0" r="1" gradientUnits="userSpaceOnUse" gradientTransform="translate(131.088 68) rotate(63.2443) scale(224.826)">
<stop stop-color="#FBB5FD"/>
<stop offset="1" stop-color="white"/>
</radialGradient>
<radialGradient id="paint1_radial" cx="0" cy="0" r="1" gradientUnits="userSpaceOnUse" gradientTransform="translate(188 135) rotate(81.9016) scale(127.774)">
<stop stop-color="#FBB5FD"/>
<stop offset="1" stop-color="white"/>
</radialGradient>
<radialGradient id="paint2_radial" cx="0" cy="0" r="1" gradientUnits="userSpaceOnUse" gradientTransform="translate(235.5 112.5) rotate(91.1725) scale(156.287)">
<stop stop-color="#FBB5FD"/>
<stop offset="1" stop-color="white"/>
</radialGradient>
<radialGradient id="paint3_radial" cx="0" cy="0" r="1" gradientUnits="userSpaceOnUse" gradientTransform="translate(71.5 135.5) rotate(-50.4038) scale(52.5595)">
<stop stop-color="#DD5ED8"/>
<stop offset="1" stop-color="#FBD7F9"/>
</radialGradient>
<radialGradient id="paint4_radial" cx="0" cy="0" r="1" gradientUnits="userSpaceOnUse" gradientTransform="translate(180.009 86.1364) rotate(-50.4038) scale(20.0682)">
<stop stop-color="#DD5ED8"/>
<stop offset="1" stop-color="#FBD7F9"/>
</radialGradient>
<radialGradient id="paint5_radial" cx="0" cy="0" r="1" gradientUnits="userSpaceOnUse" gradientTransform="translate(184.055 159.818) rotate(-50.4038) scale(15.29)">
<stop stop-color="#DD5ED8"/>
<stop offset="1" stop-color="#FBD7F9"/>
</radialGradient>
<radialGradient id="paint6_radial" cx="0" cy="0" r="1" gradientUnits="userSpaceOnUse" gradientTransform="translate(284.527 150.909) rotate(-50.4038) scale(7.64502)">
<stop stop-color="#DD5ED8"/>
<stop offset="1" stop-color="#FBD7F9"/>
</radialGradient>
<radialGradient id="paint7_radial" cx="0" cy="0" r="1" gradientUnits="userSpaceOnUse" gradientTransform="translate(216.718 162.773) rotate(-50.4038) scale(8.60064)">
<stop stop-color="#DD5ED8"/>
<stop offset="1" stop-color="#FBD7F9"/>
</radialGradient>
<radialGradient id="paint8_radial" cx="0" cy="0" r="1" gradientUnits="userSpaceOnUse" gradientTransform="translate(228.527 294.909) rotate(-50.4038) scale(7.64502)">
<stop stop-color="#DD5ED8"/>
<stop offset="1" stop-color="#FBD7F9"/>
</radialGradient>
<radialGradient id="paint9_radial" cx="0" cy="0" r="1" gradientUnits="userSpaceOnUse" gradientTransform="translate(210.764 319.455) rotate(-50.4038) scale(3.82251)">
<stop stop-color="#DD5ED8"/>
<stop offset="1" stop-color="#FBD7F9"/>
</radialGradient>
<radialGradient id="paint10_radial" cx="0" cy="0" r="1" gradientUnits="userSpaceOnUse" gradientTransform="translate(235.573 203.591) rotate(-50.4038) scale(2.86688)">
<stop stop-color="#DD5ED8"/>
<stop offset="1" stop-color="#FBD7F9"/>
</radialGradient>
<radialGradient id="paint11_radial" cx="0" cy="0" r="1" gradientUnits="userSpaceOnUse" gradientTransform="translate(273.573 275.591) rotate(-50.4038) scale(2.86688)">
<stop stop-color="#DD5ED8"/>
<stop offset="1" stop-color="#FBD7F9"/>
</radialGradient>
</defs>
</svg>
