<svg width="24" height="24" viewBox="0 0 24 24" fill="none" xmlns="http://www.w3.org/2000/svg">
<path d="M22 11.5C22 10.837 21.7366 10.2011 21.2678 9.73225C20.7989 9.26341 20.163 9.00002 19.5 9.00002C18.9551 9.00567 18.4275 9.19209 18 9.53002C16.4535 8.62911 14.7167 8.10496 12.93 8.00002L13.55 4.45002C13.5573 4.3917 13.5858 4.3381 13.6301 4.29939C13.6743 4.26069 13.7312 4.23956 13.79 4.24002H13.86L17 5.20002C17.0466 5.66181 17.2524 6.09301 17.5821 6.41972C17.9117 6.74643 18.3448 6.94832 18.807 6.99077C19.2691 7.03322 19.7317 6.9136 20.1154 6.65241C20.4991 6.39122 20.7799 6.00472 20.9099 5.55915C21.0398 5.11358 21.0108 4.63668 20.8277 4.21019C20.6446 3.78369 20.3189 3.43415 19.9063 3.22148C19.4938 3.0088 19.0201 2.94623 18.5665 3.04448C18.1129 3.14273 17.7076 3.3957 17.42 3.76002L14.26 2.84002C14.1002 2.79649 13.9356 2.77297 13.77 2.77002C13.3586 2.77098 12.9607 2.91686 12.6461 3.18203C12.3316 3.44719 12.1205 3.8147 12.05 4.22002L11.41 8.00002C9.50798 8.05539 7.6493 8.58105 6 9.53002C5.5725 9.19209 5.0449 9.00567 4.5 9.00002C3.96689 8.98737 3.4438 9.14621 3.00773 9.45316C2.57166 9.7601 2.24565 10.1989 2.07769 10.705C1.90973 11.2112 1.90869 11.7578 2.07473 12.2646C2.24076 12.7714 2.5651 13.2114 3 13.52C2.99009 13.6799 2.99009 13.8402 3 14C3 17.31 7 20 12 20C17 20 21 17.31 21 14C21.0099 13.8402 21.0099 13.6799 21 13.52C21.3132 13.2851 21.5669 12.98 21.7406 12.6291C21.9143 12.2783 22.0031 11.8915 22 11.5ZM7 12.5C7 12.2033 7.08798 11.9133 7.2528 11.6667C7.41762 11.42 7.65189 11.2277 7.92598 11.1142C8.20007 11.0007 8.50167 10.971 8.79264 11.0288C9.08361 11.0867 9.35088 11.2296 9.56066 11.4394C9.77044 11.6491 9.9133 11.9164 9.97118 12.2074C10.0291 12.4984 9.99935 12.8 9.88582 13.074C9.77229 13.3481 9.58003 13.5824 9.33336 13.7472C9.08668 13.912 8.79667 14 8.5 14C8.10218 14 7.72065 13.842 7.43934 13.5607C7.15804 13.2794 7 12.8978 7 12.5ZM15.21 16.94C15.1925 17.0076 15.1612 17.0709 15.1182 17.126C15.0752 17.181 15.0214 17.2266 14.96 17.26C14.049 17.7459 13.0324 18 12 18C10.9676 18 9.95098 17.7459 9.04 17.26C8.97864 17.2266 8.92478 17.181 8.88178 17.126C8.83877 17.0709 8.80754 17.0076 8.79 16.94C8.77569 16.8714 8.77539 16.8006 8.78914 16.7318C8.80289 16.6631 8.83039 16.5979 8.87 16.54L9.16 16.13C9.23204 16.0335 9.33713 15.9668 9.45519 15.9429C9.57324 15.9189 9.696 15.9392 9.8 16C10.4863 16.3306 11.2383 16.5022 12 16.5022C12.7617 16.5022 13.5137 16.3306 14.2 16C14.3075 15.9422 14.4326 15.9266 14.551 15.9562C14.6693 15.9858 14.7724 16.0585 14.84 16.16L15.13 16.57C15.2022 16.6789 15.2308 16.811 15.21 16.94ZM15.5 14C15.2033 14 14.9133 13.912 14.6666 13.7472C14.42 13.5824 14.2277 13.3481 14.1142 13.074C14.0007 12.8 13.9709 12.4984 14.0288 12.2074C14.0867 11.9164 14.2296 11.6491 14.4393 11.4394C14.6491 11.2296 14.9164 11.0867 15.2074 11.0288C15.4983 10.971 15.7999 11.0007 16.074 11.1142C16.3481 11.2277 16.5824 11.42 16.7472 11.6667C16.912 11.9133 17 12.2033 17 12.5C17 12.8978 16.842 13.2794 16.5607 13.5607C16.2794 13.842 15.8978 14 15.5 14Z" fill="#4C93C0"/>
</svg>
