<svg width="62" height="64" viewBox="0 0 62 64" fill="none" xmlns="http://www.w3.org/2000/svg">
<circle cx="31" cy="6" r="6" fill="#8ED7FC"/>
<circle cx="48" cy="10" r="6" fill="#8ED7FC"/>
<path d="M7.10424 17.9267C7.62296 15.0737 10.1077 13 13.0075 13H14.9925C17.8923 13 20.377 15.0737 20.8958 17.9267L21.357 20.4633C21.6918 22.3049 20.2771 24 18.4054 24H9.59464C7.72293 24 6.30821 22.3049 6.64303 20.4633L7.10424 17.9267Z" fill="#016A9C"/>
<circle cx="14" cy="10" r="6" fill="#8ED7FC"/>
<path d="M41.1042 17.9267C41.623 15.0737 44.1077 13 47.0075 13H48.9925C51.8923 13 54.377 15.0737 54.8958 17.9267L55.357 20.4633C55.6918 22.3049 54.2771 24 52.4054 24H43.5946C41.7229 24 40.3082 22.3049 40.643 20.4633L41.1042 17.9267Z" fill="#016A9C"/>
<circle cx="48" cy="10" r="6" fill="#8ED7FC"/>
<path d="M24.1042 13.9267C24.623 11.0737 27.1077 9 30.0075 9H31.9925C34.8923 9 37.377 11.0737 37.8958 13.9267L38.357 16.4633C38.6918 18.3049 37.2771 20 35.4054 20H26.5946C24.7229 20 23.3082 18.3049 23.643 16.4633L24.1042 13.9267Z" fill="#00A6FC"/>
<circle cx="31" cy="6" r="6" fill="#8ED7FC"/>
<path d="M0 30C0 28.8954 0.895431 28 2 28H10.0813V51H2C0.895431 51 0 50.1046 0 49V30Z" fill="#016A9C"/>
<path d="M62 30C62 28.8954 61.0973 28 59.9837 28H52V51H59.9837C61.0973 51 62 50.1046 62 49V30Z" fill="#016A9C"/>
<path d="M52 28H38L18 51H52V28Z" fill="#00A6FC"/>
<path d="M10 28H21L44 51H10V28Z" fill="#8ED7FC"/>
<rect x="16" y="28" width="14" height="4" fill="#8ED7FC"/>
<path d="M18.3018 49.3228L30.8748 36.7498L45.125 51L34.6733 61.4517C33.5018 62.6232 31.6023 62.6232 30.4307 61.4517L18.3018 49.3228Z" fill="#8ED7FC"/>
<rect x="24" y="28" width="23" height="12" rx="6" fill="#00A6FC"/>
<rect x="11" y="50.4854" width="12" height="18" rx="2" transform="rotate(-45 11 50.4854)" fill="#00A6FC"/>
</svg>
