<svg width="57" height="57" viewBox="0 0 57 57" fill="none" xmlns="http://www.w3.org/2000/svg">
<path d="M28.5016 56.9996C44.2409 56.9996 57.0001 44.2404 57.0001 28.5012C57.0001 12.7619 44.2409 0.00268555 28.5016 0.00268555C12.7623 0.00268555 0.0030899 12.7619 0.0030899 28.5012C0.0030899 44.2404 12.7623 56.9996 28.5016 56.9996Z" fill="white"/>
<path d="M55.3704 18.9972H37.8108C38.5736 25.0852 38.5781 31.7933 37.8256 37.8889H55.4079C56.4343 34.9482 56.9985 31.7902 56.9985 28.4998C56.999 25.1662 56.4217 21.9694 55.3704 18.9972Z" fill="#2B479D"/>
<path d="M37.8108 18.9972H55.3701C55.3674 18.9882 55.3646 18.9806 55.361 18.9724C51.7139 8.68794 42.3314 1.12127 31.0586 0.116852C35.4214 2.50811 36.6957 10.0843 37.8108 18.9972Z" fill="#FDFDFD"/>
<path d="M31.0595 56.881C42.3525 55.8747 51.748 48.282 55.3812 37.9699C55.3908 37.9425 55.3988 37.9154 55.4087 37.8889H37.8261C36.7195 46.8501 35.4398 54.4797 31.0595 56.881Z" fill="#E63026"/>
<path d="M0 28.4997C0 31.7906 0.565204 34.9481 1.59068 37.8888H39.2926C40.0459 31.7927 40.0405 25.0851 39.2786 18.9971H1.62859C0.577358 21.9694 0 25.1662 0 28.4997Z" fill="#2B479D"/>
<path d="M1.63749 18.9726C1.63484 18.9806 1.63207 18.9883 1.62846 18.9973H39.2786C38.1627 10.0843 35.4212 2.50822 31.059 0.116964C30.2153 0.0422369 29.3621 1.37154e-09 28.4991 1.37154e-09C16.1013 -0.000120332 5.5583 7.91791 1.63749 18.9726Z" fill="white"/>
<path d="M39.2926 37.8888H1.59068C1.60019 37.9154 1.60909 37.9423 1.61812 37.9698C5.52329 49.0527 16.0814 56.9988 28.4991 56.9988C29.3622 56.9988 30.2154 56.9564 31.0591 56.8808C35.4398 54.4797 38.186 46.8501 39.2926 37.8888Z" fill="#E63026"/>
</svg>
