<svg width="44" height="44" viewBox="0 0 44 44" fill="none" xmlns="http://www.w3.org/2000/svg">
<path d="M16.5 22L20.1667 25.6667L27.5 18.3333" stroke="white" stroke-width="2.75" stroke-linecap="round" stroke-linejoin="round"/>
<path d="M22 5.5C26.2823 9.28872 31.8715 11.2614 37.5833 11C38.4149 13.8289 38.6694 16.796 38.3315 19.7252C37.9937 22.6543 37.0706 25.4857 35.6169 28.051C34.1632 30.6163 32.2087 32.8632 29.8695 34.6582C27.5303 36.4532 24.8541 37.7597 22 38.5C19.1459 37.7597 16.4697 36.4532 14.1305 34.6582C11.7913 32.8632 9.83675 30.6163 8.38307 28.051C6.9294 25.4857 6.00623 22.6543 5.66842 19.7252C5.33061 16.796 5.58506 13.8289 6.41665 11C12.1284 11.2614 17.7176 9.28872 22 5.5" stroke="white" stroke-width="2.75" stroke-linecap="round" stroke-linejoin="round"/>
</svg>
