<svg width="24" height="24" viewBox="0 0 24 24" fill="none" xmlns="http://www.w3.org/2000/svg">
<path d="M20.91 13.2201C20.9656 12.8157 20.9956 12.4083 21 12.0001C21 9.61317 20.0518 7.32399 18.364 5.63616C16.6761 3.94833 14.3869 3.00012 12 3.00012C11.5918 3.0045 11.1844 3.03456 10.78 3.09012C9.72061 2.31008 8.41671 1.93561 7.10485 2.03466C5.793 2.13371 4.5601 2.6997 3.62984 3.62996C2.69958 4.56022 2.13358 5.79312 2.03454 7.10497C1.93549 8.41683 2.30996 9.72073 3.09 10.7801C3.03444 11.1845 3.00438 11.592 3 12.0001C3 14.3871 3.94821 16.6763 5.63604 18.3641C7.32386 20.0519 9.61305 21.0001 12 21.0001C12.4081 20.9957 12.8156 20.9657 13.22 20.9101C14.2794 21.6902 15.5833 22.0646 16.8951 21.9656C18.207 21.8665 19.4399 21.3005 20.3702 20.3703C21.3004 19.44 21.8664 18.2071 21.9655 16.8953C22.0645 15.5834 21.69 14.2795 20.91 13.2201ZM16.4 16.2201C15.9643 16.8194 15.363 17.2782 14.67 17.5401C13.8201 17.8718 12.9119 18.0283 12 18.0001C10.9622 18.0284 9.93299 17.8054 9 17.3501C8.43645 17.0522 7.95546 16.6193 7.6 16.0901C7.24123 15.646 7.03131 15.1002 7 14.5301C6.99865 14.3772 7.03008 14.2258 7.09218 14.0861C7.15428 13.9464 7.2456 13.8216 7.36 13.7201C7.47762 13.6062 7.61714 13.5173 7.77013 13.4588C7.92311 13.4004 8.08636 13.3736 8.25 13.3801C8.52481 13.3742 8.79205 13.4704 9 13.6501C9.22031 13.8559 9.39124 14.1089 9.5 14.3901C9.62548 14.6999 9.79015 14.9923 9.99 15.2601C10.1739 15.5054 10.4186 15.6985 10.7 15.8201C11.0914 15.9871 11.5148 16.0657 11.94 16.0501C12.5467 16.0744 13.1464 15.914 13.66 15.5901C13.8498 15.4829 14.008 15.3275 14.1186 15.1397C14.2292 14.9518 14.2883 14.7381 14.29 14.5201C14.3011 14.3708 14.2811 14.2208 14.2312 14.0796C14.1813 13.9385 14.1025 13.8092 14 13.7001C13.7387 13.4641 13.4277 13.2898 13.09 13.1901C12.6967 13.0701 12.1767 12.9401 11.53 12.8001C10.763 12.647 10.0127 12.4192 9.29 12.1201C8.70226 11.8815 8.18573 11.4959 7.79 11.0001C7.41039 10.5048 7.21267 9.89395 7.23 9.27012C7.22561 8.63888 7.42947 8.02379 7.81 7.52012C8.24737 6.99853 8.8226 6.61043 9.47 6.40012C10.2818 6.11342 11.1393 5.97785 12 6.00012C12.6766 5.98642 13.3512 6.0775 14 6.27012C14.4985 6.42512 14.9633 6.67278 15.37 7.00012C15.7126 7.24844 15.996 7.56944 16.2 7.94012C16.3763 8.24396 16.4694 8.58886 16.47 8.94012C16.4598 9.26123 16.3263 9.56606 16.0972 9.79137C15.8682 10.0167 15.5612 10.1451 15.24 10.1501C15.1085 10.1602 14.9763 10.1442 14.851 10.103C14.7257 10.0618 14.6098 9.99628 14.51 9.91012C14.3001 9.70106 14.1276 9.45752 14 9.19012C13.8196 8.80447 13.5567 8.46311 13.23 8.19012C12.8031 7.93366 12.3062 7.81819 11.81 7.86012C11.2909 7.83392 10.7757 7.96271 10.33 8.23012C10.1789 8.31011 10.0509 8.42749 9.95812 8.57104C9.86533 8.7146 9.81089 8.87954 9.8 9.05012C9.79481 9.25213 9.86626 9.44863 10 9.60012C10.1399 9.7654 10.3138 9.89845 10.51 9.99012C10.7314 10.1007 10.9624 10.191 11.2 10.2601L12.38 10.5501C13.0152 10.6828 13.6428 10.8497 14.26 11.0501C14.7745 11.207 15.2656 11.4324 15.72 11.7201C16.1283 11.969 16.4711 12.3119 16.72 12.7201C16.9439 13.2045 17.0403 13.738 17 14.2701C17.0075 14.9605 16.7975 15.6357 16.4 16.2001V16.2201Z" fill="#1292EF"/>
</svg>
