<svg width="78" height="82" viewBox="0 0 78 82" fill="none" xmlns="http://www.w3.org/2000/svg">
<circle cx="33.5" cy="31.5" r="31.5" fill="#EBF8FF"/>
<path d="M59.5 53.5L64 51V75L55 80L45.5 81H36.5L26 78L23 74.5V50L27 53L39.5 56H48.5L59.5 53.5Z" fill="#FFEC95"/>
<path d="M64 74C64 78 53.5 81 43.5 81C33.5 81 23 78 23 74" stroke="#4C251E" stroke-width="2"/>
<path d="M64 66C64 70 53.5 73 43.5 73C33.5 73 23 70 23 66" stroke="#4C251E" stroke-width="2"/>
<path d="M64 58C64 62 53.5 65 43.5 65C33.5 65 23 62 23 58" stroke="#4C251E" stroke-width="2"/>
<path d="M64 49C64 49.7128 63.6153 50.5139 62.6499 51.3631C61.6862 52.2109 60.2343 53.02 58.3541 53.7196C54.6011 55.1161 49.3496 56 43.5 56C37.6504 56 32.3989 55.1161 28.6459 53.7196C26.7657 53.02 25.3138 52.2109 24.3501 51.3631C23.3847 50.5139 23 49.7128 23 49C23 48.2872 23.3847 47.4861 24.3501 46.6369C25.3138 45.7891 26.7657 44.98 28.6459 44.2804C32.3989 42.8839 37.6504 42 43.5 42C49.3496 42 54.6011 42.8839 58.3541 44.2804C60.2343 44.98 61.6862 45.7891 62.6499 46.6369C63.6153 47.4861 64 48.2872 64 49Z" fill="#FFCE56" stroke="#4C251E" stroke-width="2"/>
<rect x="63.5" y="49.5" width="1" height="24" fill="#4C241D" stroke="#4C251E"/>
<rect x="22.5" y="49.5" width="1" height="24" fill="#4C241D" stroke="#4C251E"/>
<circle cx="28" cy="40" r="24" fill="#FFCE56" stroke="#4C251E" stroke-width="2"/>
<path d="M33.886 43.821C33.886 44.941 33.494 45.886 32.71 46.656C31.94 47.426 30.897 47.909 29.581 48.105V49.428C29.581 49.75 29.483 50.009 29.287 50.205C29.091 50.415 28.832 50.52 28.51 50.52C28.188 50.52 27.929 50.415 27.733 50.205C27.537 50.009 27.439 49.75 27.439 49.428V48.147C26.641 48.077 25.864 47.909 25.108 47.643C24.352 47.377 23.701 47.027 23.155 46.593C22.973 46.467 22.847 46.327 22.777 46.173C22.707 46.019 22.672 45.83 22.672 45.606C22.672 45.312 22.756 45.053 22.924 44.829C23.106 44.605 23.309 44.493 23.533 44.493C23.673 44.493 23.799 44.521 23.911 44.577C24.037 44.619 24.198 44.696 24.394 44.808C25.038 45.228 25.668 45.536 26.284 45.732C26.914 45.928 27.572 46.026 28.258 46.026C29.196 46.026 29.917 45.844 30.421 45.48C30.939 45.116 31.198 44.591 31.198 43.905C31.198 43.499 31.058 43.17 30.778 42.918C30.498 42.666 30.148 42.47 29.728 42.33C29.308 42.176 28.72 42.001 27.964 41.805C26.914 41.539 26.06 41.273 25.402 41.007C24.744 40.727 24.177 40.307 23.701 39.747C23.225 39.187 22.987 38.431 22.987 37.479C22.987 36.345 23.393 35.379 24.205 34.581C25.017 33.783 26.081 33.286 27.397 33.09V31.767C27.397 31.445 27.495 31.186 27.691 30.99C27.887 30.78 28.146 30.675 28.468 30.675C28.79 30.675 29.049 30.78 29.245 30.99C29.441 31.186 29.539 31.445 29.539 31.767V33.069C30.953 33.251 32.171 33.762 33.193 34.602C33.529 34.854 33.697 35.183 33.697 35.589C33.697 35.883 33.606 36.142 33.424 36.366C33.256 36.59 33.053 36.702 32.815 36.702C32.689 36.702 32.563 36.681 32.437 36.639C32.325 36.597 32.171 36.513 31.975 36.387C31.401 35.981 30.855 35.68 30.337 35.484C29.833 35.274 29.231 35.169 28.531 35.169C27.663 35.169 26.97 35.365 26.452 35.757C25.934 36.135 25.675 36.66 25.675 37.332C25.675 37.794 25.822 38.172 26.116 38.466C26.41 38.746 26.781 38.963 27.229 39.117C27.677 39.271 28.286 39.446 29.056 39.642C30.078 39.894 30.911 40.153 31.555 40.419C32.199 40.685 32.745 41.091 33.193 41.637C33.655 42.169 33.886 42.897 33.886 43.821Z" fill="#4C251E"/>
<circle cx="28" cy="40" r="18" stroke="#4C251E" stroke-width="2"/>
<circle cx="4" cy="19" r="3" stroke="#4C251E" stroke-width="2"/>
<circle cx="60.5" cy="28.5" r="3.5" stroke="#4C251E" stroke-width="2"/>
<rect x="39.6572" y="6" width="2" height="8" rx="1" transform="rotate(45 39.6572 6)" fill="#4C251E"/>
<rect x="41.0713" y="11.6569" width="2" height="8" rx="1" transform="rotate(135 41.0713 11.6569)" fill="#4C251E"/>
<rect x="10.6572" y="72" width="2" height="8" rx="1" transform="rotate(45 10.6572 72)" fill="#4C251E"/>
<rect x="12.0713" y="77.6569" width="2" height="8" rx="1" transform="rotate(135 12.0713 77.6569)" fill="#4C251E"/>
<rect x="75.6572" y="35" width="2" height="8" rx="1" transform="rotate(45 75.6572 35)" fill="#4C251E"/>
<rect x="77.0713" y="40.6569" width="2" height="8" rx="1" transform="rotate(135 77.0713 40.6569)" fill="#4C251E"/>
<rect x="9" y="7" width="3" height="3" rx="1.5" fill="#4C251E"/>
<rect x="2" y="61" width="3" height="3" rx="1.5" fill="#4C251E"/>
</svg>
