<svg width="20" height="20" viewBox="0 0 20 20" fill="none" xmlns="http://www.w3.org/2000/svg">
<path opacity="0.4" d="M14.3403 -0.000244141H5.67031C2.28031 -0.000244141 0.000305176 2.37976 0.000305176 5.91976V14.0898C0.000305176 17.6198 2.28031 19.9998 5.67031 19.9998H14.3403C17.7303 19.9998 20.0003 17.6198 20.0003 14.0898V5.91976C20.0003 2.37976 17.7303 -0.000244141 14.3403 -0.000244141Z" fill="#1E2329"/>
<path d="M8.81338 13.2478C8.58938 13.2478 8.36538 13.1628 8.19438 12.9918L5.82138 10.6188C5.47938 10.2768 5.47938 9.72284 5.82138 9.38184C6.16338 9.03984 6.71638 9.03884 7.05838 9.38084L8.81338 11.1358L12.9414 7.00784C13.2834 6.66584 13.8364 6.66584 14.1784 7.00784C14.5204 7.34984 14.5204 7.90384 14.1784 8.24584L9.43238 12.9918C9.26138 13.1628 9.03738 13.2478 8.81338 13.2478Z" fill="#1E2329"/>
</svg>
