<svg width="24" height="24" viewBox="0 0 24 24" fill="none" xmlns="http://www.w3.org/2000/svg">
<path fill-rule="evenodd" clip-rule="evenodd" d="M22 6.45006C21.4832 7.13912 20.8585 7.74019 20.15 8.23006C20.15 8.41006 20.15 8.59006 20.15 8.78006C20.1528 10.3983 19.8337 12.0009 19.2111 13.4946C18.5886 14.9882 17.6752 16.3432 16.5239 17.4804C15.3727 18.6177 14.0068 19.5145 12.5056 20.1188C11.0044 20.723 9.39806 21.0226 7.78 21.0001C5.89043 21.0064 4.02506 20.5751 2.33 19.7401C2.28528 19.7205 2.24725 19.6884 2.2206 19.6475C2.19394 19.6066 2.17983 19.5589 2.18 19.5101V19.4001C2.18 19.3311 2.2074 19.265 2.25616 19.2162C2.30491 19.1675 2.37105 19.1401 2.44 19.1401C4.29741 19.0789 6.08855 18.4352 7.56 17.3001C6.73621 17.2835 5.93389 17.0343 5.2456 16.5814C4.55731 16.1284 4.01111 15.4901 3.67 14.7401C3.65271 14.6989 3.64629 14.6541 3.65135 14.6098C3.65641 14.5655 3.67278 14.5232 3.69889 14.487C3.72501 14.4509 3.75998 14.422 3.80045 14.4033C3.84093 14.3846 3.88554 14.3766 3.93 14.3801C4.44096 14.4314 4.95702 14.3839 5.45 14.2401C4.54548 14.0524 3.72394 13.5823 3.10388 12.8975C2.48381 12.2127 2.09727 11.3487 2 10.4301C1.99652 10.3856 2.00452 10.341 2.02326 10.3005C2.04199 10.26 2.07082 10.2251 2.10698 10.1989C2.14313 10.1728 2.1854 10.1565 2.22971 10.1514C2.27402 10.1463 2.31889 10.1528 2.36 10.1701C2.85805 10.3897 3.39569 10.5054 3.94 10.5101C3.14923 9.99128 2.55255 9.22519 2.24318 8.33146C1.93381 7.43773 1.92918 6.4667 2.23 5.57006C2.26139 5.48198 2.31512 5.40356 2.38591 5.34248C2.45671 5.2814 2.54215 5.23975 2.63388 5.22161C2.72561 5.20346 2.82047 5.20945 2.90919 5.23898C2.99791 5.26851 3.07744 5.32057 3.14 5.39006C5.33449 7.72454 8.34974 9.11564 11.55 9.27006C11.468 8.94311 11.4277 8.60712 11.43 8.27006C11.4446 7.40591 11.7158 6.5656 12.209 5.85586C12.7022 5.14612 13.3952 4.59897 14.2 4.28391C15.0048 3.96885 15.8851 3.90008 16.729 4.08635C17.573 4.27262 18.3426 4.70551 18.94 5.33006C19.7729 5.17147 20.5781 4.89184 21.33 4.50006C21.357 4.48321 21.3882 4.47428 21.42 4.47428C21.4518 4.47428 21.483 4.48321 21.51 4.50006C21.5268 4.52706 21.5358 4.55824 21.5358 4.59006C21.5358 4.62188 21.5268 4.65306 21.51 4.68006C21.1458 5.51366 20.5305 6.21283 19.75 6.68006C20.4335 6.60083 21.105 6.43968 21.75 6.20006C21.7765 6.182 21.8079 6.17235 21.84 6.17235C21.8721 6.17235 21.9035 6.182 21.93 6.20006C21.9525 6.21034 21.9724 6.22539 21.9885 6.24418C22.0046 6.26296 22.0163 6.28502 22.023 6.30882C22.0297 6.33262 22.0311 6.35758 22.0271 6.38198C22.0231 6.40637 22.0139 6.4296 22 6.45006Z" fill="#4C93C0"/>
</svg>
