<svg width="24" height="24" viewBox="0 0 24 24" fill="none" xmlns="http://www.w3.org/2000/svg">
<path d="M12 2C5.37 2 3 4.24 3 10.5C3 14.81 4.13 17.22 7 18.3V21.5C7 21.6326 7.05268 21.7598 7.14645 21.8536C7.24021 21.9473 7.36739 22 7.5 22H7.81C7.93201 21.9975 8.0491 21.9514 8.14 21.87L11.34 19H12C18.63 19 21 16.76 21 10.5C21 4.24 18.63 2 12 2ZM11.75 8.56C11.7488 8.48464 11.7654 8.41007 11.7984 8.34231C11.8314 8.27456 11.8799 8.21553 11.94 8.17C11.9965 8.12024 12.0643 8.0851 12.1375 8.06767C12.2108 8.05023 12.2872 8.05103 12.36 8.07C12.8655 8.184 13.3282 8.43899 13.6946 8.80538C14.061 9.17177 14.316 9.63454 14.43 10.14C14.449 10.2128 14.4498 10.2892 14.4323 10.3625C14.4149 10.4357 14.3798 10.5035 14.33 10.56C14.2845 10.6201 14.2254 10.6686 14.1577 10.7016C14.0899 10.7346 14.0154 10.7512 13.94 10.75H13.43C13.3218 10.75 13.2165 10.7149 13.13 10.65C13.0435 10.5851 12.9803 10.4939 12.95 10.39C12.8899 10.1917 12.7817 10.0113 12.6352 9.86479C12.4887 9.71827 12.3083 9.61015 12.11 9.55C12.0061 9.51971 11.9149 9.45655 11.85 9.37C11.7851 9.28345 11.75 9.17818 11.75 9.07V8.56ZM15.43 14.56C15.1923 14.935 14.8424 15.2254 14.43 15.39C14.2863 15.4519 14.1315 15.4838 13.975 15.4838C13.8185 15.4838 13.6637 15.4519 13.52 15.39C11.0523 14.4041 9.00745 12.5856 7.74 10.25C7.48789 9.74284 7.26421 9.22203 7.07 8.69C7.03696 8.57549 7.01355 8.45841 7 8.34C7.01466 7.97968 7.15451 7.63575 7.39544 7.36744C7.63638 7.09912 7.96333 6.92321 8.32 6.87H8.51C8.69293 6.88028 8.8664 6.95462 9 7.08C9.51097 7.56628 9.92794 8.14257 10.23 8.78C10.2947 8.89991 10.3152 9.03879 10.2878 9.17228C10.2603 9.30576 10.1868 9.42533 10.08 9.51L9.93 9.64C9.81679 9.6949 9.71701 9.77397 9.63769 9.87163C9.55837 9.96929 9.50144 10.0832 9.47093 10.2052C9.44041 10.3273 9.43705 10.4546 9.46108 10.5781C9.48511 10.7016 9.53595 10.8183 9.61 10.92C10.0672 11.875 10.8721 12.6191 11.86 13C11.9825 13.0564 12.1201 13.0712 12.2518 13.0423C12.3836 13.0135 12.5023 12.9424 12.59 12.84L12.66 12.75C13.06 12.08 13.66 12.15 14.18 12.53L15.18 13.3C15.75 13.7 15.75 14.06 15.43 14.59V14.56ZM16.85 10.56C16.8026 10.614 16.7441 10.6571 16.6785 10.6864C16.613 10.7158 16.5418 10.7306 16.47 10.73H16C15.8778 10.7288 15.76 10.6837 15.6683 10.6029C15.5765 10.5221 15.5168 10.4111 15.5 10.29C15.403 9.44759 15.0225 8.66317 14.4211 8.06538C13.8197 7.46759 13.033 7.09192 12.19 7C12.0689 6.98323 11.9579 6.92352 11.8771 6.83174C11.7963 6.73997 11.7512 6.62224 11.75 6.5V6C11.7494 5.92817 11.7642 5.85704 11.7936 5.79147C11.8229 5.72589 11.866 5.66741 11.92 5.62C11.9707 5.57338 12.031 5.53847 12.0967 5.51773C12.1623 5.497 12.2317 5.49094 12.3 5.5C13.5047 5.62269 14.6302 6.15729 15.4864 7.01355C16.3427 7.86981 16.8773 8.99529 17 10.2C17.0052 10.2705 16.9944 10.3414 16.9684 10.4072C16.9425 10.4729 16.902 10.532 16.85 10.58V10.56Z" fill="#BA72E6"/>
</svg>
