<svg width="24" height="24" viewBox="0 0 24 24" fill="none" xmlns="http://www.w3.org/2000/svg">
<path d="M22 17.43C22.0189 17.496 22.0224 17.5655 22.0102 17.6331C21.9981 17.7007 21.9707 17.7646 21.93 17.82C21.8896 17.8751 21.837 17.92 21.7762 17.9513C21.7155 17.9825 21.6483 17.9992 21.58 18H18.58C18.3964 18.0003 18.2162 17.9501 18.0592 17.8549C17.9022 17.7596 17.7745 17.623 17.69 17.4599C17.2968 16.6804 16.7914 15.9628 16.19 15.33C16.0889 15.2225 15.9663 15.1376 15.8302 15.0808C15.694 15.0239 15.5475 14.9964 15.4 15H15C14.8679 14.9957 14.7364 15.0193 14.6141 15.0692C14.4917 15.1192 14.3813 15.1944 14.29 15.29C14.1973 15.3834 14.124 15.4942 14.0742 15.616C14.0245 15.7379 13.9992 15.8683 14 16V17C14 17.2652 13.8946 17.5195 13.7071 17.7071C13.5196 17.8946 13.2652 18 13 18H11.94C6.73 18 2.42 8.83995 2 7.60995C1.97057 7.54034 1.95956 7.46432 1.96803 7.38922C1.97651 7.31412 2.00419 7.24247 2.0484 7.18117C2.09262 7.11988 2.15187 7.071 2.22046 7.03926C2.28905 7.00752 2.36466 6.99398 2.44 6.99995H5.44C5.62467 7.00051 5.80558 7.05219 5.96267 7.14927C6.11976 7.24635 6.2469 7.38504 6.33 7.54995C7.00824 8.82133 7.78389 10.0383 8.65 11.1899C8.74445 11.3159 8.87612 11.4089 9.02638 11.4558C9.17663 11.5028 9.33784 11.5012 9.48717 11.4515C9.63651 11.4017 9.76639 11.3062 9.85843 11.1785C9.95047 11.0508 10 10.8974 10 10.74V8.46995C9.99387 8.19037 9.91022 7.91798 9.75837 7.68315C9.60652 7.44831 9.39245 7.26026 9.14 7.13995C9.10656 7.12032 9.07792 7.09346 9.0562 7.06134C9.03448 7.02921 9.02022 6.99263 9.01447 6.95428C9.00872 6.91593 9.01162 6.87678 9.02296 6.83969C9.0343 6.80261 9.05379 6.76853 9.08 6.73995C9.68983 6.21769 10.4785 5.95241 11.28 5.99995H12.5C12.8978 5.99995 13.2794 6.15799 13.5607 6.43929C13.842 6.72059 14 7.10213 14 7.49995V9.99995C14 10.2652 14.1054 10.5195 14.2929 10.7071C14.4804 10.8946 14.7348 11 15 11C15.162 11.0024 15.3222 10.9655 15.4668 10.8923C15.6114 10.8192 15.736 10.712 15.83 10.58C16.5199 9.62896 17.1351 8.62596 17.67 7.57995C17.7539 7.41351 17.8826 7.27383 18.0416 7.17664C18.2006 7.07946 18.3836 7.02865 18.57 7.02995H21.57C21.6339 7.03027 21.6969 7.04554 21.7539 7.07453C21.8109 7.10353 21.8603 7.14545 21.8982 7.19695C21.9361 7.24844 21.9614 7.30809 21.9721 7.37112C21.9829 7.43415 21.9787 7.49881 21.96 7.55995C21.3422 9.22564 20.5192 10.8078 19.51 12.27C19.421 12.4062 19.3788 12.5676 19.3896 12.73C19.4004 12.8923 19.4637 13.0467 19.57 13.17C20.6214 14.4119 21.4441 15.8306 22 17.36V17.43Z" fill="#4C93C0"/>
</svg>
