<svg width="1400" height="743" viewBox="0 0 1400 743" fill="none" xmlns="http://www.w3.org/2000/svg">
<g clip-path="url(#clip0)">
<path opacity="0.2" d="M1418.84 -0.000194343L1410.11 3.64099C1410.11 3.64099 1140 296 740.5 397.5C341 499 -59.5 363.496 -59.5 363.496L-25.0597 554.725C-25.0597 554.725 462.628 602.696 752.709 573.763C1034.77 545.63 1325.47 451.985 1436.29 412.039L1418.84 -0.000194343Z" fill="#1CB9DC"/>
<path opacity="0.2" d="M1419.5 39.9994L1410.77 43.6406C1410.77 43.6406 1140.16 458.499 740.656 559.999C341.156 661.499 -59.3439 525.996 -59.3439 525.996L-41 569.999C-41 569.999 443.135 693.499 754.5 693.499C1037.96 693.499 1332.18 647.445 1443 607.499L1419.5 39.9994Z" fill="#1CB9DC"/>
<path d="M1417.6 163.502L1408.97 166.499C1408.97 166.499 1015.87 442.177 740.085 500.999C464.302 559.822 -10 510.746 -10 510.746V565.999C-10 565.999 458.124 657.124 740.085 657.124C1139.5 657.124 1352 534.499 1408.97 500.999L1417.6 163.502Z" fill="url(#paint0_radial)"/>
</g>
<defs>
<radialGradient id="paint0_radial" cx="0" cy="0" r="1" gradientUnits="userSpaceOnUse" gradientTransform="translate(766 320.499) rotate(25.8479) scale(803.929 2325.03)">
<stop stop-color="#277AAF"/>
<stop offset="1" stop-color="#1191E2"/>
</radialGradient>
<clipPath id="clip0">
<rect width="1400" height="743" fill="white"/>
</clipPath>
</defs>
</svg>
