<svg width="24" height="24" viewBox="0 0 24 24" fill="none" xmlns="http://www.w3.org/2000/svg">
<path d="M12 2.00004C10.1579 2.00061 8.35179 2.50999 6.78084 3.47198C5.2099 4.43396 3.9352 5.81118 3.09735 7.4517C2.25951 9.09222 1.89109 10.9323 2.03272 12.7689C2.17435 14.6056 2.82054 16.3674 3.90001 17.86L3.00001 20.6C2.96969 20.6877 2.96488 20.7821 2.98612 20.8724C3.00736 20.9627 3.05379 21.0451 3.12001 21.11V21.11C3.18516 21.176 3.26708 21.223 3.35694 21.2459C3.4468 21.2688 3.54121 21.2668 3.63001 21.24L6.48001 20.32C7.77983 21.1867 9.26464 21.7368 10.8154 21.9262C12.3661 22.1156 13.9397 21.9391 15.4099 21.4107C16.8801 20.8823 18.2061 20.0168 19.2815 18.8835C20.3569 17.7503 21.1518 16.3808 21.6025 14.885C22.0532 13.3891 22.1472 11.8085 21.8769 10.2698C21.6066 8.73106 20.9795 7.27708 20.046 6.0244C19.1124 4.77173 17.8983 3.75521 16.5011 3.05635C15.1038 2.35748 13.5623 1.99571 12 2.00004V2.00004ZM17.82 16.12C17.6145 16.4907 17.3279 16.81 16.9816 17.0542C16.6352 17.2984 16.2381 17.461 15.82 17.53C15.3 17.64 14.61 17.73 12.32 16.78C10.2841 15.7955 8.55539 14.2742 7.32001 12.38C6.64211 11.5159 6.22881 10.4739 6.13001 9.38004C6.11441 8.92571 6.19549 8.47325 6.36789 8.05261C6.54028 7.63197 6.80005 7.25275 7.13001 6.94004C7.40775 6.70119 7.76375 6.57303 8.13001 6.58004H8.46001C8.75001 6.58004 8.90001 6.58004 9.10001 7.07004C9.30001 7.56004 9.92001 9.07004 9.99001 9.23004C10.0425 9.30881 10.0746 9.39943 10.0833 9.49371C10.0921 9.58799 10.0772 9.68296 10.04 9.77004C9.95426 9.93939 9.84296 10.0945 9.71001 10.23C9.57001 10.4 9.42001 10.53 9.28001 10.71C9.18394 10.7803 9.11813 10.8845 9.09586 11.0014C9.07359 11.1183 9.09651 11.2394 9.16001 11.34C9.60071 12.0814 10.1464 12.755 10.78 13.34C11.4646 13.9677 12.262 14.4597 13.13 14.79C13.2439 14.8454 13.3721 14.8646 13.4973 14.8449C13.6224 14.8252 13.7385 14.7677 13.83 14.68C14.1109 14.3635 14.3714 14.0295 14.61 13.68C14.6828 13.5622 14.7967 13.4755 14.9297 13.4367C15.0626 13.3979 15.2053 13.4098 15.33 13.47C15.6 13.56 17.03 14.27 17.33 14.41C17.63 14.55 17.82 14.63 17.89 14.75C17.9949 15.2043 17.9706 15.6788 17.82 16.12V16.12Z" fill="#2DB321"/>
</svg>
