<svg width="24" height="24" viewBox="0 0 24 24" fill="none" xmlns="http://www.w3.org/2000/svg">
<path d="M20 4.49005L18.54 4.34005C14.1716 3.89007 9.76844 3.89007 5.39999 4.34005L3.99999 4.49005C3.16575 4.58434 2.39645 4.98573 1.8419 5.61607C1.28734 6.24642 0.987231 7.06058 0.999994 7.90005V16.1C0.987231 16.9395 1.28734 17.7537 1.8419 18.384C2.39645 19.0144 3.16575 19.4158 3.99999 19.51L5.45999 19.66C9.82844 20.11 14.2316 20.11 18.6 19.66L20 19.51C20.8342 19.4158 21.6035 19.0144 22.1581 18.384C22.7126 17.7537 23.0128 16.9395 23 16.1V7.90005C23.0128 7.06058 22.7126 6.24642 22.1581 5.61607C21.6035 4.98573 20.8342 4.58434 20 4.49005ZM15 12.62L11.11 15.22C10.9986 15.2812 10.8734 15.3131 10.7463 15.3126C10.6192 15.3121 10.4943 15.2794 10.3833 15.2174C10.2724 15.1554 10.179 15.0662 10.1119 14.9582C10.0448 14.8503 10.0063 14.727 9.99999 14.6V9.40005C10.0002 9.26401 10.0375 9.1306 10.1077 9.0141C10.178 8.8976 10.2786 8.80241 10.3988 8.73871C10.519 8.67501 10.6543 8.64521 10.7901 8.65249C10.926 8.65977 11.0573 8.70386 11.17 8.78005L15.06 11.38C15.1632 11.4473 15.2479 11.5392 15.3066 11.6474C15.3653 11.7557 15.396 11.8769 15.396 12C15.396 12.1232 15.3653 12.2444 15.3066 12.3526C15.2479 12.4609 15.1632 12.5528 15.06 12.62H15Z" fill="#4C93C0"/>
</svg>
