<svg width="24" height="24" viewBox="0 0 24 24" fill="none" xmlns="http://www.w3.org/2000/svg">
<path d="M20.707 14.293L6.707 0.293C6.526 0.112 6.276 0 6 0C5.448 0 5 0.447 5 1V20C5 20.553 5.448 21 6 21C6.188 21 6.355 20.934 6.506 20.843L10.589 18.413L13.106 23.447C13.106 23.447 13.262 24 14.001 24C14.207 24 14.387 23.923 14.545 23.816L17.545 21.816C17.813 21.638 18 21.347 18 21C18 20.839 17.953 20.692 17.885 20.558L15.618 16H20C20.552 16 21 15.553 21 15C21 14.454 20.707 14.293 20.707 14.293ZM14 14C13.448 14 13 14.447 13 15C13 15.161 13.047 15.308 13.115 15.442L15.711 20.657L14.388 21.54L11.895 16.553C11.895 16.553 11.739 16 11 16C10.624 16 10.485 16.143 10.485 16.143L7 18.233V3.414L17.586 14H14Z" fill="#73DFE7"/>
</svg>
