<svg width="24" height="24" viewBox="0 0 24 24" fill="none" xmlns="http://www.w3.org/2000/svg">
<path d="M10 6H14C14.553 6 15 5.553 15 5C15 4.447 14.553 4 14 4H10C9.447 4 9 4.447 9 5C9 5.553 9.447 6 10 6ZM13 12H8C7.447 12 7 12.447 7 13C7 13.553 7.447 14 8 14H13C13.553 14 14 13.553 14 13C14 12.447 13.553 12 13 12ZM7 9C7 9.553 7.447 10 8 10H16C16.553 10 17 9.553 17 9C17 8.447 16.553 8 16 8H8C7.447 8 7 8.447 7 9ZM20.707 4.293L16.707 0.293C16.525 0.112 16.275 0 16 0H4C3.447 0 3 0.447 3 1V21C3 21.499 3.514 22 4 22H15V23C15 23.553 15.447 24 16 24C16.275 24 16.525 23.889 16.707 23.707L18 22.414L19.293 23.707C19.475 23.889 19.725 24 20 24C20.553 24 21 23.553 21 23V5C21 4.454 20.707 4.293 20.707 4.293ZM18 19C17.447 19 17 18.553 17 18C17 17.447 17.447 17 18 17C18.553 17 19 17.447 19 18C19 18.553 18.553 19 18 19ZM19 15.184C18.686 15.072 18.354 15 18 15C16.343 15 15 16.343 15 18V20H5V2H15.586L19 5.414V15.184Z" fill="#73DFE7"/>
</svg>
