<svg width="24" height="24" viewBox="0 0 24 24" fill="none" xmlns="http://www.w3.org/2000/svg">
<path d="M13 14C12.447 14 12 14.447 12 15V23C12 23.553 12.447 24 13 24C13.553 24 14 23.553 14 23V15C14 14.447 13.553 14 13 14ZM1 16C0.447 16 0 16.447 0 17V23C0 23.553 0.447 24 1 24C1.553 24 2 23.553 2 23V17C2 16.447 1.553 16 1 16ZM5 13C4.447 13 4 13.447 4 14V23C4 23.553 4.447 24 5 24C5.553 24 6 23.553 6 23V14C6 13.447 5.553 13 5 13ZM9 11C8.447 11 8 11.447 8 12V23C8 23.553 8.447 24 9 24C9.553 24 10 23.553 10 23V12C10 11.447 9.553 11 9 11ZM23 0H19C18.447 0 18 0.447 18 1C18 1.553 18.447 2 19 2H20.595L13.004 9.59L8.707 5.293C8.526 5.112 8.276 5 8 5C7.724 5 7.474 5.112 7.293 5.293L0.293 12.293C0.112 12.474 0 12.724 0 13C0 13.553 0.447 14 1 14C1.276 14 1.526 13.888 1.707 13.707L8 7.414L12.293 11.707C12.474 11.888 12.724 12 13 12C13.236 12 13.444 11.906 13.615 11.769L13.625 11.782L13.681 11.725C13.697 11.71 13.71 11.697 13.725 11.681L22 3.405V5C22 5.553 22.447 6 23 6C23.553 6 24 5.553 24 5V1C24 0.447 23.553 0 23 0ZM21 7C20.447 7 20 7.447 20 8V23C20 23.553 20.447 24 21 24C21.553 24 22 23.553 22 23V8C22 7.447 21.553 7 21 7ZM17 11C16.447 11 16 11.447 16 12V23C16 23.553 16.447 24 17 24C17.553 24 18 23.553 18 23V12C18 11.447 17.553 11 17 11Z" fill="#73DFE7"/>
</svg>
