<svg width="24" height="24" viewBox="0 0 24 24" fill="none" xmlns="http://www.w3.org/2000/svg">
<path d="M12 8C14.209 8 16 6.209 16 4C16 1.791 14.209 0 12 0C9.791 0 8 1.791 8 4C8 6.209 9.791 8 12 8ZM12 2C13.104 2 14 2.896 14 4C14 5.104 13.104 6 12 6C10.896 6 10 5.104 10 4C10 2.896 10.896 2 12 2ZM20 16C17.791 16 16 17.791 16 20C16 22.209 17.791 24 20 24C22.209 24 24 22.209 24 20C24 17.791 22.209 16 20 16ZM20 22C18.896 22 18 21.104 18 20C18 18.896 18.896 18 20 18C21.104 18 22 18.896 22 20C22 21.104 21.104 22 20 22ZM4 16C1.791 16 0 17.791 0 20C0 22.209 1.791 24 4 24C6.209 24 8 22.209 8 20C8 17.791 6.209 16 4 16ZM4 22C2.896 22 2 21.104 2 20C2 18.896 2.896 18 4 18C5.104 18 6 18.896 6 20C6 21.104 5.104 22 4 22ZM17 16C17 15.673 16.832 15.396 16.59 15.214L16.6 15.2L13 12.5V10C13 9.447 12.553 9 12 9C11.447 9 11 9.447 11 10V12.5L7.4 15.2L7.41 15.214C7.167 15.396 7 15.673 7 16C7 16.553 7.447 17 8 17C8.226 17 8.423 16.912 8.59 16.786L8.6 16.8L12 14.25L15.4 16.8L15.41 16.786C15.577 16.912 15.774 17 16 17C16.553 17 17 16.553 17 16Z" fill="#73DFE7"/>
</svg>
