<svg width="24" height="24" viewBox="0 0 24 24" fill="none" xmlns="http://www.w3.org/2000/svg">
<path d="M22 10.184V10C22 4.478 17.523 0 12 0C6.477 0 2 4.478 2 10V10.184C0.837 10.597 0 11.695 0 13V15C0 16.657 1.343 18 3 18C4.657 18 6 16.657 6 15V13C6 11.695 5.163 10.597 4 10.184V10C4 5.582 7.582 2 12 2C16.418 2 20 5.582 20 10V10.184C18.837 10.597 18 11.696 18 13V15C18 16.305 18.837 17.403 20 17.816V19C20 19.553 19.552 20 19 20H17.816C17.402 18.838 16.304 18 15 18H13C11.343 18 10 19.343 10 21C10 22.657 11.343 24 13 24H15C16.304 24 17.403 23.162 17.816 22H19C20.657 22 22 20.657 22 19V17.816C23.163 17.403 24 16.304 24 15V13C24 11.695 23.163 10.597 22 10.184ZM4 15C4 15.552 3.552 16 3 16C2.448 16 2 15.552 2 15V13C2 12.447 2.448 12 3 12C3.552 12 4 12.447 4 13V15ZM15 22H13C12.448 22 12 21.553 12 21C12 20.447 12.448 20 13 20H15C15.552 20 16 20.447 16 21C16 21.553 15.552 22 15 22ZM22 15C22 15.552 21.552 16 21 16C20.448 16 20 15.552 20 15V13C20 12.447 20.448 12 21 12C21.552 12 22 12.447 22 13V15Z" fill="#73DFE7"/>
</svg>
