<svg width="24" height="24" viewBox="0 0 24 24" fill="none" xmlns="http://www.w3.org/2000/svg">
<path fill-rule="evenodd" clip-rule="evenodd" d="M20.707 7.293L13.707 0.293C13.526 0.112 13.276 0 13 0H4C3.447 0 3 0.447 3 1V23C3 23.553 3.447 24 4 24H20C20.553 24 21 23.553 21 23V8C21 7.724 20.888 7.474 20.707 7.293ZM14 3.414L17.586 7H14V3.414ZM19 22H5V2H12V8C12 8.553 12.447 9 13 9H19V22ZM8 8H9C9.552 8 10 7.553 10 7C10 6.447 9.552 6 9 6H8C7.447 6 7 6.447 7 7C7 7.553 7.447 8 8 8ZM7 11C7 11.553 7.447 12 8 12H16C16.553 12 17 11.553 17 11C17 10.447 16.553 10 16 10H8C7.447 10 7 10.447 7 11ZM16 14H8C7.447 14 7 14.447 7 15C7 15.553 7.447 16 8 16H16C16.553 16 17 15.553 17 15C17 14.447 16.553 14 16 14ZM16 18H8C7.447 18 7 18.447 7 19C7 19.553 7.447 20 8 20H16C16.553 20 17 19.553 17 19C17 18.447 16.553 18 16 18Z" fill="#73DFE7"/>
</svg>
