<svg width="24" height="24" viewBox="0 0 24 24" fill="none" xmlns="http://www.w3.org/2000/svg">
<path d="M16.229 12.284C15.824 11.88 15.166 11.88 14.76 12.284L13.494 13.421C12.934 13.114 12.359 12.695 11.821 12.159C11.283 11.623 10.863 11.05 10.555 10.491L11.664 9.229C12.069 8.825 12.069 8.169 11.664 7.765L10.351 6.3C9.946 5.896 9.288 5.896 8.882 6.3C7.259 7.917 7.916 11.196 10.351 13.623C12.786 16.049 16.075 16.705 17.698 15.087C18.103 14.683 18.103 14.027 17.698 13.623L16.229 12.284ZM13 0C6.925 0 2 4.925 2 11C2 12.668 2.396 14.234 3.063 15.648L0.082 22.606C0.029 22.728 0 22.86 0 23C0 23.553 0.447 24 1 24C1.141 24 1.27 23.963 1.39 23.91L1.394 23.919L8.352 20.938C9.766 21.604 11.332 22 13 22C19.075 22 24 17.075 24 11C24 4.925 19.075 0 13 0ZM13 20C11.376 20 9.856 19.563 8.541 18.811L2.904 21.096L5.189 15.459C4.437 14.144 4 12.624 4 11C4 6.029 8.029 2 13 2C17.971 2 22 6.029 22 11C22 15.971 17.971 20 13 20Z" fill="#73DFE7"/>
</svg>
