<svg width="24" height="24" viewBox="0 0 24 24" fill="none" xmlns="http://www.w3.org/2000/svg">
<path d="M16 12C16.553 12 17 11.328 17 10.5C17 9.672 16.553 9 16 9C15.447 9 15 9.672 15 10.5C15 11.328 15.447 12 16 12ZM8 12C8.553 12 9 11.328 9 10.5C9 9.672 8.553 9 8 9C7.447 9 7 9.672 7 10.5C7 11.328 7.447 12 8 12ZM12 0C5.372 0 0 5.373 0 12C0 18.627 5.372 24 12 24C18.627 24 24 18.627 24 12C24 5.373 18.627 0 12 0ZM12 22C6.478 22 2 17.522 2 12C2 6.478 6.478 2 12 2C17.522 2 22 6.478 22 12C22 17.522 17.522 22 12 22ZM18.482 14.125C18.003 13.849 17.392 14.013 17.116 14.491C16.012 16.404 14.209 17 12 17C9.791 17 7.988 16.404 6.884 14.491C6.608 14.012 5.996 13.848 5.518 14.125C5.04 14.401 4.876 15.013 5.153 15.491C6.809 18.361 8.687 19 12 19C15.313 19 17.191 18.361 18.848 15.491C19.124 15.013 18.96 14.401 18.482 14.125Z" fill="#73DFE7"/>
</svg>
